<svg xmlns="http://www.w3.org/2000/svg" xmlns:xlink="http://www.w3.org/1999/xlink" width="103.099" height="103.099" viewBox="0 0 103.099 103.099">
  <defs>
    <filter id="Path_874925" x="0" y="0" width="103.099" height="103.099" filterUnits="userSpaceOnUse">
      <feOffset dy="3" input="SourceAlpha"/>
      <feGaussianBlur stdDeviation="3" result="blur"/>
      <feFlood flood-opacity="0.161"/>
      <feComposite operator="in" in2="blur"/>
      <feComposite in="SourceGraphic"/>
    </filter>
  </defs>
  <g id="Group_1111483" data-name="Group 1111483" transform="translate(-754.781 -1027.91)">
    <g id="Group_1111211" data-name="Group 1111211" transform="translate(763.781 1033.91)">
      <g transform="matrix(1, 0, 0, 1, -9, -6)" filter="url(#Path_874925)">
        <g id="Path_874925-2" data-name="Path 874925" transform="translate(9 6)" fill="#ffd63c">
          <path d="M 42.54928970336914 83.59907531738281 C 37.00700759887695 83.59907531738281 31.63131332397461 82.51394653320312 26.57151412963867 80.37384033203125 C 21.68357276916504 78.30640411376953 17.29344177246094 75.34638977050781 13.52306652069092 71.57601928710938 C 9.752689361572266 67.80564117431641 6.792677879333496 63.41549682617188 4.725242614746094 58.52755737304688 C 2.585136651992798 53.46776962280273 1.500007390975952 48.09206390380859 1.500007390975952 42.54978179931641 C 1.500007390975952 37.00700378417969 2.585136651992798 31.63130950927734 4.725242614746094 26.57151031494141 C 6.792677879333496 21.68356895446777 9.752689361572266 17.2934398651123 13.52306652069092 13.52306365966797 C 17.29344177246094 9.752686500549316 21.68357276916504 6.792675018310547 26.57151412963867 4.725239753723145 C 31.63131332397461 2.585133790969849 37.00700759887695 1.500004410743713 42.54928970336914 1.500004410743713 C 48.09157180786133 1.500004410743713 53.46727752685547 2.585133790969849 58.52706527709961 4.725239753723145 C 63.41500854492188 6.792675018310547 67.80514526367188 9.752686500549316 71.57552337646484 13.52306365966797 C 75.34590148925781 17.2934398651123 78.30591583251953 21.68356895446777 80.37335205078125 26.57151031494141 C 82.51345062255859 31.63130950927734 83.59858703613281 37.00700378417969 83.59858703613281 42.54928588867188 C 83.59858703613281 48.09206390380859 82.51345062255859 53.46776962280273 80.37335205078125 58.52755737304688 C 78.30591583251953 63.41549682617188 75.34590148925781 67.80564117431641 71.57552337646484 71.57601928710938 C 67.80514526367188 75.34638977050781 63.41500854492188 78.30640411376953 58.52706527709961 80.37384033203125 C 53.46727752685547 82.51394653320312 48.09157180786133 83.59907531738281 42.54928970336914 83.59907531738281 Z" stroke="none"/>
          <path d="M 42.54928970336914 3 C 37.2088508605957 3 32.02974319458008 4.045265197753906 27.15583801269531 6.10675048828125 C 22.44670486450195 8.098548889160156 18.21681976318359 10.95061492919922 14.58371734619141 14.58371734619141 C 10.95060729980469 18.21682739257812 8.098541259765625 22.44669342041016 6.106742858886719 27.15584182739258 C 4.045265197753906 32.02974700927734 3 37.20885467529297 3 42.54978561401367 C 3 47.89022827148438 4.045265197753906 53.06933212280273 6.106742858886719 57.94322967529297 C 8.098541259765625 62.65237426757812 10.95060729980469 66.88224029541016 14.58371734619141 70.51535034179688 C 18.21681976318359 74.14845275878906 22.44670486450195 77.00051879882812 27.15583801269531 78.99231719970703 C 32.02974319458008 81.05380249023438 37.2088508605957 82.09906768798828 42.54928970336914 82.09906768798828 C 47.88972854614258 82.09906768798828 53.0688362121582 81.05380249023438 57.94274139404297 78.99231719970703 C 62.65188980102539 77.00051879882812 66.88175964355469 74.14845275878906 70.51486206054688 70.51535034179688 C 74.14797210693359 66.88224029541016 77.00003814697266 62.65237426757812 78.99183654785156 57.94322967529297 C 81.05331420898438 53.06933212280273 82.09857940673828 47.89022827148438 82.09857940673828 42.54929351806641 C 82.09857940673828 37.20885467529297 81.05331420898438 32.02974700927734 78.99183654785156 27.15584182739258 C 77.00003814697266 22.44669342041016 74.14797210693359 18.21682739257812 70.51486206054688 14.58371734619141 C 66.88175964355469 10.95061492919922 62.65188980102539 8.098548889160156 57.94274139404297 6.10675048828125 C 53.0688362121582 4.045265197753906 47.88972854614258 3 42.54928970336914 3 M 42.54928970336914 0 C 66.04862213134766 0 85.09857940673828 19.04995727539062 85.09857940673828 42.54929351806641 L 85.09857940673828 42.54978561401367 C 85.09857940673828 66.04910278320312 66.04862213134766 85.09906768798828 42.54928970336914 85.09906768798828 C 19.04997253417969 85.09906768798828 0 66.04910278320312 0 42.54978561401367 L 0 42.54929351806641 C 0 19.04995727539062 19.04997253417969 0 42.54928970336914 0 Z" stroke="none" fill="#fff"/>
        </g>
      </g>
    </g>
    <g id="Filled_outline" data-name="Filled outline" transform="translate(786.268 1055.523)">
      <path id="Path_900255" data-name="Path 900255" d="M7.373,3H3V45.271h8.746c0-1.34-.259-2.316-1.458-2.915L7.373,40.9v-15.3c0-2.915-.322-5.982,4.368-9.47.018-.015-.019.014,0,0,2.181-1.6,7.293-2.191,10.937,1.453,5.052,5.052,18.22,1.458,22.593-2.186V3Z" transform="translate(-2.271 -2.271)" fill="#f0f0d9"/>
      <path id="Path_900256" data-name="Path 900256" d="M23,32.666v5.622h4.373V31A5.287,5.287,0,0,1,23,32.666Z" transform="translate(-7.695 -9.865)" fill="#50b4f8"/>
      <path id="Path_900257" data-name="Path 900257" d="M14.458,32.915A4.063,4.063,0,0,1,13,33.027v4.99h4.373V30A4.463,4.463,0,0,1,14.458,32.915Z" transform="translate(-4.983 -9.593)" fill="#50b4f8"/>
      <path id="Path_900258" data-name="Path 900258" d="M25.034,22.612a6.662,6.662,0,0,1-.729-.619c-3.644-3.644-8.756-3.056-10.937-1.453C9.5,23.418,9.042,26.009,9,28.466v.086a4.227,4.227,0,0,0,4.373,1.458,4.463,4.463,0,0,0,2.915-2.915,4.285,4.285,0,0,0,2.186,2.186c1.988.809,4.062-.4,5.1-1.458a6.03,6.03,0,0,0,1.458-5.1Z" transform="translate(-3.898 -6.687)" fill="#f98c96"/>
      <path id="Path_900259" data-name="Path 900259" d="M53.746,39h-5.83L45,43.373v10.2a1.458,1.458,0,0,0,1.458,1.458H55.2a1.458,1.458,0,0,0,1.458-1.458v-10.2Z" transform="translate(-13.661 -12.034)" fill="#f0f0d9"/>
      <path id="Path_900260" data-name="Path 900260" d="M49,35h5.83v2.915H49Z" transform="translate(-14.746 -10.949)" fill="#2d75bb"/>
      <path id="Path_900261" data-name="Path 900261" d="M51,31a2.915,2.915,0,0,1,2.915,2.915H51Z" transform="translate(-15.288 -9.865)" fill="#50b4f8"/>
      <path id="Path_900262" data-name="Path 900262" d="M30.763,36.83v5.1a5.83,5.83,0,0,1-5.83,5.83H23.475a2.915,2.915,0,0,1-2.915-2.915A3.644,3.644,0,0,0,24.2,41.2V38.288H21.288v1.458a2.186,2.186,0,0,1-4.373,0V38.288H14V41.2a3.644,3.644,0,0,0,3.644,3.644,5.83,5.83,0,0,0,5.83,5.83h1.458a8.746,8.746,0,0,0,8.746-8.746v-5.1a2.915,2.915,0,0,1,2.915-2.915h4.373V31H36.593A5.83,5.83,0,0,0,30.763,36.83Z" transform="translate(-5.254 -9.865)" fill="#7fcac9"/>
      <path id="Path_900263" data-name="Path 900263" d="M13,37h4.373v2.915H13Z" transform="translate(-4.983 -11.492)" fill="#2d75bb"/>
      <path id="Path_900264" data-name="Path 900264" d="M23,37h4.373v2.915H23Z" transform="translate(-7.695 -11.492)" fill="#2d75bb"/>
      <g id="Group_1111457" data-name="Group 1111457" transform="translate(0.729 0.729)">
        <path id="Path_900265" data-name="Path 900265" d="M3,19.034a9.11,9.11,0,0,1,2.915-4.373c3.539-2.775,7.731-.982,9.475-3.644a4.027,4.027,0,0,0,0-4.373c-.794-1.093-2.56-.292-3.644-1.458A3.212,3.212,0,0,1,11.017,3H3Z" transform="translate(-3 -3)" fill="#394d5c"/>
        <path id="Path_900266" data-name="Path 900266" d="M24,3a8.08,8.08,0,0,0,1.458,5.1A8.068,8.068,0,0,0,34.2,11.017c1.564-.59,1.807-1.564,2.915-1.458,1.946.187,1.949,3.258,4.373,4.373,2.186,1.006,4.991-.2,6.559-1.458a8.33,8.33,0,0,0,2.915-6.559V3Z" transform="translate(-8.69 -3)" fill="#394d5c"/>
        <path id="Path_900267" data-name="Path 900267" d="M10.288,55.915,7.373,54.458V53H3v5.83h8.746C11.746,57.49,11.486,56.514,10.288,55.915Z" transform="translate(-3 -16.56)" fill="#394d5c"/>
      </g>
      <path id="Path_900268" data-name="Path 900268" d="M45,2H2.729A.729.729,0,0,0,2,2.729V45a.729.729,0,0,0,.729.729h8.746A.729.729,0,0,0,12.2,45a3.525,3.525,0,0,0-1.861-3.571L7.83,40.176V25.458a4.981,4.981,0,0,0,1.458.6v4.363a.729.729,0,0,0,.729.729v2.186A4.381,4.381,0,0,0,13.7,37.657a6.569,6.569,0,0,0,6.525,5.885h1.458a9.485,9.485,0,0,0,9.475-9.475v-5.1a2.186,2.186,0,0,1,2.186-2.186h2.186v1.968l-2.793,4.189a.733.733,0,0,0-.122.4v10.2A2.186,2.186,0,0,0,34.8,45.729h8.746a2.186,2.186,0,0,0,2.186-2.186v-10.2a.733.733,0,0,0-.122-.4l-2.793-4.187v-2.7a.729.729,0,0,0-.729-.729h-.8a3.651,3.651,0,0,0-3.571-2.915H33.339a6.567,6.567,0,0,0-6.559,6.559v5.1a5.108,5.108,0,0,1-5.1,5.1H20.22a2.19,2.19,0,0,1-2.087-1.536,4.382,4.382,0,0,0,3.545-4.295V31.152a.729.729,0,0,0,.729-.729V23.412a6.438,6.438,0,0,0,1.537-4.128c3.265,1.643,7.566,1.323,10.13.908,4.434-.716,9.012-2.531,11.392-4.514a.729.729,0,0,0,.262-.56V2.729A.729.729,0,0,0,45,2ZM3.458,3.458h6.61a3.514,3.514,0,0,0,.875,1.953,3.56,3.56,0,0,0,2.4.988c.628.073.994.132,1.19.4a3.326,3.326,0,0,1-.02,3.545c-.7,1.071-1.99,1.246-3.623,1.466a10.812,10.812,0,0,0-5.691,2,8.673,8.673,0,0,0-1.739,1.838ZM9.691,42.74a1.722,1.722,0,0,1,1.017,1.53H3.458V39.9H6.373v.729a.729.729,0,0,0,.4.656Zm1.055-13.046V28.237h2.915v1.458Zm0-2.915v-.609a4.747,4.747,0,0,0,.92-.146,4.61,4.61,0,0,0,2-1.134v1.888ZM44.271,43.542a.729.729,0,0,1-.729.729H34.8a.729.729,0,0,1-.729-.729V34.068h10.2ZM43.638,32.61H34.7l1.944-2.915h5.051Zm-5.2-8.621a2.2,2.2,0,0,1,1.333,1.333H38.44Zm2.915,2.791v1.458H36.983V26.779ZM20.22,33.339A2.915,2.915,0,0,1,17.3,36.254a.729.729,0,0,0-.729.729,3.648,3.648,0,0,0,3.644,3.644h1.458a6.567,6.567,0,0,0,6.559-6.559v-5.1a5.108,5.108,0,0,1,5.1-5.1h3.644v1.458H33.339a3.648,3.648,0,0,0-3.644,3.644v5.1a8.026,8.026,0,0,1-8.017,8.017H20.22a5.108,5.108,0,0,1-5.1-5.1.729.729,0,0,0-.729-.729,2.915,2.915,0,0,1-2.915-2.915V31.152h1.458v.729a2.915,2.915,0,1,0,5.83,0v-.729H20.22ZM17.3,31.152v.729a1.458,1.458,0,1,1-2.915,0v-.729a.729.729,0,0,0,.729-.729V24.548a4.46,4.46,0,0,0,1.183.721c.091.036.183.066.275.1v5.059A.729.729,0,0,0,17.3,31.152Zm3.644-1.458H18.034V28.237h2.915Zm0-2.915H18.034v-1.2a5.851,5.851,0,0,0,2.915-.931Zm.209-4.154c-.794.808-2.6,1.987-4.307,1.294a3.508,3.508,0,0,1-1.732-1.681V19.491H13.661v2.8a3.717,3.717,0,0,1-2.377,2.332,3.476,3.476,0,0,1-3.448-1.033C7.9,21.3,8.4,19.044,11.9,16.441a8.135,8.135,0,0,1,9.989,1.385c.176.176.364.335.551.49a5.227,5.227,0,0,1-1.284,4.309Zm23.113-7.856c-4.519,3.484-16.817,6.553-21.349,2.02-3.853-3.853-9.367-3.366-11.88-1.53l-.005.005-.01.008c-4.7,3.5-4.675,6.7-4.654,9.526V38.44H3.458V18.9a8.249,8.249,0,0,1,2.636-3.936,9.521,9.521,0,0,1,4.988-1.706c1.841-.249,3.581-.485,4.647-2.114a4.742,4.742,0,0,0-.02-5.2,2.872,2.872,0,0,0-2.193-.992,2.275,2.275,0,0,1-1.5-.532,1.991,1.991,0,0,1-.453-.962H17.3a8.623,8.623,0,0,0,1.6,4.8c2.148,2.932,6.45,4.352,9.592,3.167a6.072,6.072,0,0,0,1.69-1c.437-.339.588-.442.9-.417.583.056.92.583,1.464,1.508a6.174,6.174,0,0,0,2.674,2.8,5.01,5.01,0,0,0,2.109.437,8.8,8.8,0,0,0,5.21-1.99,8.055,8.055,0,0,0,1.735-1.913Zm0-8.772a7.559,7.559,0,0,1-2.641,5.637c-1.542,1.232-4.016,2.186-5.8,1.365A4.874,4.874,0,0,1,33.8,10.784c-.6-1.028-1.229-2.091-2.581-2.221a2.551,2.551,0,0,0-1.935.719,4.576,4.576,0,0,1-1.307.781A7.4,7.4,0,0,1,20.08,7.4a7.056,7.056,0,0,1-1.317-3.942H44.271Z" transform="translate(-2 -2)"/>
      <path id="Path_900269" data-name="Path 900269" d="M56,52h1.458v4.373H56Z" transform="translate(-16.644 -15.56)"/>
      <path id="Path_900270" data-name="Path 900270" d="M56,48h1.458v1.458H56Z" transform="translate(-16.644 -14.475)"/>
      <path id="Path_900271" data-name="Path 900271" d="M56,6h1.458V7.458H56Z" transform="translate(-16.644 -3.085)"/>
      <path id="Path_900272" data-name="Path 900272" d="M52,10h1.458v1.458H52Z" transform="translate(-15.56 -4.17)"/>
    </g>
  </g>
</svg>
