<svg xmlns="http://www.w3.org/2000/svg" xmlns:xlink="http://www.w3.org/1999/xlink" width="109.652" height="109.652" viewBox="0 0 109.652 109.652">
  <defs>
    <filter id="Trazado_874925" x="0" y="0" width="109.652" height="109.652" filterUnits="userSpaceOnUse">
      <feOffset dy="3" input="SourceAlpha"/>
      <feGaussianBlur stdDeviation="3" result="blur"/>
      <feFlood flood-opacity="0.161"/>
      <feComposite operator="in" in2="blur"/>
      <feComposite in="SourceGraphic"/>
    </filter>
    <clipPath id="clip-path">
      <path id="path6351" d="M0-682.665H54.322v54.322H0Z" transform="translate(0 682.665)"/>
    </clipPath>
  </defs>
  <g id="Grupo_1111636" data-name="Grupo 1111636" transform="translate(-424 -1743)">
    <g id="Grupo_1111413" data-name="Grupo 1111413" transform="translate(-586.73 -1328)">
      <g transform="matrix(1, 0, 0, 1, 1010.73, 3071)" filter="url(#Trazado_874925)">
        <g id="Trazado_874925-2" data-name="Trazado 874925" transform="translate(9 6)" fill="#ffd63c">
          <path d="M 45.82614517211914 90.15280151367188 C 39.84149551391602 90.15280151367188 34.03665924072266 88.98104095458984 28.5728702545166 86.67005157470703 C 23.29473304748535 84.43759155273438 18.55415725708008 81.24130249023438 14.48283290863037 77.16998291015625 C 10.41150760650635 73.09866333007812 7.215232849121094 68.35809326171875 4.982757568359375 63.07994079589844 C 2.671770095825195 57.61616897583008 1.500007629394531 51.81131744384766 1.500007629394531 45.82666778564453 C 1.500007629394531 39.84149169921875 2.671770095825195 34.03665542602539 4.982757568359375 28.57286643981934 C 7.215232849121094 23.29472923278809 10.41150760650635 18.55415534973145 14.48283290863037 14.48283004760742 C 18.55415725708008 10.4115047454834 23.29473304748535 7.215229511260986 28.5728702545166 4.982754707336426 C 34.03665924072266 2.671766996383667 39.84149551391602 1.500004529953003 45.82614517211914 1.500004529953003 C 51.81079483032227 1.500004529953003 57.61564636230469 2.671766996383667 63.07942199707031 4.982754707336426 C 68.35756683349609 7.215229511260986 73.09814453125 10.4115047454834 77.16947174072266 14.48283004760742 C 81.24078369140625 18.55415534973145 84.43707275390625 23.29472923278809 86.66954803466797 28.57286643981934 C 88.98052978515625 34.03665542602539 90.15229797363281 39.84149169921875 90.15229797363281 45.82614135742188 C 90.15229797363281 51.81131744384766 88.98052978515625 57.61616897583008 86.66954803466797 63.07994079589844 C 84.43707275390625 68.35809326171875 81.24078369140625 73.09866333007812 77.16947174072266 77.16998291015625 C 73.09814453125 81.24130249023438 68.35756683349609 84.43759155273438 63.07942199707031 86.67005157470703 C 57.61564636230469 88.98104095458984 51.81079483032227 90.15280151367188 45.82614517211914 90.15280151367188 Z" stroke="none"/>
          <path d="M 45.82614517211914 3.000007629394531 C 40.04333114624023 3.000007629394531 34.43508911132812 4.131904602050781 29.15720367431641 6.364265441894531 C 24.05784606933594 8.521102905273438 19.47753143310547 11.60944366455078 15.54348754882812 15.54348754882812 C 11.60944366455078 19.47753143310547 8.521102905273438 24.05784606933594 6.3642578125 29.15720367431641 C 4.131904602050781 34.43508911132812 3 40.0433349609375 3 45.82667541503906 C 3 51.60948944091797 4.131904602050781 57.21773147583008 6.3642578125 62.49562072753906 C 8.521102905273438 67.59497833251953 11.60944366455078 72.17527770996094 15.54348754882812 76.10932922363281 C 19.47753143310547 80.04337310791016 24.05784606933594 83.13170623779297 29.15718841552734 85.28854370117188 C 34.43508911132812 87.52090454101562 40.04333114624023 88.65280151367188 45.82614517211914 88.65280151367188 C 51.60895919799805 88.65280151367188 57.21720123291016 87.52090454101562 62.49510192871094 85.28854370117188 C 67.59444427490234 83.13170623779297 72.17475891113281 80.04337310791016 76.10880279541016 76.10932922363281 C 80.0428466796875 72.17527770996094 83.13118743896484 67.59497833251953 85.28803253173828 62.49562072753906 C 87.5203857421875 57.21773147583008 88.65229034423828 51.60948944091797 88.65229034423828 45.82614898681641 C 88.65229034423828 40.0433349609375 87.5203857421875 34.43508911132812 85.28803253173828 29.15720367431641 C 83.13118743896484 24.05784606933594 80.0428466796875 19.47753143310547 76.10880279541016 15.54348754882812 C 72.17475891113281 11.60944366455078 67.59444427490234 8.521102905273438 62.49508666992188 6.364265441894531 C 57.21720123291016 4.131904602050781 51.60895919799805 3.000007629394531 45.82614517211914 3.000007629394531 M 45.82614517211914 7.62939453125e-06 C 71.13523101806641 7.62939453125e-06 91.65229034423828 20.51705932617188 91.65229034423828 45.82614898681641 L 91.65229034423828 45.82667541503906 C 91.65229034423828 71.13575744628906 71.13523101806641 91.65280151367188 45.82614517211914 91.65280151367188 C 20.51705932617188 91.65280151367188 0 71.13575744628906 0 45.82667541503906 L 0 45.82614898681641 C 0 20.51705932617188 20.51705932617188 7.62939453125e-06 45.82614517211914 7.62939453125e-06 Z" stroke="none" fill="#fff"/>
        </g>
      </g>
    </g>
    <g id="g6345" transform="translate(451.665 2450.33)">
      <g id="g6347" transform="translate(0 -682.665)">
        <g id="g6349" clip-path="url(#clip-path)">
          <g id="g6355" transform="translate(15.477 0.605)">
            <path id="path6357" d="M-440.984-99.44a.424.424,0,0,1-.007.592l-7.073,7.079a4.824,4.824,0,0,0-1.268,2.239l-2.191,8.741a5.188,5.188,0,0,1-1.364,2.407l-3.563,3.563a2.181,2.181,0,0,1-3.085,0,2.181,2.181,0,0,1,0-3.085l3.036-3.036-2.16,2.16-9.013,9.013a2.181,2.181,0,0,1-3.085,0,2.181,2.181,0,0,1,0-3.085l7.47-7.47-8.976,8.976a2.216,2.216,0,0,1-3.065.092,2.182,2.182,0,0,1-.057-3.14l9.013-9.013-7.47,7.47a2.181,2.181,0,0,1-3.085,0,2.182,2.182,0,0,1,0-3.085l7.47-7.47-5.888,5.888a2.218,2.218,0,0,1-3.017.141,2.171,2.171,0,0,1-.746-1.644,2.169,2.169,0,0,1,.638-1.543l7.967-7.967a8.835,8.835,0,0,1,2.374-1.693l6.2-3.026A9.223,9.223,0,0,0-459.45-98.1l9.809-9.809a.424.424,0,0,1,.608.008Z" transform="translate(479.108 108.036)" fill="#fed2a4"/>
          </g>
          <g id="g6359" transform="translate(15.477 0.605)">
            <path id="path6361" d="M-440.984-99.44a.424.424,0,0,1-.007.592l-7.073,7.079a4.824,4.824,0,0,0-1.268,2.239l-2.191,8.741a5.188,5.188,0,0,1-1.364,2.407l-3.563,3.563a2.181,2.181,0,0,1-3.085,0,2.181,2.181,0,0,1,0-3.085l3.036-3.036-2.16,2.16-9.013,9.013a2.181,2.181,0,0,1-3.085,0,2.181,2.181,0,0,1,0-3.085l7.47-7.47-8.976,8.976a2.216,2.216,0,0,1-3.065.092,2.182,2.182,0,0,1-.057-3.14l9.013-9.013-7.47,7.47a2.181,2.181,0,0,1-3.085,0,2.182,2.182,0,0,1,0-3.085l7.47-7.47-5.888,5.888a2.218,2.218,0,0,1-3.017.141,2.171,2.171,0,0,1-.746-1.644,2.169,2.169,0,0,1,.638-1.543l7.967-7.967a8.835,8.835,0,0,1,2.374-1.693l6.2-3.026A9.223,9.223,0,0,0-459.45-98.1l9.809-9.809a.424.424,0,0,1,.608.008Z" transform="translate(479.108 108.036)" fill="#fed2a4"/>
          </g>
          <g id="g6363" transform="translate(15.548 21.059)">
            <path id="path6365" d="M0-69.776a2.17,2.17,0,0,0,.636,1.052,2.257,2.257,0,0,0,3.055-.106l5.117-5.117a1.091,1.091,0,0,0,0-1.543,1.091,1.091,0,0,0-1.543,0L2.149-70.372a2.26,2.26,0,0,1-2.149.6" transform="translate(0 75.808)" fill="#ffbd86"/>
          </g>
          <g id="g6367" transform="translate(17.114 24.211)">
            <path id="path6369" d="M0-87.785a2.17,2.17,0,0,0,.543.9h0a2.181,2.181,0,0,0,3.085,0l6.746-6.746a1.023,1.023,0,0,0,0-1.447,1.023,1.023,0,0,0-1.447,0L2.181-88.329A2.181,2.181,0,0,1,0-87.785" transform="translate(0 95.375)" fill="#ffbd86"/>
          </g>
          <g id="g6371" transform="translate(34.615 0.607)">
            <path id="path6373" d="M-219.612-99.424l-8.049-8.465a.423.423,0,0,0-.5-.082l.347.4a10.678,10.678,0,0,1-.468,14.6,4.824,4.824,0,0,0-1.268,2.239L-231.743-82a5.19,5.19,0,0,1-1.364,2.407l-3.563,3.563a2.178,2.178,0,0,1-1.927.6,2.172,2.172,0,0,0,.434.623,2.181,2.181,0,0,0,3.085,0l3.563-3.563a5.189,5.189,0,0,0,1.364-2.407l2.191-8.741a4.824,4.824,0,0,1,1.268-2.239l7.073-7.079a.424.424,0,0,0,.007-.592" transform="translate(238.598 108.019)" fill="#ffbd86"/>
          </g>
          <g id="g6375" transform="translate(18.76 27.388)">
            <path id="path6377" d="M-138.207-3.377a.9.9,0,0,0-1.295-.037l-8.684,8.425a2.259,2.259,0,0,1-1.97.631,2.177,2.177,0,0,0,.5.688,2.206,2.206,0,0,0,2.837.1l8.587-8.558a.9.9,0,0,0,.027-1.253" transform="translate(150.156 3.669)" fill="#ffbd86"/>
          </g>
          <g id="g6379" transform="translate(23.393 26.997)">
            <path id="path6381" d="M-155.208-1.127a1,1,0,0,0-1.135.195L-166.7,9.426a2.178,2.178,0,0,1-1.927.6,2.173,2.173,0,0,0,.434.623,2.181,2.181,0,0,0,3.085,0L-154.933.478a1,1,0,0,0-.275-1.605" transform="translate(168.626 1.225)" fill="#ffbd86"/>
          </g>
          <g id="g6383" transform="translate(2.603 29.44)">
            <path id="path6385" d="M-20.687-.956c2.222.312,2.643,1.4,5.587,1.4,3.437,0,3.437-1.485,6.873-1.485S-4.792.447-1.355.447,2.081-1.039,5.517-1.039,8.954.447,12.391.447s3.437-1.485,6.874-1.485c2.816,0,3.324,1,5.307,1.358l.65,3.371L21.738,19.1l-5.493,2.814h-31.8l-3.435-4.387L-22.476-.918Z" transform="translate(22.476 1.039)" fill="#b3dafe"/>
          </g>
          <g id="g6387" transform="translate(17.018 29.44)">
            <path id="path6389" d="M-7.391-2.076a2.181,2.181,0,0,0,0,3.085h0a2.181,2.181,0,0,0,3.085,0L-5.848,2.551a2.182,2.182,0,0,0,.057,3.14A2.216,2.216,0,0,0-2.726,5.6l1.506-1.506A2.181,2.181,0,0,0,1.864,7.179L10.12-1.077C8.693-1.512,7.982-2.256,5.548-2.256c-3.436,0-3.436,1.485-6.873,1.485-3.089,0-3.4-1.2-5.93-1.442Z" transform="translate(8.03 2.256)" fill="#eaf6ff"/>
          </g>
          <g id="g6391" transform="translate(23.393 29.825)">
            <path id="path6393" d="M-136.2-9.188c-.755-.23-1.31-.547-2.026-.794l-7.821,7.823a2.178,2.178,0,0,1-1.927.6h0a2.191,2.191,0,0,0,.434.623,2.143,2.143,0,0,0,.787.5,2.193,2.193,0,0,0,2.3-.5Z" transform="translate(147.972 9.983)" fill="#d8ecfe"/>
          </g>
          <g id="g6395" transform="translate(18.76 29.449)">
            <path id="path6397" d="M-131.9,0a7.527,7.527,0,0,0-3.088.769l-.134.057-.049.021-.108.045-.074.03-.074.03-.106.042-.005,0c-1.278.955-6.331,7.071-7.765,6.253a2.177,2.177,0,0,0,.5.688,2.216,2.216,0,0,0,3.065-.092l1.506-1.505a2.171,2.171,0,0,0-.486.74L-131.9,0" transform="translate(143.306)" fill="#d8ecfe"/>
          </g>
          <g id="g6399" transform="translate(17.114 30.208)">
            <path id="path6401" d="M-10.241-32.113A2.182,2.182,0,0,0-7.5-32.392h0l1.844-1.844A7.411,7.411,0,0,1-7.9-34.889l-1.05,1.05a2.181,2.181,0,0,1-2.181.543h0c.015.05.033.1.052.148a2.188,2.188,0,0,0,.491.755h0a2.157,2.157,0,0,0,.342.279" transform="translate(11.127 34.889)" fill="#d8ecfe"/>
          </g>
          <g id="g6403" transform="translate(34.41 29.707)">
            <path id="path6405" d="M-89.834,0c-1.519.427-2.2,1.218-4.707,1.218a7.66,7.66,0,0,1-2.3-.306l-.119.119a2.181,2.181,0,0,0,0,3.085,2.181,2.181,0,0,0,3.085,0L-90.313.553A5.178,5.178,0,0,0-89.834,0" transform="translate(97.6)" fill="#eaf6ff"/>
          </g>
          <g id="g6407" transform="translate(34.615 29.707)">
            <path id="path6409" d="M-84.828-3.266q.119-.138.228-.282a7.651,7.651,0,0,0-.784.272,8.776,8.776,0,0,1-3.15.918l-1.7,1.7a2.178,2.178,0,0,1-1.927.6h0a2.173,2.173,0,0,0,.434.623,2.181,2.181,0,0,0,3.085,0h0L-86.175-1.9l1.1-1.1q.13-.13.249-.268l0,0" transform="translate(92.161 3.548)" fill="#d8ecfe"/>
          </g>
          <g id="g6411" transform="translate(0.796 27.065)">
            <path id="path6413" d="M-500.1-306.079h-33.74a5.054,5.054,0,0,1-4.961-4l-4.494-20.394a1.7,1.7,0,0,1,1.288-2.027,1.694,1.694,0,0,1,2.02,1.293l4.493,20.394a1.685,1.685,0,0,0,1.654,1.333h33.74a1.685,1.685,0,0,0,1.654-1.333l4.493-20.394a1.693,1.693,0,0,1,2.02-1.293,1.7,1.7,0,0,1,1.288,2.027l-4.494,20.394a5.054,5.054,0,0,1-4.961,4" transform="translate(543.34 332.541)" fill="#eaf6ff"/>
          </g>
          <g id="g6415" transform="translate(6.566 27.065)">
            <path id="path6417" d="M-527.822-.469a1.693,1.693,0,0,0-2.02,1.293l-4.494,20.394a1.692,1.692,0,0,1-.737,1.064,5.043,5.043,0,0,1-4.1,2.078h-33.74a5.192,5.192,0,0,1-.542-.029,5.047,5.047,0,0,0,3.725,1.621h33.74a5.054,5.054,0,0,0,4.961-4l4.494-20.394a1.7,1.7,0,0,0-1.288-2.027" transform="translate(573.453 0.509)" fill="#d8ecfe"/>
          </g>
          <g id="g6419" transform="translate(12.148 17.029)">
            <path id="path6421" d="M-60.134-30.067a2.6,2.6,0,0,1-2.6,2.6,2.6,2.6,0,0,1-2.6-2.6,2.6,2.6,0,0,1,2.6-2.6,2.6,2.6,0,0,1,2.6,2.6" transform="translate(65.333 32.667)" fill="#eaf6ff"/>
          </g>
          <g id="g6423" transform="translate(9.522 6.445)">
            <path id="path6425" d="M-46.029-23.014a1.99,1.99,0,0,1-1.99,1.99,1.99,1.99,0,0,1-1.99-1.99A1.99,1.99,0,0,1-48.018-25a1.99,1.99,0,0,1,1.99,1.99" transform="translate(50.008 25.004)" fill="#eaf6ff"/>
          </g>
          <g id="g6427" transform="translate(24.31 0.796)">
            <path id="path6429" d="M-74.314-37.156a3.212,3.212,0,0,1-3.212,3.212,3.212,3.212,0,0,1-3.212-3.212,3.212,3.212,0,0,1,3.212-3.212,3.212,3.212,0,0,1,3.212,3.212" transform="translate(80.738 40.368)" fill="#eaf6ff"/>
          </g>
          <g id="g6431" transform="translate(0.796 27.065)">
            <path id="path6433" d="M-540.89-153.04l2.621-11.9a1.693,1.693,0,0,1,2.02-1.293,1.7,1.7,0,0,1,1.288,2.027l-4.494,20.394a5.054,5.054,0,0,1-4.961,4h-33.74a5.054,5.054,0,0,1-4.961-4L-587.61-164.2a1.7,1.7,0,0,1,1.288-2.027,1.694,1.694,0,0,1,2.02,1.293l4.494,20.394a1.685,1.685,0,0,0,1.654,1.333h33.74a1.685,1.685,0,0,0,1.654-1.333l1.152-5.23" transform="translate(587.651 166.27)" fill="none" stroke="#000" stroke-linecap="round" stroke-linejoin="round" stroke-miterlimit="10" stroke-width="2"/>
          </g>
          <g id="g6435" transform="translate(12.148 17.029)">
            <path id="path6437" d="M-60.134-30.067a2.6,2.6,0,0,1-2.6,2.6,2.6,2.6,0,0,1-2.6-2.6,2.6,2.6,0,0,1,2.6-2.6A2.6,2.6,0,0,1-60.134-30.067Z" transform="translate(65.333 32.667)" fill="none" stroke="#000" stroke-linecap="round" stroke-linejoin="round" stroke-miterlimit="10" stroke-width="2"/>
          </g>
          <g id="g6439" transform="translate(9.522 6.445)">
            <path id="path6441" d="M-46.029-23.014a1.99,1.99,0,0,1-1.99,1.99,1.99,1.99,0,0,1-1.99-1.99A1.99,1.99,0,0,1-48.018-25,1.99,1.99,0,0,1-46.029-23.014Z" transform="translate(50.008 25.004)" fill="none" stroke="#000" stroke-linecap="round" stroke-linejoin="round" stroke-miterlimit="10" stroke-width="2"/>
          </g>
          <g id="g6443" transform="translate(24.31 0.796)">
            <path id="path6445" d="M-74.314-37.156a3.212,3.212,0,0,1-3.212,3.212,3.212,3.212,0,0,1-3.212-3.212,3.212,3.212,0,0,1,3.212-3.212A3.212,3.212,0,0,1-74.314-37.156Z" transform="translate(80.738 40.368)" fill="none" stroke="#000" stroke-linecap="round" stroke-linejoin="round" stroke-miterlimit="10" stroke-width="2"/>
          </g>
          <g id="g6447" transform="translate(14.067 38.096)">
            <path id="path6449" d="M-18.408-9.2a.8.8,0,0,1-.8.8.8.8,0,0,1-.8-.8.8.8,0,0,1,.8-.8.8.8,0,0,1,.8.8" transform="translate(20 10)"/>
          </g>
          <g id="g6451" transform="translate(17.25 46.053)">
            <path id="path6453" d="M-18.408-9.2a.8.8,0,0,1-.8.8.8.8,0,0,1-.8-.8.8.8,0,0,1,.8-.8.8.8,0,0,1,.8.8" transform="translate(20 10)"/>
          </g>
          <g id="g6455" transform="translate(12.476 44.462)">
            <path id="path6457" d="M-18.408-9.2a.8.8,0,0,1-.8.8.8.8,0,0,1-.8-.8.8.8,0,0,1,.8-.8.8.8,0,0,1,.8.8" transform="translate(20 10)"/>
          </g>
          <g id="g6459" transform="translate(15.668 0.796)">
            <path id="path6461" d="M-437.9-104.928l-6.814,6.816a4.826,4.826,0,0,0-1.268,2.239l-2.191,8.741a5.187,5.187,0,0,1-1.364,2.407l-3.563,3.563a2.182,2.182,0,0,1-3.085,0,2.182,2.182,0,0,1,0-3.085l3.036-3.036-2.16,2.16-9.013,9.013a2.181,2.181,0,0,1-3.085,0,2.181,2.181,0,0,1,0-3.085l7.47-7.47-8.976,8.976a2.216,2.216,0,0,1-3.065.092,2.182,2.182,0,0,1-.057-3.14l9.013-9.013-7.47,7.47a2.182,2.182,0,0,1-3.085,0,2.181,2.181,0,0,1,0-3.085l7.47-7.47L-472-86.949a2.219,2.219,0,0,1-3.017.141,2.171,2.171,0,0,1-.746-1.644,2.169,2.169,0,0,1,.638-1.543l7.967-7.967a8.838,8.838,0,0,1,2.374-1.693l6.2-3.026a9.22,9.22,0,0,0,2.477-1.767l9.552-9.552" transform="translate(475.759 114)" fill="none" stroke="#000" stroke-linecap="round" stroke-linejoin="round" stroke-miterlimit="10" stroke-width="2"/>
          </g>
          <g id="g6463" transform="translate(20.834 29.44)">
            <path id="path6465" d="M0-11.245a7.27,7.27,0,0,0,2.89.513c3.437,0,3.437-1.485,6.873-1.485s3.436,1.485,6.873,1.485,3.437-1.485,6.874-1.485c2.816,0,3.324,1,5.307,1.358" transform="translate(0 12.217)" fill="none" stroke="#000" stroke-linecap="round" stroke-linejoin="round" stroke-miterlimit="10" stroke-width="2"/>
          </g>
          <g id="g6467" transform="translate(4.391 29.523)">
            <path id="path6469" d="M0,0C2.222.312,2.643,1.4,5.587,1.4,8.03,1.4,8.736.652,10.175.218" fill="none" stroke="#000" stroke-linecap="round" stroke-linejoin="round" stroke-miterlimit="10" stroke-width="2"/>
          </g>
        </g>
      </g>
    </g>
  </g>
</svg>
