<svg xmlns="http://www.w3.org/2000/svg" xmlns:xlink="http://www.w3.org/1999/xlink" width="109.652" height="109.652" viewBox="0 0 109.652 109.652">
  <defs>
    <filter id="Trazado_874925" x="0" y="0" width="109.652" height="109.652" filterUnits="userSpaceOnUse">
      <feOffset dy="3" input="SourceAlpha"/>
      <feGaussianBlur stdDeviation="3" result="blur"/>
      <feFlood flood-opacity="0.161"/>
      <feComposite operator="in" in2="blur"/>
      <feComposite in="SourceGraphic"/>
    </filter>
  </defs>
  <g id="Grupo_1112155" data-name="Grupo 1112155" transform="translate(-1010.73 -3071)">
    <g transform="matrix(1, 0, 0, 1, 1010.73, 3071)" filter="url(#Trazado_874925)">
      <g id="Trazado_874925-2" data-name="Trazado 874925" transform="translate(9 6)" fill="#ffd63c">
        <path d="M 45.82614517211914 90.15280151367188 C 39.84149551391602 90.15280151367188 34.03665924072266 88.98104095458984 28.5728702545166 86.67005157470703 C 23.29473304748535 84.43759155273438 18.55415725708008 81.24130249023438 14.48283290863037 77.16998291015625 C 10.41150760650635 73.09866333007812 7.215232849121094 68.35809326171875 4.982757568359375 63.07994079589844 C 2.671770095825195 57.61616897583008 1.500007629394531 51.81131744384766 1.500007629394531 45.82666778564453 C 1.500007629394531 39.84149169921875 2.671770095825195 34.03665542602539 4.982757568359375 28.57286643981934 C 7.215232849121094 23.29472923278809 10.41150760650635 18.55415534973145 14.48283290863037 14.48283004760742 C 18.55415725708008 10.4115047454834 23.29473304748535 7.215229511260986 28.5728702545166 4.982754707336426 C 34.03665924072266 2.671766996383667 39.84149551391602 1.500004529953003 45.82614517211914 1.500004529953003 C 51.81079483032227 1.500004529953003 57.61564636230469 2.671766996383667 63.07942199707031 4.982754707336426 C 68.35756683349609 7.215229511260986 73.09814453125 10.4115047454834 77.16947174072266 14.48283004760742 C 81.24078369140625 18.55415534973145 84.43707275390625 23.29472923278809 86.66954803466797 28.57286643981934 C 88.98052978515625 34.03665542602539 90.15229797363281 39.84149169921875 90.15229797363281 45.82614135742188 C 90.15229797363281 51.81131744384766 88.98052978515625 57.61616897583008 86.66954803466797 63.07994079589844 C 84.43707275390625 68.35809326171875 81.24078369140625 73.09866333007812 77.16947174072266 77.16998291015625 C 73.09814453125 81.24130249023438 68.35756683349609 84.43759155273438 63.07942199707031 86.67005157470703 C 57.61564636230469 88.98104095458984 51.81079483032227 90.15280151367188 45.82614517211914 90.15280151367188 Z" stroke="none"/>
        <path d="M 45.82614517211914 3.000007629394531 C 40.04333114624023 3.000007629394531 34.43508911132812 4.131904602050781 29.15720367431641 6.364265441894531 C 24.05784606933594 8.521102905273438 19.47753143310547 11.60944366455078 15.54348754882812 15.54348754882812 C 11.60944366455078 19.47753143310547 8.521102905273438 24.05784606933594 6.3642578125 29.15720367431641 C 4.131904602050781 34.43508911132812 3 40.0433349609375 3 45.82667541503906 C 3 51.60948944091797 4.131904602050781 57.21773147583008 6.3642578125 62.49562072753906 C 8.521102905273438 67.59497833251953 11.60944366455078 72.17527770996094 15.54348754882812 76.10932922363281 C 19.47753143310547 80.04337310791016 24.05784606933594 83.13170623779297 29.15718841552734 85.28854370117188 C 34.43508911132812 87.52090454101562 40.04333114624023 88.65280151367188 45.82614517211914 88.65280151367188 C 51.60895919799805 88.65280151367188 57.21720123291016 87.52090454101562 62.49510192871094 85.28854370117188 C 67.59444427490234 83.13170623779297 72.17475891113281 80.04337310791016 76.10880279541016 76.10932922363281 C 80.0428466796875 72.17527770996094 83.13118743896484 67.59497833251953 85.28803253173828 62.49562072753906 C 87.5203857421875 57.21773147583008 88.65229034423828 51.60948944091797 88.65229034423828 45.82614898681641 C 88.65229034423828 40.0433349609375 87.5203857421875 34.43508911132812 85.28803253173828 29.15720367431641 C 83.13118743896484 24.05784606933594 80.0428466796875 19.47753143310547 76.10880279541016 15.54348754882812 C 72.17475891113281 11.60944366455078 67.59444427490234 8.521102905273438 62.49508666992188 6.364265441894531 C 57.21720123291016 4.131904602050781 51.60895919799805 3.000007629394531 45.82614517211914 3.000007629394531 M 45.82614517211914 7.62939453125e-06 C 71.13523101806641 7.62939453125e-06 91.65229034423828 20.51705932617188 91.65229034423828 45.82614898681641 L 91.65229034423828 45.82667541503906 C 91.65229034423828 71.13575744628906 71.13523101806641 91.65280151367188 45.82614517211914 91.65280151367188 C 20.51705932617188 91.65280151367188 0 71.13575744628906 0 45.82667541503906 L 0 45.82614898681641 C 0 20.51705932617188 20.51705932617188 7.62939453125e-06 45.82614517211914 7.62939453125e-06 Z" stroke="none" fill="#fff"/>
      </g>
    </g>
    <g id="animal" transform="translate(1033.559 3090.828)">
      <g id="Grupo_1111491" data-name="Grupo 1111491">
        <path id="Trazado_900334" data-name="Trazado 900334" d="M15.01,35.66h-4V54.54h4V47.1c0-4.29,3.01-7.85,5.95-8.14Z" fill="#b8c3d5"/>
        <path id="Trazado_900335" data-name="Trazado 900335" d="M9.16,45.1c8.37,0,10.24-1.78,12.97-6.84l-4.39-5.13L8.01,30.57,9.16,45.09Z" fill="#d68076"/>
        <path id="Trazado_900336" data-name="Trazado 900336" d="M39.01,35.66h4V54.54h-4Z" fill="#b8c3d5"/>
        <path id="Trazado_900337" data-name="Trazado 900337" d="M59.81,23.68l-.78,2.06a1.987,1.987,0,0,1-2.07,1.27c-2.14-.22-5.17-1.89-7.63.08-1.61,1.29-.68,6.26-3.36,9.85-4.02,5.39-6.7,4.93-6.96,9.85v7.76h-4V43.96c.03-5.94-6.04-4.01-11.59-4.04-2.23-.01-6.86-1.15-8.38-1-2.94.29-4.03,1.73-4.03,5.19V54.55h-4V48.78A27.69,27.69,0,0,0,6.4,42.9c-.97-4.47-1.68-7.07-2.08-9.39-1.12-6.54.4-13.97,7.4-15.05,6.23-.96,8.6-.47,14.21-.49,1.97,0,4.54-1.39,6.95-1.54,5.21-.33,6.98,1.1,8.73.32,3.27-1.47,4.47-6.12,9.96-2.35a90.059,90.059,0,0,1,7.49,6.03,3.022,3.022,0,0,1,.74,3.27Z" fill="#d3dce5"/>
        <path id="Trazado_900338" data-name="Trazado 900338" d="M59.81,23.68l-.78,2.06a1.987,1.987,0,0,1-2.07,1.27c-2.14-.22-5.17-1.89-7.63.08-.84.67-.99,2.33-1.32,4.27a23.286,23.286,0,0,0-2.41-.92,9.043,9.043,0,0,1-5.52-5.08c-.65-1.55-1.36-3.07-2.84-3.9-3.73-2.08-4.67-3.28-5.14-4.96a6.9,6.9,0,0,1,.78-.09c5.21-.32,6.99,1.11,8.74.32,3.26-1.46,4.47-6.12,9.96-2.35a90.059,90.059,0,0,1,7.49,6.03A3.022,3.022,0,0,1,59.81,23.68Z" fill="#737f9b"/>
        <path id="Trazado_900339" data-name="Trazado 900339" d="M44.76,17.85a7.335,7.335,0,0,1-2.19-1.25c-1.88-1.54-1.91-4.62-1.91-4.62s3.02-.59,4.91.95a7.121,7.121,0,0,1,1.72,1.99" fill="#536882"/>
        <path id="Trazado_900340" data-name="Trazado 900340" d="M22.55,17.92a12.9,12.9,0,0,1-.42,2.83,6.572,6.572,0,0,1-3,4.09,19.632,19.632,0,0,1-1.96.8,9.528,9.528,0,0,0-4.12,3.25c-1.05,1.45-1.67,3.17-2.74,4.61a9.055,9.055,0,0,1-5.29,3.33c-.29-1.25-.53-2.31-.7-3.33-1.12-6.54.4-13.97,7.4-15.05A50.327,50.327,0,0,1,22.55,17.92Z" fill="#737f9b"/>
        <path id="Trazado_900341" data-name="Trazado 900341" d="M22.12,29.39c3.83-1.98,2.11-3.85,6.48-4.74a3.069,3.069,0,0,1,3.67,2.77c.06,4.86,5.11,4.69,1.7,7.66-3.2,2.18-5.63-1.24-8.96-1.35a17.217,17.217,0,0,0-1.9.19c-3.06.48-3.8-3.09-.99-4.54Z" fill="#737f9b"/>
        <circle id="Elipse_11770" data-name="Elipse 11770" cx="9" cy="9" r="9" transform="translate(42 31)" fill="#78b24c"/>
      </g>
      <path id="Trazado_900342" data-name="Trazado 900342" d="M50.01,19.39v-.85a1,1,0,0,1,2,0v.85a1,1,0,0,1-2,0ZM34.94,31.05a3.283,3.283,0,0,1,1.21,2.37,3.566,3.566,0,0,1-1.52,2.42c-.03.03-.06.05-.09.08a4.8,4.8,0,0,1-2.76.9,8.8,8.8,0,0,1-3.65-1.08,8.561,8.561,0,0,0-3.15-1c-.23-.01-1.33.12-1.72.18a3.161,3.161,0,0,1-3.74-2.01,3.7,3.7,0,0,1,2.14-4.4,5.894,5.894,0,0,0,2.49-2.2c.71-1.01,1.44-2.06,4.25-2.64a4.176,4.176,0,0,1,3.42.87,3.749,3.749,0,0,1,1.45,2.87,5.034,5.034,0,0,0,1.67,3.64Zm-.79,2.26c0-.15-.39-.59-.68-.9a6.96,6.96,0,0,1-2.2-4.97,1.758,1.758,0,0,0-.71-1.35,2.11,2.11,0,0,0-1.76-.45c-2.03.41-2.42.97-3.01,1.82a7.793,7.793,0,0,1-3.22,2.82,1.785,1.785,0,0,0-1.15,2.01c.18.54.74.78,1.53.65.26-.04,1.5-.2,2.03-.2a.2.2,0,0,1,.07.01,9.988,9.988,0,0,1,3.92,1.17c1.86.87,2.98,1.31,4.39.38.76-.67.79-.95.79-.99ZM61,40a9.992,9.992,0,0,1-16.99,7.14v7.4a1,1,0,0,1-1,1h-8a1,1,0,0,1-1-1V43.95a3.264,3.264,0,0,0-.77-2.48c-1.12-1.05-3.65-.88-6.32-.71-1.15.08-2.33.16-3.51.15a14.48,14.48,0,0,1-1.59-.13,9.44,9.44,0,0,1-5.59,4.54,8.181,8.181,0,0,0-.22,1.78v7.44a1,1,0,0,1-1,1h-8a1,1,0,0,1-1-1V48.77a26.713,26.713,0,0,0-.59-5.67c-.4-1.87-.76-3.41-1.08-4.75-.43-1.85-.77-3.31-1.01-4.68-.85-4.98-.12-9.53,2-12.48a9.091,9.091,0,0,1,6.24-3.73,49.378,49.378,0,0,1,10.31-.56c1.21.03,2.5.06,4.06.06a11.552,11.552,0,0,0,3.02-.68,17.551,17.551,0,0,1,3.86-.87,24.013,24.013,0,0,1,5.99.37,7.207,7.207,0,0,0,1.94.17,8.826,8.826,0,0,1-1.08-3.96.988.988,0,0,1,.81-.99c.14-.03,3.5-.66,5.73,1.15a.647.647,0,0,0,.09.08,4.638,4.638,0,0,1,1.89-.26,10.834,10.834,0,0,1-.12-2.59,1.02,1.02,0,0,1,1.08-.92,1,1,0,0,1,.92,1.08,8.926,8.926,0,0,0,.28,2.99c.14.07.3.16.45.24a11.272,11.272,0,0,1,2.16-2.51,1.018,1.018,0,0,1,1.41.11,1,1,0,0,1-.11,1.41,9.144,9.144,0,0,0-1.76,2.04,90.216,90.216,0,0,1,7.26,5.86,4.013,4.013,0,0,1,.98,4.36l-.78,2.05A2.975,2.975,0,0,1,56.86,28a12.756,12.756,0,0,1-1.97-.4c-1.72-.43-3.5-.88-4.93.27a4.581,4.581,0,0,0-.74,2.29A10.426,10.426,0,0,1,51,29.99a10.016,10.016,0,0,1,10,10ZM33.55,17.38c.53.84,1.6,1.77,4.18,3.21,1.73.97,2.54,2.63,3.27,4.38a8.049,8.049,0,0,0,4.91,4.52c.46.15.9.3,1.32.46.26-1.56.55-2.9,1.47-3.64,2.21-1.77,4.8-1.12,6.68-.65a12.36,12.36,0,0,0,1.68.35.962.962,0,0,0,1.03-.62l.79-2.06a2.031,2.031,0,0,0-.5-2.2,86.756,86.756,0,0,0-6.8-5.5,2.9,2.9,0,0,0-.13.39,1,1,0,0,1-.97.73,1.222,1.222,0,0,1-.26-.03,1.008,1.008,0,0,1-.72-1,.834.834,0,0,1-.16-.21,8.92,8.92,0,0,1-.63-1.44,3.179,3.179,0,0,0-.87-.12,5,5,0,0,1,.32.48,1,1,0,0,1-1.74.98,5.577,5.577,0,0,0-1.01-1.29c-.14-.13-.28-.27-.45-.41a4.969,4.969,0,0,0-3.19-.84,5.112,5.112,0,0,0,1.25,2.77.987.987,0,0,0,.18.18,6.51,6.51,0,0,0,1.89,1.09,1,1,0,0,1-.33,1.94.96.96,0,0,1-.33-.06,8.243,8.243,0,0,1-2.24-1.23c-.05.03-.09.05-.15.08a5.874,5.874,0,0,1-3.56.11,22.017,22.017,0,0,0-4.93-.37ZM9.51,32.9a16.465,16.465,0,0,0,1.32-2.22,19.972,19.972,0,0,1,1.41-2.37,10.564,10.564,0,0,1,4.55-3.59c.24-.1.49-.19.73-.28a9.148,9.148,0,0,0,1.13-.47,5.6,5.6,0,0,0,2.52-3.49,11.257,11.257,0,0,0,.3-1.59,46.007,46.007,0,0,0-9.6.55,7.162,7.162,0,0,0-4.92,2.92c-1.81,2.52-2.41,6.51-1.64,10.97.12.7.27,1.44.45,2.25A7.968,7.968,0,0,0,9.51,32.9ZM14.1,45.78c-.64.1-1.33.18-2.09.23v7.53h2V47.1A11.706,11.706,0,0,1,14.1,45.78Zm5.53-5.31c-.22-.04-.43-.07-.65-.11a21.938,21.938,0,0,0-3.84-.45c-2.1.21-3.11.89-3.13,4.1,4.23-.3,6.05-1.37,7.62-3.54Zm18.38,6.31a7.477,7.477,0,0,1,3.02-6.07c-.02-.23-.04-.47-.04-.7a10,10,0,0,1,4.71-8.47c-.13-.05-.27-.1-.41-.14a10.014,10.014,0,0,1-6.13-5.64c-.62-1.48-1.23-2.76-2.41-3.42-3.12-1.74-4.56-2.98-5.29-4.67-.64.15-1.28.34-1.91.53a13.224,13.224,0,0,1-3.61.77c-.89,0-1.7,0-2.47-.02a11.494,11.494,0,0,1-.38,2.08,7.509,7.509,0,0,1-3.49,4.7,9.259,9.259,0,0,1-1.39.6c-.22.08-.44.16-.65.25a8.575,8.575,0,0,0-3.69,2.9,17.9,17.9,0,0,0-1.27,2.15,18.309,18.309,0,0,1-1.49,2.48,9.913,9.913,0,0,1-4.9,3.44c.03.12.05.23.08.36.32,1.34.68,2.89,1.09,4.78a28.713,28.713,0,0,1,.63,6.09v4.77h2V44.11c0-3.98,1.47-5.83,4.93-6.18a20.246,20.246,0,0,1,4.36.47,33.525,33.525,0,0,0,4.13.52c1.1,0,2.25-.07,3.35-.14,3.12-.21,6.07-.4,7.83,1.25a5.062,5.062,0,0,1,1.4,3.94v9.58h2V46.79Zm4,6.76V44.35a12.049,12.049,0,0,1-.53-1.29,5.136,5.136,0,0,0-1.47,3.77v6.71ZM59,40a8,8,0,1,0-8,8A8.011,8.011,0,0,0,59,40Zm-5.76-2.58L50.2,40.46l-1.02-1.02a1,1,0,0,0-1.41,1.41l1.72,1.72a.982.982,0,0,0,.71.29,1.024,1.024,0,0,0,.71-.29l3.75-3.75a1,1,0,0,0-1.41-1.41Z" fill="#1a2c3d"/>
    </g>
  </g>
</svg>
