<svg xmlns="http://www.w3.org/2000/svg" xmlns:xlink="http://www.w3.org/1999/xlink" width="109.652" height="109.652" viewBox="0 0 109.652 109.652">
  <defs>
    <filter id="Trazado_874925" x="0" y="0" width="109.652" height="109.652" filterUnits="userSpaceOnUse">
      <feOffset dy="3" input="SourceAlpha"/>
      <feGaussianBlur stdDeviation="3" result="blur"/>
      <feFlood flood-opacity="0.161"/>
      <feComposite operator="in" in2="blur"/>
      <feComposite in="SourceGraphic"/>
    </filter>
  </defs>
  <g id="Grupo_1112156" data-name="Grupo 1112156" transform="translate(-1010.73 -3071)">
    <g transform="matrix(1, 0, 0, 1, 1010.73, 3071)" filter="url(#Trazado_874925)">
      <g id="Trazado_874925-2" data-name="Trazado 874925" transform="translate(9 6)" fill="#ffd63c">
        <path d="M 45.82614517211914 90.15280151367188 C 39.84149551391602 90.15280151367188 34.03665924072266 88.98104095458984 28.5728702545166 86.67005157470703 C 23.29473304748535 84.43759155273438 18.55415725708008 81.24130249023438 14.48283290863037 77.16998291015625 C 10.41150760650635 73.09866333007812 7.215232849121094 68.35809326171875 4.982757568359375 63.07994079589844 C 2.671770095825195 57.61616897583008 1.500007629394531 51.81131744384766 1.500007629394531 45.82666778564453 C 1.500007629394531 39.84149169921875 2.671770095825195 34.03665542602539 4.982757568359375 28.57286643981934 C 7.215232849121094 23.29472923278809 10.41150760650635 18.55415534973145 14.48283290863037 14.48283004760742 C 18.55415725708008 10.4115047454834 23.29473304748535 7.215229511260986 28.5728702545166 4.982754707336426 C 34.03665924072266 2.671766996383667 39.84149551391602 1.500004529953003 45.82614517211914 1.500004529953003 C 51.81079483032227 1.500004529953003 57.61564636230469 2.671766996383667 63.07942199707031 4.982754707336426 C 68.35756683349609 7.215229511260986 73.09814453125 10.4115047454834 77.16947174072266 14.48283004760742 C 81.24078369140625 18.55415534973145 84.43707275390625 23.29472923278809 86.66954803466797 28.57286643981934 C 88.98052978515625 34.03665542602539 90.15229797363281 39.84149169921875 90.15229797363281 45.82614135742188 C 90.15229797363281 51.81131744384766 88.98052978515625 57.61616897583008 86.66954803466797 63.07994079589844 C 84.43707275390625 68.35809326171875 81.24078369140625 73.09866333007812 77.16947174072266 77.16998291015625 C 73.09814453125 81.24130249023438 68.35756683349609 84.43759155273438 63.07942199707031 86.67005157470703 C 57.61564636230469 88.98104095458984 51.81079483032227 90.15280151367188 45.82614517211914 90.15280151367188 Z" stroke="none"/>
        <path d="M 45.82614517211914 3.000007629394531 C 40.04333114624023 3.000007629394531 34.43508911132812 4.131904602050781 29.15720367431641 6.364265441894531 C 24.05784606933594 8.521102905273438 19.47753143310547 11.60944366455078 15.54348754882812 15.54348754882812 C 11.60944366455078 19.47753143310547 8.521102905273438 24.05784606933594 6.3642578125 29.15720367431641 C 4.131904602050781 34.43508911132812 3 40.0433349609375 3 45.82667541503906 C 3 51.60948944091797 4.131904602050781 57.21773147583008 6.3642578125 62.49562072753906 C 8.521102905273438 67.59497833251953 11.60944366455078 72.17527770996094 15.54348754882812 76.10932922363281 C 19.47753143310547 80.04337310791016 24.05784606933594 83.13170623779297 29.15718841552734 85.28854370117188 C 34.43508911132812 87.52090454101562 40.04333114624023 88.65280151367188 45.82614517211914 88.65280151367188 C 51.60895919799805 88.65280151367188 57.21720123291016 87.52090454101562 62.49510192871094 85.28854370117188 C 67.59444427490234 83.13170623779297 72.17475891113281 80.04337310791016 76.10880279541016 76.10932922363281 C 80.0428466796875 72.17527770996094 83.13118743896484 67.59497833251953 85.28803253173828 62.49562072753906 C 87.5203857421875 57.21773147583008 88.65229034423828 51.60948944091797 88.65229034423828 45.82614898681641 C 88.65229034423828 40.0433349609375 87.5203857421875 34.43508911132812 85.28803253173828 29.15720367431641 C 83.13118743896484 24.05784606933594 80.0428466796875 19.47753143310547 76.10880279541016 15.54348754882812 C 72.17475891113281 11.60944366455078 67.59444427490234 8.521102905273438 62.49508666992188 6.364265441894531 C 57.21720123291016 4.131904602050781 51.60895919799805 3.000007629394531 45.82614517211914 3.000007629394531 M 45.82614517211914 7.62939453125e-06 C 71.13523101806641 7.62939453125e-06 91.65229034423828 20.51705932617188 91.65229034423828 45.82614898681641 L 91.65229034423828 45.82667541503906 C 91.65229034423828 71.13575744628906 71.13523101806641 91.65280151367188 45.82614517211914 91.65280151367188 C 20.51705932617188 91.65280151367188 0 71.13575744628906 0 45.82667541503906 L 0 45.82614898681641 C 0 20.51705932617188 20.51705932617188 7.62939453125e-06 45.82614517211914 7.62939453125e-06 Z" stroke="none" fill="#fff"/>
      </g>
    </g>
    <g id="vaca55" transform="translate(1034.299 3100.826)">
      <g id="Grupo_1111517" data-name="Grupo 1111517">
        <g id="Grupo_1111493" data-name="Grupo 1111493">
          <path id="Trazado_900343" data-name="Trazado 900343" d="M5.516,37h24v4h-24Z" fill="#dfb28b"/>
        </g>
        <g id="Grupo_1111494" data-name="Grupo 1111494">
          <path id="Trazado_900344" data-name="Trazado 900344" d="M33.516,37h24v4h-24Z" fill="#dfb28b"/>
        </g>
        <g id="Grupo_1111495" data-name="Grupo 1111495">
          <path id="Trazado_900345" data-name="Trazado 900345" d="M57.516,29v4h-24V29h24Z" fill="#dfb28b"/>
        </g>
        <g id="Grupo_1111496" data-name="Grupo 1111496">
          <path id="Trazado_900346" data-name="Trazado 900346" d="M29.516,29v4h-24V29h24Z" fill="#dfb28b"/>
        </g>
        <g id="Grupo_1111497" data-name="Grupo 1111497">
          <path id="Trazado_900347" data-name="Trazado 900347" d="M61.516,28V42a1,1,0,0,1-1,1h-2a1,1,0,0,1-1-1V28a1,1,0,0,1,1-1h2A1,1,0,0,1,61.516,28Z" fill="#d3a06c"/>
        </g>
        <g id="Grupo_1111498" data-name="Grupo 1111498">
          <path id="Trazado_900348" data-name="Trazado 900348" d="M33.516,41v1a1,1,0,0,1-1,1h-2a1,1,0,0,1-1-1V28a1,1,0,0,1,1-1h2a1,1,0,0,1,1,1V41Z" fill="#d3a06c"/>
        </g>
        <g id="Grupo_1111499" data-name="Grupo 1111499">
          <path id="Trazado_900349" data-name="Trazado 900349" d="M5.516,41v1a1,1,0,0,1-1,1h-2a1,1,0,0,1-1-1V28a1,1,0,0,1,1-1h2a1,1,0,0,1,1,1V41Z" fill="#d3a06c"/>
        </g>
        <g id="Grupo_1111500" data-name="Grupo 1111500">
          <path id="Trazado_900350" data-name="Trazado 900350" d="M58.766,16.51a8.978,8.978,0,0,1,.75,3.59V27h-1a1,1,0,0,0-1,1v1h-19l.86-1.71a9.592,9.592,0,0,1,3.27-3.71A1.954,1.954,0,0,0,41.566,20h-.24a1.961,1.961,0,0,0-1.38.57l-.2.2a4.184,4.184,0,0,1-5.28.53l-1.32-.88c2.02-.7,3.37-1.97,3.37-3.42a2.857,2.857,0,0,0-1-2.06V12l5-2,4.11.43.51,2.04a2.888,2.888,0,0,0,1.88,2.03,2.888,2.888,0,0,1,1.88,2.03l.1.37a2.75,2.75,0,0,0,2.68,2.1,2.808,2.808,0,0,0,1.54-.46l1.25-.84a4.137,4.137,0,0,1,2.32-.7,4.2,4.2,0,0,0,1.97-.49Z" fill="#969faa"/>
        </g>
        <g id="Grupo_1111501" data-name="Grupo 1111501">
          <path id="Trazado_900351" data-name="Trazado 900351" d="M23.516,14.94a2.84,2.84,0,0,0-1,2.06c0,2.21,3.13,4,7,4l2,6h-1a1,1,0,0,0-1,1v1h-5.55a9.947,9.947,0,0,1,1.68-1.42A1.954,1.954,0,0,0,24.566,24h-.24a1.961,1.961,0,0,0-1.38.57l-.2.2a4.184,4.184,0,0,1-5.28.53l-1.32-.88c2.02-.7,3.37-1.97,3.37-3.42a2.857,2.857,0,0,0-1-2.06V16l5-2Z" fill="#969faa"/>
        </g>
        <g id="Grupo_1111502" data-name="Grupo 1111502">
          <path id="Trazado_900352" data-name="Trazado 900352" d="M35.516,2.28V7.03a6.078,6.078,0,0,0-.61-.03h-.92c-.08-.08-.15-.16-.23-.24a5.915,5.915,0,0,0-2.75-1.57l2.14-3.57a1.276,1.276,0,0,1,2.37.66Z" fill="#aab2bd"/>
        </g>
        <g id="Grupo_1111503" data-name="Grupo 1111503">
          <path id="Trazado_900353" data-name="Trazado 900353" d="M35.516,7.03a6.748,6.748,0,0,1,5,2.97l-5,2V11a5.971,5.971,0,0,0-1.53-4h.92A6.078,6.078,0,0,1,35.516,7.03Z" fill="#aab2bd"/>
        </g>
        <g id="Grupo_1111504" data-name="Grupo 1111504">
          <path id="Trazado_900354" data-name="Trazado 900354" d="M24.126,7a6.078,6.078,0,0,0-.61.03V2.28a1.276,1.276,0,0,1,2.37-.66l2.14,3.57A6,6,0,0,0,25.046,7Z" fill="#aab2bd"/>
        </g>
        <g id="Grupo_1111505" data-name="Grupo 1111505">
          <path id="Trazado_900355" data-name="Trazado 900355" d="M24.126,7h.92a5.971,5.971,0,0,0-1.53,4v1l-5-2a6.748,6.748,0,0,1,5-2.97,6.078,6.078,0,0,1,.61-.03Z" fill="#aab2bd"/>
        </g>
        <g id="Grupo_1111506" data-name="Grupo 1111506">
          <path id="Trazado_900356" data-name="Trazado 900356" d="M18.516,10v1.03a6.078,6.078,0,0,0-.61-.03h-.92c-.08-.08-.15-.16-.23-.24a19.978,19.978,0,0,0-2.75-1.57l2.14-3.57a1.276,1.276,0,0,1,2.37.66Z" fill="#aab2bd"/>
        </g>
        <g id="Grupo_1111507" data-name="Grupo 1111507">
          <path id="Trazado_900357" data-name="Trazado 900357" d="M11.026,9.19A6,6,0,0,0,8.046,11h-.92a6.078,6.078,0,0,0-.61.03V6.28a1.276,1.276,0,0,1,2.37-.66Z" fill="#aab2bd"/>
        </g>
        <g id="Grupo_1111508" data-name="Grupo 1111508">
          <path id="Trazado_900358" data-name="Trazado 900358" d="M7.126,11h.92a5.971,5.971,0,0,0-1.53,4v1l-5-2a6.748,6.748,0,0,1,5-2.97A6.078,6.078,0,0,1,7.126,11Z" fill="#aab2bd"/>
        </g>
        <g id="Grupo_1111509" data-name="Grupo 1111509">
          <path id="Trazado_900359" data-name="Trazado 900359" d="M18.516,11.03a6.748,6.748,0,0,1,5,2.97l-5,2V15a5.971,5.971,0,0,0-1.53-4h.92A6.078,6.078,0,0,1,18.516,11.03Z" fill="#aab2bd"/>
        </g>
        <g id="Grupo_1111510" data-name="Grupo 1111510">
          <path id="Trazado_900360" data-name="Trazado 900360" d="M31.006,5.19a5.915,5.915,0,0,1,2.75,1.57c.08.08.15.16.23.24a5.971,5.971,0,0,1,1.53,4v3.94a8.949,8.949,0,0,0-6-1.94,8.949,8.949,0,0,0-6,1.94V11a6,6,0,0,1,4.51-5.81A5.69,5.69,0,0,1,29.516,5Z" fill="#ccd1d9"/>
        </g>
        <g id="Grupo_1111511" data-name="Grupo 1111511">
          <path id="Trazado_900361" data-name="Trazado 900361" d="M14.006,9.19a19.979,19.979,0,0,1,2.75,1.57c.08.08.15.16.23.24a5.971,5.971,0,0,1,1.53,4v3.94a8.949,8.949,0,0,0-6-1.94,8.949,8.949,0,0,0-6,1.94V15a6,6,0,0,1,4.51-5.81A5.69,5.69,0,0,1,12.516,9Z" fill="#ccd1d9"/>
        </g>
        <g id="Grupo_1111512" data-name="Grupo 1111512">
          <path id="Trazado_900362" data-name="Trazado 900362" d="M35.516,14.94a2.857,2.857,0,0,1,1,2.06c0,1.45-1.35,2.72-3.37,3.42a11.01,11.01,0,0,1-3.63.58c-3.87,0-7-1.79-7-4a2.84,2.84,0,0,1,1-2.06,8.949,8.949,0,0,1,6-1.94,8.949,8.949,0,0,1,6,1.94Z" fill="#aab2bd"/>
        </g>
        <g id="Grupo_1111513" data-name="Grupo 1111513">
          <path id="Trazado_900363" data-name="Trazado 900363" d="M18.516,18.94a2.857,2.857,0,0,1,1,2.06c0,1.45-1.35,2.72-3.37,3.42a11.01,11.01,0,0,1-3.63.58c-3.87,0-7-1.79-7-4a2.857,2.857,0,0,1,1-2.06,8.949,8.949,0,0,1,6-1.94,8.949,8.949,0,0,1,6,1.94Z" fill="#aab2bd"/>
        </g>
        <g id="Grupo_1111514" data-name="Grupo 1111514">
          <path id="Trazado_900364" data-name="Trazado 900364" d="M51.456,11.15a9.01,9.01,0,0,1,7.31,5.36h-.01a4.2,4.2,0,0,1-1.97.49,4.137,4.137,0,0,0-2.32.7l-1.25.84a2.808,2.808,0,0,1-1.54.46A2.75,2.75,0,0,1,49,16.9l-.1-.37a2.888,2.888,0,0,0-1.88-2.03,2.888,2.888,0,0,1-1.88-2.03l-.51-2.04Z" fill="#e6e9ed"/>
        </g>
        <g id="Grupo_1111515" data-name="Grupo 1111515">
          <path id="Trazado_900365" data-name="Trazado 900365" d="M41.566,20a1.954,1.954,0,0,1,1.08,3.58,9.592,9.592,0,0,0-3.27,3.71L38.516,29h-5V28a1,1,0,0,0-1-1h-1l-2-6a11.01,11.01,0,0,0,3.63-.58l1.32.88a4.184,4.184,0,0,0,5.28-.53l.2-.2a1.961,1.961,0,0,1,1.38-.57Z" fill="#e6e9ed"/>
        </g>
        <g id="Grupo_1111516" data-name="Grupo 1111516">
          <path id="Trazado_900366" data-name="Trazado 900366" d="M19.786,26a4.178,4.178,0,0,0,2.96-1.23l.2-.2a1.961,1.961,0,0,1,1.38-.57h.24a1.954,1.954,0,0,1,1.08,3.58A9.947,9.947,0,0,0,23.966,29H13.846l-1.33-4a11.01,11.01,0,0,0,3.63-.58l1.32.88a4.137,4.137,0,0,0,2.32.7Z" fill="#e6e9ed"/>
        </g>
      </g>
      <g id="Grupo_1111518" data-name="Grupo 1111518">
        <path id="Trazado_900367" data-name="Trazado 900367" d="M60.516,26V20.1a9.978,9.978,0,0,0-8.953-9.945L41.048,9.05a7.694,7.694,0,0,0-4.532-2.87v-3.9a2.278,2.278,0,0,0-4.23-1.172L30.5,4.077A7.142,7.142,0,0,0,29.516,4a6.978,6.978,0,0,0-.987.078L26.746,1.107a2.277,2.277,0,0,0-4.23,1.17v3.9a7.7,7.7,0,0,0-3,1.349V6.277a2.278,2.278,0,0,0-4.23-1.172L13.5,8.077A7.142,7.142,0,0,0,12.516,8a6.978,6.978,0,0,0-.987.078L9.745,5.106A2.276,2.276,0,0,0,5.516,6.277v3.9A7.708,7.708,0,0,0,.684,13.445L0,14.471l5.516,2.206v1.871a3.683,3.683,0,0,0-1,2.452c0,2.65,3.14,4.755,7.272,4.978L12.462,28H6.516a2,2,0,0,0-2-2h-2a2,2,0,0,0-2,2V42a2,2,0,0,0,2,2h2a2,2,0,0,0,2-2h22a2,2,0,0,0,2,2h2a2,2,0,0,0,2-2h22a2,2,0,0,0,2,2h2a2,2,0,0,0,2-2V28A2,2,0,0,0,60.516,26Zm-3.17-10.07a3.163,3.163,0,0,1-.564.07,5.162,5.162,0,0,0-2.875.871l-1.25.833a1.769,1.769,0,0,1-2.695-1.042l-.093-.371a3.864,3.864,0,0,0-2.537-2.739,1.873,1.873,0,0,1-1.23-1.327l-.162-.648,5.414.57a7.978,7.978,0,0,1,5.992,3.783Zm-20.854-5.4a6.931,6.931,0,0,0-.617-2.44,5.712,5.712,0,0,1,2.992,1.489Zm-2.585,11.6a5.182,5.182,0,0,0,6.541-.648l.2-.2A.965.965,0,0,1,41.325,21h.236a.954.954,0,0,1,.529,1.748,10.656,10.656,0,0,0-3.614,4.094L37.9,28H34.515a2,2,0,0,0-2-2h-.28l-1.358-4.075a11.69,11.69,0,0,0,2.109-.41ZM34.516,34h22v2h-22Zm0-2V30h22v2Zm-6-4H26.679a2.944,2.944,0,0,0-2.117-5h-.236a2.935,2.935,0,0,0-2.089.865l-.2.2a3.24,3.24,0,0,1-3.847.49A4.318,4.318,0,0,0,20.516,21a3.683,3.683,0,0,0-1-2.452V16.677l2.24-.9A3.359,3.359,0,0,0,21.516,17c0,2.65,3.14,4.755,7.272,4.978l1.353,4.06A2,2,0,0,0,28.516,28ZM19.492,14.532a6.931,6.931,0,0,0-.617-2.44,5.712,5.712,0,0,1,2.992,1.489ZM29.516,20c-3.536,0-6-1.581-6-3s2.464-3,6-3,6,1.581,6,3S33.052,20,29.516,20ZM34,2.134a.288.288,0,0,1,.515.143V6h-.111a7.037,7.037,0,0,0-1.924-1.332ZM34.516,11v2.074a11.385,11.385,0,0,0-5-1.074,11.385,11.385,0,0,0-5,1.074V11a5,5,0,1,1,10,0ZM25.03,2.135l1.52,2.534A7.027,7.027,0,0,0,24.626,6h-.111V2.277a.288.288,0,0,1,.515-.142ZM23.156,8.093a6.952,6.952,0,0,0-.617,2.44l-2.375-.95A5.692,5.692,0,0,1,23.156,8.093ZM17,6.134a.288.288,0,0,1,.515.143V9.7l-.167.251a7.032,7.032,0,0,0-1.867-1.28ZM17.516,15v2.074a11.385,11.385,0,0,0-5-1.074,11.385,11.385,0,0,0-5,1.074V15a5,5,0,1,1,10,0ZM8.03,6.135,9.55,8.669A7.027,7.027,0,0,0,7.626,10h-.11V6.277a.287.287,0,0,1,.514-.142ZM6.156,12.093a6.952,6.952,0,0,0-.617,2.44l-2.375-.95a5.692,5.692,0,0,1,2.992-1.49ZM6.516,21c0-1.419,2.464-3,6-3s6,1.581,6,3-2.464,3-6,3S6.516,22.419,6.516,21Zm7.362,4.925a11.69,11.69,0,0,0,2.109-.41l.92.612a5.178,5.178,0,0,0,6.541-.646l.2-.2A.965.965,0,0,1,24.325,25h.236a.954.954,0,0,1,.529,1.748A10.605,10.605,0,0,0,23.57,28h-9ZM28.516,30v2h-22V30Zm0,4v2h-22V34Zm-26,8V28h2l0,14Zm4-2V38h22v2Zm24,2V28h2l0,14Zm4-2V38h22v2Zm22-12H40.134l.132-.264A8.655,8.655,0,0,1,43.2,24.412,2.954,2.954,0,0,0,41.562,19h-.236a2.935,2.935,0,0,0-2.089.865l-.2.2a3.242,3.242,0,0,1-3.847.491A4.32,4.32,0,0,0,37.517,17a3.683,3.683,0,0,0-1-2.452V12.677l4.141-1.657,3.167.333.338,1.356A3.864,3.864,0,0,0,46.7,15.448a1.87,1.87,0,0,1,1.229,1.326l.093.371a3.768,3.768,0,0,0,5.746,2.222l1.249-.833A3.174,3.174,0,0,1,56.782,18a5.186,5.186,0,0,0,1.4-.2,8.029,8.029,0,0,1,.338,2.3V26a2,2,0,0,0-2,2Zm2,14V28h2l0,14Z"/>
        <circle id="Elipse_11771" data-name="Elipse 11771" cx="1" cy="1" r="1" transform="translate(25.516 9)"/>
        <circle id="Elipse_11772" data-name="Elipse 11772" cx="1" cy="1" r="1" transform="translate(26.516 16)"/>
        <circle id="Elipse_11773" data-name="Elipse 11773" cx="1" cy="1" r="1" transform="translate(30.516 16)"/>
        <circle id="Elipse_11774" data-name="Elipse 11774" cx="1" cy="1" r="1" transform="translate(31.516 9)"/>
        <circle id="Elipse_11775" data-name="Elipse 11775" cx="1" cy="1" r="1" transform="translate(8.516 13)"/>
        <circle id="Elipse_11776" data-name="Elipse 11776" cx="1" cy="1" r="1" transform="translate(9.516 20)"/>
        <circle id="Elipse_11777" data-name="Elipse 11777" cx="1" cy="1" r="1" transform="translate(13.516 20)"/>
        <circle id="Elipse_11778" data-name="Elipse 11778" cx="1" cy="1" r="1" transform="translate(14.516 13)"/>
      </g>
    </g>
  </g>
</svg>
