<svg xmlns="http://www.w3.org/2000/svg" xmlns:xlink="http://www.w3.org/1999/xlink" width="74.418" height="74.418" viewBox="0 0 74.418 74.418">
  <defs>
    <filter id="Path_874925" x="0" y="0" width="74.418" height="74.418" filterUnits="userSpaceOnUse">
      <feOffset dy="3" input="SourceAlpha"/>
      <feGaussianBlur stdDeviation="3" result="blur"/>
      <feFlood flood-opacity="0.161"/>
      <feComposite operator="in" in2="blur"/>
      <feComposite in="SourceGraphic"/>
    </filter>
  </defs>
  <g id="Group_1110065" data-name="Group 1110065" transform="translate(-1010.73 -3071)">
    <g transform="matrix(1, 0, 0, 1, 1010.73, 3071)" filter="url(#Path_874925)">
      <g id="Path_874925-2" data-name="Path 874925" transform="translate(9 6)" fill="#ffd63c">
        <path d="M 28.20906066894531 54.91844177246094 C 24.60270118713379 54.91844177246094 21.10501098632812 54.21247100830078 17.81315040588379 52.82012939453125 C 14.63283061981201 51.47497177124023 11.77630043029785 49.54894256591797 9.322900772094727 47.09553909301758 C 6.869510650634766 44.64213943481445 4.943480491638184 41.78561019897461 3.598310708999634 38.60528945922852 C 2.205980777740479 35.31343078613281 1.500000715255737 31.81574058532715 1.500000715255737 28.20938110351562 C 1.500000715255737 24.60270118713379 2.205980777740479 21.10501098632812 3.598310708999634 17.81315040588379 C 4.943480491638184 14.63283061981201 6.869510650634766 11.77630043029785 9.322900772094727 9.322900772094727 C 11.77630043029785 6.869510650634766 14.63283061981201 4.943480968475342 17.81315040588379 3.598310947418213 C 21.10501098632812 2.205980777740479 24.60270118713379 1.500000834465027 28.20906066894531 1.500000834465027 C 31.81542015075684 1.500000834465027 35.3131103515625 2.205980777740479 38.6049690246582 3.598310947418213 C 41.7852897644043 4.943480968475342 44.64181900024414 6.869510650634766 47.09522247314453 9.322900772094727 C 49.54862213134766 11.77630043029785 51.47465133666992 14.63283061981201 52.81980895996094 17.81315040588379 C 54.21215057373047 21.10501098632812 54.91812133789062 24.60270118713379 54.91812133789062 28.20906066894531 C 54.91812133789062 31.81574058532715 54.21215057373047 35.31343078613281 52.81980895996094 38.60528945922852 C 51.47465133666992 41.78561019897461 49.54862213134766 44.64213943481445 47.09522247314453 47.09553909301758 C 44.64181900024414 49.54894256591797 41.7852897644043 51.47497177124023 38.6049690246582 52.82012939453125 C 35.3131103515625 54.21247100830078 31.81542015075684 54.91844177246094 28.20906066894531 54.91844177246094 Z" stroke="none"/>
        <path d="M 28.20906066894531 3 C 24.80454063415527 3 21.50345230102539 3.666110992431641 18.39748001098633 4.979820251464844 C 15.39596176147461 6.249359130859375 12.69969177246094 8.067440032958984 10.38356018066406 10.38356018066406 C 8.067440032958984 12.69969177246094 6.249359130859375 15.39596176147461 4.979820251464844 18.39748001098633 C 3.666110992431641 21.50345230102539 3 24.80454063415527 3 28.20938110351562 C 3 31.61390113830566 3.666110992431641 34.91500091552734 4.979820251464844 38.02097320556641 C 6.249359130859375 41.02248001098633 8.067440032958984 43.71875 10.38356018066406 46.03488159179688 C 12.69969177246094 48.35100173950195 15.39596176147461 50.16908264160156 18.39748001098633 51.43862152099609 C 21.50344085693359 52.7523307800293 24.80454063415527 53.41844177246094 28.20906066894531 53.41844177246094 C 31.61358070373535 53.41844177246094 34.91468048095703 52.7523307800293 38.02065277099609 51.43862152099609 C 41.02217102050781 50.16908264160156 43.71844100952148 48.35100173950195 46.03456115722656 46.03488159179688 C 48.35068130493164 43.7187614440918 50.16876220703125 41.02249145507812 51.43830108642578 38.02097320556641 C 52.75201034545898 34.91500091552734 53.41812133789062 31.61390113830566 53.41812133789062 28.20906066894531 C 53.41812133789062 24.80454063415527 52.75201034545898 21.50344085693359 51.43830108642578 18.39748001098633 C 50.16876220703125 15.39596176147461 48.35068130493164 12.69969177246094 46.03456115722656 10.38356018066406 C 43.71842956542969 8.067440032958984 41.02215957641602 6.249359130859375 38.02065277099609 4.979820251464844 C 34.91468048095703 3.666110992431641 31.61358070373535 3 28.20906066894531 3 M 28.20906066894531 0 C 43.78850173950195 0 56.41812133789062 12.62963104248047 56.41812133789062 28.20906066894531 L 56.41812133789062 28.20938110351562 C 56.41812133789062 43.78882217407227 43.78850173950195 56.41844177246094 28.20906066894531 56.41844177246094 C 12.62963104248047 56.41844177246094 0 43.78882217407227 0 28.20938110351562 L 0 28.20906066894531 C 0 12.62963104248047 12.62963104248047 0 28.20906066894531 0 Z" stroke="none" fill="#fff"/>
      </g>
    </g>
    <g id="Cow" transform="translate(1026.877 3093.187)">
      <path id="Path_899803" data-name="Path 899803" d="M67.227,61.71c0,.14-.271,1.646-.967,5.73h2.478l1.685-5.73Z" transform="translate(-37.251 -43.525)" fill="#b09482"/>
      <path id="Path_899804" data-name="Path 899804" d="M66.26,73.029h2.478l.4-1.379H66.5Z" transform="translate(-37.251 -49.114)" fill="#242c42"/>
      <path id="Path_899805" data-name="Path 899805" d="M68.214,46.5a3.7,3.7,0,0,0-3.572,4.693l-.311.092a.438.438,0,0,0,.241.84c.477-.14.3-.083.394-.127A3.708,3.708,0,0,0,67,53.723a.066.066,0,0,0,0,.031l-.1.49a.446.446,0,0,0,.875.175c.14-.679.092-.438.1-.508a3.708,3.708,0,1,0,.368-7.4Z" transform="translate(-36.001 -34.973)" fill="#e5426a"/>
      <circle id="Ellipse_11556" data-name="Ellipse 11556" cx="2.942" cy="2.942" r="2.942" transform="translate(29.814 11.636)" fill="#ef6f83"/>
      <path id="Path_899806" data-name="Path 899806" d="M43.548,25.88c0,5.214.048,4.96-.136,5.441L42.738,33.1c-.683,1.808,1.108,2.823.565,4.684l-2.027,6.877H38.8c.074-.438.875-5.109.946-5.551a2.377,2.377,0,0,0-.661-2.084L38,35.943H25.061a1.234,1.234,0,0,0-1.2.959c-.582,2.561-.875,3.883-1.751,7.761h-2.4c.109-2.456.153-3.406.411-9.035l-5.253.635-2.053,3.2a1.58,1.58,0,0,1-2.679-.07c-.578-1.02-1.751-3.064-2.71-4.771A2.189,2.189,0,0,1,7.945,31.8c.727-.582,1.287-.9,1.445-1.751l.053-.263a2.018,2.018,0,0,1,.788-1.234l1.7-1.283c.289,1.313.232,1.055.315,1.423l6.566-5.336A9.687,9.687,0,0,1,24.908,21.2h13.96a4.684,4.684,0,0,1,4.68,4.68Z" transform="translate(-4.002 -20.748)" fill="#eddcd2"/>
      <path id="Path_899807" data-name="Path 899807" d="M45.826,21.2H31.866a9.5,9.5,0,0,0-2.7.39c-2.4.7-3.095,1.541-9.666,6.868v1.256c1.628-1.322,5.472-4.452,6.286-5.1a9.687,9.687,0,0,1,6.08-2.158h13.96a4.684,4.684,0,0,1,4.68,4.68V25.88A4.684,4.684,0,0,0,45.826,21.2Z" transform="translate(-10.961 -20.748)" fill="#f7f0e1"/>
      <path id="Path_899808" data-name="Path 899808" d="M86.411,26.329c0,5.218.044,4.964-.131,5.424l-.451,1.191a2.114,2.114,0,0,1-.617-1.488v-3.5a3.616,3.616,0,0,0-1.059-2.561L83.36,24.6V22h.14A4.684,4.684,0,0,1,86.411,26.329Z" transform="translate(-46.866 -21.198)" fill="#ddbea9"/>
      <path id="Path_899809" data-name="Path 899809" d="M4.677,51.56l-.219.14a2.653,2.653,0,0,1-2.1.166L1,51.384l1.423-1.593a2.049,2.049,0,0,1,1.261-.661,2.237,2.237,0,0,0,.289,1.191Z" transform="translate(-0.559 -36.452)" fill="#495a83"/>
      <path id="Path_899810" data-name="Path 899810" d="M32.419,54.16c-.4,8.794-.333,7.214-.411,9.035H29L31.189,54.3Z" transform="translate(-16.302 -39.28)" fill="#b09482"/>
      <path id="Path_899811" data-name="Path 899811" d="M12.508,50.879a.439.439,0,1,1,.517-.709.7.7,0,0,0,1.016-.263.438.438,0,0,1,.582-.21C15.507,50.108,13.887,51.885,12.508,50.879Z" transform="translate(-6.928 -36.747)" fill="#3d405b"/>
      <path id="Path_899812" data-name="Path 899812" d="M16.791,59.5,16.016,60.7a1.576,1.576,0,0,1-1.628.7,1.212,1.212,0,0,1-.263-.074,1.532,1.532,0,0,1-.805-.687l-.53-.932A3.66,3.66,0,0,1,16.791,59.5Z" transform="translate(-7.188 -42.002)" fill="#ef6f83"/>
      <path id="Path_899813" data-name="Path 899813" d="M24.9,26.92v2.224a2.057,2.057,0,0,1-.6,1.453L22.328,32.58a2.994,2.994,0,0,1-2.11.876H18.69v-.228a2.154,2.154,0,0,0,.061-1.313Z" transform="translate(-10.505 -23.964)" fill="#cb997e"/>
      <path id="Path_899814" data-name="Path 899814" d="M11.865,70.465H9.33a3.375,3.375,0,0,0-.84-3.375A3.379,3.379,0,0,1,11.865,70.465Z" transform="translate(-4.77 -46.55)" fill="#118ab2"/>
      <path id="Path_899815" data-name="Path 899815" d="M17.638,70.465H15.773a3.283,3.283,0,0,0-.333-1.453,3.353,3.353,0,0,1,3.038-1.922A3.366,3.366,0,0,0,17.638,70.465Z" transform="translate(-8.678 -46.55)" fill="#06d6a0"/>
      <path id="Path_899816" data-name="Path 899816" d="M38.571,71.659l-.311,1.37H35.87l.061-1.379h2.635Z" transform="translate(-20.165 -49.114)" fill="#3d405b"/>
      <path id="Path_899817" data-name="Path 899817" d="M32.069,71.65l-.061,1.379H29l.341-1.379Z" transform="translate(-16.302 -49.114)" fill="#242c42"/>
      <path id="Path_899818" data-name="Path 899818" d="M82.365,71.65H79.716l-.236,1.379h2.478Z" transform="translate(-44.684 -49.114)" fill="#3d405b"/>
      <path id="Path_899819" data-name="Path 899819" d="M9.81,35.987c-.924.924-.258,1.628-1.313,2.451l-.232.184V36.805A3.6,3.6,0,0,0,6.75,34.1h.937A2.132,2.132,0,0,1,9.81,35.987Z" transform="translate(-3.792 -28.001)" fill="#495a83"/>
      <path id="Path_899820" data-name="Path 899820" d="M61.5,22.526,59.878,24.15a2.53,2.53,0,0,1-1.786.74,2.53,2.53,0,0,0-1.79.74l-1.843,1.86a3.59,3.59,0,0,1-2.565,1.064H45.8a2.723,2.723,0,0,1-1.917-.792l-1.515-1.515a2.714,2.714,0,0,1-.792-1.917V21.59a9.5,9.5,0,0,1,2.7-.39h13.96A4.671,4.671,0,0,1,61.5,22.527Z" transform="translate(-23.375 -20.748)" fill="#cb997e"/>
      <path id="Path_899821" data-name="Path 899821" d="M57.547,29.466h-3.94a.438.438,0,1,1,0-.876h3.94a.438.438,0,0,1,0,.876Z" transform="translate(-29.892 -24.903)" fill="#e4b78d"/>
      <path id="Path_899822" data-name="Path 899822" d="M60.107,52.968H47.85l.337-1.488H59.026Z" transform="translate(-26.9 -37.773)" fill="#ddbea9"/>
      <path id="Path_899823" data-name="Path 899823" d="M61.543,50.745H56.728a.438.438,0,0,1,0-.875h4.815a.438.438,0,0,1,0,.875Z" transform="translate(-31.646 -36.868)" fill="#fff1e6"/>
      <path id="Path_899824" data-name="Path 899824" d="M84.277,55.773l-1.62,5.5H80c0-.044,0,.044.6-3.533a2.412,2.412,0,0,0,2.294-1.659l.954-2.889a3.6,3.6,0,0,1,.429,2.583Z" transform="translate(-44.977 -38.735)" fill="#ddbea9"/>
      <path id="Path_899825" data-name="Path 899825" d="M83.96,51.631l-.438,1.878a.363.363,0,0,1-.652.131l-.346-.486a.832.832,0,0,1,.07-1.046l.749-.805a.359.359,0,0,1,.617.328Z" transform="translate(-46.31 -37.604)" fill="#ddbea9"/>
      <path id="Path_899826" data-name="Path 899826" d="M31.362,43.959h1.09a2.823,2.823,0,0,0,1.987-.823L35.871,41.7a.7.7,0,0,0-.49-1.191H34.2a2.775,2.775,0,0,0-2.009.875L30.877,42.8a.7.7,0,0,0,.486,1.164Z" transform="translate(-17.255 -31.605)" fill="#fff1e6"/>
      <path id="Path_899827" data-name="Path 899827" d="M25.357,26.92v1.256L19.5,32.93V31.674Z" transform="translate(-10.961 -23.964)" fill="#e4b78d"/>
      <path id="Path_899828" data-name="Path 899828" d="M61.5,22.526l-.7.7a4.7,4.7,0,0,0-2.565-.766H44.281a9.5,9.5,0,0,0-2.7.39V21.59a9.5,9.5,0,0,1,2.7-.39h13.96A4.671,4.671,0,0,1,61.5,22.527Z" transform="translate(-23.375 -20.748)" fill="#e4b78d"/>
      <path id="Path_899829" data-name="Path 899829" d="M24.93,53.261l-5.253.635-2.053,3.2a1.585,1.585,0,0,1-1.944.608c.875-.521,1.313-.7,1.668-1.313l1.445-2.5a1.983,1.983,0,0,1,1.453-.976c3.454-.46,2.889-.569,4.684.355Z" transform="translate(-8.813 -38.381)" fill="#ddbea9"/>
      <path id="Path_899830" data-name="Path 899830" d="M18.438,59.765l-.775,1.208a1.58,1.58,0,0,1-1.628.7,1.8,1.8,0,0,1-.315-.092c1.537-.906,1.313-.679,2.132-2.1A3.423,3.423,0,0,1,18.438,59.765Z" transform="translate(-8.835 -42.271)" fill="#ef4c6f"/>
      <path id="Path_899831" data-name="Path 899831" d="M39.8,59.464l-1.169,5.082H36L36.258,59l.582,1.668a1.094,1.094,0,0,0,1.93.267Z" transform="translate(-20.238 -42.001)" fill="#ddbea9"/>
      <g id="Group_1110046" data-name="Group 1110046" transform="translate(0 0)">
        <path id="Path_899832" data-name="Path 899832" d="M53.658,26.24a.438.438,0,1,0,0,.875H57.6a.438.438,0,1,0,0-.875Z" transform="translate(-29.92 -23.582)" fill="#231f20"/>
        <path id="Path_899833" data-name="Path 899833" d="M14.623,49.7a.438.438,0,0,0-.582.21.7.7,0,0,1-1.016.263.439.439,0,0,0-.517.709C13.883,51.885,15.507,50.108,14.623,49.7Z" transform="translate(-6.928 -36.747)" fill="#231f20"/>
        <path id="Path_899834" data-name="Path 899834" d="M40.6,23.824c-2.6-2.6-2.04-2.053-2.189-2.189a5.13,5.13,0,0,0-3.572-1.458H32.507a.438.438,0,1,0,0,.875h2.351a4.216,4.216,0,0,1,2.626.915L36.2,23.255a2.092,2.092,0,0,1-1.48.613,2.959,2.959,0,0,0-2.1.875L30.761,26.6a3.147,3.147,0,0,1-2.25.937H22.422a2.254,2.254,0,0,1-1.607-.665L19.3,25.348a2.254,2.254,0,0,1-.665-1.607V21.346c1.58-.4,1.751-.289,11.22-.289a.438.438,0,1,0,0-.875c-9.63,0-9.9-.131-11.767.411a10.116,10.116,0,0,0-3.546,1.843L8.527,27.313l-.179-.727a.438.438,0,0,0-.687-.245L6.251,27.4a2.565,2.565,0,0,0-2.364-1.572H2.964a.438.438,0,0,0-.306.744l.661.665A2.443,2.443,0,0,1,4.04,28.99V30.6l-.363.289A2.627,2.627,0,0,0,2.723,32.5a2.434,2.434,0,0,0-1.2.731L.105,34.807a.438.438,0,0,0,.188.709l1.361.46a3.064,3.064,0,0,0,2.281-.123l1.8,3.169a2.022,2.022,0,0,0,3.454.092l1.944-3.025L14.31,35.7l-1.961,7.941H9.285a2.915,2.915,0,0,1,.805-2.626.438.438,0,0,0-.311-.749A3.8,3.8,0,0,0,6.741,41.8,3.83,3.83,0,0,0,3.7,40.27a.438.438,0,0,0-.311.749,2.929,2.929,0,0,1,.805,2.626H.433a.438.438,0,0,0,0,.875H19.152a.438.438,0,0,0,0-.875h-.517l1.642-7.227a.788.788,0,0,1,.775-.617h7.026a4.325,4.325,0,0,0,.14.709l-.228.066a.438.438,0,0,0,.245.84l.306-.092a4.106,4.106,0,0,0,.963,1.208l-.875,5.113H23.074a.438.438,0,1,0,0,.875H39.24a.438.438,0,0,0,0-.875H37.852l1.86-6.317a3.029,3.029,0,0,0-.074-1.913l-.5-1.313a1.97,1.97,0,0,1,0-1.414c.7-1.839.836-2.057.836-2.662,0-5.183.031-5.021-.1-5.691a3.94,3.94,0,0,1,1.265,2.915v1.379a.438.438,0,0,0,.875,0V27.252A4.815,4.815,0,0,0,40.6,23.824ZM8.751,28.259l5.2-4.224v1.313a1.607,1.607,0,0,1-.473,1.143l-1.965,1.965c-.875.875-1.751.744-2.771.744a3.064,3.064,0,0,0,.009-.941Zm-4.728-1.55a1.694,1.694,0,0,1,1.519,1.313,3.187,3.187,0,0,0-.626,1.545v-.6a3.292,3.292,0,0,0-.893-2.263ZM1.2,34.9c1.029-1.147,1.1-1.313,1.523-1.488A4.923,4.923,0,0,0,3.5,35.083,2.857,2.857,0,0,1,1.2,34.9Zm7.254,3.743A1.143,1.143,0,0,1,6.5,38.589l-.324-.547a3.187,3.187,0,0,1,2.793-.179Zm7.2-3.1-.306,6.724H13.592l1.646-6.676Zm-2.276,7.6h1.944l-.026.5h-2.04ZM4.7,41.317A2.942,2.942,0,0,1,6.61,43.645H5.1a3.826,3.826,0,0,0-.4-2.329Zm2.8,2.329a4.3,4.3,0,0,0-.258-1A2.924,2.924,0,0,1,8.8,41.33a3.817,3.817,0,0,0-.4,2.329Zm8.659,0v-.5H17.83l-.114.5Zm12.8-7.844h4.846a8.138,8.138,0,0,1,1.217,1.287A3.279,3.279,0,0,1,28.962,35.8Zm5.459,7.844H32.061L33.313,39.4a4.176,4.176,0,0,0,2.014-1.252C35.326,38.4,35.383,37.981,34.42,43.645Zm-3.5-4.316-.118.587a.446.446,0,1,0,.875.175l.118-.569a2.539,2.539,0,0,0,.6,0l-.84,2.745H29.763l.543-3.191a4.246,4.246,0,0,0,.591.254Zm-1.4,4.316.088-.5H31.3l-.149.5Zm5.791,0,.083-.5h1.694l-.149.5ZM39.1,30.014c0,.4-.057.438-.784,2.355a2.9,2.9,0,0,0,0,2.031l.5,1.313a2.132,2.132,0,0,1,.053,1.361l-1.528,5.192h-1.8l.626-3.66a2.823,2.823,0,0,0-.784-2.465l-2.04-2.04a3.673,3.673,0,0,1-1.077-2.626V29.909a.438.438,0,0,0-.875,0,9.912,9.912,0,0,0,.175,2.823H26.825a.438.438,0,1,0,0,.875h5.087a5.043,5.043,0,0,0,1.024,1.313c-13.01,0-11.994-.031-12.336.066l.7-3.112a.448.448,0,0,0-.876-.193c-1.34,5.905-.7,3.064-2.4,10.58H16.219l.328-7.2a.438.438,0,0,0-.49-.438l-5.253.635a.438.438,0,0,0-.315.2L9.425,37.11a4.067,4.067,0,0,0-3.7.158L3.787,33.818a1.751,1.751,0,0,1,.438-2.254c.775-.617,1.414-1,1.6-2l.053-.263a1.593,1.593,0,0,1,.608-.976l1.173-.875.188.749a2.233,2.233,0,0,1-.289,1.751l-.683,1.068a.438.438,0,0,0,.731.46,15.242,15.242,0,0,0,.854-1.37H9.714a3.379,3.379,0,0,0,2.416-1L14.1,27.138a2.46,2.46,0,0,0,.731-1.751V23.334a9.434,9.434,0,0,1,2.933-1.72v2.127a3.134,3.134,0,0,0,.924,2.228L20.2,27.484a3.112,3.112,0,0,0,2.224.928h6.089a4.023,4.023,0,0,0,2.859-1.182l1.86-1.882a2.079,2.079,0,0,1,1.48-.613,2.942,2.942,0,0,0,2.1-.875l1.313-1.313a4.22,4.22,0,0,1,.994,2.718Z" transform="translate(0.008 -20.168)" fill="#231f20"/>
      </g>
    </g>
  </g>
</svg>
