<svg xmlns="http://www.w3.org/2000/svg" xmlns:xlink="http://www.w3.org/1999/xlink" width="109.652" height="109.653" viewBox="0 0 109.652 109.653">
  <defs>
    <filter id="Trazado_874925" x="0" y="0" width="109.652" height="109.653" filterUnits="userSpaceOnUse">
      <feOffset dy="3" input="SourceAlpha"/>
      <feGaussianBlur stdDeviation="3" result="blur"/>
      <feFlood flood-opacity="0.161"/>
      <feComposite operator="in" in2="blur"/>
      <feComposite in="SourceGraphic"/>
    </filter>
  </defs>
  <g id="Grupo_1112172" data-name="Grupo 1112172" transform="translate(-12226.174 9873.58)">
    <g id="Grupo_1111416" data-name="Grupo 1111416" transform="translate(11215.443 -12944.58)">
      <g transform="matrix(1, 0, 0, 1, 1010.73, 3071)" filter="url(#Trazado_874925)">
        <g id="Trazado_874925-2" data-name="Trazado 874925" transform="translate(9 6)" fill="#ffd63c">
          <path d="M 45.82614517211914 90.15280151367188 C 39.84149551391602 90.15280151367188 34.03665924072266 88.98104095458984 28.5728702545166 86.67005157470703 C 23.29473304748535 84.43759155273438 18.55415725708008 81.24130249023438 14.48283290863037 77.16998291015625 C 10.41150760650635 73.09866333007812 7.215232849121094 68.35809326171875 4.982757568359375 63.07994079589844 C 2.671770095825195 57.61616897583008 1.500007629394531 51.81131744384766 1.500007629394531 45.82666778564453 C 1.500007629394531 39.84149169921875 2.671770095825195 34.03665542602539 4.982757568359375 28.57286643981934 C 7.215232849121094 23.29472923278809 10.41150760650635 18.55415534973145 14.48283290863037 14.48283004760742 C 18.55415725708008 10.4115047454834 23.29473304748535 7.215229511260986 28.5728702545166 4.982754707336426 C 34.03665924072266 2.671766996383667 39.84149551391602 1.500004529953003 45.82614517211914 1.500004529953003 C 51.81079483032227 1.500004529953003 57.61564636230469 2.671766996383667 63.07942199707031 4.982754707336426 C 68.35756683349609 7.215229511260986 73.09814453125 10.4115047454834 77.16947174072266 14.48283004760742 C 81.24078369140625 18.55415534973145 84.43707275390625 23.29472923278809 86.66954803466797 28.57286643981934 C 88.98052978515625 34.03665542602539 90.15229797363281 39.84149169921875 90.15229797363281 45.82614135742188 C 90.15229797363281 51.81131744384766 88.98052978515625 57.61616897583008 86.66954803466797 63.07994079589844 C 84.43707275390625 68.35809326171875 81.24078369140625 73.09866333007812 77.16947174072266 77.16998291015625 C 73.09814453125 81.24130249023438 68.35756683349609 84.43759155273438 63.07942199707031 86.67005157470703 C 57.61564636230469 88.98104095458984 51.81079483032227 90.15280151367188 45.82614517211914 90.15280151367188 Z" stroke="none"/>
          <path d="M 45.82614517211914 3.000007629394531 C 40.04333114624023 3.000007629394531 34.43508911132812 4.131904602050781 29.15720367431641 6.364265441894531 C 24.05784606933594 8.521102905273438 19.47753143310547 11.60944366455078 15.54348754882812 15.54348754882812 C 11.60944366455078 19.47753143310547 8.521102905273438 24.05784606933594 6.3642578125 29.15720367431641 C 4.131904602050781 34.43508911132812 3 40.0433349609375 3 45.82667541503906 C 3 51.60948944091797 4.131904602050781 57.21773147583008 6.3642578125 62.49562072753906 C 8.521102905273438 67.59497833251953 11.60944366455078 72.17527770996094 15.54348754882812 76.10932922363281 C 19.47753143310547 80.04337310791016 24.05784606933594 83.13170623779297 29.15718841552734 85.28854370117188 C 34.43508911132812 87.52090454101562 40.04333114624023 88.65280151367188 45.82614517211914 88.65280151367188 C 51.60895919799805 88.65280151367188 57.21720123291016 87.52090454101562 62.49510192871094 85.28854370117188 C 67.59444427490234 83.13170623779297 72.17475891113281 80.04337310791016 76.10880279541016 76.10932922363281 C 80.0428466796875 72.17527770996094 83.13118743896484 67.59497833251953 85.28803253173828 62.49562072753906 C 87.5203857421875 57.21773147583008 88.65229034423828 51.60948944091797 88.65229034423828 45.82614898681641 C 88.65229034423828 40.0433349609375 87.5203857421875 34.43508911132812 85.28803253173828 29.15720367431641 C 83.13118743896484 24.05784606933594 80.0428466796875 19.47753143310547 76.10880279541016 15.54348754882812 C 72.17475891113281 11.60944366455078 67.59444427490234 8.521102905273438 62.49508666992188 6.364265441894531 C 57.21720123291016 4.131904602050781 51.60895919799805 3.000007629394531 45.82614517211914 3.000007629394531 M 45.82614517211914 7.62939453125e-06 C 71.13523101806641 7.62939453125e-06 91.65229034423828 20.51705932617188 91.65229034423828 45.82614898681641 L 91.65229034423828 45.82667541503906 C 91.65229034423828 71.13575744628906 71.13523101806641 91.65280151367188 45.82614517211914 91.65280151367188 C 20.51705932617188 91.65280151367188 0 71.13575744628906 0 45.82667541503906 L 0 45.82614898681641 C 0 20.51705932617188 20.51705932617188 7.62939453125e-06 45.82614517211914 7.62939453125e-06 Z" stroke="none" fill="#fff"/>
        </g>
      </g>
    </g>
    <g id="limpiar" transform="translate(12251.4 -9851.732)">
      <path id="Trazado_901772" data-name="Trazado 901772" d="M42.682,29.562,37.646,34.6a1.5,1.5,0,0,0,1.9,2.3c1.273-.876,3.763-2.686,5.691-4.1a3.829,3.829,0,0,1,4.97.385,1.84,1.84,0,0,1-.249,2.828c-2.375,1.625-6.918,4.868-9.5,6.721a9.174,9.174,0,0,1-4.291,1.656l-6.029.7a5.519,5.519,0,0,0-3.266,1.58l-9.561,9.56L3,41.922l9.758-9.758a13.8,13.8,0,0,1,3.9-7.806L27.069,13.95Z" transform="translate(-0.08 -1.036)" fill="#faceaf"/>
      <path id="Trazado_901773" data-name="Trazado 901773" d="M42.127,33.216l12.6-12.6a2.76,2.76,0,1,0-3.9-3.9L39.77,27.767" transform="translate(-3.023 -1.192)" fill="#faceaf"/>
      <path id="Trazado_901774" data-name="Trazado 901774" d="M39.43,27.2,53.091,13.54a2.76,2.76,0,1,0-3.9-3.9L35.527,23.3" transform="translate(-2.683 -0.627)" fill="#faceaf"/>
      <path id="Trazado_901775" data-name="Trazado 901775" d="M35.187,23.071l12.36-12.36a2.76,2.76,0,1,0-3.9-3.9l-12.36,12.36" transform="translate(-2.344 -0.4)" fill="#faceaf"/>
      <path id="Trazado_901776" data-name="Trazado 901776" d="M30.945,19.168,39.4,10.711a2.76,2.76,0,1,0-3.9-3.9l-8.457,8.457" transform="translate(-2.004 -0.4)" fill="#f0be9b"/>
      <path id="Trazado_901777" data-name="Trazado 901777" d="M.92,0a.92.92,0,0,1,.92.92V13.8A1.84,1.84,0,0,1,0,15.64V.92A.92.92,0,0,1,.92,0Z" transform="translate(37.081 26.249) rotate(-135)" fill="#f0be9b"/>
      <path id="Trazado_901778" data-name="Trazado 901778" d="M.92,0a.92.92,0,0,1,.92.92V15.64A1.84,1.84,0,0,1,0,17.479V.92A.92.92,0,0,1,.92,0Z" transform="translate(33.178 22.345) rotate(-135)" fill="#f0be9b"/>
      <path id="Trazado_901779" data-name="Trazado 901779" d="M.92,0a.92.92,0,0,1,.92.92v9.2A1.84,1.84,0,0,1,0,11.96V.92A.92.92,0,0,1,.92,0Z" transform="translate(29.274 18.441) rotate(-135)" fill="#f0be9b"/>
      <path id="Trazado_901780" data-name="Trazado 901780" d="M34.476,4.884q-1.855-.028-3.755-.029-.571,1.428-1.189,2.884-1.855-.028-3.755-.029-.571,1.428-1.189,2.884-1.855-.028-3.755-.029-.571,1.428-1.189,2.884-1.855-.028-3.755-.029Q15.318,14.846,14.7,16.3q-1.855-.028-3.755-.029-.571,1.428-1.189,2.884Q7.9,19.129,6,19.127c10.42,11.2,10.513,25.06,20.933,36.258q.571-1.428,1.189-2.884,1.855.028,3.755.029.571-1.428,1.189-2.884,1.855.028,3.755.029.571-1.428,1.189-2.884,1.855.028,3.755.029.571-1.428,1.189-2.884,1.855.028,3.755.029.571-1.428,1.189-2.884,1.855.028,3.755.029.571-1.428,1.189-2.884,1.855.028,3.755.029C46.178,27.06,46.085,13.2,35.665,2q-.571,1.428-1.189,2.884Z" transform="translate(-0.32 -0.08)" fill="#f6fbff"/>
      <path id="Trazado_901781" data-name="Trazado 901781" d="M43.472,20.36a2.76,2.76,0,0,0-2.76,2.76V17.6a2.76,2.76,0,0,0-5.52,0V15.76a2.76,2.76,0,1,0-5.52,0v3.68a2.76,2.76,0,1,0-5.52,0v20a1.5,1.5,0,0,1-2.975.282c-.28-1.519-.761-4.56-1.127-6.921a3.829,3.829,0,0,0-3.786-3.242,1.84,1.84,0,0,0-1.824,2.176c.021.113.044.237.066.358,3.832,8.2,6.208,16.766,13.1,24.172q.571-1.428,1.189-2.884,1.855.028,3.755.029.571-1.428,1.189-2.884,1.855.028,3.755.029.571-1.428,1.189-2.884,1.855.028,3.755.029.571-1.428,1.189-2.884c.858.013,1.732.016,2.6.02V23.12a2.76,2.76,0,0,0-2.76-2.76Z" transform="translate(-0.993 -0.96)" fill="#d7e5f4"/>
      <g id="Grupo_1112178" data-name="Grupo 1112178" transform="translate(11.576 12.04)">
        <path id="Trazado_901782" data-name="Trazado 901782" d="M22.152,33.76v7.122a1.5,1.5,0,0,1-2.975.282c-.28-1.519-.761-4.56-1.127-6.921A3.829,3.829,0,0,0,14.264,31a1.84,1.84,0,0,0-1.824,2.176c.531,2.828,1.45,8.335,1.968,11.473a9.174,9.174,0,0,0,1.863,4.205l3.768,4.758a5.52,5.52,0,0,1,1.192,3.427v3.4H41.472v-3.68a13.8,13.8,0,0,0,2.76-8.28V33.76Z" transform="translate(-12.409 -14.44)" fill="#faceaf"/>
        <path id="Trazado_901783" data-name="Trazado 901783" d="M23,37.586V19.76a2.76,2.76,0,0,1,5.52,0V35.4" transform="translate(-13.257 -13.32)" fill="#faceaf"/>
        <path id="Trazado_901784" data-name="Trazado 901784" d="M29,35.079V15.76a2.76,2.76,0,1,1,5.52,0V35.079" transform="translate(-13.737 -13)" fill="#faceaf"/>
        <path id="Trazado_901785" data-name="Trazado 901785" d="M35,35.239V17.76a2.76,2.76,0,1,1,5.52,0V35.239" transform="translate(-14.217 -13.16)" fill="#faceaf"/>
        <path id="Trazado_901786" data-name="Trazado 901786" d="M41,35.72V23.76a2.76,2.76,0,1,1,5.52,0V35.72" transform="translate(-14.697 -13.64)" fill="#faceaf"/>
      </g>
      <path id="Trazado_901787" data-name="Trazado 901787" d="M29,20a1.84,1.84,0,0,1,1.84,1.84V34.72a.92.92,0,0,1-1.84,0Z" transform="translate(-2.161 -1.521)" fill="#f0be9b"/>
      <path id="Trazado_901788" data-name="Trazado 901788" d="M35,18a1.84,1.84,0,0,1,1.84,1.84V34.56a.92.92,0,0,1-1.84,0Z" transform="translate(-2.641 -1.36)" fill="#f0be9b"/>
      <path id="Trazado_901789" data-name="Trazado 901789" d="M41,24a1.84,1.84,0,0,1,1.84,1.84v9.2a.92.92,0,0,1-1.84,0Z" transform="translate(-3.121 -1.841)" fill="#f0be9b"/>
      <path id="Trazado_901790" data-name="Trazado 901790" d="M56.952,37.55a47.508,47.508,0,0,1-8.47-13.6l3.878-3.879a3.68,3.68,0,0,0,0-5.2,3.546,3.546,0,0,0-1.684-.919l.383-.383a3.678,3.678,0,0,0,0-5.2,3.77,3.77,0,0,0-4.193-.684,3.649,3.649,0,0,0-1.011-1.918,3.767,3.767,0,0,0-5.2,0l-.632.632a39.542,39.542,0,0,0-4-5.1.92.92,0,0,0-1.528.286q-.455,1.14-.941,2.3-1.558-.019-3.148-.021h0a.92.92,0,0,0-.854.579q-.456,1.14-.942,2.3-1.558-.02-3.148-.021a.92.92,0,0,0-.854.579q-.456,1.14-.941,2.3-1.558-.019-3.148-.021a.921.921,0,0,0-.854.579q-.455,1.14-.941,2.3-1.558-.019-3.148-.021a.92.92,0,0,0-.854.579q-.456,1.14-.941,2.3-1.558-.018-3.149-.02a.92.92,0,0,0-.854.579q-.455,1.139-.941,2.3-1.558-.018-3.148-.021h0a.92.92,0,0,0-.673,1.547,40.781,40.781,0,0,1,6.27,9.025,2.743,2.743,0,0,0-.574,2.246c.042.223.087.469.133.723L2.27,40.235a.92.92,0,0,0,0,1.3L16.581,55.848a.92.92,0,0,0,1.3,0l1.567-1.567c.009.12.03.237.03.357v3.4a.92.92,0,0,0,.92.92H40.639a.92.92,0,0,0,.92-.92V54.659a14.816,14.816,0,0,0,2.76-8.581V44.791c.687.007,1.372.015,2.07.016h0a.92.92,0,0,0,.854-.579q.456-1.14.941-2.3,1.557.019,3.148.021a.92.92,0,0,0,.854-.579q.456-1.14.941-2.3,1.559.02,3.149.021a.92.92,0,0,0,.673-1.547ZM51.6,17.467a1.829,1.829,0,0,1-.539,1.3l-3.367,3.367q-.523-1.224-1.032-2.442l-.512-1.218,2.308-2.308a1.884,1.884,0,0,1,2.6,0,1.829,1.829,0,0,1,.538,1.3Zm-1.84-7.806a1.839,1.839,0,0,1,0,2.6L45.37,16.651c-.516-1.2-1.052-2.392-1.621-3.585l3.405-3.405a1.884,1.884,0,0,1,2.6,0Zm-7.807-2.6a1.884,1.884,0,0,1,2.6,0,1.841,1.841,0,0,1,0,2.6L42.89,11.324C42.314,10.2,41.7,9.083,41.032,7.979ZM17.231,53.9,4.221,40.886l7.008-7.008c.495,2.837,1.075,6.32,1.438,8.52a10.148,10.148,0,0,0,2.05,4.627l3.768,4.758a4.55,4.55,0,0,1,.343.517Zm25.248-7.818A12.966,12.966,0,0,1,39.9,53.806a.917.917,0,0,0-.184.552v2.76h-18.4V54.638a6.467,6.467,0,0,0-1.391-4L16.16,45.882A8.284,8.284,0,0,1,14.483,42.1c-.508-3.074-1.439-8.654-1.972-11.492a.9.9,0,0,1,.193-.75.926.926,0,0,1,.726-.336,2.9,2.9,0,0,1,2.877,2.463c.36,2.32.848,5.408,1.132,6.946a2.42,2.42,0,0,0,4.8-.448v-20a1.84,1.84,0,0,1,3.68,0v15.64a.92.92,0,0,0,1.84,0V14.8a1.84,1.84,0,1,1,3.68,0V34.119a.92.92,0,0,0,1.84,0V16.64a1.84,1.84,0,1,1,3.68,0V34.119a.92.92,0,0,0,1.84,0V22.159a1.84,1.84,0,1,1,3.68,0Zm10.058-8.85a.959.959,0,0,0-.86.561q-.5,1.17-.963,2.322-1.576-.005-3.12-.029a.908.908,0,0,0-.861.561q-.5,1.17-.963,2.321c-.488,0-.968-.008-1.451-.013V22.159a3.684,3.684,0,0,0-3.68-3.68,3.639,3.639,0,0,0-1.84.512V16.64a3.678,3.678,0,0,0-5.74-3.047,3.671,3.671,0,0,0-7.14,1.207v.512a3.639,3.639,0,0,0-1.84-.512,3.684,3.684,0,0,0-3.68,3.68v20a.585.585,0,0,1-.584.584.575.575,0,0,1-.566-.47c-.28-1.516-.765-4.586-1.123-6.894a4.726,4.726,0,0,0-4.7-4.021,2.819,2.819,0,0,0-.576.063,44.034,44.034,0,0,0-5.128-7.766q.852.008,1.7.02a.923.923,0,0,0,.86-.561q.5-1.168.963-2.322,1.576,0,3.12.028a.912.912,0,0,0,.861-.561q.5-1.17.963-2.322,1.576.005,3.12.029a.9.9,0,0,0,.861-.561q.5-1.17.963-2.322,1.577.005,3.121.028a.86.86,0,0,0,.86-.561q.5-1.168.963-2.322,1.577,0,3.121.028a.963.963,0,0,0,.86-.561q.5-1.17.964-2.322,1.576.005,3.12.029A.913.913,0,0,0,35,5.162q.326-.768.639-1.53c4.474,5.216,6.935,11.084,9.321,16.772S49.8,31.93,54.234,37.247q-.853-.006-1.7-.019Z"/>
    </g>
  </g>
</svg>
