<svg xmlns="http://www.w3.org/2000/svg" xmlns:xlink="http://www.w3.org/1999/xlink" width="109.652" height="109.652" viewBox="0 0 109.652 109.652">
  <defs>
    <filter id="Trazado_874925" x="0" y="0" width="109.652" height="109.652" filterUnits="userSpaceOnUse">
      <feOffset dy="3" input="SourceAlpha"/>
      <feGaussianBlur stdDeviation="3" result="blur"/>
      <feFlood flood-opacity="0.161"/>
      <feComposite operator="in" in2="blur"/>
      <feComposite in="SourceGraphic"/>
    </filter>
  </defs>
  <g id="Grupo_1111634" data-name="Grupo 1111634" transform="translate(-740 -1743)">
    <g id="Grupo_1111412" data-name="Grupo 1111412" transform="translate(-270.73 -1328)">
      <g transform="matrix(1, 0, 0, 1, 1010.73, 3071)" filter="url(#Trazado_874925)">
        <g id="Trazado_874925-2" data-name="Trazado 874925" transform="translate(9 6)" fill="#ffd63c">
          <path d="M 45.82614517211914 90.15280151367188 C 39.84149551391602 90.15280151367188 34.03665924072266 88.98104095458984 28.5728702545166 86.67005157470703 C 23.29473304748535 84.43759155273438 18.55415725708008 81.24130249023438 14.48283290863037 77.16998291015625 C 10.41150760650635 73.09866333007812 7.215232849121094 68.35809326171875 4.982757568359375 63.07994079589844 C 2.671770095825195 57.61616897583008 1.500007629394531 51.81131744384766 1.500007629394531 45.82666778564453 C 1.500007629394531 39.84149169921875 2.671770095825195 34.03665542602539 4.982757568359375 28.57286643981934 C 7.215232849121094 23.29472923278809 10.41150760650635 18.55415534973145 14.48283290863037 14.48283004760742 C 18.55415725708008 10.4115047454834 23.29473304748535 7.215229511260986 28.5728702545166 4.982754707336426 C 34.03665924072266 2.671766996383667 39.84149551391602 1.500004529953003 45.82614517211914 1.500004529953003 C 51.81079483032227 1.500004529953003 57.61564636230469 2.671766996383667 63.07942199707031 4.982754707336426 C 68.35756683349609 7.215229511260986 73.09814453125 10.4115047454834 77.16947174072266 14.48283004760742 C 81.24078369140625 18.55415534973145 84.43707275390625 23.29472923278809 86.66954803466797 28.57286643981934 C 88.98052978515625 34.03665542602539 90.15229797363281 39.84149169921875 90.15229797363281 45.82614135742188 C 90.15229797363281 51.81131744384766 88.98052978515625 57.61616897583008 86.66954803466797 63.07994079589844 C 84.43707275390625 68.35809326171875 81.24078369140625 73.09866333007812 77.16947174072266 77.16998291015625 C 73.09814453125 81.24130249023438 68.35756683349609 84.43759155273438 63.07942199707031 86.67005157470703 C 57.61564636230469 88.98104095458984 51.81079483032227 90.15280151367188 45.82614517211914 90.15280151367188 Z" stroke="none"/>
          <path d="M 45.82614517211914 3.000007629394531 C 40.04333114624023 3.000007629394531 34.43508911132812 4.131904602050781 29.15720367431641 6.364265441894531 C 24.05784606933594 8.521102905273438 19.47753143310547 11.60944366455078 15.54348754882812 15.54348754882812 C 11.60944366455078 19.47753143310547 8.521102905273438 24.05784606933594 6.3642578125 29.15720367431641 C 4.131904602050781 34.43508911132812 3 40.0433349609375 3 45.82667541503906 C 3 51.60948944091797 4.131904602050781 57.21773147583008 6.3642578125 62.49562072753906 C 8.521102905273438 67.59497833251953 11.60944366455078 72.17527770996094 15.54348754882812 76.10932922363281 C 19.47753143310547 80.04337310791016 24.05784606933594 83.13170623779297 29.15718841552734 85.28854370117188 C 34.43508911132812 87.52090454101562 40.04333114624023 88.65280151367188 45.82614517211914 88.65280151367188 C 51.60895919799805 88.65280151367188 57.21720123291016 87.52090454101562 62.49510192871094 85.28854370117188 C 67.59444427490234 83.13170623779297 72.17475891113281 80.04337310791016 76.10880279541016 76.10932922363281 C 80.0428466796875 72.17527770996094 83.13118743896484 67.59497833251953 85.28803253173828 62.49562072753906 C 87.5203857421875 57.21773147583008 88.65229034423828 51.60948944091797 88.65229034423828 45.82614898681641 C 88.65229034423828 40.0433349609375 87.5203857421875 34.43508911132812 85.28803253173828 29.15720367431641 C 83.13118743896484 24.05784606933594 80.0428466796875 19.47753143310547 76.10880279541016 15.54348754882812 C 72.17475891113281 11.60944366455078 67.59444427490234 8.521102905273438 62.49508666992188 6.364265441894531 C 57.21720123291016 4.131904602050781 51.60895919799805 3.000007629394531 45.82614517211914 3.000007629394531 M 45.82614517211914 7.62939453125e-06 C 71.13523101806641 7.62939453125e-06 91.65229034423828 20.51705932617188 91.65229034423828 45.82614898681641 L 91.65229034423828 45.82667541503906 C 91.65229034423828 71.13575744628906 71.13523101806641 91.65280151367188 45.82614517211914 91.65280151367188 C 20.51705932617188 91.65280151367188 0 71.13575744628906 0 45.82667541503906 L 0 45.82614898681641 C 0 20.51705932617188 20.51705932617188 7.62939453125e-06 45.82614517211914 7.62939453125e-06 Z" stroke="none" fill="#fff"/>
        </g>
      </g>
    </g>
    <g id="jabon-de-mano" transform="translate(768.051 1770.305)">
      <g id="Grupo_1112175" data-name="Grupo 1112175" transform="translate(0.808 0.808)">
        <path id="Trazado_901731" data-name="Trazado 901731" d="M18.347,18.688A4.122,4.122,0,0,1,18,17.04,4.041,4.041,0,0,1,22.04,13a3.982,3.982,0,0,1,2,.533,4.9,4.9,0,0,0-.38,1.891A4.792,4.792,0,0,0,24.9,18.656H18.808A2.943,2.943,0,0,0,18.347,18.688Z" transform="translate(-4.265 -3.304)" fill="#b0e1f4"/>
        <path id="Trazado_901732" data-name="Trazado 901732" d="M30.291,9.064A2.758,2.758,0,0,1,30,7.828a2.828,2.828,0,1,1,4.1,2.521,4.76,4.76,0,0,0-3.3-1.309C30.63,9.04,30.461,9.048,30.291,9.064Z" transform="translate(-6.569 -1.768)" fill="#d8effa"/>
        <path id="Trazado_901733" data-name="Trazado 901733" d="M40.744,18.232a2.955,2.955,0,0,1-.105.808H35.46A4.792,4.792,0,0,0,36.7,15.808a3.875,3.875,0,0,0-.057-.687A3.062,3.062,0,0,1,37.512,15,3.231,3.231,0,0,1,40.744,18.232Z" transform="translate(-7.618 -3.689)" fill="#b0e1f4"/>
        <path id="Trazado_901734" data-name="Trazado 901734" d="M34.639,14.161a3.875,3.875,0,0,1,.057.687,4.792,4.792,0,0,1-1.244,3.232,4.214,4.214,0,0,1-.8.719A4.852,4.852,0,0,1,25,14.848a4.839,4.839,0,0,1,4.331-4.824c.17-.016.339-.024.517-.024a4.76,4.76,0,0,1,3.3,1.309,4.711,4.711,0,0,1,1.495,2.852Z" transform="translate(-5.609 -2.728)" fill="#83caed"/>
        <path id="Trazado_901735" data-name="Trazado 901735" d="M36.623,36.264V24.848H18.848V36.264h5.026a2.626,2.626,0,0,0-1.2.275,2.852,2.852,0,0,0-1.495,3.644L20,40.167l-1.737-.016a1.848,1.848,0,0,1-1.47-.743L14,35.61V24.04a4.034,4.034,0,0,1,3.579-4.007A2.943,2.943,0,0,1,18.04,20h6.092a4.828,4.828,0,0,0,6.407.719,4.214,4.214,0,0,0,.8-.719h6.092a4.041,4.041,0,0,1,4.04,4.04V36.967a4.081,4.081,0,0,1-.711,2.295,11.218,11.218,0,0,0-2.44-1.745,10.977,10.977,0,0,0-4.767-1.252Z" transform="translate(-3.497 -4.649)" fill="#f7753c"/>
        <path id="Trazado_901736" data-name="Trazado 901736" d="M20,26H37.775V37.416H20Z" transform="translate(-4.649 -5.801)" fill="#f99163"/>
        <path id="Trazado_901737" data-name="Trazado 901737" d="M23.808,29h2.424a.808.808,0,1,1,0,1.616H24.616V33.04a.808.808,0,0,1-1.616,0V29.808A.81.81,0,0,1,23.808,29Z" transform="translate(-5.225 -6.377)" fill="#fbbda1"/>
        <circle id="Elipse_11913" data-name="Elipse 11913" cx="3" cy="3" r="3" transform="translate(42.192 16.191)" fill="#83caed"/>
        <circle id="Elipse_11914" data-name="Elipse 11914" cx="2" cy="2" r="2" transform="translate(39.192 10.191)" fill="#d8effa"/>
        <path id="Trazado_901738" data-name="Trazado 901738" d="M58.577,58.967,55.79,54.906a1.948,1.948,0,0,0-2.764-.471l-9.313,6.847v.808H59.3v-.808A4.093,4.093,0,0,0,58.577,58.967Z" transform="translate(-9.203 -11.189)" fill="#b7855f"/>
        <path id="Trazado_901739" data-name="Trazado 901739" d="M58.577,58.968,55.79,54.908a1.941,1.941,0,0,0-2.16-.762L55.2,58.24a1.646,1.646,0,0,1-1.536,2.236H44.812l-1.1.808v.808H59.3v-.808A4.093,4.093,0,0,0,58.577,58.968Z" transform="translate(-9.203 -11.191)" fill="#9b6d4e"/>
        <path id="Trazado_901740" data-name="Trazado 901740" d="M19.454,42.848A2.852,2.852,0,0,1,20.948,39.2a2.626,2.626,0,0,1,1.2-.275h9.679a10.943,10.943,0,0,1,8.5,4.468l5.268,7.159-9.316,6.852-2.634-3.579A5.524,5.524,0,0,0,29.4,51.566l-11.74-.477a5.489,5.489,0,0,1-2.375-.646,5.565,5.565,0,0,1-1.866-1.608l-7.9-10.746a2.672,2.672,0,0,1,.461-3.644,2.775,2.775,0,0,1,3.927.6l1.155,1.584,4.007,5.446a1.848,1.848,0,0,0,1.47.743l1.737.016Z" transform="translate(-1.768 -7.314)" fill="#ffcdc0"/>
        <path id="Trazado_901741" data-name="Trazado 901741" d="M24.862,46.821l7.208.2a3.218,3.218,0,0,1-2.894,1.751l-5.435-.052a2.936,2.936,0,0,1-2.337-1.2L19.51,44.945l1.554.011,1.18.015a2.741,2.741,0,0,0,.362.672,2.869,2.869,0,0,0,2.256,1.178Z" transform="translate(-4.555 -9.439)" fill="#f7b1a4"/>
        <path id="Trazado_901742" data-name="Trazado 901742" d="M46.657,50.711a.806.806,0,0,1-.666-.35l-1.984-2.879a7.319,7.319,0,0,0-3.461-2.706.808.808,0,1,1,.569-1.512,8.921,8.921,0,0,1,4.222,3.3l1.984,2.879a.808.808,0,0,1-.665,1.267Z" transform="translate(-8.494 -9.106)" fill="#ffe0dc"/>
        <g id="Grupo_1112174" data-name="Grupo 1112174" transform="translate(4.04)">
          <path id="Trazado_901743" data-name="Trazado 901743" d="M45.232,1c0,2.233,1.445,4.04,3.232,4.04a2.932,2.932,0,0,0-2.286,1.183,4.568,4.568,0,0,0-.946,2.857,4.573,4.573,0,0,0-.946-2.857A2.931,2.931,0,0,0,42,5.04a2.932,2.932,0,0,0,2.286-1.183A4.568,4.568,0,0,0,45.232,1Z" transform="translate(-12.913 -1)" fill="#b0e1f4"/>
          <path id="Trazado_901744" data-name="Trazado 901744" d="M14.232,1c0,2.233,1.445,4.04,3.232,4.04a2.932,2.932,0,0,0-2.286,1.183,4.573,4.573,0,0,0-.946,2.857,4.573,4.573,0,0,0-.946-2.857A2.932,2.932,0,0,0,11,5.04a2.932,2.932,0,0,0,2.286-1.183A4.573,4.573,0,0,0,14.232,1Z" transform="translate(-6.96 -1)" fill="#b0e1f4"/>
          <path id="Trazado_901745" data-name="Trazado 901745" d="M6.008,16.529A3.218,3.218,0,0,1,8.319,18.84a.461.461,0,0,0,.105.008A2.424,2.424,0,1,0,6,16.424.461.461,0,0,0,6.008,16.529Z" transform="translate(-6 -3.497)" fill="#b0e1f4"/>
        </g>
        <path id="Trazado_901746" data-name="Trazado 901746" d="M4.232,17a3.232,3.232,0,1,0,3.232,3.232,3.37,3.37,0,0,0-.105-.816,3.218,3.218,0,0,0-2.311-2.311A3.37,3.37,0,0,0,4.232,17Z" transform="translate(-1 -4.073)" fill="#83caed"/>
        <circle id="Elipse_11915" data-name="Elipse 11915" cx="1" cy="1" r="1" transform="translate(45.192 17.191)" fill="#c7edf9"/>
        <ellipse id="Elipse_11916" data-name="Elipse 11916" cx="1.5" cy="1" rx="1.5" ry="1" transform="translate(1.192 14.191)" fill="#c7edf9"/>
        <circle id="Elipse_11917" data-name="Elipse 11917" cx="1" cy="1" r="1" transform="translate(23.192 22.191)" fill="#fbbda1"/>
      </g>
      <g id="Grupo_1112176" data-name="Grupo 1112176">
        <path id="Trazado_901747" data-name="Trazado 901747" d="M41.808,5.656a2.139,2.139,0,0,1,1.655.88,3.761,3.761,0,0,1,.769,2.352.808.808,0,1,0,1.616,0,3.757,3.757,0,0,1,.77-2.352,2.136,2.136,0,0,1,1.654-.88.808.808,0,0,0,0-1.616c-1.336,0-2.424-1.449-2.424-3.232a.808.808,0,1,0-1.616,0,3.757,3.757,0,0,1-.77,2.352,2.136,2.136,0,0,1-1.654.88.808.808,0,0,0,0,1.616ZM44.723,4.17a4.68,4.68,0,0,0,.32-.451,4.5,4.5,0,0,0,.992,1.124,4.341,4.341,0,0,0-.679.683,4.682,4.682,0,0,0-.317.446,4.812,4.812,0,0,0-.316-.445,4.391,4.391,0,0,0-.674-.679A4.31,4.31,0,0,0,44.723,4.17Z" transform="translate(-7.874)" fill="#252525"/>
        <path id="Trazado_901748" data-name="Trazado 901748" d="M10.808,5.656a2.139,2.139,0,0,1,1.655.88,3.761,3.761,0,0,1,.769,2.352.808.808,0,1,0,1.616,0,3.757,3.757,0,0,1,.77-2.352,2.136,2.136,0,0,1,1.654-.88.808.808,0,1,0,0-1.616c-1.336,0-2.424-1.449-2.424-3.232a.808.808,0,1,0-1.616,0,3.757,3.757,0,0,1-.77,2.352,2.136,2.136,0,0,1-1.654.88.808.808,0,1,0,0,1.616ZM13.723,4.17a4.68,4.68,0,0,0,.32-.451,4.5,4.5,0,0,0,.992,1.124,4.342,4.342,0,0,0-.679.683,4.683,4.683,0,0,0-.317.446,4.812,4.812,0,0,0-.316-.445,4.391,4.391,0,0,0-.674-.679,4.31,4.31,0,0,0,.673-.678Z" transform="translate(-1.92)" fill="#252525"/>
        <path id="Trazado_901749" data-name="Trazado 901749" d="M51.617,48.893l-2.786-4.054a2.756,2.756,0,0,0-3.183-1.048l-4.862-6.608a11.527,11.527,0,0,0-.945-1.119,4.848,4.848,0,0,0,.517-2.17V20.967a4.853,4.853,0,0,0-4.848-4.848,4.044,4.044,0,0,0-4.04-4.04c-.082,0-.16.012-.241.017a5.534,5.534,0,0,0-.907-1.81A3.636,3.636,0,1,0,24.2,7.636a3.559,3.559,0,0,0,.054.621,5.679,5.679,0,0,0-3.271,2.493A4.84,4.84,0,0,0,14.5,15.311a4.871,4.871,0,0,0,.118,1.054,4.833,4.833,0,0,0-3.35,4.6v9.1l-.909-1.238a3.7,3.7,0,0,0-2.51-1.466,3.363,3.363,0,0,0-2.573.718,3.48,3.48,0,0,0-.606,4.752l7.9,10.747a6.336,6.336,0,0,0,2.137,1.841,6.248,6.248,0,0,0,2.722.741l11.738.477A4.7,4.7,0,0,1,32.8,48.57l2.634,3.579a.81.81,0,0,0,1.13.172l9.309-6.847a1.179,1.179,0,0,1,1.625.279l2.786,4.054a3.293,3.293,0,0,1,.578,1.864.808.808,0,0,0,1.616,0,4.912,4.912,0,0,0-.86-2.777ZM19.351,12.08a3.153,3.153,0,0,1,1.592.426.809.809,0,0,0,1.147-.385,4.054,4.054,0,0,1,3.295-2.445.809.809,0,0,0,.636-1.165,1.923,1.923,0,0,1-.207-.874,2.02,2.02,0,1,1,2.93,1.8.808.808,0,0,0-.177,1.318,3.932,3.932,0,0,1,1.243,2.4,3,3,0,0,1,.044.543.808.808,0,1,0,1.616,0,2.427,2.427,0,0,1,2.424,2.424H29.419a.809.809,0,0,0-.615.284,3.42,3.42,0,0,1-.655.587,4.056,4.056,0,0,1-6.118-1.879.808.808,0,1,0-1.512.57c.058.154.144.292.214.44h-4.5a3.315,3.315,0,0,1-.113-.809,3.235,3.235,0,0,1,3.232-3.232Zm-6.464,8.888a3.231,3.231,0,0,1,2.9-3.209,2.106,2.106,0,0,1,.334-.023h5.756a5.623,5.623,0,0,0,7.2.575,5.086,5.086,0,0,0,.691-.575h5.741a3.235,3.235,0,0,1,3.232,3.232V33.895a3.221,3.221,0,0,1-.173,1.029,12.115,12.115,0,0,0-1.8-1.195,11.861,11.861,0,0,0-5.118-1.344s-.007,0-.011,0l-.011,0H21.953a3.4,3.4,0,0,0-1.521.343,3.709,3.709,0,0,0-2.17,3.2,3.4,3.4,0,0,0,.023.361l-1.939-.021a1.04,1.04,0,0,1-.82-.414l-2.638-3.591ZM36.256,50.54,34.1,47.615a6.308,6.308,0,0,0-4.862-2.594L17.5,44.544a4.649,4.649,0,0,1-2.026-.553,4.746,4.746,0,0,1-1.6-1.374l-7.9-10.743a1.857,1.857,0,0,1-.339-1.386A1.832,1.832,0,0,1,6.3,29.333a1.751,1.751,0,0,1,1.354-.37,2.079,2.079,0,0,1,1.409.818l5.169,7.04a2.668,2.668,0,0,0,2.108,1.065l2.417.027a3.565,3.565,0,0,0,.219.346,3.67,3.67,0,0,0,2.884,1.51l7.215.194h.022a.808.808,0,0,0,.02-1.615L21.9,38.153a2.065,2.065,0,0,1-1.622-.848,2.2,2.2,0,0,1-.261-.481A2.074,2.074,0,0,1,19.874,36a2.1,2.1,0,0,1,1.249-1.817A1.825,1.825,0,0,1,21.951,34h9.662a10.221,10.221,0,0,1,4.406,1.159,10.377,10.377,0,0,1,2.263,1.618,9.8,9.8,0,0,1,1.2,1.364l4.789,6.507Z" transform="translate(-0.768 -0.768)" fill="#252525"/>
        <path id="Trazado_901750" data-name="Trazado 901750" d="M33.808,26.616h5.656v7.377a.808.808,0,1,0,1.616,0V25.808A.808.808,0,0,0,40.272,25H33.808a.808.808,0,0,0,0,1.616Z" transform="translate(-6.337 -4.801)" fill="#252525"/>
        <path id="Trazado_901751" data-name="Trazado 901751" d="M19.808,36.416a.808.808,0,0,0,.808-.808V26.616h5.656a.808.808,0,1,0,0-1.616H19.808a.808.808,0,0,0-.808.808v9.8A.808.808,0,0,0,19.808,36.416Z" transform="translate(-3.649 -4.801)" fill="#252525"/>
        <path id="Trazado_901752" data-name="Trazado 901752" d="M33.808,35.848H37.04a.808.808,0,0,0,.808-.808V31.808a.808.808,0,1,0-1.616,0v2.424H33.808a.808.808,0,1,0,0,1.616Z" transform="translate(-6.337 -5.953)" fill="#252525"/>
        <path id="Trazado_901753" data-name="Trazado 901753" d="M52,24.04A4.04,4.04,0,1,0,56.04,20,4.044,4.044,0,0,0,52,24.04Zm4.04-2.424a2.424,2.424,0,1,1-2.424,2.424A2.427,2.427,0,0,1,56.04,21.616Z" transform="translate(-9.986 -3.841)" fill="#252525"/>
        <path id="Trazado_901754" data-name="Trazado 901754" d="M8.08,19.464c0-.034,0-.068,0-.1a3.232,3.232,0,1,0-3.936-3.937A4.04,4.04,0,1,0,8.08,19.464Zm-6.464,0A2.427,2.427,0,0,1,4.04,17.04a2.576,2.576,0,0,1,.62.081.807.807,0,0,0,1-.9,1.616,1.616,0,1,1,1.622,1.623.808.808,0,0,0-.9,1,2.536,2.536,0,0,1,.081.62,2.424,2.424,0,0,1-4.848,0Z" transform="translate(0 -2.497)" fill="#252525"/>
        <path id="Trazado_901755" data-name="Trazado 901755" d="M48,14.828A2.828,2.828,0,1,0,50.828,12,2.831,2.831,0,0,0,48,14.828Zm2.828-1.212a1.212,1.212,0,1,1-1.212,1.212A1.213,1.213,0,0,1,50.828,13.616Z" transform="translate(-9.218 -2.304)" fill="#252525"/>
        <path id="Trazado_901756" data-name="Trazado 901756" d="M28.3,16.238a.808.808,0,0,0,.808-.808A1.3,1.3,0,0,1,30.4,14.137a.808.808,0,1,0,0-1.616,2.913,2.913,0,0,0-2.909,2.909.808.808,0,0,0,.808.808Z" transform="translate(-5.28 -2.405)" fill="#252525"/>
      </g>
    </g>
  </g>
</svg>
