<svg xmlns="http://www.w3.org/2000/svg" xmlns:xlink="http://www.w3.org/1999/xlink" width="109.652" height="109.652" viewBox="0 0 109.652 109.652">
  <defs>
    <filter id="Trazado_874925" x="0" y="0" width="109.652" height="109.652" filterUnits="userSpaceOnUse">
      <feOffset dy="3" input="SourceAlpha"/>
      <feGaussianBlur stdDeviation="3" result="blur"/>
      <feFlood flood-opacity="0.161"/>
      <feComposite operator="in" in2="blur"/>
      <feComposite in="SourceGraphic"/>
    </filter>
  </defs>
  <g id="Grupo_1112164" data-name="Grupo 1112164" transform="translate(-754.781 -1027.91)">
    <g id="Grupo_1111211" data-name="Grupo 1111211" transform="translate(-255.949 -2043.09)">
      <g transform="matrix(1, 0, 0, 1, 1010.73, 3071)" filter="url(#Trazado_874925)">
        <g id="Trazado_874925-2" data-name="Trazado 874925" transform="translate(9 6)" fill="#ffd63c">
          <path d="M 45.82614517211914 90.15280151367188 C 39.84149551391602 90.15280151367188 34.03665924072266 88.98104095458984 28.5728702545166 86.67005157470703 C 23.29473304748535 84.43759155273438 18.55415725708008 81.24130249023438 14.48283290863037 77.16998291015625 C 10.41150760650635 73.09866333007812 7.215232849121094 68.35809326171875 4.982757568359375 63.07994079589844 C 2.671770095825195 57.61616897583008 1.500007629394531 51.81131744384766 1.500007629394531 45.82666778564453 C 1.500007629394531 39.84149169921875 2.671770095825195 34.03665542602539 4.982757568359375 28.57286643981934 C 7.215232849121094 23.29472923278809 10.41150760650635 18.55415534973145 14.48283290863037 14.48283004760742 C 18.55415725708008 10.4115047454834 23.29473304748535 7.215229511260986 28.5728702545166 4.982754707336426 C 34.03665924072266 2.671766996383667 39.84149551391602 1.500004529953003 45.82614517211914 1.500004529953003 C 51.81079483032227 1.500004529953003 57.61564636230469 2.671766996383667 63.07942199707031 4.982754707336426 C 68.35756683349609 7.215229511260986 73.09814453125 10.4115047454834 77.16947174072266 14.48283004760742 C 81.24078369140625 18.55415534973145 84.43707275390625 23.29472923278809 86.66954803466797 28.57286643981934 C 88.98052978515625 34.03665542602539 90.15229797363281 39.84149169921875 90.15229797363281 45.82614135742188 C 90.15229797363281 51.81131744384766 88.98052978515625 57.61616897583008 86.66954803466797 63.07994079589844 C 84.43707275390625 68.35809326171875 81.24078369140625 73.09866333007812 77.16947174072266 77.16998291015625 C 73.09814453125 81.24130249023438 68.35756683349609 84.43759155273438 63.07942199707031 86.67005157470703 C 57.61564636230469 88.98104095458984 51.81079483032227 90.15280151367188 45.82614517211914 90.15280151367188 Z" stroke="none"/>
          <path d="M 45.82614517211914 3.000007629394531 C 40.04333114624023 3.000007629394531 34.43508911132812 4.131904602050781 29.15720367431641 6.364265441894531 C 24.05784606933594 8.521102905273438 19.47753143310547 11.60944366455078 15.54348754882812 15.54348754882812 C 11.60944366455078 19.47753143310547 8.521102905273438 24.05784606933594 6.3642578125 29.15720367431641 C 4.131904602050781 34.43508911132812 3 40.0433349609375 3 45.82667541503906 C 3 51.60948944091797 4.131904602050781 57.21773147583008 6.3642578125 62.49562072753906 C 8.521102905273438 67.59497833251953 11.60944366455078 72.17527770996094 15.54348754882812 76.10932922363281 C 19.47753143310547 80.04337310791016 24.05784606933594 83.13170623779297 29.15718841552734 85.28854370117188 C 34.43508911132812 87.52090454101562 40.04333114624023 88.65280151367188 45.82614517211914 88.65280151367188 C 51.60895919799805 88.65280151367188 57.21720123291016 87.52090454101562 62.49510192871094 85.28854370117188 C 67.59444427490234 83.13170623779297 72.17475891113281 80.04337310791016 76.10880279541016 76.10932922363281 C 80.0428466796875 72.17527770996094 83.13118743896484 67.59497833251953 85.28803253173828 62.49562072753906 C 87.5203857421875 57.21773147583008 88.65229034423828 51.60948944091797 88.65229034423828 45.82614898681641 C 88.65229034423828 40.0433349609375 87.5203857421875 34.43508911132812 85.28803253173828 29.15720367431641 C 83.13118743896484 24.05784606933594 80.0428466796875 19.47753143310547 76.10880279541016 15.54348754882812 C 72.17475891113281 11.60944366455078 67.59444427490234 8.521102905273438 62.49508666992188 6.364265441894531 C 57.21720123291016 4.131904602050781 51.60895919799805 3.000007629394531 45.82614517211914 3.000007629394531 M 45.82614517211914 7.62939453125e-06 C 71.13523101806641 7.62939453125e-06 91.65229034423828 20.51705932617188 91.65229034423828 45.82614898681641 L 91.65229034423828 45.82667541503906 C 91.65229034423828 71.13575744628906 71.13523101806641 91.65280151367188 45.82614517211914 91.65280151367188 C 20.51705932617188 91.65280151367188 0 71.13575744628906 0 45.82667541503906 L 0 45.82614898681641 C 0 20.51705932617188 20.51705932617188 7.62939453125e-06 45.82614517211914 7.62939453125e-06 Z" stroke="none" fill="#fff"/>
        </g>
      </g>
    </g>
    <g id="Filled_outline" data-name="Filled outline" transform="translate(786 1055.188)">
      <path id="Trazado_900255" data-name="Trazado 900255" d="M7.71,3H3V48.526h9.419c0-1.444-.279-2.495-1.57-3.14l-3.14-1.57V27.333c0-3.14-.347-6.443,4.7-10.2.02-.016-.02.015,0,0,2.349-1.726,7.855-2.36,11.78,1.565,5.441,5.441,19.623,1.57,24.333-2.355V3Z" transform="translate(-0.215 -0.215)" fill="#f0f0d9"/>
      <path id="Trazado_900256" data-name="Trazado 900256" d="M23,32.794v6.055h4.71V31A5.694,5.694,0,0,1,23,32.794Z" transform="translate(-4.516 -6.237)" fill="#50b4f8"/>
      <path id="Trazado_900257" data-name="Trazado 900257" d="M14.57,33.14a4.375,4.375,0,0,1-1.57.12v5.374h4.71V30A4.807,4.807,0,0,1,14.57,33.14Z" transform="translate(-2.366 -6.022)" fill="#50b4f8"/>
      <path id="Trazado_900258" data-name="Trazado 900258" d="M26.269,22.868a7.175,7.175,0,0,1-.785-.667c-3.925-3.925-9.43-3.291-11.78-1.565-4.169,3.1-4.659,5.891-4.7,8.537v.093a4.553,4.553,0,0,0,4.71,1.57,4.807,4.807,0,0,0,3.14-3.14A4.615,4.615,0,0,0,19.2,30.05c2.141.871,4.375-.432,5.495-1.57a6.5,6.5,0,0,0,1.57-5.495Z" transform="translate(-1.505 -3.717)" fill="#f98c96"/>
      <path id="Trazado_900259" data-name="Trazado 900259" d="M54.419,39H48.14L45,43.71V54.7a1.57,1.57,0,0,0,1.57,1.57h9.419a1.57,1.57,0,0,0,1.57-1.57V43.71Z" transform="translate(-9.248 -7.957)" fill="#f0f0d9"/>
      <path id="Trazado_900260" data-name="Trazado 900260" d="M49,35h6.279v3.14H49Z" transform="translate(-10.108 -7.097)" fill="#2d75bb"/>
      <path id="Trazado_900261" data-name="Trazado 900261" d="M51,31a3.14,3.14,0,0,1,3.14,3.14H51Z" transform="translate(-10.538 -6.237)" fill="#50b4f8"/>
      <path id="Trazado_900262" data-name="Trazado 900262" d="M32.054,37.279v5.495a6.279,6.279,0,0,1-6.279,6.279H24.2a3.14,3.14,0,0,1-3.14-3.14,3.925,3.925,0,0,0,3.925-3.925v-3.14h-3.14v1.57a2.355,2.355,0,0,1-4.71,0v-1.57H14v3.14a3.925,3.925,0,0,0,3.925,3.925A6.279,6.279,0,0,0,24.2,52.193h1.57a9.419,9.419,0,0,0,9.419-9.419V37.279a3.14,3.14,0,0,1,3.14-3.14h4.71V31h-4.71A6.279,6.279,0,0,0,32.054,37.279Z" transform="translate(-2.581 -6.237)" fill="#7fcac9"/>
      <path id="Trazado_900263" data-name="Trazado 900263" d="M13,37h4.71v3.14H13Z" transform="translate(-2.366 -7.527)" fill="#2d75bb"/>
      <path id="Trazado_900264" data-name="Trazado 900264" d="M23,37h4.71v3.14H23Z" transform="translate(-4.516 -7.527)" fill="#2d75bb"/>
      <g id="Grupo_1111457" data-name="Grupo 1111457" transform="translate(2.785 2.785)">
        <path id="Trazado_900265" data-name="Trazado 900265" d="M3,20.269a9.812,9.812,0,0,1,3.14-4.71c3.812-2.989,8.327-1.057,10.2-3.925a4.338,4.338,0,0,0,0-4.71c-.856-1.177-2.757-.314-3.925-1.57A3.459,3.459,0,0,1,11.634,3H3Z" transform="translate(-3 -3)" fill="#394d5c"/>
        <path id="Trazado_900266" data-name="Trazado 900266" d="M24,3a8.7,8.7,0,0,0,1.57,5.495c2.24,3.061,6.531,4.23,9.419,3.14,1.684-.636,1.946-1.684,3.14-1.57,2.1.2,2.1,3.509,4.71,4.71,2.355,1.084,5.375-.219,7.064-1.57a8.971,8.971,0,0,0,3.14-7.064V3Z" transform="translate(-7.513 -3)" fill="#394d5c"/>
        <path id="Trazado_900267" data-name="Trazado 900267" d="M10.849,56.14,7.71,54.57V53H3v6.279h9.419C12.419,57.836,12.14,56.785,10.849,56.14Z" transform="translate(-3 -13.753)" fill="#394d5c"/>
      </g>
      <path id="Trazado_900268" data-name="Trazado 900268" d="M48.311,2H2.785A.785.785,0,0,0,2,2.785V48.311a.785.785,0,0,0,.785.785H12.2a.785.785,0,0,0,.785-.785c0-1.4-.235-2.959-2-3.846L8.279,43.117V27.265a5.365,5.365,0,0,0,1.57.648v4.7a.785.785,0,0,0,.785.785v2.355A4.718,4.718,0,0,0,14.6,40.4a7.075,7.075,0,0,0,7.028,6.338h1.57a10.216,10.216,0,0,0,10.2-10.2V31.043a2.355,2.355,0,0,1,2.355-2.355h2.355v2.119L35.1,35.319a.79.79,0,0,0-.132.433V46.741A2.355,2.355,0,0,0,37.322,49.1h9.419A2.355,2.355,0,0,0,49.1,46.741V35.752a.79.79,0,0,0-.132-.436l-3.008-4.509V27.9a.785.785,0,0,0-.785-.785h-.863a3.932,3.932,0,0,0-3.846-3.14h-4.71a7.072,7.072,0,0,0-7.064,7.064v5.495a5.5,5.5,0,0,1-5.495,5.495h-1.57a2.359,2.359,0,0,1-2.248-1.654,4.72,4.72,0,0,0,3.818-4.626V33.4a.785.785,0,0,0,.785-.785V25.061a6.933,6.933,0,0,0,1.655-4.446c3.517,1.77,8.148,1.425,10.911.978,4.776-.772,9.706-2.726,12.269-4.861a.785.785,0,0,0,.283-.6V2.785A.785.785,0,0,0,48.311,2ZM3.57,3.57h7.119a3.785,3.785,0,0,0,.942,2.1,3.834,3.834,0,0,0,2.583,1.064c.677.078,1.071.142,1.282.433a3.582,3.582,0,0,1-.022,3.818c-.755,1.154-2.143,1.341-3.9,1.579a11.645,11.645,0,0,0-6.13,2.158,9.341,9.341,0,0,0-1.873,1.98Zm6.714,42.308a1.855,1.855,0,0,1,1.095,1.648H3.57v-4.71H6.71V43.6a.785.785,0,0,0,.434.706Zm1.136-14.05v-1.57h3.14v1.57Zm0-3.14v-.655a5.113,5.113,0,0,0,.991-.157,4.965,4.965,0,0,0,2.149-1.221v2.034ZM47.526,46.741a.785.785,0,0,1-.785.785H37.322a.785.785,0,0,1-.785-.785v-10.2H47.526Zm-.681-11.774H37.219l2.093-3.14h5.44Zm-5.6-9.285a2.365,2.365,0,0,1,1.436,1.436H41.247Zm3.14,3.006v1.57h-4.71v-1.57ZM21.623,35.752a3.14,3.14,0,0,1-3.14,3.14.785.785,0,0,0-.785.785A3.929,3.929,0,0,0,21.623,43.6h1.57a7.072,7.072,0,0,0,7.064-7.064V31.043a5.5,5.5,0,0,1,5.495-5.495h3.925v1.57H35.752a3.929,3.929,0,0,0-3.925,3.925v5.495a8.645,8.645,0,0,1-8.634,8.634h-1.57a5.5,5.5,0,0,1-5.495-5.495.785.785,0,0,0-.785-.785,3.14,3.14,0,0,1-3.14-3.14V33.4h1.57v.785a3.14,3.14,0,1,0,6.279,0V33.4h1.57ZM18.484,33.4v.785a1.57,1.57,0,1,1-3.14,0V33.4a.785.785,0,0,0,.785-.785V26.284a4.8,4.8,0,0,0,1.274.776c.1.039.2.071.3.1v5.449A.785.785,0,0,0,18.484,33.4Zm3.925-1.57h-3.14v-1.57h3.14Zm0-3.14h-3.14v-1.3a6.3,6.3,0,0,0,3.14-1Zm.225-4.474c-.856.87-2.8,2.14-4.639,1.393a3.778,3.778,0,0,1-1.866-1.81V20.838h-1.57v3.013A4,4,0,0,1,12,26.364a3.743,3.743,0,0,1-3.714-1.113c.067-2.469.611-4.894,4.38-7.7a8.762,8.762,0,0,1,10.758,1.491c.189.189.392.361.593.528a5.63,5.63,0,0,1-1.383,4.641Zm24.893-8.461c-4.867,3.753-18.112,7.057-22.993,2.176-4.15-4.15-10.089-3.625-12.794-1.648l-.005.005-.011.009C6.663,20.06,6.687,23.507,6.71,26.554V41.247H3.57V20.2a8.885,8.885,0,0,1,2.839-4.239,10.254,10.254,0,0,1,5.372-1.838c1.983-.268,3.856-.522,5-2.276a5.107,5.107,0,0,0-.022-5.6A3.093,3.093,0,0,0,14.4,5.179a2.451,2.451,0,0,1-1.621-.573,2.144,2.144,0,0,1-.488-1.036h6.191A9.287,9.287,0,0,0,20.2,8.743c2.313,3.158,6.947,4.687,10.331,3.411a6.539,6.539,0,0,0,1.82-1.075c.471-.365.633-.476.966-.449.628.06.991.628,1.577,1.624a6.649,6.649,0,0,0,2.88,3.017,5.4,5.4,0,0,0,2.272.471A9.477,9.477,0,0,0,45.658,13.6a8.675,8.675,0,0,0,1.868-2.06Zm0-9.447a8.141,8.141,0,0,1-2.845,6.071c-1.661,1.327-4.326,2.355-6.247,1.47a5.249,5.249,0,0,1-2.183-2.386c-.65-1.108-1.323-2.252-2.78-2.392a2.747,2.747,0,0,0-2.084.775,4.929,4.929,0,0,1-1.408.841,7.969,7.969,0,0,1-8.508-2.869A7.6,7.6,0,0,1,20.054,3.57H47.526Z"/>
      <path id="Trazado_900269" data-name="Trazado 900269" d="M56,52h1.57v4.71H56Z" transform="translate(-11.613 -10.753)"/>
      <path id="Trazado_900270" data-name="Trazado 900270" d="M56,48h1.57v1.57H56Z" transform="translate(-11.613 -9.893)"/>
      <path id="Trazado_900271" data-name="Trazado 900271" d="M56,6h1.57V7.57H56Z" transform="translate(-11.613 -0.86)"/>
      <path id="Trazado_900272" data-name="Trazado 900272" d="M52,10h1.57v1.57H52Z" transform="translate(-10.753 -1.721)"/>
    </g>
  </g>
</svg>
