<svg xmlns="http://www.w3.org/2000/svg" xmlns:xlink="http://www.w3.org/1999/xlink" width="109.652" height="109.652" viewBox="0 0 109.652 109.652">
  <defs>
    <filter id="Trazado_874925" x="0" y="0" width="109.652" height="109.652" filterUnits="userSpaceOnUse">
      <feOffset dy="3" input="SourceAlpha"/>
      <feGaussianBlur stdDeviation="3" result="blur"/>
      <feFlood flood-opacity="0.161"/>
      <feComposite operator="in" in2="blur"/>
      <feComposite in="SourceGraphic"/>
    </filter>
    <clipPath id="clip-path">
      <path id="path1593" d="M0-682.665H57.881v57.881H0Z" transform="translate(0 682.665)"/>
    </clipPath>
  </defs>
  <g id="Grupo_1112157" data-name="Grupo 1112157" transform="translate(-745.174 -1367)">
    <g id="Grupo_1111357" data-name="Grupo 1111357" transform="translate(-265.557 -1704)">
      <g transform="matrix(1, 0, 0, 1, 1010.73, 3071)" filter="url(#Trazado_874925)">
        <g id="Trazado_874925-2" data-name="Trazado 874925" transform="translate(9 6)" fill="#ffd63c">
          <path d="M 45.82614517211914 90.15280151367188 C 39.84149551391602 90.15280151367188 34.03665924072266 88.98104095458984 28.5728702545166 86.67005157470703 C 23.29473304748535 84.43759155273438 18.55415725708008 81.24130249023438 14.48283290863037 77.16998291015625 C 10.41150760650635 73.09866333007812 7.215232849121094 68.35809326171875 4.982757568359375 63.07994079589844 C 2.671770095825195 57.61616897583008 1.500007629394531 51.81131744384766 1.500007629394531 45.82666778564453 C 1.500007629394531 39.84149169921875 2.671770095825195 34.03665542602539 4.982757568359375 28.57286643981934 C 7.215232849121094 23.29472923278809 10.41150760650635 18.55415534973145 14.48283290863037 14.48283004760742 C 18.55415725708008 10.4115047454834 23.29473304748535 7.215229511260986 28.5728702545166 4.982754707336426 C 34.03665924072266 2.671766996383667 39.84149551391602 1.500004529953003 45.82614517211914 1.500004529953003 C 51.81079483032227 1.500004529953003 57.61564636230469 2.671766996383667 63.07942199707031 4.982754707336426 C 68.35756683349609 7.215229511260986 73.09814453125 10.4115047454834 77.16947174072266 14.48283004760742 C 81.24078369140625 18.55415534973145 84.43707275390625 23.29472923278809 86.66954803466797 28.57286643981934 C 88.98052978515625 34.03665542602539 90.15229797363281 39.84149169921875 90.15229797363281 45.82614135742188 C 90.15229797363281 51.81131744384766 88.98052978515625 57.61616897583008 86.66954803466797 63.07994079589844 C 84.43707275390625 68.35809326171875 81.24078369140625 73.09866333007812 77.16947174072266 77.16998291015625 C 73.09814453125 81.24130249023438 68.35756683349609 84.43759155273438 63.07942199707031 86.67005157470703 C 57.61564636230469 88.98104095458984 51.81079483032227 90.15280151367188 45.82614517211914 90.15280151367188 Z" stroke="none"/>
          <path d="M 45.82614517211914 3.000007629394531 C 40.04333114624023 3.000007629394531 34.43508911132812 4.131904602050781 29.15720367431641 6.364265441894531 C 24.05784606933594 8.521102905273438 19.47753143310547 11.60944366455078 15.54348754882812 15.54348754882812 C 11.60944366455078 19.47753143310547 8.521102905273438 24.05784606933594 6.3642578125 29.15720367431641 C 4.131904602050781 34.43508911132812 3 40.0433349609375 3 45.82667541503906 C 3 51.60948944091797 4.131904602050781 57.21773147583008 6.3642578125 62.49562072753906 C 8.521102905273438 67.59497833251953 11.60944366455078 72.17527770996094 15.54348754882812 76.10932922363281 C 19.47753143310547 80.04337310791016 24.05784606933594 83.13170623779297 29.15718841552734 85.28854370117188 C 34.43508911132812 87.52090454101562 40.04333114624023 88.65280151367188 45.82614517211914 88.65280151367188 C 51.60895919799805 88.65280151367188 57.21720123291016 87.52090454101562 62.49510192871094 85.28854370117188 C 67.59444427490234 83.13170623779297 72.17475891113281 80.04337310791016 76.10880279541016 76.10932922363281 C 80.0428466796875 72.17527770996094 83.13118743896484 67.59497833251953 85.28803253173828 62.49562072753906 C 87.5203857421875 57.21773147583008 88.65229034423828 51.60948944091797 88.65229034423828 45.82614898681641 C 88.65229034423828 40.0433349609375 87.5203857421875 34.43508911132812 85.28803253173828 29.15720367431641 C 83.13118743896484 24.05784606933594 80.0428466796875 19.47753143310547 76.10880279541016 15.54348754882812 C 72.17475891113281 11.60944366455078 67.59444427490234 8.521102905273438 62.49508666992188 6.364265441894531 C 57.21720123291016 4.131904602050781 51.60895919799805 3.000007629394531 45.82614517211914 3.000007629394531 M 45.82614517211914 7.62939453125e-06 C 71.13523101806641 7.62939453125e-06 91.65229034423828 20.51705932617188 91.65229034423828 45.82614898681641 L 91.65229034423828 45.82667541503906 C 91.65229034423828 71.13575744628906 71.13523101806641 91.65280151367188 45.82614517211914 91.65280151367188 C 20.51705932617188 91.65280151367188 0 71.13575744628906 0 45.82667541503906 L 0 45.82614898681641 C 0 20.51705932617188 20.51705932617188 7.62939453125e-06 45.82614517211914 7.62939453125e-06 Z" stroke="none" fill="#fff"/>
        </g>
      </g>
    </g>
    <g id="g1587" transform="translate(771.544 2073.551)">
      <g id="g1589" transform="translate(0 -682.665)">
        <g id="g1591" transform="translate(0 0)" clip-path="url(#clip-path)">
          <g id="g1597" transform="translate(31.305 1.272)">
            <path id="path1599" d="M-101.392-8.775l-.92,1.389a6.632,6.632,0,0,1-2.031,1.972l-6.442,4,7.673,3.9,3.521-4.4A6.91,6.91,0,0,0-98.076-6.23V-7.776a1.808,1.808,0,0,0-3.315-1" transform="translate(110.785 9.588)" fill="#ffd15b"/>
          </g>
          <g id="g1601" transform="translate(13.867 1.272)">
            <path id="path1603" d="M-67.641-45.054a6.635,6.635,0,0,1-2.031-1.972l-.92-1.389a1.808,1.808,0,0,0-3.315,1v1.547a6.911,6.911,0,0,0,1.514,4.317l8.279-1.311Z" transform="translate(73.908 49.227)" fill="#ffd15b"/>
          </g>
          <g id="g1605" transform="translate(31.305 5.861)">
            <path id="path1607" d="M-82.825-80.817l3.515-4.393A13.519,13.519,0,0,0-84.726-88.3L-90.5-84.719Z" transform="translate(90.498 88.304)" fill="#ffc344"/>
          </g>
          <g id="g1609" transform="translate(15.388 5.861)">
            <path id="path1611" d="M-120.763-38.694l-5.773-3.585a13.517,13.517,0,0,0-5.415,3.094l3.515,4.393Z" transform="translate(131.95 42.279)" fill="#ffc344"/>
          </g>
          <g id="g1613" transform="translate(40.981 10.585)">
            <path id="path1615" d="M0-79.608l6.849,2.421a6.944,6.944,0,0,0,6.793-1.24l1.319-1.113a3.07,3.07,0,0,0,0-4.693l-1.319-1.113a6.944,6.944,0,0,0-6.793-1.24L0-84.164Z" transform="translate(0 86.983)" fill="#f4aa73"/>
          </g>
          <g id="g1617" transform="translate(40.981 10.585)">
            <path id="path1619" d="M-149.1-50.454l2.239.423a3.056,3.056,0,0,0-1.09-2.347l-1.319-1.113a6.944,6.944,0,0,0-6.793-1.24l-6.849,2.421v3.238l4.157-1.069a22.227,22.227,0,0,1,9.656-.314" transform="translate(162.917 55.128)" fill="#919090"/>
          </g>
          <g id="g1621" transform="translate(40.981 10.585)">
            <path id="path1623" d="M-78.055-18.772l3.8-1.342q.112-.04.225-.075a6.943,6.943,0,0,0-4.4.075l-6.849,2.421v3.238l4.157-1.069.158-.038a4.578,4.578,0,0,1,2.916-3.21" transform="translate(85.286 20.511)" fill="#848383"/>
          </g>
          <g id="g1625" transform="translate(0.848 10.585)">
            <path id="path1627" d="M-173.268-79.608l-6.849,2.421a6.944,6.944,0,0,1-6.793-1.24l-1.319-1.113a3.07,3.07,0,0,1,0-4.693l1.319-1.113a6.944,6.944,0,0,1,6.793-1.24l6.849,2.421Z" transform="translate(189.32 86.983)" fill="#f4aa73"/>
          </g>
          <g id="g1629" transform="translate(0.848 10.585)">
            <path id="path1631" d="M-24.164-50.454l-2.239.423a3.056,3.056,0,0,1,1.09-2.347l1.319-1.113a6.944,6.944,0,0,1,6.793-1.24l6.849,2.421v3.238l-4.157-1.069a22.227,22.227,0,0,0-9.656-.314" transform="translate(26.403 55.128)" fill="#919090"/>
          </g>
          <g id="g1633" transform="translate(0.848 10.585)">
            <path id="path1635" d="M-56.262-29.682l1.319-1.113a6.937,6.937,0,0,1,2.418-1.323,6.944,6.944,0,0,0-6.539,1.323l-1.319,1.113a3.056,3.056,0,0,0-1.09,2.347l2.239-.423q.978-.184,1.965-.279a3.048,3.048,0,0,1,1.009-1.645" transform="translate(61.475 32.432)" fill="#848383"/>
          </g>
          <g id="g1637" transform="translate(11.852 7.85)">
            <path id="path1639" d="M-327.4-444.451h0a18.266,18.266,0,0,1,.787-9.595l1.735-4.775a22.03,22.03,0,0,0,.619-13.053l-1.436-5.537a10.968,10.968,0,0,0-10.617-8.215h-8.661a10.968,10.968,0,0,0-10.617,8.215l-1.436,5.537a22.029,22.029,0,0,0,.619,13.053l1.735,4.775a18.267,18.267,0,0,1,.787,9.595h0a6.407,6.407,0,0,0,6.3,7.585H-333.7a6.407,6.407,0,0,0,6.3-7.585" transform="translate(357.735 485.625)" fill="#f7f5f5"/>
          </g>
          <g id="g1641" transform="translate(11.852 7.85)">
            <path id="path1643" d="M-80.7-444.451h0a18.266,18.266,0,0,0-.787-9.595l-1.735-4.775a22.03,22.03,0,0,1-.619-13.053l1.436-5.537a10.968,10.968,0,0,1,10.617-8.215h-3.63a10.968,10.968,0,0,0-10.617,8.215l-1.436,5.537a22.029,22.029,0,0,0,.619,13.053l1.735,4.775a18.267,18.267,0,0,1,.787,9.595h0a6.407,6.407,0,0,0,6.3,7.585h3.63a6.407,6.407,0,0,1-6.3-7.585" transform="translate(88.179 485.626)" fill="#f0e9e9"/>
          </g>
          <g id="g1645" transform="translate(15.587 42.641)">
            <path id="path1647" d="M-287.083-68.911l-.012-.064a7.667,7.667,0,0,0-7.525-6.32h-11.411a7.667,7.667,0,0,0-7.525,6.32l-.012.064a6.407,6.407,0,0,0,6.3,7.585h13.889a6.407,6.407,0,0,0,6.3-7.585" transform="translate(313.679 75.294)" fill="#f4aa73"/>
          </g>
          <g id="g1649" transform="translate(15.587 42.641)">
            <path id="path1651" d="M-34.547-68.911l.012-.064a7.667,7.667,0,0,1,7.525-6.32H-30.1a7.667,7.667,0,0,0-7.525,6.32l-.012.064a6.407,6.407,0,0,0,6.3,7.585h3.09a6.407,6.407,0,0,1-6.3-7.585" transform="translate(37.748 75.294)" fill="#ea9f6c"/>
          </g>
          <g id="g1653" transform="translate(32.57 8.746)">
            <path id="path1655" d="M-137.664-138.773l-1.436-5.537a10.966,10.966,0,0,0-6.276-7.319l-3.712,8.967a17.475,17.475,0,0,0-1.329,6.684v1.677a10.592,10.592,0,0,0,5.348,9.2l5.435,3.1,1.352-3.72a22.029,22.029,0,0,0,.619-13.053" transform="translate(150.417 151.629)" fill="#919090"/>
          </g>
          <g id="g1657" transform="translate(11.852 8.746)">
            <path id="path1659" d="M-130.933-96.8l-3.712-8.967a10.966,10.966,0,0,0-6.276,7.319l-1.436,5.537a22.029,22.029,0,0,0,.619,13.053l1.351,3.72,5.435-3.1a10.592,10.592,0,0,0,5.348-9.2v-1.677a17.475,17.475,0,0,0-1.329-6.684" transform="translate(143.063 105.762)" fill="#919090"/>
          </g>
          <g id="g1661" transform="translate(11.852 8.747)">
            <path id="path1663" d="M-23.115-79l-1.436,5.537a22.029,22.029,0,0,0,.619,13.053l1.351,3.72,3.007-1.714-.729-2.006a22.029,22.029,0,0,1-.619-13.053L-19.485-79a10.945,10.945,0,0,1,3.4-5.5l-.752-1.817A10.966,10.966,0,0,0-23.115-79" transform="translate(25.256 86.317)" fill="#848383"/>
          </g>
          <g id="g1665" transform="translate(21.161 47.618)">
            <path id="path1667" d="M-25.314,0a2.345,2.345,0,0,0-2.345,2.345A2.345,2.345,0,0,0-25.314,4.69a2.345,2.345,0,0,0,2.345-2.345A2.345,2.345,0,0,0-25.314,0" transform="translate(27.659)" fill="#ea9f6c"/>
          </g>
          <g id="g1669" transform="translate(32.03 47.618)">
            <path id="path1671" d="M-25.314,0a2.345,2.345,0,0,0-2.345,2.345A2.345,2.345,0,0,0-25.314,4.69a2.345,2.345,0,0,0,2.345-2.345A2.345,2.345,0,0,0-25.314,0" transform="translate(27.659)" fill="#ea9f6c"/>
          </g>
          <g id="g1673" transform="translate(36.371 22.4)">
            <path id="path1675" d="M-25.642,0h0a2.376,2.376,0,0,0-2.375,2.375h0a2.376,2.376,0,0,0,2.375,2.375h0a2.376,2.376,0,0,0,2.375-2.375h0A2.376,2.376,0,0,0-25.642,0" transform="translate(28.017)" fill="#777272"/>
          </g>
          <g id="g1677" transform="translate(16.758 22.4)">
            <path id="path1679" d="M-25.642,0h0a2.376,2.376,0,0,0-2.375,2.375h0a2.376,2.376,0,0,0,2.375,2.375h0a2.376,2.376,0,0,0,2.375-2.375h0A2.376,2.376,0,0,0-25.642,0" transform="translate(28.017)" fill="#777272"/>
          </g>
          <g id="g1681" transform="translate(36.899 0.421)">
            <path id="path1683" d="M-44.06-111.668a.844.844,0,0,1-.529-.186.848.848,0,0,1-.132-1.192l1.518-1.9a6.085,6.085,0,0,0,1.328-3.787v-1.547a.929.929,0,0,0-.683-.919.929.929,0,0,0-1.077.389l-.92,1.389a7.432,7.432,0,0,1-2.291,2.224.848.848,0,0,1-1.168-.273.848.848,0,0,1,.273-1.168,5.748,5.748,0,0,0,1.771-1.72l.92-1.389a2.608,2.608,0,0,1,2.98-1.076,2.608,2.608,0,0,1,1.89,2.543v1.547a7.787,7.787,0,0,1-1.7,4.847l-1.518,1.9A.846.846,0,0,1-44.06-111.668Z" transform="translate(48.141 122.939)"/>
          </g>
          <g id="g1685" transform="translate(13.019 0.421)">
            <path id="path1687" d="M-40.363-109.762a.846.846,0,0,1-.663-.318L-42.4-111.8a7.787,7.787,0,0,1-1.7-4.847V-118.2a2.608,2.608,0,0,1,1.89-2.543,2.608,2.608,0,0,1,2.98,1.076l.92,1.389a5.748,5.748,0,0,0,1.771,1.72l3.527,2.19a.848.848,0,0,1,.273,1.168.848.848,0,0,1-1.168.273l-3.527-2.19a7.432,7.432,0,0,1-2.291-2.224l-.92-1.389a.929.929,0,0,0-1.078-.389.929.929,0,0,0-.683.919v1.547a6.085,6.085,0,0,0,1.328,3.787l1.377,1.721a.848.848,0,0,1-.132,1.192A.844.844,0,0,1-40.363-109.762Z" transform="translate(44.103 120.857)"/>
          </g>
          <g id="g1689" transform="translate(42.136 9.741)">
            <path id="path1691" d="M-62.035-114.576a7.827,7.827,0,0,1-2.335-.358A.848.848,0,0,1-64.927-116a.848.848,0,0,1,1.062-.557,6.067,6.067,0,0,0,5.748-1.16l1.319-1.113a2.218,2.218,0,0,0,.789-1.7,2.218,2.218,0,0,0-.789-1.7l-1.319-1.113a6.119,6.119,0,0,0-5.963-1.088l-4.846,1.713a.848.848,0,0,1-1.082-.517.848.848,0,0,1,.517-1.082l4.846-1.713a7.821,7.821,0,0,1,7.622,1.391l1.319,1.113a3.91,3.91,0,0,1,1.391,2.995,3.91,3.91,0,0,1-1.391,2.995l-1.319,1.113A7.757,7.757,0,0,1-62.035-114.576Z" transform="translate(70.057 126.465)"/>
          </g>
          <g id="g1693" transform="translate(43.383 14.029)">
            <path id="path1695" d="M-9.155-18.334a.848.848,0,0,1-.821-.637A.848.848,0,0,1-9.365-20l.907-.233a23.227,23.227,0,0,1,10.024-.326l2,.377a.848.848,0,0,1,.676.99.848.848,0,0,1-.99.676l-2-.377a21.52,21.52,0,0,0-9.287.3l-.907.233A.849.849,0,0,1-9.155-18.334Z" transform="translate(10.002 20.959)"/>
          </g>
          <g id="g1697" transform="translate(0 9.74)">
            <path id="path1699" d="M-142.414-102.44a7.818,7.818,0,0,1-5.036-1.833l-1.319-1.113a3.91,3.91,0,0,1-1.391-2.995,3.91,3.91,0,0,1,1.391-2.995l1.319-1.113a7.821,7.821,0,0,1,7.622-1.391l5.015,1.773a.848.848,0,0,1,.517,1.082.848.848,0,0,1-1.082.517l-5.015-1.773a6.119,6.119,0,0,0-5.964,1.088l-1.319,1.113a2.218,2.218,0,0,0-.789,1.7,2.218,2.218,0,0,0,.789,1.7l1.319,1.113a6.119,6.119,0,0,0,5.964,1.088l2.681-.948a.848.848,0,0,1,1.082.517.848.848,0,0,1-.517,1.082l-2.681.948A7.757,7.757,0,0,1-142.414-102.44Z" transform="translate(150.161 114.323)"/>
          </g>
          <g id="g1701" transform="translate(0.434 14.029)">
            <path id="path1703" d="M-143.437-18.536a.849.849,0,0,1-.212-.027l-.98-.252a21.52,21.52,0,0,0-9.287-.3l-1.8.341a.848.848,0,0,1-.99-.676.848.848,0,0,1,.676-.99l1.8-.341a23.227,23.227,0,0,1,10.024.326l.98.252a.848.848,0,0,1,.61,1.032A.848.848,0,0,1-143.437-18.536Z" transform="translate(156.725 21.18)"/>
          </g>
          <g id="g1705" transform="translate(14.864 41.793)">
            <path id="path1707" d="M-140.874-2.679l-.846-.089-.834-.155A8.539,8.539,0,0,1-134.183-10h3.716a.848.848,0,0,1,.848.848.848.848,0,0,1-.848.848h-3.716A6.826,6.826,0,0,0-140.874-2.679Z" transform="translate(142.553 10)"/>
          </g>
          <g id="g1709" transform="translate(30.185 41.793)">
            <path id="path1711" d="M-129.533-77.245a.81.81,0,0,1-.814-.661l-.013-.068A6.826,6.826,0,0,0-137.05-83.6h-3.613a.848.848,0,0,1-.848-.848.848.848,0,0,1,.848-.848h3.613a8.521,8.521,0,0,1,8.359,7.015.876.876,0,0,1-.674,1.018A.923.923,0,0,1-129.533-77.245Z" transform="translate(141.512 85.294)"/>
          </g>
          <g id="g1713" transform="translate(10.999 7.002)">
            <path id="path1715" d="M-342.9-445.171h-13.889a7.234,7.234,0,0,1-5.581-2.62,7.235,7.235,0,0,1-1.55-5.968,17.431,17.431,0,0,0-.75-9.149l-1.735-4.775a22.781,22.781,0,0,1-.643-13.555l1.436-5.537a11.817,11.817,0,0,1,11.438-8.85h8.661a11.817,11.817,0,0,1,11.438,8.85l1.436,5.537a22.782,22.782,0,0,1-.643,13.555l-1.735,4.775a17.43,17.43,0,0,0-.751,9.149,7.234,7.234,0,0,1-1.55,5.968A7.234,7.234,0,0,1-342.9-445.171Zm-11.275-48.759a10.121,10.121,0,0,0-9.8,7.58l-1.436,5.537a21.092,21.092,0,0,0,.6,12.551l1.735,4.775a19.128,19.128,0,0,1,.824,10.04,5.544,5.544,0,0,0,1.188,4.573,5.543,5.543,0,0,0,4.277,2.008H-342.9a5.543,5.543,0,0,0,4.277-2.008,5.543,5.543,0,0,0,1.188-4.573,19.128,19.128,0,0,1,.824-10.04l1.735-4.775a21.093,21.093,0,0,0,.6-12.551l-1.436-5.537a10.121,10.121,0,0,0-9.8-7.58Z" transform="translate(367.786 495.625)"/>
          </g>
          <g id="g1717" transform="translate(31.723 7.898)">
            <path id="path1719" d="M-57.826,21.322a.844.844,0,0,1-.419-.111l-5.435-3.1a11.464,11.464,0,0,1-5.776-9.939V6.5A18.231,18.231,0,0,1-68.062-.512l3.712-8.967a.848.848,0,0,1,1.108-.459.848.848,0,0,1,.459,1.108L-66.5.137A16.544,16.544,0,0,0-67.76,6.5V8.174a9.764,9.764,0,0,0,4.92,8.466l5.435,3.1a.848.848,0,0,1,.317,1.156A.848.848,0,0,1-57.826,21.322Z" transform="translate(69.456 10.003)"/>
          </g>
          <g id="g1721" transform="translate(13.68 7.898)">
            <path id="path1723" d="M-9.153-328.128a.848.848,0,0,1-.737-.428.848.848,0,0,1,.317-1.156l5.435-3.1a9.764,9.764,0,0,0,4.919-8.466v-1.677a16.546,16.546,0,0,0-1.264-6.36L-4.2-358.28a.848.848,0,0,1,.459-1.108.848.848,0,0,1,1.108.459l3.712,8.967a18.233,18.233,0,0,1,1.393,7.008v1.677A11.463,11.463,0,0,1-3.3-331.337l-5.435,3.1A.844.844,0,0,1-9.153-328.128Z" transform="translate(10.002 359.452)"/>
          </g>
          <g id="g1725" transform="translate(20.313 46.77)">
            <path id="path1727" d="M-34.466-10a3.2,3.2,0,0,1,3.193,3.193,3.2,3.2,0,0,1-3.193,3.193,3.2,3.2,0,0,1-3.193-3.193A3.2,3.2,0,0,1-34.466-10Zm0,4.69a1.5,1.5,0,0,0,1.5-1.5,1.5,1.5,0,0,0-1.5-1.5,1.5,1.5,0,0,0-1.5,1.5A1.5,1.5,0,0,0-34.466-5.31Z" transform="translate(37.659 10)"/>
          </g>
          <g id="g1729" transform="translate(31.182 46.77)">
            <path id="path1731" d="M-34.466-10a3.2,3.2,0,0,1,3.193,3.193,3.2,3.2,0,0,1-3.193,3.193,3.2,3.2,0,0,1-3.193-3.193A3.2,3.2,0,0,1-34.466-10Zm0,4.69a1.5,1.5,0,0,0,1.5-1.5,1.5,1.5,0,0,0-1.5-1.5,1.5,1.5,0,0,0-1.5,1.5A1.5,1.5,0,0,0-34.466-5.31Z" transform="translate(37.659 10)"/>
          </g>
          <g id="g1733" transform="translate(35.524 21.553)">
            <path id="path1735" d="M-34.794-10a3.227,3.227,0,0,1,3.223,3.223,3.227,3.227,0,0,1-3.223,3.223,3.227,3.227,0,0,1-3.223-3.223A3.227,3.227,0,0,1-34.794-10Zm0,4.751a1.529,1.529,0,0,0,1.528-1.528A1.529,1.529,0,0,0-34.794-8.3a1.529,1.529,0,0,0-1.528,1.528A1.529,1.529,0,0,0-34.794-5.249Z" transform="translate(38.017 10)"/>
          </g>
          <g id="g1737" transform="translate(15.911 21.553)">
            <path id="path1739" d="M-34.794-10a3.227,3.227,0,0,1,3.223,3.223,3.227,3.227,0,0,1-3.223,3.223,3.227,3.227,0,0,1-3.223-3.223A3.227,3.227,0,0,1-34.794-10Zm0,4.751a1.529,1.529,0,0,0,1.528-1.528A1.529,1.529,0,0,0-34.794-8.3a1.529,1.529,0,0,0-1.528,1.528A1.529,1.529,0,0,0-34.794-5.249Z" transform="translate(38.017 10)"/>
          </g>
        </g>
      </g>
    </g>
  </g>
</svg>
