<svg xmlns="http://www.w3.org/2000/svg" xmlns:xlink="http://www.w3.org/1999/xlink" width="109.652" height="109.653" viewBox="0 0 109.652 109.653">
  <defs>
    <filter id="Trazado_874925" x="0" y="0" width="109.652" height="109.653" filterUnits="userSpaceOnUse">
      <feOffset dy="3" input="SourceAlpha"/>
      <feGaussianBlur stdDeviation="3" result="blur"/>
      <feFlood flood-opacity="0.161"/>
      <feComposite operator="in" in2="blur"/>
      <feComposite in="SourceGraphic"/>
    </filter>
  </defs>
  <g id="Grupo_1112180" data-name="Grupo 1112180" transform="translate(-1010.73 -3071)">
    <g transform="matrix(1, 0, 0, 1, 1010.73, 3071)" filter="url(#Trazado_874925)">
      <g id="Trazado_874925-2" data-name="Trazado 874925" transform="translate(9 6)" fill="#ffd63c">
        <path d="M 45.82614517211914 90.15280151367188 C 39.84149551391602 90.15280151367188 34.03665924072266 88.98104095458984 28.5728702545166 86.67005157470703 C 23.29473304748535 84.43759155273438 18.55415725708008 81.24130249023438 14.48283290863037 77.16998291015625 C 10.41150760650635 73.09866333007812 7.215232849121094 68.35809326171875 4.982757568359375 63.07994079589844 C 2.671770095825195 57.61616897583008 1.500007629394531 51.81131744384766 1.500007629394531 45.82666778564453 C 1.500007629394531 39.84149169921875 2.671770095825195 34.03665542602539 4.982757568359375 28.57286643981934 C 7.215232849121094 23.29472923278809 10.41150760650635 18.55415534973145 14.48283290863037 14.48283004760742 C 18.55415725708008 10.4115047454834 23.29473304748535 7.215229511260986 28.5728702545166 4.982754707336426 C 34.03665924072266 2.671766996383667 39.84149551391602 1.500004529953003 45.82614517211914 1.500004529953003 C 51.81079483032227 1.500004529953003 57.61564636230469 2.671766996383667 63.07942199707031 4.982754707336426 C 68.35756683349609 7.215229511260986 73.09814453125 10.4115047454834 77.16947174072266 14.48283004760742 C 81.24078369140625 18.55415534973145 84.43707275390625 23.29472923278809 86.66954803466797 28.57286643981934 C 88.98052978515625 34.03665542602539 90.15229797363281 39.84149169921875 90.15229797363281 45.82614135742188 C 90.15229797363281 51.81131744384766 88.98052978515625 57.61616897583008 86.66954803466797 63.07994079589844 C 84.43707275390625 68.35809326171875 81.24078369140625 73.09866333007812 77.16947174072266 77.16998291015625 C 73.09814453125 81.24130249023438 68.35756683349609 84.43759155273438 63.07942199707031 86.67005157470703 C 57.61564636230469 88.98104095458984 51.81079483032227 90.15280151367188 45.82614517211914 90.15280151367188 Z" stroke="none"/>
        <path d="M 45.82614517211914 3.000007629394531 C 40.04333114624023 3.000007629394531 34.43508911132812 4.131904602050781 29.15720367431641 6.364265441894531 C 24.05784606933594 8.521102905273438 19.47753143310547 11.60944366455078 15.54348754882812 15.54348754882812 C 11.60944366455078 19.47753143310547 8.521102905273438 24.05784606933594 6.3642578125 29.15720367431641 C 4.131904602050781 34.43508911132812 3 40.0433349609375 3 45.82667541503906 C 3 51.60948944091797 4.131904602050781 57.21773147583008 6.3642578125 62.49562072753906 C 8.521102905273438 67.59497833251953 11.60944366455078 72.17527770996094 15.54348754882812 76.10932922363281 C 19.47753143310547 80.04337310791016 24.05784606933594 83.13170623779297 29.15718841552734 85.28854370117188 C 34.43508911132812 87.52090454101562 40.04333114624023 88.65280151367188 45.82614517211914 88.65280151367188 C 51.60895919799805 88.65280151367188 57.21720123291016 87.52090454101562 62.49510192871094 85.28854370117188 C 67.59444427490234 83.13170623779297 72.17475891113281 80.04337310791016 76.10880279541016 76.10932922363281 C 80.0428466796875 72.17527770996094 83.13118743896484 67.59497833251953 85.28803253173828 62.49562072753906 C 87.5203857421875 57.21773147583008 88.65229034423828 51.60948944091797 88.65229034423828 45.82614898681641 C 88.65229034423828 40.0433349609375 87.5203857421875 34.43508911132812 85.28803253173828 29.15720367431641 C 83.13118743896484 24.05784606933594 80.0428466796875 19.47753143310547 76.10880279541016 15.54348754882812 C 72.17475891113281 11.60944366455078 67.59444427490234 8.521102905273438 62.49508666992188 6.364265441894531 C 57.21720123291016 4.131904602050781 51.60895919799805 3.000007629394531 45.82614517211914 3.000007629394531 M 45.82614517211914 7.62939453125e-06 C 71.13523101806641 7.62939453125e-06 91.65229034423828 20.51705932617188 91.65229034423828 45.82614898681641 L 91.65229034423828 45.82667541503906 C 91.65229034423828 71.13575744628906 71.13523101806641 91.65280151367188 45.82614517211914 91.65280151367188 C 20.51705932617188 91.65280151367188 0 71.13575744628906 0 45.82667541503906 L 0 45.82614898681641 C 0 20.51705932617188 20.51705932617188 7.62939453125e-06 45.82614517211914 7.62939453125e-06 Z" stroke="none" fill="#fff"/>
      </g>
    </g>
    <g id="Cow" transform="translate(1031.348 3083.128)">
      <path id="Trazado_899803" data-name="Trazado 899803" d="M67.832,61.71c0,.228-.441,2.674-1.572,9.309h4.025l2.738-9.309Z" transform="translate(-19.143 -12)" fill="#b09482"/>
      <path id="Trazado_899804" data-name="Trazado 899804" d="M66.26,73.89h4.025l.654-2.24h-4.3Z" transform="translate(-19.143 -14.871)" fill="#242c42"/>
      <path id="Trazado_899805" data-name="Trazado 899805" d="M70.823,46.5a6.016,6.016,0,0,0-5.8,7.623l-.5.149a.711.711,0,0,0,.391,1.365c.775-.228.484-.135.64-.206a6.023,6.023,0,0,0,3.307,2.8.107.107,0,0,0,0,.05l-.164.8a.725.725,0,1,0,1.422.284c.228-1.1.149-.711.164-.825a6.023,6.023,0,1,0,.6-12.018Z" transform="translate(-18.5 -7.606)" fill="#e5426a"/>
      <circle id="Elipse_11556" data-name="Elipse 11556" cx="4.779" cy="4.779" r="4.779" transform="translate(48.426 39.071)" fill="#ef6f83"/>
      <path id="Trazado_899806" data-name="Trazado 899806" d="M66.295,28.8c0,8.47.078,8.057-.22,8.839l-1.1,2.894c-1.109,2.937,1.8,4.587.917,7.609L62.6,59.317H58.579c.121-.711,1.422-8.3,1.536-9.017a3.861,3.861,0,0,0-1.074-3.385l-1.756-1.764H36.263a2.005,2.005,0,0,0-1.956,1.557c-.946,4.16-1.422,6.308-2.845,12.608h-3.9c.178-3.989.249-5.533.668-14.678L19.7,45.67l-3.335,5.191a2.567,2.567,0,0,1-4.352-.114c-.939-1.657-2.845-4.978-4.4-7.751a3.556,3.556,0,0,1,.846-4.573c1.18-.946,2.091-1.465,2.347-2.845l.085-.427a3.278,3.278,0,0,1,1.28-2.005l2.766-2.084c.469,2.133.377,1.714.512,2.311l10.667-8.669a15.737,15.737,0,0,1,9.9-3.506H58.693a7.609,7.609,0,0,1,7.6,7.6Z" transform="translate(-2.06 -0.298)" fill="#eddcd2"/>
      <path id="Trazado_899807" data-name="Trazado 899807" d="M62.267,21.2H39.589a15.439,15.439,0,0,0-4.388.633c-3.9,1.131-5.028,2.5-15.7,11.158v2.041c2.645-2.148,8.889-7.232,10.212-8.285a15.737,15.737,0,0,1,9.878-3.506H62.267a7.609,7.609,0,0,1,7.6,7.6V28.8A7.609,7.609,0,0,0,62.267,21.2Z" transform="translate(-5.635 -0.298)" fill="#f7f0e1"/>
      <path id="Trazado_899808" data-name="Trazado 899808" d="M88.317,29.033c0,8.477.071,8.064-.213,8.811l-.732,1.934a3.435,3.435,0,0,1-1-2.418V31.671a5.874,5.874,0,0,0-1.721-4.16L83.36,26.224V22h.228A7.609,7.609,0,0,1,88.317,29.033Z" transform="translate(-24.082 -0.529)" fill="#ddbea9"/>
      <path id="Trazado_899809" data-name="Trazado 899809" d="M6.974,53.077l-.356.228a4.309,4.309,0,0,1-3.406.27L1,52.792,3.311,50.2A3.328,3.328,0,0,1,5.359,49.13a3.634,3.634,0,0,0,.469,1.934Z" transform="translate(-0.291 -8.366)" fill="#495a83"/>
      <path id="Trazado_899810" data-name="Trazado 899810" d="M34.554,54.16c-.654,14.287-.54,11.719-.668,14.678H29l3.556-14.443Z" transform="translate(-8.379 -9.819)" fill="#b09482"/>
      <path id="Trazado_899811" data-name="Trazado 899811" d="M12.621,51.643a.713.713,0,1,1,.839-1.152,1.138,1.138,0,0,0,1.65-.427.711.711,0,0,1,.946-.341C17.492,50.391,14.861,53.278,12.621,51.643Z" transform="translate(-3.563 -8.518)" fill="#3d405b"/>
      <path id="Trazado_899812" data-name="Trazado 899812" d="M19.29,59.8l-1.259,1.963A2.56,2.56,0,0,1,15.386,62.9a1.97,1.97,0,0,1-.427-.121,2.489,2.489,0,0,1-1.308-1.116l-.86-1.515A5.945,5.945,0,0,1,19.29,59.8Z" transform="translate(-3.697 -11.218)" fill="#ef6f83"/>
      <path id="Trazado_899813" data-name="Trazado 899813" d="M28.781,26.92v3.613a3.342,3.342,0,0,1-.974,2.361L24.6,36.115a4.864,4.864,0,0,1-3.428,1.422H18.69v-.37a3.5,3.5,0,0,0,.1-2.133Z" transform="translate(-5.401 -1.95)" fill="#cb997e"/>
      <path id="Trazado_899814" data-name="Trazado 899814" d="M13.973,72.573H9.855A5.483,5.483,0,0,0,8.49,67.09,5.49,5.49,0,0,1,13.973,72.573Z" transform="translate(-2.455 -13.554)" fill="#118ab2"/>
      <path id="Trazado_899815" data-name="Trazado 899815" d="M19.01,72.573H15.98a5.334,5.334,0,0,0-.54-2.361,5.447,5.447,0,0,1,4.935-3.122A5.469,5.469,0,0,0,19.01,72.573Z" transform="translate(-4.462 -13.554)" fill="#06d6a0"/>
      <path id="Trazado_899816" data-name="Trazado 899816" d="M40.258,71.664l-.5,2.226H35.87l.1-2.24h4.281Z" transform="translate(-10.364 -14.871)" fill="#3d405b"/>
      <path id="Trazado_899817" data-name="Trazado 899817" d="M33.985,71.65l-.1,2.24H29l.555-2.24Z" transform="translate(-8.379 -14.871)" fill="#242c42"/>
      <path id="Trazado_899818" data-name="Trazado 899818" d="M84.166,71.65h-4.3l-.384,2.24h4.025Z" transform="translate(-22.961 -14.871)" fill="#3d405b"/>
      <path id="Trazado_899819" data-name="Trazado 899819" d="M11.721,37.165c-1.5,1.5-.42,2.645-2.133,3.982l-.377.3V38.495c0-2.24-1.38-3.321-2.461-4.395H8.272a3.463,3.463,0,0,1,3.449,3.065Z" transform="translate(-1.952 -4.024)" fill="#495a83"/>
      <path id="Trazado_899820" data-name="Trazado 899820" d="M73.944,23.355l-2.638,2.638a4.11,4.11,0,0,1-2.9,1.2A4.11,4.11,0,0,0,65.5,28.4L62.5,31.419a5.831,5.831,0,0,1-4.167,1.728H48.442a4.423,4.423,0,0,1-3.115-1.287L42.867,29.4a4.409,4.409,0,0,1-1.287-3.115V21.833a15.439,15.439,0,0,1,4.388-.633H68.646a7.588,7.588,0,0,1,5.3,2.156Z" transform="translate(-12.013 -0.298)" fill="#cb997e"/>
      <path id="Trazado_899821" data-name="Trazado 899821" d="M60.281,30.012h-6.4a.711.711,0,1,1,0-1.422h6.4a.711.711,0,0,1,0,1.422Z" transform="translate(-15.361 -2.433)" fill="#e4b78d"/>
      <path id="Trazado_899822" data-name="Trazado 899822" d="M67.762,53.9H47.85L48.4,51.48H66.005Z" transform="translate(-13.825 -9.045)" fill="#ddbea9"/>
      <path id="Trazado_899823" data-name="Trazado 899823" d="M64.824,51.292H57a.711.711,0,0,1,0-1.422h7.822a.711.711,0,0,1,0,1.422Z" transform="translate(-16.263 -8.58)" fill="#fff1e6"/>
      <path id="Trazado_899824" data-name="Trazado 899824" d="M86.948,57.386l-2.631,8.932H80c0-.071,0,.071.974-5.739a3.918,3.918,0,0,0,3.726-2.7l1.55-4.693c.6,1.55,1.166,2.589.7,4.2Z" transform="translate(-23.112 -9.539)" fill="#ddbea9"/>
      <path id="Trazado_899825" data-name="Trazado 899825" d="M84.952,51.912l-.711,3.051a.59.59,0,0,1-1.06.213l-.562-.789a1.351,1.351,0,0,1,.114-1.7l1.216-1.308a.583.583,0,0,1,1,.533Z" transform="translate(-23.797 -8.958)" fill="#ddbea9"/>
      <path id="Trazado_899826" data-name="Trazado 899826" d="M31.779,46.114H33.55a4.587,4.587,0,0,0,3.229-1.337L39.1,42.444a1.131,1.131,0,0,0-.8-1.934h-1.92a4.509,4.509,0,0,0-3.264,1.422l-2.133,2.29a1.131,1.131,0,0,0,.789,1.892Z" transform="translate(-8.869 -5.876)" fill="#fff1e6"/>
      <path id="Trazado_899827" data-name="Trazado 899827" d="M29.015,26.92v2.041L19.5,36.684V34.643Z" transform="translate(-5.635 -1.95)" fill="#e4b78d"/>
      <path id="Trazado_899828" data-name="Trazado 899828" d="M73.944,23.355l-1.131,1.131a7.638,7.638,0,0,0-4.167-1.244H45.968a15.439,15.439,0,0,0-4.388.633V21.833a15.439,15.439,0,0,1,4.388-.633H68.646a7.588,7.588,0,0,1,5.3,2.156Z" transform="translate(-12.013 -0.298)" fill="#e4b78d"/>
      <path id="Trazado_899829" data-name="Trazado 899829" d="M30.706,53.7l-8.534,1.031L18.837,59.92a2.574,2.574,0,0,1-3.157.988c1.422-.846,2.133-1.145,2.709-2.133l2.347-4.068A3.221,3.221,0,0,1,23.1,53.122c5.611-.747,4.693-.924,7.609.576Z" transform="translate(-4.532 -9.357)" fill="#ddbea9"/>
      <path id="Trazado_899830" data-name="Trazado 899830" d="M20.136,59.942,18.877,61.9a2.567,2.567,0,0,1-2.645,1.138,2.922,2.922,0,0,1-.512-.149c2.5-1.472,2.133-1.1,3.463-3.413A5.561,5.561,0,0,1,20.136,59.942Z" transform="translate(-4.543 -11.356)" fill="#ef4c6f"/>
      <path id="Trazado_899831" data-name="Trazado 899831" d="M42.166,59.754l-1.9,8.256H36L36.42,59l.946,2.709a1.778,1.778,0,0,0,3.136.434Z" transform="translate(-10.401 -11.217)" fill="#ddbea9"/>
      <g id="Grupo_1110046" data-name="Grupo 1110046" transform="translate(-0.008 20.168)">
        <path id="Trazado_899832" data-name="Trazado 899832" d="M53.931,26.24a.711.711,0,1,0,0,1.422h6.4a.711.711,0,1,0,0-1.422Z" transform="translate(-15.368 -21.922)" fill="#231f20"/>
        <path id="Trazado_899833" data-name="Trazado 899833" d="M16.056,49.723a.711.711,0,0,0-.946.341,1.138,1.138,0,0,1-1.65.427.713.713,0,0,0-.839,1.152C14.854,53.278,17.492,50.391,16.056,49.723Z" transform="translate(-3.556 -28.686)" fill="#231f20"/>
        <path id="Trazado_899834" data-name="Trazado 899834" d="M65.962,26.107c-4.217-4.217-3.314-3.335-3.556-3.556a8.334,8.334,0,0,0-5.8-2.368h-3.79a.711.711,0,1,0,0,1.422h3.819A6.848,6.848,0,0,1,60.9,23.092l-2.091,2.091a3.4,3.4,0,0,1-2.4,1A4.807,4.807,0,0,0,52.991,27.6l-3.015,3.015a5.113,5.113,0,0,1-3.655,1.522H36.429a3.662,3.662,0,0,1-2.61-1.081l-2.461-2.475a3.662,3.662,0,0,1-1.081-2.61v-3.89c2.567-.654,2.845-.469,18.226-.469a.711.711,0,1,0,0-1.422c-15.645,0-16.086-.213-19.115.668a16.434,16.434,0,0,0-5.76,2.994l-9.771,7.922-.292-1.18a.711.711,0,0,0-1.116-.4l-2.29,1.721a4.167,4.167,0,0,0-3.84-2.553h-1.5a.711.711,0,0,0-.5,1.209L5.4,31.654A3.968,3.968,0,0,1,6.569,34.5v2.617l-.59.469a4.267,4.267,0,0,0-1.55,2.61,3.954,3.954,0,0,0-1.941,1.188L.176,43.95A.711.711,0,0,0,.481,45.1l2.212.747a4.978,4.978,0,0,0,3.7-.2L9.321,50.8a3.285,3.285,0,0,0,5.611.149l3.157-4.914,5.163-.626-3.186,12.9H15.088A4.736,4.736,0,0,1,16.4,54.041a.711.711,0,0,0-.5-1.216,6.18,6.18,0,0,0-4.935,2.489,6.222,6.222,0,0,0-4.942-2.489.711.711,0,0,0-.5,1.216,4.757,4.757,0,0,1,1.308,4.267H.709a.711.711,0,0,0,0,1.422H31.117a.711.711,0,0,0,0-1.422h-.839l2.667-11.741a1.28,1.28,0,0,1,1.259-1H45.617a7.026,7.026,0,0,0,.228,1.152l-.37.107a.711.711,0,0,0,.4,1.365l.5-.149A6.671,6.671,0,0,0,47.935,50l-1.422,8.306H37.489a.711.711,0,0,0,0,1.422H63.751a.711.711,0,0,0,0-1.422H61.5l3.022-10.262a4.921,4.921,0,0,0-.121-3.108L63.587,42.8a3.2,3.2,0,0,1,0-2.3c1.131-2.987,1.358-3.342,1.358-4.324,0-8.42.05-8.157-.156-9.245a6.4,6.4,0,0,1,2.055,4.736v2.24a.711.711,0,0,0,1.422,0v-2.24a7.822,7.822,0,0,0-2.3-5.568Zm-51.742,7.2,8.448-6.862v2.133a2.61,2.61,0,0,1-.768,1.856l-3.193,3.193c-1.422,1.422-2.845,1.209-4.5,1.209a4.978,4.978,0,0,0,.014-1.529ZM6.54,30.794a2.752,2.752,0,0,1,2.468,2.133,5.177,5.177,0,0,0-1.017,2.51V34.47A5.348,5.348,0,0,0,6.54,30.794ZM1.953,44.1c1.671-1.863,1.785-2.133,2.475-2.418A8,8,0,0,0,5.687,44.4C4.215,45.009,3.219,44.526,1.953,44.1Zm11.783,6.08a1.856,1.856,0,0,1-3.179-.085l-.526-.889a5.177,5.177,0,0,1,4.537-.292Zm11.691-5.035-.5,10.923H22.086l2.674-10.845ZM21.73,57.49h3.157l-.043.818H21.531ZM7.642,54.524a4.779,4.779,0,0,1,3.1,3.783H8.29a6.215,6.215,0,0,0-.647-3.783Zm4.544,3.783a6.983,6.983,0,0,0-.42-1.628,4.75,4.75,0,0,1,2.539-2.133,6.2,6.2,0,0,0-.647,3.783Zm14.066,0V57.49h2.717l-.185.818Zm20.8-12.743h7.872A13.22,13.22,0,0,1,56.9,47.655a5.326,5.326,0,0,1-9.849-2.091Zm8.868,12.743H52.088l2.034-6.891a6.784,6.784,0,0,0,3.271-2.034C57.393,49.788,57.486,49.105,55.921,58.307ZM50.232,51.3l-.192.953a.725.725,0,1,0,1.422.284l.192-.924a4.125,4.125,0,0,0,.981,0L51.27,56.067H48.355l.882-5.184a6.9,6.9,0,0,0,.96.412Zm-2.276,7.012.142-.818h2.752l-.242.818Zm9.408,0,.135-.818h2.752l-.242.818Zm6.158-22.145c0,.647-.092.711-1.273,3.826a4.708,4.708,0,0,0,0,3.3l.818,2.133a3.463,3.463,0,0,1,.085,2.212l-2.482,8.434h-2.93l1.017-5.945a4.587,4.587,0,0,0-1.273-4L54.172,42.8a5.966,5.966,0,0,1-1.749-4.267V35.992a.711.711,0,0,0-1.422,0,16.1,16.1,0,0,0,.284,4.587h-7.7a.711.711,0,1,0,0,1.422h8.263a8.192,8.192,0,0,0,1.664,2.133c-21.135,0-19.485-.05-20.04.107l1.145-5.056a.728.728,0,0,0-1.422-.313c-2.176,9.593-1.131,4.978-3.9,17.188H26.352l.533-11.7a.711.711,0,0,0-.8-.711l-8.534,1.031a.711.711,0,0,0-.512.327L15.316,47.69a6.606,6.606,0,0,0-6.016.256l-3.143-5.6a2.845,2.845,0,0,1,.711-3.662c1.259-1,2.3-1.621,2.6-3.25L9.555,35a2.589,2.589,0,0,1,.988-1.586L12.45,32l.306,1.216a3.627,3.627,0,0,1-.469,2.845l-1.109,1.735a.711.711,0,0,0,1.188.747,24.761,24.761,0,0,0,1.387-2.226h2.034a5.49,5.49,0,0,0,3.925-1.628L22.9,31.491a4,4,0,0,0,1.188-2.845V25.311a15.325,15.325,0,0,1,4.765-2.795v3.456a5.092,5.092,0,0,0,1.5,3.62l2.461,2.461a5.056,5.056,0,0,0,3.613,1.508h9.892a6.535,6.535,0,0,0,4.644-1.92l3.022-3.058a3.378,3.378,0,0,1,2.4-1A4.779,4.779,0,0,0,59.8,26.164l2.133-2.133a6.855,6.855,0,0,1,1.614,4.416Z" transform="translate(0.008 -20.168)" fill="#231f20"/>
      </g>
    </g>
  </g>
</svg>
