<svg xmlns="http://www.w3.org/2000/svg" xmlns:xlink="http://www.w3.org/1999/xlink" width="109.652" height="109.653" viewBox="0 0 109.652 109.653">
  <defs>
    <filter id="Trazado_874925" x="0" y="0" width="109.652" height="109.653" filterUnits="userSpaceOnUse">
      <feOffset dy="3" input="SourceAlpha"/>
      <feGaussianBlur stdDeviation="3" result="blur"/>
      <feFlood flood-opacity="0.161"/>
      <feComposite operator="in" in2="blur"/>
      <feComposite in="SourceGraphic"/>
    </filter>
  </defs>
  <g id="Grupo_1112173" data-name="Grupo 1112173" transform="translate(-325 -1367)">
    <g id="Grupo_1111211" data-name="Grupo 1111211" transform="translate(-685.73 -1704)">
      <g transform="matrix(1, 0, 0, 1, 1010.73, 3071)" filter="url(#Trazado_874925)">
        <g id="Trazado_874925-2" data-name="Trazado 874925" transform="translate(9 6)" fill="#ffd63c">
          <path d="M 45.82614517211914 90.15280151367188 C 39.84149551391602 90.15280151367188 34.03665924072266 88.98104095458984 28.5728702545166 86.67005157470703 C 23.29473304748535 84.43759155273438 18.55415725708008 81.24130249023438 14.48283290863037 77.16998291015625 C 10.41150760650635 73.09866333007812 7.215232849121094 68.35809326171875 4.982757568359375 63.07994079589844 C 2.671770095825195 57.61616897583008 1.500007629394531 51.81131744384766 1.500007629394531 45.82666778564453 C 1.500007629394531 39.84149169921875 2.671770095825195 34.03665542602539 4.982757568359375 28.57286643981934 C 7.215232849121094 23.29472923278809 10.41150760650635 18.55415534973145 14.48283290863037 14.48283004760742 C 18.55415725708008 10.4115047454834 23.29473304748535 7.215229511260986 28.5728702545166 4.982754707336426 C 34.03665924072266 2.671766996383667 39.84149551391602 1.500004529953003 45.82614517211914 1.500004529953003 C 51.81079483032227 1.500004529953003 57.61564636230469 2.671766996383667 63.07942199707031 4.982754707336426 C 68.35756683349609 7.215229511260986 73.09814453125 10.4115047454834 77.16947174072266 14.48283004760742 C 81.24078369140625 18.55415534973145 84.43707275390625 23.29472923278809 86.66954803466797 28.57286643981934 C 88.98052978515625 34.03665542602539 90.15229797363281 39.84149169921875 90.15229797363281 45.82614135742188 C 90.15229797363281 51.81131744384766 88.98052978515625 57.61616897583008 86.66954803466797 63.07994079589844 C 84.43707275390625 68.35809326171875 81.24078369140625 73.09866333007812 77.16947174072266 77.16998291015625 C 73.09814453125 81.24130249023438 68.35756683349609 84.43759155273438 63.07942199707031 86.67005157470703 C 57.61564636230469 88.98104095458984 51.81079483032227 90.15280151367188 45.82614517211914 90.15280151367188 Z" stroke="none"/>
          <path d="M 45.82614517211914 3.000007629394531 C 40.04333114624023 3.000007629394531 34.43508911132812 4.131904602050781 29.15720367431641 6.364265441894531 C 24.05784606933594 8.521102905273438 19.47753143310547 11.60944366455078 15.54348754882812 15.54348754882812 C 11.60944366455078 19.47753143310547 8.521102905273438 24.05784606933594 6.3642578125 29.15720367431641 C 4.131904602050781 34.43508911132812 3 40.0433349609375 3 45.82667541503906 C 3 51.60948944091797 4.131904602050781 57.21773147583008 6.3642578125 62.49562072753906 C 8.521102905273438 67.59497833251953 11.60944366455078 72.17527770996094 15.54348754882812 76.10932922363281 C 19.47753143310547 80.04337310791016 24.05784606933594 83.13170623779297 29.15718841552734 85.28854370117188 C 34.43508911132812 87.52090454101562 40.04333114624023 88.65280151367188 45.82614517211914 88.65280151367188 C 51.60895919799805 88.65280151367188 57.21720123291016 87.52090454101562 62.49510192871094 85.28854370117188 C 67.59444427490234 83.13170623779297 72.17475891113281 80.04337310791016 76.10880279541016 76.10932922363281 C 80.0428466796875 72.17527770996094 83.13118743896484 67.59497833251953 85.28803253173828 62.49562072753906 C 87.5203857421875 57.21773147583008 88.65229034423828 51.60948944091797 88.65229034423828 45.82614898681641 C 88.65229034423828 40.0433349609375 87.5203857421875 34.43508911132812 85.28803253173828 29.15720367431641 C 83.13118743896484 24.05784606933594 80.0428466796875 19.47753143310547 76.10880279541016 15.54348754882812 C 72.17475891113281 11.60944366455078 67.59444427490234 8.521102905273438 62.49508666992188 6.364265441894531 C 57.21720123291016 4.131904602050781 51.60895919799805 3.000007629394531 45.82614517211914 3.000007629394531 M 45.82614517211914 7.62939453125e-06 C 71.13523101806641 7.62939453125e-06 91.65229034423828 20.51705932617188 91.65229034423828 45.82614898681641 L 91.65229034423828 45.82667541503906 C 91.65229034423828 71.13575744628906 71.13523101806641 91.65280151367188 45.82614517211914 91.65280151367188 C 20.51705932617188 91.65280151367188 0 71.13575744628906 0 45.82667541503906 L 0 45.82614898681641 C 0 20.51705932617188 20.51705932617188 7.62939453125e-06 45.82614517211914 7.62939453125e-06 Z" stroke="none" fill="#fff"/>
        </g>
      </g>
    </g>
    <g id="filled_outline" data-name="filled outline" transform="translate(269.604 1370.11)">
      <path id="Trazado_901222" data-name="Trazado 901222" d="M224,368h15.8v15.8H224Z" transform="translate(-118.096 -304.619)" fill="#f6bb92"/>
      <path id="Trazado_901223" data-name="Trazado 901223" d="M232,368h14.744v2.106H232Z" transform="translate(-125.043 -304.619)" fill="#e6af89"/>
      <path id="Trazado_901224" data-name="Trazado 901224" d="M144.707,30.323c1.18,5.529,2.558,13.727,2.558,13.727L148.22,28.2a2.659,2.659,0,0,1,5.317-.022c.063,5.587-.724,17.048-.724,17.048L157.1,30.5a2.189,2.189,0,0,1,4.214,1.185c-1.386,5.121-3.241,13.264-3.241,13.264l4.973-9.03a2.181,2.181,0,0,1,3.9,1.95c-1.981,4.385-5.462,13.41-5.462,13.41l-.886,6.215a8.848,8.848,0,0,1-2.885,5.368l-.051,3.567H141.4V60.4l-5.832-6.435-5.932-7.535a1.053,1.053,0,0,1,.032-1.342l.133-.153a3.686,3.686,0,0,1,5.54-.033l.357.4a8.425,8.425,0,0,0,6.285,2.829H142L139.94,31.118a2.419,2.419,0,0,1,4.767-.795Z" transform="translate(-35.957 -7.255)" fill="#2ad3b3"/>
      <rect id="Rectángulo_404981" data-name="Rectángulo 404981" width="21.063" height="4.213" rx="2.106" transform="translate(102.744 59.168)" fill="#27c5a7"/>
      <path id="Trazado_901225" data-name="Trazado 901225" d="M152.277,304h7.109l6.686,6.2a2.5,2.5,0,0,1-3.339,3.708l-6.506-5.693h-4.081Z" transform="translate(-55.701 -249.044)" fill="#24b499"/>
      <path id="Trazado_901226" data-name="Trazado 901226" d="M183.145,336l6.782,5.934a2.134,2.134,0,1,1-2.823,3.2l-.8-.71Z" transform="translate(-82.62 -276.832)" fill="#24b499"/>
      <g id="Grupo_1111912" data-name="Grupo 1111912" transform="translate(89.053 54.956)">
        <path id="Trazado_901227" data-name="Trazado 901227" d="M110.632,316.638a2.546,2.546,0,0,1-.2,3.966l-1.8,1.3v6.319H96V311.951a5.266,5.266,0,0,1,2.174-4.263l5.2-3.689h5.134l-3.636,3.291h-.907a.461.461,0,0,0,0,.922h.31l6.085,7.451Z" transform="translate(-96 -304)" fill="#27c5a7"/>
        <path id="Trazado_901228" data-name="Trazado 901228" d="M158.413,350.985a4.533,4.533,0,0,1-4.423,3.547h-2.84V344h1.873l5.225,6.4Z" transform="translate(-143.89 -338.734)" fill="#27c5a7"/>
        <path id="Trazado_901229" data-name="Trazado 901229" d="M152.857,400.682l-3.591,2.478H144l.02-1.053h5.134L152.313,400A2.54,2.54,0,0,1,152.857,400.682Z" transform="translate(-137.681 -387.362)" fill="#27c5a7"/>
      </g>
      <path id="Trazado_901230" data-name="Trazado 901230" d="M158.413,350.985a4.533,4.533,0,0,1-4.423,3.547h-2.318a.522.522,0,1,1,.009-1.044l.522.009L151.15,344h1.873l5.225,6.4Z" transform="translate(-54.837 -283.778)" fill="#24b499"/>
      <path id="Trazado_901231" data-name="Trazado 901231" d="M325.956,252.2a1.054,1.054,0,0,1-.986-1.423,4.222,4.222,0,0,0,.236-.96,1.053,1.053,0,0,1,2.09.262,6.355,6.355,0,0,1-.354,1.437A1.053,1.053,0,0,1,325.956,252.2Z" transform="translate(-205.716 -201.191)" fill="#27c5a7"/>
      <path id="Trazado_901232" data-name="Trazado 901232" d="M331.056,211.211a1.064,1.064,0,0,1-.132-.008,1.053,1.053,0,0,1-.914-1.176l.263-2.106a1.053,1.053,0,1,1,2.09.261l-.263,2.106A1.053,1.053,0,0,1,331.056,211.211Z" transform="translate(-210.143 -164.812)" fill="#27c5a7"/>
      <g id="Grupo_1111913" data-name="Grupo 1111913" transform="translate(91.159 23.361)">
        <path id="Trazado_901233" data-name="Trazado 901233" d="M417.053,283.159A1.053,1.053,0,0,1,416,282.106v-1.053a1.053,1.053,0,0,1,2.106,0v1.053A1.053,1.053,0,0,1,417.053,283.159Z" transform="translate(-375.98 -251.565)" fill="#fbb540"/>
        <path id="Trazado_901234" data-name="Trazado 901234" d="M417.053,331.159A1.053,1.053,0,0,1,416,330.106v-1.053a1.053,1.053,0,0,1,2.106,0v1.053A1.053,1.053,0,0,1,417.053,331.159Z" transform="translate(-375.98 -293.246)" fill="#fbb540"/>
        <path id="Trazado_901235" data-name="Trazado 901235" d="M393.053,307.159A1.053,1.053,0,0,1,392,306.106v-1.053a1.053,1.053,0,0,1,2.106,0v1.053A1.053,1.053,0,0,1,393.053,307.159Z" transform="translate(-355.139 -272.405)" fill="#fbb540"/>
        <path id="Trazado_901236" data-name="Trazado 901236" d="M441.053,307.159A1.053,1.053,0,0,1,440,306.106v-1.053a1.053,1.053,0,0,1,2.106,0v1.053A1.053,1.053,0,0,1,441.053,307.159Z" transform="translate(-396.82 -272.405)" fill="#fbb540"/>
        <path id="Trazado_901237" data-name="Trazado 901237" d="M137.053,67.159A1.053,1.053,0,0,1,136,66.106V65.053a1.053,1.053,0,0,1,2.106,0v1.053A1.053,1.053,0,0,1,137.053,67.159Z" transform="translate(-132.841 -64)" fill="#fbb540"/>
        <path id="Trazado_901238" data-name="Trazado 901238" d="M137.053,115.159A1.053,1.053,0,0,1,136,114.106v-1.053a1.053,1.053,0,0,1,2.106,0v1.053A1.053,1.053,0,0,1,137.053,115.159Z" transform="translate(-132.841 -105.681)" fill="#fbb540"/>
        <path id="Trazado_901239" data-name="Trazado 901239" d="M113.053,91.159A1.053,1.053,0,0,1,112,90.106V89.053a1.053,1.053,0,0,1,2.106,0v1.053A1.053,1.053,0,0,1,113.053,91.159Z" transform="translate(-112 -84.841)" fill="#fbb540"/>
        <path id="Trazado_901240" data-name="Trazado 901240" d="M161.053,91.159A1.053,1.053,0,0,1,160,90.106V89.053a1.053,1.053,0,0,1,2.106,0v1.053A1.053,1.053,0,0,1,161.053,91.159Z" transform="translate(-153.681 -84.841)" fill="#fbb540"/>
      </g>
      <path id="Trazado_901241" data-name="Trazado 901241" d="M162.043,292.492l-3.526,3.526v2.841a4.531,4.531,0,0,1-4.531,4.531h-2.841V292.859h2.106l5.952-5.952a2.008,2.008,0,0,1,2.84,0A3.949,3.949,0,0,1,162.043,292.492Z" transform="translate(-54.832 -233.69)" fill="#27c5a7"/>
      <path id="Trazado_901242" data-name="Trazado 901242" d="M122.754,79.178V64.253a3.159,3.159,0,0,0,.013-5.952l.032-2.235a9.914,9.914,0,0,0,2.882-5.684l.869-6.1c.406-1.049,3.568-9.2,5.4-13.243a3.234,3.234,0,0,0-5.78-2.892l-1.251,2.27c.481-1.971,1-4.02,1.457-5.72a3.243,3.243,0,0,0-6.243-1.755l-1.694,5.825c.128-2.827.223-5.743.2-7.859a3.712,3.712,0,1,0-7.424,0l-.421,7c-.329-1.741-.677-3.51-1.008-5.062a3.472,3.472,0,0,0-6.843,1.141l1.906,15.736a7.382,7.382,0,0,1-4.318-2.378l-.357-.4a4.739,4.739,0,0,0-3.543-1.591H96.6a4.739,4.739,0,0,0-3.551,1.632l-.133.154a2.109,2.109,0,0,0-.064,2.683l5.932,7.536c.015.019.031.038.047.056l4.685,5.17L102.2,53.9H96.313a1.053,1.053,0,0,0-.619.2l-5.086,3.689A6.337,6.337,0,0,0,88,62.907V79.178a1.053,1.053,0,0,0,1.053,1.053h12.638a1.053,1.053,0,0,0,1.053-1.053V73.4l1.36-.985a3.609,3.609,0,0,0,.746-.725v7.491a1.053,1.053,0,0,0,1.053,1.053h15.8a1.053,1.053,0,0,0,1.053-1.053ZM121.7,62.328h-9.54a3.534,3.534,0,0,0-1.075-1.946l-.173-.16H121.7a1.053,1.053,0,1,1,0,2.106Zm-21.287-16.3L94.5,38.521l.133-.153a2.633,2.633,0,0,1,1.973-.907h.016a2.633,2.633,0,0,1,1.968.884l.357.4a9.486,9.486,0,0,0,7.066,3.183h.027a1.053,1.053,0,0,0,1.046-1.18l-2.061-17.014a1.366,1.366,0,0,1,2.692-.448c1.161,5.443,2.536,13.6,2.549,13.682a1.053,1.053,0,0,0,2.09-.111l.955-15.848q0-.031,0-.062a1.606,1.606,0,1,1,3.212-.011c.062,5.481-.715,16.849-.723,16.963a1.053,1.053,0,0,0,2.062.366l4.284-14.732a1.136,1.136,0,0,1,2.188.616c-1.376,5.083-3.233,13.223-3.252,13.305a1.053,1.053,0,0,0,1.949.742l4.973-9.03a1.128,1.128,0,0,1,2.016,1.008c-1.97,4.362-5.45,13.374-5.485,13.465a1.047,1.047,0,0,0-.06.23l-.886,6.215a7.8,7.8,0,0,1-2.542,4.729,1.053,1.053,0,0,0-.354.772l-.036,2.529H108.958a5.009,5.009,0,0,0-1-5.643,3.041,3.041,0,0,0-2.165-.9,3.112,3.112,0,0,0-.333.019Zm9.367,17.882a1.442,1.442,0,0,1-2.055.16l-2.29-2,2.1-2.1,2.117,1.962a1.441,1.441,0,0,1,.125,1.983ZM96.313,70.753h2.841a5.579,5.579,0,0,0,4.189-1.892,1.489,1.489,0,0,1-.474,1.846l-1.8,1.3a1.053,1.053,0,0,0-.435.853v5.266H90.106V62.907a4.225,4.225,0,0,1,1.739-3.41l4.809-3.489h3.435l-2.106,2.106h-.792a1.053,1.053,0,1,0,0,2.106h1.228a1.053,1.053,0,0,0,.745-.308l5.952-5.952a.955.955,0,0,1,1.35,0,2.9,2.9,0,0,1,0,4.1l-3.526,3.526a1.053,1.053,0,0,0-.308.745v2.841a3.478,3.478,0,0,1-3.478,3.478H96.313a1.053,1.053,0,1,0,0,2.106Zm8.87-3.237-.714-.635a5.591,5.591,0,0,0,.269-1.713v-.915l1.875,1.642a1.081,1.081,0,1,1-1.43,1.621Zm15.465,10.609H106.957V69.711a3.173,3.173,0,0,0,2.127-3.178c0-.009,0-.017,0-.026a3.546,3.546,0,0,0,2.831-2.073h8.735Z"/>
      <path id="Trazado_901243" data-name="Trazado 901243" d="M325.579,252.132a1.052,1.052,0,0,0,1.356-.616,6.356,6.356,0,0,0,.354-1.437,1.053,1.053,0,0,0-2.09-.262,4.223,4.223,0,0,1-.236.959A1.053,1.053,0,0,0,325.579,252.132Z" transform="translate(-205.709 -201.193)"/>
      <path id="Trazado_901244" data-name="Trazado 901244" d="M330.92,211.2a1.069,1.069,0,0,0,.132.008,1.053,1.053,0,0,0,1.044-.923l.263-2.106a1.053,1.053,0,0,0-2.09-.261l-.263,2.106A1.053,1.053,0,0,0,330.92,211.2Z" transform="translate(-210.14 -164.813)"/>
      <path id="Trazado_901245" data-name="Trazado 901245" d="M418.106,281.053a1.053,1.053,0,0,0-2.106,0v1.053a1.053,1.053,0,0,0,2.106,0Z" transform="translate(-284.82 -228.204)"/>
      <path id="Trazado_901246" data-name="Trazado 901246" d="M417.053,328A1.053,1.053,0,0,0,416,329.053v1.053a1.053,1.053,0,0,0,2.106,0v-1.053A1.053,1.053,0,0,0,417.053,328Z" transform="translate(-284.82 -269.885)"/>
      <path id="Trazado_901247" data-name="Trazado 901247" d="M392,305.053v1.053a1.053,1.053,0,0,0,2.106,0v-1.053a1.053,1.053,0,0,0-2.106,0Z" transform="translate(-263.98 -249.044)"/>
      <path id="Trazado_901248" data-name="Trazado 901248" d="M441.053,304A1.053,1.053,0,0,0,440,305.053v1.053a1.053,1.053,0,0,0,2.106,0v-1.053A1.053,1.053,0,0,0,441.053,304Z" transform="translate(-305.661 -249.044)"/>
      <path id="Trazado_901249" data-name="Trazado 901249" d="M137.053,67.159a1.053,1.053,0,0,0,1.053-1.053V65.053a1.053,1.053,0,0,0-2.106,0v1.053A1.053,1.053,0,0,0,137.053,67.159Z" transform="translate(-41.681 -40.639)"/>
      <path id="Trazado_901250" data-name="Trazado 901250" d="M136,114.106a1.053,1.053,0,0,0,2.106,0v-1.053a1.053,1.053,0,0,0-2.106,0Z" transform="translate(-41.681 -82.32)"/>
      <path id="Trazado_901251" data-name="Trazado 901251" d="M114.106,90.106V89.053a1.053,1.053,0,0,0-2.106,0v1.053a1.053,1.053,0,0,0,2.106,0Z" transform="translate(-20.841 -61.48)"/>
      <path id="Trazado_901252" data-name="Trazado 901252" d="M162.106,90.106V89.053a1.053,1.053,0,0,0-2.106,0v1.053a1.053,1.053,0,0,0,2.106,0Z" transform="translate(-62.522 -61.48)"/>
    </g>
  </g>
</svg>
