<svg xmlns="http://www.w3.org/2000/svg" xmlns:xlink="http://www.w3.org/1999/xlink" width="109.652" height="109.653" viewBox="0 0 109.652 109.653">
  <defs>
    <filter id="Path_874925" x="0" y="0" width="109.652" height="109.653" filterUnits="userSpaceOnUse">
      <feOffset dy="3" input="SourceAlpha"/>
      <feGaussianBlur stdDeviation="3" result="blur"/>
      <feFlood flood-opacity="0.161"/>
      <feComposite operator="in" in2="blur"/>
      <feComposite in="SourceGraphic"/>
    </filter>
  </defs>
  <g id="Group_1110061" data-name="Group 1110061" transform="translate(-1010.73 -3071)">
    <g transform="matrix(1, 0, 0, 1, 1010.73, 3071)" filter="url(#Path_874925)">
      <g id="Path_874925-2" data-name="Path 874925" transform="translate(9 6)" fill="#ffd63c">
        <path d="M 45.82614517211914 90.15280151367188 C 39.84149551391602 90.15280151367188 34.03665924072266 88.98104095458984 28.5728702545166 86.67005157470703 C 23.29473304748535 84.43759155273438 18.55415725708008 81.24130249023438 14.48283290863037 77.16998291015625 C 10.41150760650635 73.09866333007812 7.215232849121094 68.35809326171875 4.982757568359375 63.07994079589844 C 2.671770095825195 57.61616897583008 1.500007629394531 51.81131744384766 1.500007629394531 45.82666778564453 C 1.500007629394531 39.84149169921875 2.671770095825195 34.03665542602539 4.982757568359375 28.57286643981934 C 7.215232849121094 23.29472923278809 10.41150760650635 18.55415534973145 14.48283290863037 14.48283004760742 C 18.55415725708008 10.4115047454834 23.29473304748535 7.215229511260986 28.5728702545166 4.982754707336426 C 34.03665924072266 2.671766996383667 39.84149551391602 1.500004529953003 45.82614517211914 1.500004529953003 C 51.81079483032227 1.500004529953003 57.61564636230469 2.671766996383667 63.07942199707031 4.982754707336426 C 68.35756683349609 7.215229511260986 73.09814453125 10.4115047454834 77.16947174072266 14.48283004760742 C 81.24078369140625 18.55415534973145 84.43707275390625 23.29472923278809 86.66954803466797 28.57286643981934 C 88.98052978515625 34.03665542602539 90.15229797363281 39.84149169921875 90.15229797363281 45.82614135742188 C 90.15229797363281 51.81131744384766 88.98052978515625 57.61616897583008 86.66954803466797 63.07994079589844 C 84.43707275390625 68.35809326171875 81.24078369140625 73.09866333007812 77.16947174072266 77.16998291015625 C 73.09814453125 81.24130249023438 68.35756683349609 84.43759155273438 63.07942199707031 86.67005157470703 C 57.61564636230469 88.98104095458984 51.81079483032227 90.15280151367188 45.82614517211914 90.15280151367188 Z" stroke="none"/>
        <path d="M 45.82614517211914 3.000007629394531 C 40.04333114624023 3.000007629394531 34.43508911132812 4.131904602050781 29.15720367431641 6.364265441894531 C 24.05784606933594 8.521102905273438 19.47753143310547 11.60944366455078 15.54348754882812 15.54348754882812 C 11.60944366455078 19.47753143310547 8.521102905273438 24.05784606933594 6.3642578125 29.15720367431641 C 4.131904602050781 34.43508911132812 3 40.0433349609375 3 45.82667541503906 C 3 51.60948944091797 4.131904602050781 57.21773147583008 6.3642578125 62.49562072753906 C 8.521102905273438 67.59497833251953 11.60944366455078 72.17527770996094 15.54348754882812 76.10932922363281 C 19.47753143310547 80.04337310791016 24.05784606933594 83.13170623779297 29.15718841552734 85.28854370117188 C 34.43508911132812 87.52090454101562 40.04333114624023 88.65280151367188 45.82614517211914 88.65280151367188 C 51.60895919799805 88.65280151367188 57.21720123291016 87.52090454101562 62.49510192871094 85.28854370117188 C 67.59444427490234 83.13170623779297 72.17475891113281 80.04337310791016 76.10880279541016 76.10932922363281 C 80.0428466796875 72.17527770996094 83.13118743896484 67.59497833251953 85.28803253173828 62.49562072753906 C 87.5203857421875 57.21773147583008 88.65229034423828 51.60948944091797 88.65229034423828 45.82614898681641 C 88.65229034423828 40.0433349609375 87.5203857421875 34.43508911132812 85.28803253173828 29.15720367431641 C 83.13118743896484 24.05784606933594 80.0428466796875 19.47753143310547 76.10880279541016 15.54348754882812 C 72.17475891113281 11.60944366455078 67.59444427490234 8.521102905273438 62.49508666992188 6.364265441894531 C 57.21720123291016 4.131904602050781 51.60895919799805 3.000007629394531 45.82614517211914 3.000007629394531 M 45.82614517211914 7.62939453125e-06 C 71.13523101806641 7.62939453125e-06 91.65229034423828 20.51705932617188 91.65229034423828 45.82614898681641 L 91.65229034423828 45.82667541503906 C 91.65229034423828 71.13575744628906 71.13523101806641 91.65280151367188 45.82614517211914 91.65280151367188 C 20.51705932617188 91.65280151367188 0 71.13575744628906 0 45.82667541503906 L 0 45.82614898681641 C 0 20.51705932617188 20.51705932617188 7.62939453125e-06 45.82614517211914 7.62939453125e-06 Z" stroke="none" fill="#fff"/>
      </g>
    </g>
    <g id="vaccine_8677411" transform="translate(1010.414 3087.147)">
      <g id="Group_1111739" data-name="Group 1111739" transform="translate(30.089 13.346)">
        <path id="Path_900871" data-name="Path 900871" d="M383.12,98.6v5.3h-6.681V98.6a3.323,3.323,0,0,1,.975-2.352l1.534-1.535h1.664l1.534,1.534A3.323,3.323,0,0,1,383.12,98.6Z" transform="translate(-338.024 -90.883)" fill="#b5e9f1"/>
        <path id="Path_900872" data-name="Path 900872" d="M378.394,100h-1.955V94.7a3.323,3.323,0,0,1,.975-2.352l1.777-1.778a.832.832,0,0,1,1.177,0l1.627,1.627A32.922,32.922,0,0,0,378.394,100Z" transform="translate(-338.024 -86.983)" fill="#81d9e7"/>
        <rect id="Rectangle_404861" data-name="Rectangle 404861" width="18.373" height="10.021" transform="translate(5.845 6.132)" fill="#8991a6"/>
        <path id="Path_900873" data-name="Path 900873" d="M91.377,125.521H82.789V115.5h5.334a12.138,12.138,0,0,0,2.174,7.229A5.989,5.989,0,0,1,91.377,125.521Z" transform="translate(-76.944 -109.368)" fill="#6b7790"/>
        <path id="Path_900874" data-name="Path 900874" d="M60.153,185.671V211.6a4.992,4.992,0,0,1-4.991,4.991H35.08a4.991,4.991,0,0,1-4.991-4.991V185.671a4.99,4.99,0,0,1,4.991-4.991h.854l4.409,1.066,3.1-1.066h11.72A4.991,4.991,0,0,1,60.153,185.671Z" transform="translate(-30.089 -167.318)" fill="#fbf198"/>
        <path id="Path_900875" data-name="Path 900875" d="M46.02,216.589H35.08a4.991,4.991,0,0,1-4.991-4.991V185.671a4.99,4.99,0,0,1,4.991-4.991h8.362C40.875,184.458,31.56,200.519,46.02,216.589Z" transform="translate(-30.089 -167.318)" fill="#f4e74d"/>
        <path id="Path_900876" data-name="Path 900876" d="M83.592,63.537v1.7a3.327,3.327,0,0,1-3.327,3.327H68.185l-2.946-.776-2.524.673h0a3.328,3.328,0,0,1-2.5-3.224v-1.7a3.327,3.327,0,0,1,3.327-3.327H80.264A3.327,3.327,0,0,1,83.592,63.537Z" transform="translate(-56.868 -60.21)" fill="#fbf198"/>
        <path id="Path_900877" data-name="Path 900877" d="M68.185,68.561H63.536a3.327,3.327,0,0,1-3.327-3.327v-1.7a3.327,3.327,0,0,1,3.327-3.327H70.27A11,11,0,0,0,68.185,68.561Z" transform="translate(-56.868 -60.21)" fill="#f4e74d"/>
        <path id="Path_900878" data-name="Path 900878" d="M124.6,389.806a2.508,2.508,0,0,1-3.729,2.188,3.753,3.753,0,0,0-2-.52c-.04,0-.079,0-.119,0s-.08,0-.119,0a3.757,3.757,0,0,0-2,.52,2.5,2.5,0,0,1-.789.28,2.545,2.545,0,0,1-.434.038,2.506,2.506,0,0,1-2.506-2.506,2.467,2.467,0,0,1,.766-1.8,2.558,2.558,0,0,1,.852-.538,3.269,3.269,0,0,0,1.886-1.887,2.5,2.5,0,0,1,4.685,0,3.264,3.264,0,0,0,1.884,1.884A2.493,2.493,0,0,1,124.6,389.806Z" transform="translate(-103.723 -348.052)" fill="#8991a6"/>
        <path id="Path_900879" data-name="Path 900879" d="M115.848,424.681a2.541,2.541,0,0,1-.434.038,2.506,2.506,0,0,1-2.506-2.506,2.467,2.467,0,0,1,.766-1.8A28.892,28.892,0,0,0,115.848,424.681Z" transform="translate(-103.723 -380.459)" fill="#6b7790"/>
        <circle id="Ellipse_11670" data-name="Ellipse 11670" cx="1.67" cy="1.67" r="1.67" transform="translate(13.362 29.228)" fill="#8991a6"/>
        <circle id="Ellipse_11671" data-name="Ellipse 11671" cx="1.67" cy="1.67" r="1.67" transform="translate(20.042 33.404)" fill="#8991a6"/>
        <path id="Path_900880" data-name="Path 900880" d="M93.66,363.05a1.668,1.668,0,0,1-1.162,1.591,1.634,1.634,0,0,1-.508.08,1.67,1.67,0,0,1-.119-3.336c.039,0,.079,0,.119,0A1.67,1.67,0,0,1,93.66,363.05Z" transform="translate(-83.639 -327.976)" fill="#8991a6"/>
        <path id="Path_900881" data-name="Path 900881" d="M91.871,361.42a25.7,25.7,0,0,0,.627,3.256,1.635,1.635,0,0,1-.508.08,1.67,1.67,0,0,1-.119-3.336Z" transform="translate(-83.639 -328.012)" fill="#6b7790"/>
        <rect id="Rectangle_404862" data-name="Rectangle 404862" width="3.341" height="10.021" transform="translate(40.085 36.745)" fill="#81d9e7"/>
        <path id="Path_900882" data-name="Path 900882" d="M365.54,139.679l-.561.935.561.729v3.346l-.434.908.434.755V149.7l-.434,1.024.434.64v4.179l-5.729,1.331-5.963-1.331V138.827a3.325,3.325,0,0,1,2.508-3.224l2.138.537,1.666-.64h2.052a3.327,3.327,0,0,1,3.327,3.327v.852Z" transform="translate(-317.94 -127.149)" fill="#fbf198"/>
        <path id="Path_900883" data-name="Path 900883" d="M357.525,155.543l-1.962.444-1.715-.444V138.827a3.327,3.327,0,0,1,3.327-3.327h2.985A31.013,31.013,0,0,0,357.525,155.543Z" transform="translate(-317.939 -127.149)" fill="#f4e74d"/>
        <path id="Path_900884" data-name="Path 900884" d="M365.54,316.21v10.021H353.849V316.21l1.729.576,1.948-.576Z" transform="translate(-317.94 -287.816)" fill="#b5e9f1"/>
        <path id="Path_900885" data-name="Path 900885" d="M357.526,316.21a31.951,31.951,0,0,0,4.1,10.021h-7.776V316.21Z" transform="translate(-317.94 -287.816)" fill="#81d9e7"/>
        <path id="Path_900886" data-name="Path 900886" d="M363.872,477.664h-8.351a1.67,1.67,0,0,1-1.67-1.67h0a1.67,1.67,0,0,1,1.67-1.67h8.351a1.67,1.67,0,0,1,1.67,1.67h0A1.67,1.67,0,0,1,363.872,477.664Z" transform="translate(-317.941 -428.392)" fill="#3ccbde"/>
        <path id="Path_900887" data-name="Path 900887" d="M347.961,385.64a1.67,1.67,0,0,1-1.67,1.67H332.929a1.67,1.67,0,1,1,0-3.341h13.362A1.67,1.67,0,0,1,347.961,385.64Z" transform="translate(-297.855 -348.06)" fill="#81d9e7"/>
        <path id="Path_900888" data-name="Path 900888" d="M342.069,387.311h-9.139a1.67,1.67,0,1,1,0-3.341h7.207A35.382,35.382,0,0,0,342.069,387.311Z" transform="translate(-297.855 -348.06)" fill="#3ccbde"/>
        <g id="Group_1111738" data-name="Group 1111738" transform="translate(2.875 19.791)">
          <g id="Group_1111737" data-name="Group 1111737" transform="translate(0)">
            <ellipse id="Ellipse_11672" data-name="Ellipse 11672" cx="2.608" cy="3.275" rx="2.608" ry="3.275" transform="translate(0 5.216) rotate(-89.874)" fill="#ffa1ac"/>
            <ellipse id="Ellipse_11673" data-name="Ellipse 11673" cx="2.608" cy="3.275" rx="2.608" ry="3.275" transform="translate(17.753 5.255) rotate(-89.874)" fill="#ffa1ac"/>
          </g>
        </g>
      </g>
      <g id="Group_1111742" data-name="Group 1111742" transform="translate(30.089 7.5)">
        <line id="Line_563" data-name="Line 563" y1="8.964" transform="translate(41.756 0)" fill="none" stroke="#000" stroke-linecap="round" stroke-linejoin="round" stroke-miterlimit="10" stroke-width="1"/>
        <path id="Path_900889" data-name="Path 900889" d="M383.12,95.212v-.518a3.323,3.323,0,0,0-.975-2.352l-1.778-1.778a.831.831,0,0,0-1.177,0l-1.777,1.778a3.323,3.323,0,0,0-.975,2.352v.518" transform="translate(-338.024 -81.134)" fill="none" stroke="#000" stroke-linecap="round" stroke-linejoin="round" stroke-miterlimit="10" stroke-width="1"/>
        <line id="Line_564" data-name="Line 564" y2="4.678" transform="translate(5.845 14.197)" fill="none" stroke="#000" stroke-linecap="round" stroke-linejoin="round" stroke-miterlimit="10" stroke-width="1"/>
        <line id="Line_565" data-name="Line 565" y1="4.678" transform="translate(24.218 14.197)" fill="none" stroke="#000" stroke-linecap="round" stroke-linejoin="round" stroke-miterlimit="10" stroke-width="1"/>
        <path id="Path_900890" data-name="Path 900890" d="M51.261,180.68h3.9a4.991,4.991,0,0,1,4.991,4.991V211.6a4.992,4.992,0,0,1-4.991,4.991H35.08a4.991,4.991,0,0,1-4.991-4.991V185.671a4.99,4.99,0,0,1,4.991-4.991h12.3" transform="translate(-30.089 -161.472)" fill="none" stroke="#000" stroke-linecap="round" stroke-linejoin="round" stroke-miterlimit="10" stroke-width="1"/>
        <path id="Path_900891" data-name="Path 900891" d="M80.26,68.556H63.531A3.327,3.327,0,0,1,60.2,65.229v-1.7a3.327,3.327,0,0,1,3.327-3.327H80.26a3.327,3.327,0,0,1,3.327,3.327v1.7A3.327,3.327,0,0,1,80.26,68.556Z" transform="translate(-56.864 -54.359)" fill="none" stroke="#000" stroke-linecap="round" stroke-linejoin="round" stroke-miterlimit="10" stroke-width="1"/>
        <path id="Path_900892" data-name="Path 900892" d="M124.6,389.81A2.509,2.509,0,0,1,120.87,392a3.757,3.757,0,0,0-2-.52,3.888,3.888,0,0,0-2.237.52,2.505,2.505,0,1,1-2.11-4.53,3.272,3.272,0,0,0,1.887-1.886,2.5,2.5,0,0,1,4.684,0,3.266,3.266,0,0,0,1.885,1.884A2.493,2.493,0,0,1,124.6,389.81Z" transform="translate(-103.72 -342.209)" fill="none" stroke="#000" stroke-linecap="round" stroke-linejoin="round" stroke-miterlimit="10" stroke-width="1"/>
        <circle id="Ellipse_11674" data-name="Ellipse 11674" cx="1.67" cy="1.67" r="1.67" transform="translate(13.362 35.075)" fill="none" stroke="#000" stroke-linecap="round" stroke-linejoin="round" stroke-miterlimit="10" stroke-width="1"/>
        <circle id="Ellipse_11675" data-name="Ellipse 11675" cx="1.67" cy="1.67" r="1.67" transform="translate(20.042 39.25)" fill="none" stroke="#000" stroke-linecap="round" stroke-linejoin="round" stroke-miterlimit="10" stroke-width="1"/>
        <circle id="Ellipse_11676" data-name="Ellipse 11676" cx="1.67" cy="1.67" r="1.67" transform="translate(6.681 39.25)" fill="none" stroke="#000" stroke-linecap="round" stroke-linejoin="round" stroke-miterlimit="10" stroke-width="1"/>
        <line id="Line_566" data-name="Line 566" y1="5.89" transform="translate(43.426 45.491)" fill="none" stroke="#000" stroke-linecap="round" stroke-linejoin="round" stroke-miterlimit="10" stroke-width="1"/>
        <line id="Line_567" data-name="Line 567" y1="5.89" transform="translate(40.085 45.491)" fill="none" stroke="#000" stroke-linecap="round" stroke-linejoin="round" stroke-miterlimit="10" stroke-width="1"/>
        <path id="Path_900893" data-name="Path 900893" d="M353.849,145.953v-7.125a3.328,3.328,0,0,1,3.327-3.327h5.037a3.328,3.328,0,0,1,3.327,3.327v24.01" transform="translate(-317.94 -121.303)" fill="none" stroke="#000" stroke-linecap="round" stroke-linejoin="round" stroke-miterlimit="10" stroke-width="1"/>
        <line id="Line_568" data-name="Line 568" y2="13.002" transform="translate(35.909 28.531)" fill="none" stroke="#000" stroke-linecap="round" stroke-linejoin="round" stroke-miterlimit="10" stroke-width="1"/>
        <path id="Path_900894" data-name="Path 900894" d="M363.307,477.661h.565a1.67,1.67,0,0,0,0-3.341h-8.352a1.67,1.67,0,0,0,0,3.341h3.905" transform="translate(-317.94 -422.543)" fill="none" stroke="#000" stroke-linecap="round" stroke-linejoin="round" stroke-miterlimit="10" stroke-width="1"/>
        <path id="Path_900895" data-name="Path 900895" d="M346.3,387.311H332.933a1.67,1.67,0,0,1,0-3.341H346.3a1.67,1.67,0,1,1,0,3.341Z" transform="translate(-297.859 -342.214)" fill="none" stroke="#000" stroke-linecap="round" stroke-linejoin="round" stroke-miterlimit="10" stroke-width="1"/>
        <line id="Line_569" data-name="Line 569" x2="4.662" transform="translate(42.591 19.208)" fill="none" stroke="#000" stroke-linecap="round" stroke-linejoin="round" stroke-miterlimit="10" stroke-width="1"/>
        <line id="Line_570" data-name="Line 570" x2="4.662" transform="translate(42.591 24.218)" fill="none" stroke="#000" stroke-linecap="round" stroke-linejoin="round" stroke-miterlimit="10" stroke-width="1"/>
        <line id="Line_571" data-name="Line 571" x2="4.662" transform="translate(42.591 29.229)" fill="none" stroke="#000" stroke-linecap="round" stroke-linejoin="round" stroke-miterlimit="10" stroke-width="1"/>
        <line id="Line_572" data-name="Line 572" x2="10.994" transform="translate(36.259 34.24)" fill="none" stroke="#000" stroke-linecap="round" stroke-linejoin="round" stroke-miterlimit="10" stroke-width="1"/>
        <g id="Group_1111741" data-name="Group 1111741" transform="translate(7.767 24.649)">
          <line id="Line_573" data-name="Line 573" y2="1.331" transform="translate(0 0.249)" fill="none" stroke="#000" stroke-linecap="round" stroke-linejoin="round" stroke-miterlimit="10" stroke-width="1"/>
          <path id="Path_900896" data-name="Path 900896" d="M219.717,231.28a1.542,1.542,0,0,1,3.085,0" transform="translate(-206.452 -229.738)" fill="none" stroke="#000" stroke-linecap="round" stroke-linejoin="round" stroke-miterlimit="10" stroke-width="1"/>
          <g id="Group_1111740" data-name="Group 1111740" transform="translate(4.069 2.454)">
            <path id="Path_900897" data-name="Path 900897" d="M140.008,251.862a1.6,1.6,0,1,1-3.207,0" transform="translate(-136.801 -251.862)" fill="none" stroke="#000" stroke-linecap="round" stroke-miterlimit="10" stroke-width="1"/>
            <path id="Path_900898" data-name="Path 900898" d="M168.918,251.862a1.6,1.6,0,0,1-3.207,0" transform="translate(-162.504 -251.862)" fill="none" stroke="#000" stroke-linecap="round" stroke-miterlimit="10" stroke-width="1"/>
          </g>
        </g>
      </g>
    </g>
  </g>
</svg>
