<svg xmlns="http://www.w3.org/2000/svg" xmlns:xlink="http://www.w3.org/1999/xlink" width="109.652" height="109.653" viewBox="0 0 109.652 109.653">
  <defs>
    <filter id="Path_874925" x="0" y="0" width="109.652" height="109.653" filterUnits="userSpaceOnUse">
      <feOffset dy="3" input="SourceAlpha"/>
      <feGaussianBlur stdDeviation="3" result="blur"/>
      <feFlood flood-opacity="0.161"/>
      <feComposite operator="in" in2="blur"/>
      <feComposite in="SourceGraphic"/>
    </filter>
  </defs>
  <g id="Group_1111735" data-name="Group 1111735" transform="translate(-1010.73 -3071)">
    <g transform="matrix(1, 0, 0, 1, 1010.73, 3071)" filter="url(#Path_874925)">
      <g id="Path_874925-2" data-name="Path 874925" transform="translate(9 6)" fill="#ffd63c">
        <path d="M 45.82614517211914 90.15280151367188 C 39.84149551391602 90.15280151367188 34.03665924072266 88.98104095458984 28.5728702545166 86.67005157470703 C 23.29473304748535 84.43759155273438 18.55415725708008 81.24130249023438 14.48283290863037 77.16998291015625 C 10.41150760650635 73.09866333007812 7.215232849121094 68.35809326171875 4.982757568359375 63.07994079589844 C 2.671770095825195 57.61616897583008 1.500007629394531 51.81131744384766 1.500007629394531 45.82666778564453 C 1.500007629394531 39.84149169921875 2.671770095825195 34.03665542602539 4.982757568359375 28.57286643981934 C 7.215232849121094 23.29472923278809 10.41150760650635 18.55415534973145 14.48283290863037 14.48283004760742 C 18.55415725708008 10.4115047454834 23.29473304748535 7.215229511260986 28.5728702545166 4.982754707336426 C 34.03665924072266 2.671766996383667 39.84149551391602 1.500004529953003 45.82614517211914 1.500004529953003 C 51.81079483032227 1.500004529953003 57.61564636230469 2.671766996383667 63.07942199707031 4.982754707336426 C 68.35756683349609 7.215229511260986 73.09814453125 10.4115047454834 77.16947174072266 14.48283004760742 C 81.24078369140625 18.55415534973145 84.43707275390625 23.29472923278809 86.66954803466797 28.57286643981934 C 88.98052978515625 34.03665542602539 90.15229797363281 39.84149169921875 90.15229797363281 45.82614135742188 C 90.15229797363281 51.81131744384766 88.98052978515625 57.61616897583008 86.66954803466797 63.07994079589844 C 84.43707275390625 68.35809326171875 81.24078369140625 73.09866333007812 77.16947174072266 77.16998291015625 C 73.09814453125 81.24130249023438 68.35756683349609 84.43759155273438 63.07942199707031 86.67005157470703 C 57.61564636230469 88.98104095458984 51.81079483032227 90.15280151367188 45.82614517211914 90.15280151367188 Z" stroke="none"/>
        <path d="M 45.82614517211914 3.000007629394531 C 40.04333114624023 3.000007629394531 34.43508911132812 4.131904602050781 29.15720367431641 6.364265441894531 C 24.05784606933594 8.521102905273438 19.47753143310547 11.60944366455078 15.54348754882812 15.54348754882812 C 11.60944366455078 19.47753143310547 8.521102905273438 24.05784606933594 6.3642578125 29.15720367431641 C 4.131904602050781 34.43508911132812 3 40.0433349609375 3 45.82667541503906 C 3 51.60948944091797 4.131904602050781 57.21773147583008 6.3642578125 62.49562072753906 C 8.521102905273438 67.59497833251953 11.60944366455078 72.17527770996094 15.54348754882812 76.10932922363281 C 19.47753143310547 80.04337310791016 24.05784606933594 83.13170623779297 29.15718841552734 85.28854370117188 C 34.43508911132812 87.52090454101562 40.04333114624023 88.65280151367188 45.82614517211914 88.65280151367188 C 51.60895919799805 88.65280151367188 57.21720123291016 87.52090454101562 62.49510192871094 85.28854370117188 C 67.59444427490234 83.13170623779297 72.17475891113281 80.04337310791016 76.10880279541016 76.10932922363281 C 80.0428466796875 72.17527770996094 83.13118743896484 67.59497833251953 85.28803253173828 62.49562072753906 C 87.5203857421875 57.21773147583008 88.65229034423828 51.60948944091797 88.65229034423828 45.82614898681641 C 88.65229034423828 40.0433349609375 87.5203857421875 34.43508911132812 85.28803253173828 29.15720367431641 C 83.13118743896484 24.05784606933594 80.0428466796875 19.47753143310547 76.10880279541016 15.54348754882812 C 72.17475891113281 11.60944366455078 67.59444427490234 8.521102905273438 62.49508666992188 6.364265441894531 C 57.21720123291016 4.131904602050781 51.60895919799805 3.000007629394531 45.82614517211914 3.000007629394531 M 45.82614517211914 7.62939453125e-06 C 71.13523101806641 7.62939453125e-06 91.65229034423828 20.51705932617188 91.65229034423828 45.82614898681641 L 91.65229034423828 45.82667541503906 C 91.65229034423828 71.13575744628906 71.13523101806641 91.65280151367188 45.82614517211914 91.65280151367188 C 20.51705932617188 91.65280151367188 0 71.13575744628906 0 45.82667541503906 L 0 45.82614898681641 C 0 20.51705932617188 20.51705932617188 7.62939453125e-06 45.82614517211914 7.62939453125e-06 Z" stroke="none" fill="#fff"/>
      </g>
    </g>
    <g id="shoes_16392377" transform="translate(1038.193 3095.519)">
      <g id="Group_1111760" data-name="Group 1111760" transform="translate(1.598 1.598)">
        <g id="Group_1111750" data-name="Group 1111750" transform="translate(26.792 32.265)">
          <path id="Path_900965" data-name="Path 900965" d="M29.332,41.543h2.28a2.408,2.408,0,0,0,2.394-2.394V29.8h7.981V47.243l-10.033,1.6H25v-2.85A4.356,4.356,0,0,1,29.332,41.543Z" transform="translate(-25 -29.8)" fill="#ad9dc4"/>
        </g>
        <g id="Group_1111751" data-name="Group 1111751" transform="translate(35.001 32.265)">
          <path id="Path_900966" data-name="Path 900966" d="M36.532,41.543h2.28a2.408,2.408,0,0,0,2.394-2.394V29.8h7.3V48.953H42.689V46.9h-.8l-2.736,2.052H32.2V45.989A4.356,4.356,0,0,1,36.532,41.543Z" transform="translate(-32.2 -29.8)" fill="#ad9dc4"/>
        </g>
        <g id="Group_1111754" data-name="Group 1111754" transform="translate(0 0)">
          <g id="Group_1111752" data-name="Group 1111752" transform="translate(0 14.023)">
            <path id="Path_900967" data-name="Path 900967" d="M21.794,13.8H8a6.5,6.5,0,0,0-6.5,6.5V35.006H8V51.081H21.908V35.006h6.384V20.3a6.424,6.424,0,0,0-6.5-6.5Z" transform="translate(-1.5 -13.8)" fill="#ffbea0"/>
          </g>
          <g id="Group_1111753" data-name="Group 1111753" transform="translate(7.867)">
            <path id="Path_900968" data-name="Path 900968" d="M13.986,1.5A5.6,5.6,0,0,0,8.4,7.086v8.551H19.459V7.086A5.573,5.573,0,0,0,13.986,1.5Z" transform="translate(-8.4 -1.5)" fill="#ffbea0"/>
          </g>
        </g>
        <g id="Group_1111759" data-name="Group 1111759" transform="translate(30.326 0)">
          <path id="Path_900969" data-name="Path 900969" d="M29.468,18.943A1.386,1.386,0,0,1,28.1,17.575V11.989a10.489,10.489,0,0,1,20.978,0v5.586a1.386,1.386,0,0,1-1.368,1.368" transform="translate(-28.1 -1.5)" fill="#8ccda5"/>
          <g id="Group_1111755" data-name="Group 1111755" transform="translate(2.622 7.525)">
            <path id="Path_900970" data-name="Path 900970" d="M30.4,18.019V15.967a7.867,7.867,0,0,1,15.733,0V17.9" transform="translate(-30.4 -8.1)" fill="#ffbea0"/>
          </g>
          <g id="Group_1111756" data-name="Group 1111756" transform="translate(1.938 12.085)">
            <path id="Path_900971" data-name="Path 900971" d="M43.6,23.729l-5.472,1.824L32.65,23.729,29.8,17.116,38.123,12.1l8.323,5.016Z" transform="translate(-29.8 -12.1)" fill="#2a3883"/>
          </g>
          <g id="Group_1111757" data-name="Group 1111757" transform="translate(0.28 17.182)">
            <path id="Path_900972" data-name="Path 900972" d="M33.652,19.226c.684,1.938.114,3.876-1.254,4.332s-3.078-.684-3.762-2.508c-.684-1.938-.114-3.876,1.254-4.332C31.258,16.148,32.968,17.288,33.652,19.226Z" transform="translate(-28.346 -16.571)" fill="#ffbf5b"/>
          </g>
          <g id="Group_1111758" data-name="Group 1111758" transform="translate(15.101 17.182)">
            <path id="Path_900973" data-name="Path 900973" d="M41.636,19.226c-.684,1.938-.114,3.876,1.254,4.332s3.078-.684,3.762-2.508c.684-1.938.114-3.876-1.254-4.332C44.03,16.148,42.434,17.288,41.636,19.226Z" transform="translate(-41.346 -16.571)" fill="#ffbf5b"/>
          </g>
        </g>
      </g>
      <path id="Path_900974" data-name="Path 900974" d="M24.3,45.987V49.75H40.717l2.394-1.71v1.71h7.525V29H33.421V39.261a1.559,1.559,0,0,1-1.6,1.6h-2.28A5.135,5.135,0,0,0,24.3,45.987Zm18.925-6.727V30.71h5.586V48.039h-4.1V46.1H42.769l-2.85,1.938H34.1V45.987a3.552,3.552,0,0,1,3.534-3.534h2.28a3.144,3.144,0,0,0,3.306-3.192ZM26.01,45.987a3.552,3.552,0,0,1,3.534-3.534h2.28a3.309,3.309,0,0,0,3.306-3.306V30.6h6.5v8.665a1.559,1.559,0,0,1-1.6,1.6h-2.28A5.3,5.3,0,0,0,32.509,46.1v2.052h-6.5Z" transform="translate(3.292 3.95)"/>
      <path id="Path_900975" data-name="Path 900975" d="M15.051.8A6.374,6.374,0,0,0,8.667,7.184v7.639H8.1a7.348,7.348,0,0,0-7.3,7.3V37.739H7.3V53.814H22.918V37.625h6.5V22.12a7.348,7.348,0,0,0-7.3-7.3h-.57V7.184A6.625,6.625,0,0,0,15.051.8ZM10.377,7.184a4.674,4.674,0,0,1,9.349,0v7.639H10.377Zm11.515,9.349a5.6,5.6,0,0,1,5.586,5.586V36.029H22.69V20.752H20.98V52.1h-5.13V37.511h-1.71V51.99H8.895V20.752H7.184V35.915H2.51V22.12A5.6,5.6,0,0,1,8.1,16.533h6.156V30.9h1.6V16.533h6.042Z"/>
      <path id="Path_900976" data-name="Path 900976" d="M12.5,5.7h1.71v6.042H12.5Z" transform="translate(1.639 0.686)"/>
      <path id="Path_900977" data-name="Path 900977" d="M50.074,17.673V12.087a11.287,11.287,0,1,0-22.574,0v5.586a2.425,2.425,0,0,0,.8,1.71,2.177,2.177,0,0,0-.342.912,5.131,5.131,0,0,0,.228,3.192,4.592,4.592,0,0,0,1.938,2.622,3.1,3.1,0,0,0,1.938.684,2.223,2.223,0,0,0,.912-.114c.228-.114.342-.114.456-.228l5.13,1.71,5.472-1.824.684.342a2.833,2.833,0,0,0,.912.114,3.1,3.1,0,0,0,1.938-.684A5.869,5.869,0,0,0,49.5,23.488a6.261,6.261,0,0,0,.228-3.192c-.114-.342-.228-.57-.342-.912a2.884,2.884,0,0,0,.684-1.71ZM29.1,12.087a9.577,9.577,0,1,1,19.153,0v5.586a.49.49,0,0,1-.456.456c-.114,0-.114-.114-.228-.114s-.228,0-.228-.114v-.912a8.665,8.665,0,1,0-17.329,0V17.9l-.228.114c-.114,0-.114.114-.228.114a.49.49,0,0,1-.456-.456ZM45.627,17.1l-7.183-4.332-6.727,4.1a7.035,7.035,0,0,1,6.955-6.841A6.936,6.936,0,0,1,45.627,17.1ZM32.174,24.97a1.768,1.768,0,0,1-1.368-.228,3.223,3.223,0,0,1-1.254-1.71,3.529,3.529,0,0,1-.114-2.166c.114-.342.342-.912.8-1.026.114,0,.228-.114.342-.114a1.7,1.7,0,0,1,.912.342,3.223,3.223,0,0,1,1.254,1.71,3.529,3.529,0,0,1,.114,2.166c.114.228-.114.8-.684,1.026Zm2.28-.114c.114-.228.114-.342.228-.57a5.131,5.131,0,0,0-.228-3.192,4.592,4.592,0,0,0-1.938-2.622c-.114,0-.114-.114-.228-.114l6.042-3.648,6.27,3.762a5.869,5.869,0,0,0-1.938,2.622,6.261,6.261,0,0,0-.228,3.192.864.864,0,0,0,.228.456l-4.332,1.482Zm13.339-1.938a2.842,2.842,0,0,1-1.254,1.71,1.34,1.34,0,0,1-1.368.228,1.292,1.292,0,0,1-.8-1.026,3.529,3.529,0,0,1,.114-2.166,3.223,3.223,0,0,1,1.254-1.71,2.177,2.177,0,0,1,.912-.342.419.419,0,0,1,.342.114,1.292,1.292,0,0,1,.8,1.026,2.835,2.835,0,0,1,0,2.166Z" transform="translate(3.74 0)"/>
    </g>
  </g>
</svg>
