<svg xmlns="http://www.w3.org/2000/svg" xmlns:xlink="http://www.w3.org/1999/xlink" width="109.652" height="109.653" viewBox="0 0 109.652 109.653">
  <defs>
    <filter id="Path_874925" x="0" y="0" width="109.652" height="109.653" filterUnits="userSpaceOnUse">
      <feOffset dy="3" input="SourceAlpha"/>
      <feGaussianBlur stdDeviation="3" result="blur"/>
      <feFlood flood-opacity="0.161"/>
      <feComposite operator="in" in2="blur"/>
      <feComposite in="SourceGraphic"/>
    </filter>
  </defs>
  <g id="Group_1110062" data-name="Group 1110062" transform="translate(-1010.73 -3071)">
    <g transform="matrix(1, 0, 0, 1, 1010.73, 3071)" filter="url(#Path_874925)">
      <g id="Path_874925-2" data-name="Path 874925" transform="translate(9 6)" fill="#ffd63c">
        <path d="M 45.82614517211914 90.15280151367188 C 39.84149551391602 90.15280151367188 34.03665924072266 88.98104095458984 28.5728702545166 86.67005157470703 C 23.29473304748535 84.43759155273438 18.55415725708008 81.24130249023438 14.48283290863037 77.16998291015625 C 10.41150760650635 73.09866333007812 7.215232849121094 68.35809326171875 4.982757568359375 63.07994079589844 C 2.671770095825195 57.61616897583008 1.500007629394531 51.81131744384766 1.500007629394531 45.82666778564453 C 1.500007629394531 39.84149169921875 2.671770095825195 34.03665542602539 4.982757568359375 28.57286643981934 C 7.215232849121094 23.29472923278809 10.41150760650635 18.55415534973145 14.48283290863037 14.48283004760742 C 18.55415725708008 10.4115047454834 23.29473304748535 7.215229511260986 28.5728702545166 4.982754707336426 C 34.03665924072266 2.671766996383667 39.84149551391602 1.500004529953003 45.82614517211914 1.500004529953003 C 51.81079483032227 1.500004529953003 57.61564636230469 2.671766996383667 63.07942199707031 4.982754707336426 C 68.35756683349609 7.215229511260986 73.09814453125 10.4115047454834 77.16947174072266 14.48283004760742 C 81.24078369140625 18.55415534973145 84.43707275390625 23.29472923278809 86.66954803466797 28.57286643981934 C 88.98052978515625 34.03665542602539 90.15229797363281 39.84149169921875 90.15229797363281 45.82614135742188 C 90.15229797363281 51.81131744384766 88.98052978515625 57.61616897583008 86.66954803466797 63.07994079589844 C 84.43707275390625 68.35809326171875 81.24078369140625 73.09866333007812 77.16947174072266 77.16998291015625 C 73.09814453125 81.24130249023438 68.35756683349609 84.43759155273438 63.07942199707031 86.67005157470703 C 57.61564636230469 88.98104095458984 51.81079483032227 90.15280151367188 45.82614517211914 90.15280151367188 Z" stroke="none"/>
        <path d="M 45.82614517211914 3.000007629394531 C 40.04333114624023 3.000007629394531 34.43508911132812 4.131904602050781 29.15720367431641 6.364265441894531 C 24.05784606933594 8.521102905273438 19.47753143310547 11.60944366455078 15.54348754882812 15.54348754882812 C 11.60944366455078 19.47753143310547 8.521102905273438 24.05784606933594 6.3642578125 29.15720367431641 C 4.131904602050781 34.43508911132812 3 40.0433349609375 3 45.82667541503906 C 3 51.60948944091797 4.131904602050781 57.21773147583008 6.3642578125 62.49562072753906 C 8.521102905273438 67.59497833251953 11.60944366455078 72.17527770996094 15.54348754882812 76.10932922363281 C 19.47753143310547 80.04337310791016 24.05784606933594 83.13170623779297 29.15718841552734 85.28854370117188 C 34.43508911132812 87.52090454101562 40.04333114624023 88.65280151367188 45.82614517211914 88.65280151367188 C 51.60895919799805 88.65280151367188 57.21720123291016 87.52090454101562 62.49510192871094 85.28854370117188 C 67.59444427490234 83.13170623779297 72.17475891113281 80.04337310791016 76.10880279541016 76.10932922363281 C 80.0428466796875 72.17527770996094 83.13118743896484 67.59497833251953 85.28803253173828 62.49562072753906 C 87.5203857421875 57.21773147583008 88.65229034423828 51.60948944091797 88.65229034423828 45.82614898681641 C 88.65229034423828 40.0433349609375 87.5203857421875 34.43508911132812 85.28803253173828 29.15720367431641 C 83.13118743896484 24.05784606933594 80.0428466796875 19.47753143310547 76.10880279541016 15.54348754882812 C 72.17475891113281 11.60944366455078 67.59444427490234 8.521102905273438 62.49508666992188 6.364265441894531 C 57.21720123291016 4.131904602050781 51.60895919799805 3.000007629394531 45.82614517211914 3.000007629394531 M 45.82614517211914 7.62939453125e-06 C 71.13523101806641 7.62939453125e-06 91.65229034423828 20.51705932617188 91.65229034423828 45.82614898681641 L 91.65229034423828 45.82667541503906 C 91.65229034423828 71.13575744628906 71.13523101806641 91.65280151367188 45.82614517211914 91.65280151367188 C 20.51705932617188 91.65280151367188 0 71.13575744628906 0 45.82667541503906 L 0 45.82614898681641 C 0 20.51705932617188 20.51705932617188 7.62939453125e-06 45.82614517211914 7.62939453125e-06 Z" stroke="none" fill="#fff"/>
      </g>
    </g>
    <g id="gloves_11422915" transform="translate(1039.579 3096.851)">
      <path id="Path_900899" data-name="Path 900899" d="M65.77,91.58H56.707a1.532,1.532,0,0,1,0-3.064H68.4l.739.406-3.47-2.2a1.715,1.715,0,0,1,1.729-2.963l8.247,4.761h6.494a1.076,1.076,0,0,1,1.088,1.059V99.721a1.059,1.059,0,0,1-1.059,1.059H60.007a1.538,1.538,0,0,1-.012-3.076H56.7a1.532,1.532,0,0,1,0-3.064H55.53a1.53,1.53,0,1,1,0-3.06Z" transform="translate(-32.083 -49.625)" fill="#e1f2f6"/>
      <path id="Path_900900" data-name="Path 900900" d="M80.967,86.617H74.676L66.62,81.97a2.516,2.516,0,0,0-2.569,4.314l.507.321h-9.03a2.346,2.346,0,0,0-2.342,2.358,2.3,2.3,0,0,0,.195.929,2.342,2.342,0,0,0,0,4.258,2.342,2.342,0,0,0,2.147,3.279H56.6a2.313,2.313,0,0,0-.11.718,2.346,2.346,0,0,0,2.342,2.342h22.14a1.875,1.875,0,0,0,1.871-1.871V88.472a1.883,1.883,0,0,0-1.871-1.855Zm.248,12a.248.248,0,0,1-.248.248H58.827a.718.718,0,1,1,0-1.437h6.242a.812.812,0,0,0,0-1.623h-9.55a.722.722,0,0,1,0-1.441h9.071a.812.812,0,0,0,0-1.623H54.351a.718.718,0,1,1,0-1.437h10.24a.812.812,0,0,0,0-1.623H55.528a.722.722,0,0,1,0-1.441h11.5l.15.077a5.439,5.439,0,0,0,5.406,4.927.812.812,0,0,0,0-1.623,3.811,3.811,0,0,1-3.807-3.807h0a.666.666,0,0,0,0-.093.309.309,0,0,0,0-.065.475.475,0,0,0-.024-.081.345.345,0,0,0-.024-.069.329.329,0,0,0-.041-.073.441.441,0,0,0-.032-.061c0-.024-.037-.045-.053-.065l-.049-.053-.057-.049-.065-.053-3.494-2.216a.895.895,0,1,1,.873-1.563l8.247,4.761a.812.812,0,0,0,.406.106h6.494a.264.264,0,0,1,.264.248Z" transform="translate(-30.904 -48.539)" fill="#404040"/>
      <path id="Path_900901" data-name="Path 900901" d="M82.083,7.5c-.735,0-1.315.812-2.029,2.2a4.3,4.3,0,0,1-3.3,2.382c-2.74.365-4.753-.743-5.3-2.366-.313-.938-1.283-4.947.365-6.23S78.966,2,82.083,2s8.608.183,10.26,1.465.678,5.276.365,6.23c-.548,1.648-2.565,2.748-5.313,2.382a4.318,4.318,0,0,1-3.32-2.366c-.7-1.4-1.278-2.2-2.029-2.2" transform="translate(-42.118 -1.188)" fill="#e3f2fd"/>
      <path id="Path_900902" data-name="Path 900902" d="M87.174,11.77a8.343,8.343,0,0,1-1.133-.077,5.081,5.081,0,0,1-3.916-2.841C81.378,7.362,81,7.111,80.842,7.1s-.532.26-1.278,1.749a5.085,5.085,0,0,1-3.917,2.841c-2.987.406-5.475-.779-6.189-2.93,0-.053-1.729-5.276.637-7.127C71.507.552,75.12,0,80.846,0h.024C86.6,0,90.206.552,91.61,1.623c2.366,1.843.653,7.074.637,7.127-.609,1.883-2.589,3.02-5.073,3.02ZM80.907,5.5c1.274.041,2.054,1.384,2.683,2.646a3.507,3.507,0,0,0,2.679,1.94c2.192.3,3.973-.442,4.436-1.83s.933-4.525-.093-5.333-4.688-1.295-9.753-1.295-8.7.483-9.749,1.295-.568,3.921-.1,5.333,2.244,2.123,4.436,1.83a3.507,3.507,0,0,0,2.679-1.94c.633-1.262,1.412-2.606,2.687-2.646Z" transform="translate(-40.905 0)" fill="#404040"/>
      <path id="Path_900903" data-name="Path 900903" d="M15.316,12.958a27.791,27.791,0,0,1,0-6.088C15.722,4.435,17.345,2,20.592,2s4.87,2.468,5.276,4.87a27.864,27.864,0,0,1,0,6.088" transform="translate(-8.993 -1.188)" fill="#fff"/>
      <path id="Path_900904" data-name="Path 900904" d="M5.442,49.078,2,48.887l.166-15.861A4.237,4.237,0,0,1,5.653,29.52L8.733,29h8.117l3.1.52a4.241,4.241,0,0,1,3.474,3.507l.089,15.861-3.381.191" transform="translate(-1.188 -17.23)" fill="#fff"/>
      <path id="Path_900905" data-name="Path 900905" d="M24.785,43l.406,33.687H10.58L10.986,43" transform="translate(-6.286 -25.548)" fill="#fff"/>
      <ellipse id="Ellipse_11677" data-name="Ellipse 11677" cx="2.435" cy="3.653" rx="2.435" ry="3.653" transform="translate(9.164 4.465)" fill="#bdbcbc"/>
      <path id="Path_900906" data-name="Path 900906" d="M23.033,15.792a.661.661,0,0,0,0-.126,5.053,5.053,0,0,0-4.14-4.176L17.748,11.3a26.188,26.188,0,0,0-.061-5.751C17.249,2.987,15.423,0,11.6,0S5.95,2.987,5.512,5.548A26.152,26.152,0,0,0,5.455,11.3l-1.149.191A5.053,5.053,0,0,0,.175,15.666v.122L0,31.657a.812.812,0,0,0,.767.812l2.938.162L3.482,51.139a.812.812,0,0,0,.812.812H18.905a.812.812,0,0,0,.812-.812l-.235-18.507,2.874-.162a.812.812,0,0,0,.779-.812ZM7.123,5.816c.183-.982.97-4.193,4.477-4.193s4.31,3.21,4.465,4.193a24.559,24.559,0,0,1,.057,5.211l-.337-.069a.747.747,0,0,0-.134,0H14.12a5.6,5.6,0,0,0,.726-2.841c0-1.1,0-4.465-3.247-4.465S8.353,7.013,8.353,8.117a5.6,5.6,0,0,0,.722,2.841H7.545a.747.747,0,0,0-.134,0l-.341.057a24.263,24.263,0,0,1,.053-5.2Zm2.841,2.3c0-2.622.767-2.841,1.623-2.841s1.623.219,1.623,2.841c0,1.676-.856,2.841-1.623,2.841S9.976,9.793,9.976,8.117ZM1.623,30.89l.158-15.017a3.425,3.425,0,0,1,2.792-2.78l3.04-.511h3.174V24.806H5.422l.089-7.354a.812.812,0,0,0-1.623,0L3.722,31.008Zm3.77-4.465h5.394v23.9H5.106Zm7.017,23.9V26.43h5.382l.288,23.9Zm7.07-19.319-.17-13.556a.812.812,0,0,0-1.623,0l.089,7.346H12.411V12.582h3.17l3.032.507a3.43,3.43,0,0,1,2.8,2.78l.1,15.017Z" fill="#404040"/>
      <path id="Path_900907" data-name="Path 900907" d="M85.5,39.3c2.151,0,4.566,1.343,6.445,1.879,1.291.369,2.488,2.593,2.435,4.249a21.8,21.8,0,0,1-2.175,6.758c-1.3,1.335-4.562,2.435-6.713,2.435s-5.394-1.08-6.709-2.435a21.851,21.851,0,0,1-2.147-6.981c0-1.623,1.14-3.6,2.435-4.026,1.6-.536,4.282-1.879,6.429-1.879Z" transform="translate(-45.535 -23.35)" fill="#fff"/>
      <g id="Group_1111743" data-name="Group 1111743" transform="translate(28.005 14.734)">
        <path id="Path_900908" data-name="Path 900908" d="M92.946,40.039a3.8,3.8,0,0,0-1.3-3.247,2.387,2.387,0,0,0-2.078-.406,3.935,3.935,0,0,0-2.159,2.167c-.52-.158-1.084-.377-1.68-.609a13.809,13.809,0,0,0-4.765-1.218,15.754,15.754,0,0,0-5.337,1.408c-.406.154-.767.3-1.1.406a3.947,3.947,0,0,0-2.155-2.155,2.387,2.387,0,0,0-2.078.406A3.785,3.785,0,0,0,69,40.039c0,2.671,3.032,7.5,3.4,8.081a10.485,10.485,0,0,0,1.274,2.841c1.546,1.579,5.065,2.671,7.289,2.671s5.763-1.092,7.306-2.662a11.182,11.182,0,0,0,1.339-2.934C90.133,47.186,92.946,42.608,92.946,40.039Zm-2.93-2.1a.779.779,0,0,1,.653.154,2.47,2.47,0,0,1,.653,1.948,7.821,7.821,0,0,1-.731,2.662,6.3,6.3,0,0,0-1.757-3.373C89.107,38.765,89.549,38.071,90.016,37.937Zm-18.739.154a.779.779,0,0,1,.653-.154c.467.134.909.812,1.181,1.392A6.011,6.011,0,0,0,71.358,42.7a7.748,7.748,0,0,1-.735-2.662A2.414,2.414,0,0,1,71.277,38.091Zm9.688,13.917a10.575,10.575,0,0,1-6.112-2.155,22.679,22.679,0,0,1-1.932-6.429c0-1.283.954-2.955,1.859-3.247.43-.146.921-.337,1.445-.544a14.685,14.685,0,0,1,4.74-1.295,12.554,12.554,0,0,1,4.176,1.116c.718.28,1.4.548,2.029.731a.885.885,0,0,1,.219.1l.065.037a4.408,4.408,0,0,1,1.579,3.312,22.842,22.842,0,0,1-1.952,6.21c-1.076,1.108-4.055,2.163-6.116,2.163Z" transform="translate(-69 -36.302)" fill="#404040"/>
        <path id="Path_900909" data-name="Path 900909" d="M91.457,62.305a32.208,32.208,0,0,1-4.107-.511.812.812,0,1,1,.292-1.6,32.369,32.369,0,0,0,3.815.483,32.369,32.369,0,0,0,3.815-.483.812.812,0,1,1,.292,1.6A32.209,32.209,0,0,1,91.457,62.305Z" transform="translate(-79.484 -50.487)" fill="#404040"/>
        <path id="Path_900910" data-name="Path 900910" d="M91.457,50.771a33.209,33.209,0,0,1-4.107-.507.812.812,0,1,1,.292-1.6,32.625,32.625,0,0,0,3.815.479,32.625,32.625,0,0,0,3.815-.479.812.812,0,1,1,.292,1.6A33.209,33.209,0,0,1,91.457,50.771Z" transform="translate(-79.484 -43.637)" fill="#404040"/>
      </g>
    </g>
  </g>
</svg>
