<svg xmlns="http://www.w3.org/2000/svg" xmlns:xlink="http://www.w3.org/1999/xlink" width="109.652" height="109.653" viewBox="0 0 109.652 109.653">
  <defs>
    <filter id="Path_874925" x="0" y="0" width="109.652" height="109.653" filterUnits="userSpaceOnUse">
      <feOffset dy="3" input="SourceAlpha"/>
      <feGaussianBlur stdDeviation="3" result="blur"/>
      <feFlood flood-opacity="0.161"/>
      <feComposite operator="in" in2="blur"/>
      <feComposite in="SourceGraphic"/>
    </filter>
  </defs>
  <g id="Group_1111734" data-name="Group 1111734" transform="translate(-1010.73 -3071)">
    <g transform="matrix(1, 0, 0, 1, 1010.73, 3071)" filter="url(#Path_874925)">
      <g id="Path_874925-2" data-name="Path 874925" transform="translate(9 6)" fill="#ffd63c">
        <path d="M 45.82614517211914 90.15280151367188 C 39.84149551391602 90.15280151367188 34.03665924072266 88.98104095458984 28.5728702545166 86.67005157470703 C 23.29473304748535 84.43759155273438 18.55415725708008 81.24130249023438 14.48283290863037 77.16998291015625 C 10.41150760650635 73.09866333007812 7.215232849121094 68.35809326171875 4.982757568359375 63.07994079589844 C 2.671770095825195 57.61616897583008 1.500007629394531 51.81131744384766 1.500007629394531 45.82666778564453 C 1.500007629394531 39.84149169921875 2.671770095825195 34.03665542602539 4.982757568359375 28.57286643981934 C 7.215232849121094 23.29472923278809 10.41150760650635 18.55415534973145 14.48283290863037 14.48283004760742 C 18.55415725708008 10.4115047454834 23.29473304748535 7.215229511260986 28.5728702545166 4.982754707336426 C 34.03665924072266 2.671766996383667 39.84149551391602 1.500004529953003 45.82614517211914 1.500004529953003 C 51.81079483032227 1.500004529953003 57.61564636230469 2.671766996383667 63.07942199707031 4.982754707336426 C 68.35756683349609 7.215229511260986 73.09814453125 10.4115047454834 77.16947174072266 14.48283004760742 C 81.24078369140625 18.55415534973145 84.43707275390625 23.29472923278809 86.66954803466797 28.57286643981934 C 88.98052978515625 34.03665542602539 90.15229797363281 39.84149169921875 90.15229797363281 45.82614135742188 C 90.15229797363281 51.81131744384766 88.98052978515625 57.61616897583008 86.66954803466797 63.07994079589844 C 84.43707275390625 68.35809326171875 81.24078369140625 73.09866333007812 77.16947174072266 77.16998291015625 C 73.09814453125 81.24130249023438 68.35756683349609 84.43759155273438 63.07942199707031 86.67005157470703 C 57.61564636230469 88.98104095458984 51.81079483032227 90.15280151367188 45.82614517211914 90.15280151367188 Z" stroke="none"/>
        <path d="M 45.82614517211914 3.000007629394531 C 40.04333114624023 3.000007629394531 34.43508911132812 4.131904602050781 29.15720367431641 6.364265441894531 C 24.05784606933594 8.521102905273438 19.47753143310547 11.60944366455078 15.54348754882812 15.54348754882812 C 11.60944366455078 19.47753143310547 8.521102905273438 24.05784606933594 6.3642578125 29.15720367431641 C 4.131904602050781 34.43508911132812 3 40.0433349609375 3 45.82667541503906 C 3 51.60948944091797 4.131904602050781 57.21773147583008 6.3642578125 62.49562072753906 C 8.521102905273438 67.59497833251953 11.60944366455078 72.17527770996094 15.54348754882812 76.10932922363281 C 19.47753143310547 80.04337310791016 24.05784606933594 83.13170623779297 29.15718841552734 85.28854370117188 C 34.43508911132812 87.52090454101562 40.04333114624023 88.65280151367188 45.82614517211914 88.65280151367188 C 51.60895919799805 88.65280151367188 57.21720123291016 87.52090454101562 62.49510192871094 85.28854370117188 C 67.59444427490234 83.13170623779297 72.17475891113281 80.04337310791016 76.10880279541016 76.10932922363281 C 80.0428466796875 72.17527770996094 83.13118743896484 67.59497833251953 85.28803253173828 62.49562072753906 C 87.5203857421875 57.21773147583008 88.65229034423828 51.60948944091797 88.65229034423828 45.82614898681641 C 88.65229034423828 40.0433349609375 87.5203857421875 34.43508911132812 85.28803253173828 29.15720367431641 C 83.13118743896484 24.05784606933594 80.0428466796875 19.47753143310547 76.10880279541016 15.54348754882812 C 72.17475891113281 11.60944366455078 67.59444427490234 8.521102905273438 62.49508666992188 6.364265441894531 C 57.21720123291016 4.131904602050781 51.60895919799805 3.000007629394531 45.82614517211914 3.000007629394531 M 45.82614517211914 7.62939453125e-06 C 71.13523101806641 7.62939453125e-06 91.65229034423828 20.51705932617188 91.65229034423828 45.82614898681641 L 91.65229034423828 45.82667541503906 C 91.65229034423828 71.13575744628906 71.13523101806641 91.65280151367188 45.82614517211914 91.65280151367188 C 20.51705932617188 91.65280151367188 0 71.13575744628906 0 45.82667541503906 L 0 45.82614898681641 C 0 20.51705932617188 20.51705932617188 7.62939453125e-06 45.82614517211914 7.62939453125e-06 Z" stroke="none" fill="#fff"/>
      </g>
    </g>
    <g id="alimento-para-animales" transform="translate(989.828 3065.193)">
      <path id="Path_900956" data-name="Path 900956" d="M266.484,151.043l-3.673-4.009,12.59-11.626a4.664,4.664,0,0,1,1.156,2.088,3.21,3.21,0,0,1-.761,3.173A67.89,67.89,0,0,1,266.484,151.043Z" transform="translate(-185.505 -91.882)" fill="#60b7fe" fill-rule="evenodd"/>
      <path id="Path_900957" data-name="Path 900957" d="M238.1,109.448c-4.789,3.707-9.3,7.609-12.349,12.561l4.579,4.579a55.344,55.344,0,0,0,12.587-12.365,1.5,1.5,0,0,0-.013-1.862,17.8,17.8,0,0,0-2.929-2.9A1.5,1.5,0,0,0,238.1,109.448Z" transform="translate(-153.007 -68.836)" fill="#19cfba" fill-rule="evenodd"/>
      <path id="Path_900958" data-name="Path 900958" d="M135.315,143.114a6.69,6.69,0,1,1-6.1,9.446H121.9a4.451,4.451,0,1,1,3.269-7.472,4.019,4.019,0,0,1,7.866-1.574A6.674,6.674,0,0,1,135.315,143.114Z" transform="translate(-58.038 -96.377)" fill="#f0b16e" fill-rule="evenodd"/>
      <path id="Path_900959" data-name="Path 900959" d="M68.641,211.61a8.866,8.866,0,0,1-2.051-4.844h39.146a8.866,8.866,0,0,1-2.051,4.844l-17.522,1.837Z" transform="translate(-13.441 -154.455)" fill="#fa6e85" fill-rule="evenodd"/>
      <path id="Path_900960" data-name="Path 900960" d="M103.558,410.344a8.866,8.866,0,0,1,2.051,4.844H66.59a8.866,8.866,0,0,1,2.051-4.844L86.1,408.513Z" transform="translate(-13.441 -331.365)" fill="#fa6e85" fill-rule="evenodd"/>
      <path id="Path_900961" data-name="Path 900961" d="M96.07,246.11a20.641,20.641,0,0,1,0,21.824H61.026a20.641,20.641,0,0,1,0-21.824Z" transform="translate(-5.826 -188.956)" fill="#60b7fe" fill-rule="evenodd"/>
      <path id="Path_900962" data-name="Path 900962" d="M149.455,270.823l-3.064-2.749.293,4.461a8.034,8.034,0,0,0-6.67,1.893,8.664,8.664,0,0,0,6.818,1.3,25.937,25.937,0,0,1,1.182,2.721A1.861,1.861,0,0,1,147.9,280a3.008,3.008,0,1,0,5.3,0,1.86,1.86,0,0,1-.117-1.557,25.929,25.929,0,0,1,1.182-2.721,8.663,8.663,0,0,0,6.818-1.3,8.034,8.034,0,0,0-6.67-1.893l.293-4.461-3.064,2.749Z" transform="translate(-77.826 -208.216)" fill="#f0b16e" fill-rule="evenodd"/>
      <path id="Path_900963" data-name="Path 900963" d="M279.978,365.893a4.131,4.131,0,0,1-6.556,0A4.131,4.131,0,0,1,279.978,365.893Z" transform="translate(-194.81 -292.574)" fill="#19cfba" fill-rule="evenodd"/>
      <path id="Path_900964" data-name="Path 900964" d="M99.956,35.325l-4.46-4.46a.819.819,0,0,0-1.384.428l-.981,5.24L88.662,41q-.564-.521-1.188-1.018a2.33,2.33,0,0,0-2.884-.02,79.946,79.946,0,0,0-6.984,5.96,7.464,7.464,0,0,0-2.111.206,4.837,4.837,0,0,0-9.1.982,5.266,5.266,0,0,0-7.8,4.38H53.148a.817.817,0,0,0-.814.9,9.635,9.635,0,0,0,1.875,4.82,21.464,21.464,0,0,0,0,21.709,9.643,9.643,0,0,0-1.875,4.82.819.819,0,0,0,.814.9h39.02a.819.819,0,0,0,.815-.9,9.626,9.626,0,0,0-1.8-4.724,21.459,21.459,0,0,0,.056-21.805,9.626,9.626,0,0,0,1.875-4.82.817.817,0,0,0-.814-.9H89.259c.577-.729,1.143-1.472,1.692-2.224a3.987,3.987,0,0,0,.9-3.841,5.475,5.475,0,0,0-1.322-2.422q-.335-.426-.712-.84l4.473-4.474,5.24-.982a.819.819,0,0,0,.428-1.384ZM85.593,41.259a.681.681,0,0,1,.864.005,17.089,17.089,0,0,1,2.8,2.767.683.683,0,0,1,.007.858,67.547,67.547,0,0,1-4.975,5.839,7.476,7.476,0,0,0-3.222-3.784,7.562,7.562,0,0,0-1.468-.657C81.662,44.35,83.846,42.611,85.593,41.259ZM61.133,49.333a3.632,3.632,0,0,1,5.4-.067A.818.818,0,0,0,67.94,48.6a3.2,3.2,0,0,1,6.265-1.256.816.816,0,0,0,1.069.559,5.883,5.883,0,0,1,7.549,3.587H60.237a3.641,3.641,0,0,1,.9-2.16ZM54.1,83A7.961,7.961,0,0,1,55.6,79.8H89.72A7.979,7.979,0,0,1,91.214,83ZM89.784,78.16H55.66a19.927,19.927,0,0,1,0-20.188H89.784A19.93,19.93,0,0,1,89.784,78.16Zm.063-21.825H55.6A7.963,7.963,0,0,1,54.1,53.129H91.341a7.971,7.971,0,0,1-1.494,3.206ZM89.629,48.3c-.794,1.089-1.624,2.158-2.471,3.188H85.819a69.371,69.371,0,0,0,4.512-5.312A2.43,2.43,0,0,1,89.629,48.3Zm5.285-12.4.523-2.787L97.7,35.385ZM72.23,65.883v0a.818.818,0,1,1-.819-.82A.819.819,0,0,1,72.23,65.885Zm1.8.821a.819.819,0,1,1,.819-.821v0A.819.819,0,0,1,74.032,66.7Zm7.858,4.179a4.912,4.912,0,0,1,3.927,1.938.817.817,0,0,1,0,1,4.945,4.945,0,0,1-7.584.32h-1.8A3.9,3.9,0,0,1,76,75.174a3.82,3.82,0,0,1-6.559,0,3.92,3.92,0,0,1-.431-1.038H64.794a.818.818,0,1,1,0-1.637h4.166a3.834,3.834,0,0,1,.391-1.1,1.051,1.051,0,0,0,.068-.894c-.265-.741-.583-1.458-.873-2.07a9.6,9.6,0,0,1-6.792-1.529.82.82,0,0,1-.107-1.307,8.559,8.559,0,0,1,6.333-2.176l-.23-3.51a.818.818,0,0,1,1.363-.664l2.83,2.54H73.5l2.832-2.54a.818.818,0,0,1,1.363.664l-.23,3.51A8.557,8.557,0,0,1,83.8,65.6a.819.819,0,0,1-.106,1.307A9.6,9.6,0,0,1,76.9,68.434c-.289.612-.608,1.328-.872,2.07a1.049,1.049,0,0,0,.067.894,3.877,3.877,0,0,1,.391,1.1h1.748a4.911,4.911,0,0,1,3.658-1.617ZM72.722,75.4a2.193,2.193,0,0,1-1.93-3.224,2.672,2.672,0,0,0,.167-2.22,27.059,27.059,0,0,0-1.218-2.808.818.818,0,0,0-.734-.457.8.8,0,0,0-.189.022,7.483,7.483,0,0,1-5.131-.6,7.426,7.426,0,0,1,5.069-.976.82.82,0,0,0,.92-.865l-.161-2.457,1.569,1.408a.816.816,0,0,0,.547.21h2.185a.815.815,0,0,0,.547-.21l1.571-1.408-.161,2.457a.818.818,0,0,0,.92.865,7.426,7.426,0,0,1,5.068.976,7.482,7.482,0,0,1-5.131.6.818.818,0,0,0-.924.435,27.139,27.139,0,0,0-1.219,2.808,2.676,2.676,0,0,0,.168,2.22,2.192,2.192,0,0,1-1.93,3.224Zm9.168-1.28a3.286,3.286,0,0,1-2.159-.8,3.318,3.318,0,0,1,4.319,0A3.286,3.286,0,0,1,81.89,74.118Z" transform="translate(0 0)" fill="#1e2f3f" fill-rule="evenodd"/>
    </g>
  </g>
</svg>
