<svg xmlns="http://www.w3.org/2000/svg" xmlns:xlink="http://www.w3.org/1999/xlink" width="95.147" height="95.148" viewBox="0 0 95.147 95.148">
  <defs>
    <filter id="Path_901156" x="0" y="0" width="95.147" height="95.148" filterUnits="userSpaceOnUse">
      <feOffset dy="3" input="SourceAlpha"/>
      <feGaussianBlur stdDeviation="3" result="blur"/>
      <feFlood flood-opacity="0.161"/>
      <feComposite operator="in" in2="blur"/>
      <feComposite in="SourceGraphic"/>
    </filter>
  </defs>
  <g id="Group_1111885" data-name="Group 1111885" transform="translate(-40 6.056)">
    <g transform="matrix(1, 0, 0, 1, 40, -6.06)" filter="url(#Path_901156)">
      <g id="Path_901156-2" data-name="Path 901156" transform="translate(9 6)" fill="#ffd63c">
        <path d="M 38.5737419128418 75.64792633056641 C 33.56815338134766 75.64792633056641 28.71309661865234 74.66791534423828 24.14343070983887 72.735107421875 C 19.72889709472656 70.867919921875 15.76391983032227 68.19454956054688 12.35864162445068 64.78928375244141 C 8.953374862670898 61.38400650024414 6.280008792877197 57.41904067993164 4.412819862365723 53.00450897216797 C 2.480008602142334 48.43482971191406 1.499997496604919 43.57977294921875 1.499997496604919 38.57418441772461 C 1.499997496604919 33.56815338134766 2.480008602142334 28.71309661865234 4.412819862365723 24.14343070983887 C 6.280008792877197 19.72889709472656 8.953374862670898 15.76391887664795 12.35864162445068 12.35864067077637 C 15.76391983032227 8.953373908996582 19.72889709472656 6.280007839202881 24.14343070983887 4.412818908691406 C 28.71309661865234 2.480007648468018 33.56815338134766 1.499996542930603 38.5737419128418 1.499996542930603 C 43.57933044433594 1.499996542930603 48.43438720703125 2.480007648468018 53.00406265258789 4.412818908691406 C 57.41859817504883 6.280007839202881 61.38356399536133 8.953373908996582 64.78884124755859 12.35864067077637 C 68.19410705566406 15.76391887664795 70.86747741699219 19.72889709472656 72.73466491699219 24.14343070983887 C 74.66747283935547 28.71309661865234 75.64748382568359 33.56815338134766 75.64748382568359 38.5737419128418 C 75.64748382568359 43.57977294921875 74.66747283935547 48.43482971191406 72.73466491699219 53.00450897216797 C 70.86747741699219 57.41904067993164 68.19410705566406 61.38401794433594 64.78884124755859 64.78928375244141 C 61.38357543945312 68.19454956054688 57.41859817504883 70.867919921875 53.00406265258789 72.735107421875 C 48.43438720703125 74.66791534423828 43.57933044433594 75.64792633056641 38.5737419128418 75.64792633056641 Z" stroke="none"/>
        <path d="M 38.5737419128418 3 C 33.76999282836914 3 29.11153030395508 3.940147399902344 24.72775268554688 5.794326782226562 C 20.49201583862305 7.585899353027344 16.68730545043945 10.15131378173828 13.41931533813477 13.4193115234375 C 10.15131378173828 16.68730163574219 7.585906982421875 20.49201202392578 5.794326782226562 24.72774887084961 C 3.940155029296875 29.11152648925781 3.000007629394531 33.76998901367188 3.000007629394531 38.57418823242188 C 3.000007629394531 43.37793731689453 3.940155029296875 48.03639984130859 5.794326782226562 52.42017364501953 C 7.585906982421875 56.65591430664062 10.15131378173828 60.46062469482422 13.41931533813477 63.72861480712891 C 16.68730545043945 66.99661254882812 20.49201583862305 69.56202697753906 24.72775268554688 71.35359954833984 C 29.11153030395508 73.20777893066406 33.76999282836914 74.14792633056641 38.5737419128418 74.14792633056641 C 43.37749099731445 74.14792633056641 48.03595352172852 73.20777893066406 52.41973114013672 71.35359954833984 C 56.65546417236328 69.56202697753906 60.46018218994141 66.99661254882812 63.72817993164062 63.7286262512207 C 66.99617767333984 60.46062469482422 69.56159210205078 56.65591430664062 71.35315704345703 52.42017364501953 C 73.20732879638672 48.03639984130859 74.14747619628906 43.37793731689453 74.14747619628906 38.57373809814453 C 74.14747619628906 33.76998901367188 73.20732879638672 29.11152648925781 71.35315704345703 24.72774887084961 C 69.56159210205078 20.49201202392578 66.99617767333984 16.68730163574219 63.72817993164062 13.4193000793457 C 60.46018218994141 10.15131378173828 56.65546417236328 7.585899353027344 52.41973114013672 5.794326782226562 C 48.03595352172852 3.940147399902344 43.37749099731445 3 38.5737419128418 3 M 38.5737419128418 0 C 59.87744140625 0 77.14747619628906 17.27005004882812 77.14747619628906 38.57373809814453 L 77.14747619628906 38.57418823242188 C 77.14747619628906 59.87787628173828 59.87744140625 77.14792633056641 38.5737419128418 77.14792633056641 C 17.27005386352539 77.14792633056641 7.62939453125e-06 59.87787628173828 7.62939453125e-06 38.57418823242188 L 7.62939453125e-06 38.57373809814453 C 7.62939453125e-06 17.27005004882812 17.27005386352539 0 38.5737419128418 0 Z" stroke="none" fill="#fff"/>
      </g>
    </g>
    <g id="Cow" transform="translate(58.259 21.829)">
      <path id="Path_901157" data-name="Path 901157" d="M67.583,61.71c0,.192-.371,2.251-1.323,7.836h3.388l2.3-7.836Z" transform="translate(-26.593 -36.843)" fill="#b09482"/>
      <path id="Path_901158" data-name="Path 901158" d="M66.26,73.536h3.388L70.2,71.65H66.583Z" transform="translate(-26.593 -40.834)" fill="#242c42"/>
      <path id="Path_901159" data-name="Path 901159" d="M69.749,46.5a5.064,5.064,0,0,0-4.884,6.417l-.425.126a.6.6,0,0,0,.329,1.149c.652-.192.407-.114.539-.174a5.07,5.07,0,0,0,2.783,2.358.09.09,0,0,0,0,.042l-.138.67a.61.61,0,1,0,1.2.239c.192-.928.126-.6.138-.694a5.07,5.07,0,1,0,.5-10.116Z" transform="translate(-25.7 -30.738)" fill="#e5426a"/>
      <circle id="Ellipse_11752" data-name="Ellipse 11752" cx="4.023" cy="4.023" r="4.023" transform="translate(40.768 15.912)" fill="#ef6f83"/>
      <path id="Path_901160" data-name="Path 901160" d="M56.93,27.6c0,7.129.066,6.782-.186,7.44l-.922,2.436c-.934,2.472,1.514,3.861.772,6.4l-2.771,9.4H50.436c.1-.6,1.2-6.986,1.293-7.59a3.25,3.25,0,0,0-.9-2.849L49.346,41.36H31.652a1.688,1.688,0,0,0-1.646,1.311c-.8,3.5-1.2,5.309-2.394,10.613h-3.28c.15-3.358.21-4.657.563-12.355l-7.183.868L14.9,46.167a2.161,2.161,0,0,1-3.663-.1c-.79-1.395-2.394-4.19-3.705-6.525A2.993,2.993,0,0,1,8.247,35.7c.994-.8,1.76-1.233,1.975-2.394l.072-.359a2.759,2.759,0,0,1,1.077-1.688L13.7,29.5c.4,1.8.317,1.443.431,1.945l8.979-7.3A13.247,13.247,0,0,1,31.442,21.2H50.531a6.4,6.4,0,0,1,6.4,6.4Z" transform="translate(-2.855 -20.582)" fill="#eddcd2"/>
      <path id="Path_901161" data-name="Path 901161" d="M55.5,21.2H36.41a13,13,0,0,0-3.693.533c-3.286.952-4.232,2.107-13.217,9.392v1.718c2.227-1.808,7.482-6.088,8.6-6.974a13.247,13.247,0,0,1,8.314-2.951H55.5a6.4,6.4,0,0,1,6.4,6.4V27.6A6.4,6.4,0,0,0,55.5,21.2Z" transform="translate(-7.823 -20.582)" fill="#f7f0e1"/>
      <path id="Path_901162" data-name="Path 901162" d="M87.532,27.92c0,7.135.06,6.788-.18,7.417l-.617,1.628a2.891,2.891,0,0,1-.844-2.035V30.141a4.944,4.944,0,0,0-1.449-3.5L83.36,25.556V22h.192A6.4,6.4,0,0,1,87.532,27.92Z" transform="translate(-33.457 -20.903)" fill="#ddbea9"/>
      <path id="Path_901163" data-name="Path 901163" d="M6.028,52.452l-.3.192a3.627,3.627,0,0,1-2.867.227L1,52.213l1.945-2.179a2.8,2.8,0,0,1,1.724-.9,3.059,3.059,0,0,0,.4,1.628Z" transform="translate(-0.397 -31.794)" fill="#495a83"/>
      <path id="Path_901164" data-name="Path 901164" d="M33.675,54.16c-.551,12.026-.455,9.865-.563,12.355H29l2.993-12.157Z" transform="translate(-11.636 -33.813)" fill="#b09482"/>
      <path id="Path_901165" data-name="Path 901165" d="M12.575,51.328a.6.6,0,1,1,.706-.97A.958.958,0,0,0,14.67,50a.6.6,0,0,1,.8-.287C16.675,50.275,14.46,52.7,12.575,51.328Z" transform="translate(-4.944 -32.004)" fill="#3d405b"/>
      <path id="Path_901166" data-name="Path 901166" d="M18.261,59.677,17.2,61.329a2.155,2.155,0,0,1-2.227.958,1.659,1.659,0,0,1-.359-.1,2.1,2.1,0,0,1-1.1-.94L12.79,59.97A5,5,0,0,1,18.261,59.677Z" transform="translate(-5.129 -35.756)" fill="#ef6f83"/>
      <path id="Path_901167" data-name="Path 901167" d="M27.184,26.92v3.041a2.813,2.813,0,0,1-.82,1.987l-2.7,2.712a4.094,4.094,0,0,1-2.885,1.2H18.69v-.311a2.945,2.945,0,0,0,.084-1.8Z" transform="translate(-7.498 -22.878)" fill="#cb997e"/>
      <path id="Path_901168" data-name="Path 901168" d="M13.105,71.705H9.639A4.615,4.615,0,0,0,8.49,67.09,4.621,4.621,0,0,1,13.105,71.705Z" transform="translate(-3.403 -39.003)" fill="#118ab2"/>
      <path id="Path_901169" data-name="Path 901169" d="M18.445,71.705h-2.55a4.489,4.489,0,0,0-.455-1.987,4.585,4.585,0,0,1,4.154-2.628A4.6,4.6,0,0,0,18.445,71.705Z" transform="translate(-6.193 -39.003)" fill="#06d6a0"/>
      <path id="Path_901170" data-name="Path 901170" d="M39.563,71.662l-.425,1.874H35.87l.084-1.886h3.6Z" transform="translate(-14.394 -40.834)" fill="#3d405b"/>
      <path id="Path_901171" data-name="Path 901171" d="M33.2,71.65l-.084,1.886H29l.467-1.886Z" transform="translate(-11.636 -40.834)" fill="#242c42"/>
      <path id="Path_901172" data-name="Path 901172" d="M83.425,71.65H79.8l-.323,1.886h3.388Z" transform="translate(-31.9 -40.834)" fill="#3d405b"/>
      <path id="Path_901173" data-name="Path 901173" d="M10.934,36.68c-1.263,1.263-.353,2.227-1.8,3.352l-.317.251V37.8c0-1.886-1.161-2.8-2.071-3.7H8.031a2.915,2.915,0,0,1,2.9,2.58Z" transform="translate(-2.705 -25.761)" fill="#495a83"/>
      <path id="Path_901174" data-name="Path 901174" d="M68.822,23.014,66.6,25.234a3.46,3.46,0,0,1-2.442,1.012,3.46,3.46,0,0,0-2.448,1.012L59.19,29.8a4.908,4.908,0,0,1-3.508,1.455H47.356a3.723,3.723,0,0,1-2.622-1.083L42.663,28.1A3.711,3.711,0,0,1,41.58,25.48V21.733a13,13,0,0,1,3.693-.533H64.362a6.387,6.387,0,0,1,4.46,1.814Z" transform="translate(-16.686 -20.582)" fill="#cb997e"/>
      <path id="Path_901175" data-name="Path 901175" d="M59.156,29.787H53.769a.6.6,0,1,1,0-1.2h5.387a.6.6,0,0,1,0,1.2Z" transform="translate(-21.338 -23.549)" fill="#e4b78d"/>
      <path id="Path_901176" data-name="Path 901176" d="M64.61,53.515H47.85l.461-2.035H63.132Z" transform="translate(-19.203 -32.737)" fill="#ddbea9"/>
      <path id="Path_901177" data-name="Path 901177" d="M63.473,51.067H56.889a.6.6,0,0,1,0-1.2h6.584a.6.6,0,0,1,0,1.2Z" transform="translate(-22.591 -32.091)" fill="#fff1e6"/>
      <path id="Path_901178" data-name="Path 901178" d="M85.848,56.722,83.633,64.24H80c0-.06,0,.06.82-4.831a3.3,3.3,0,0,0,3.137-2.269l1.3-3.951c.509,1.3.982,2.179.587,3.532Z" transform="translate(-32.108 -33.423)" fill="#ddbea9"/>
      <path id="Path_901179" data-name="Path 901179" d="M84.544,51.8l-.6,2.568a.5.5,0,0,1-.892.18l-.473-.664a1.137,1.137,0,0,1,.1-1.431l1.024-1.1a.491.491,0,0,1,.844.449Z" transform="translate(-33.06 -32.616)" fill="#ddbea9"/>
      <path id="Path_901180" data-name="Path 901180" d="M31.608,45.227H33.1A3.861,3.861,0,0,0,35.816,44.1l1.957-1.963a.952.952,0,0,0-.67-1.628H35.487a3.8,3.8,0,0,0-2.748,1.2l-1.8,1.927a.952.952,0,0,0,.664,1.592Z" transform="translate(-12.317 -28.334)" fill="#fff1e6"/>
      <path id="Path_901181" data-name="Path 901181" d="M27.509,26.92v1.718l-8.009,6.5V33.421Z" transform="translate(-7.823 -22.878)" fill="#e4b78d"/>
      <path id="Path_901182" data-name="Path 901182" d="M68.822,23.014l-.952.952a6.429,6.429,0,0,0-3.508-1.048H45.273a13,13,0,0,0-3.693.533V21.733a13,13,0,0,1,3.693-.533H64.362a6.387,6.387,0,0,1,4.46,1.814Z" transform="translate(-16.686 -20.582)" fill="#e4b78d"/>
      <path id="Path_901183" data-name="Path 901183" d="M28.328,53.518l-7.183.868-2.807,4.37a2.167,2.167,0,0,1-2.658.832c1.2-.712,1.8-.964,2.281-1.8l1.975-3.424a2.712,2.712,0,0,1,1.987-1.335c4.723-.629,3.951-.778,6.4.485Z" transform="translate(-6.29 -33.171)" fill="#ddbea9"/>
      <path id="Path_901184" data-name="Path 901184" d="M19.437,59.869l-1.06,1.652a2.161,2.161,0,0,1-2.227.958,2.459,2.459,0,0,1-.431-.126c2.1-1.239,1.8-.928,2.915-2.873A4.681,4.681,0,0,1,19.437,59.869Z" transform="translate(-6.306 -35.948)" fill="#ef4c6f"/>
      <path id="Path_901185" data-name="Path 901185" d="M41.19,59.635l-1.6,6.95H36L36.353,59l.8,2.281a1.5,1.5,0,0,0,2.64.365Z" transform="translate(-14.446 -35.756)" fill="#ddbea9"/>
      <g id="Group_1111884" data-name="Group 1111884">
        <path id="Path_901186" data-name="Path 901186" d="M53.819,26.24a.6.6,0,1,0,0,1.2h5.387a.6.6,0,1,0,0-1.2Z" transform="translate(-21.359 -22.605)" fill="#231f20"/>
        <path id="Path_901187" data-name="Path 901187" d="M15.466,49.712a.6.6,0,0,0-.8.287.958.958,0,0,1-1.389.359.6.6,0,0,0-.706.97C14.454,52.7,16.675,50.275,15.466,49.712Z" transform="translate(-4.944 -32.004)" fill="#231f20"/>
        <path id="Path_901188" data-name="Path 901188" d="M55.522,25.167c-3.55-3.55-2.789-2.807-2.993-2.993a7.015,7.015,0,0,0-4.884-1.993h-3.19a.6.6,0,0,0,0,1.2h3.214a5.764,5.764,0,0,1,3.592,1.251l-1.76,1.76a2.861,2.861,0,0,1-2.023.838,4.046,4.046,0,0,0-2.873,1.2l-2.538,2.538a4.3,4.3,0,0,1-3.077,1.281H30.663a3.083,3.083,0,0,1-2.2-.91l-2.071-2.083a3.083,3.083,0,0,1-.91-2.2V21.779c2.161-.551,2.394-.4,15.342-.4a.6.6,0,1,0,0-1.2c-13.169,0-13.54-.18-16.09.563a13.833,13.833,0,0,0-4.849,2.52l-8.225,6.668-.245-.994a.6.6,0,0,0-.94-.335L8.551,30.058a3.508,3.508,0,0,0-3.232-2.149H4.055a.6.6,0,0,0-.419,1.018l.9.91a3.34,3.34,0,0,1,.988,2.394v2.2l-.5.4a3.592,3.592,0,0,0-1.3,2.2,3.328,3.328,0,0,0-1.634,1L.147,40.186a.6.6,0,0,0,.257.97l1.862.629a4.19,4.19,0,0,0,3.119-.168l2.46,4.334a2.765,2.765,0,0,0,4.723.126l2.658-4.136,4.346-.527L16.889,52.272H12.7a3.987,3.987,0,0,1,1.1-3.592.6.6,0,0,0-.425-1.024,5.2,5.2,0,0,0-4.154,2.1,5.238,5.238,0,0,0-4.16-2.1.6.6,0,0,0-.425,1.024,4,4,0,0,1,1.1,3.592H.6a.6.6,0,0,0,0,1.2h25.6a.6.6,0,0,0,0-1.2h-.706l2.245-9.883a1.077,1.077,0,0,1,1.06-.844H38.4a5.914,5.914,0,0,0,.192.97l-.311.09a.6.6,0,0,0,.335,1.149l.419-.126a5.615,5.615,0,0,0,1.317,1.652l-1.2,6.992h-7.6a.6.6,0,0,0,0,1.2H53.66a.6.6,0,0,0,0-1.2h-1.9l2.544-8.638a4.142,4.142,0,0,0-.1-2.616l-.682-1.8a2.694,2.694,0,0,1,0-1.933c.952-2.514,1.143-2.813,1.143-3.639,0-7.087.042-6.866-.132-7.782a5.387,5.387,0,0,1,1.73,3.987V31.74a.6.6,0,0,0,1.2,0V29.854a6.585,6.585,0,0,0-1.939-4.687ZM11.969,31.231l7.111-5.776v1.8a2.2,2.2,0,0,1-.646,1.562L15.746,31.5c-1.2,1.2-2.394,1.018-3.789,1.018a4.19,4.19,0,0,0,.012-1.287ZM5.5,29.112a2.317,2.317,0,0,1,2.077,1.8,4.358,4.358,0,0,0-.856,2.113v-.814A4.5,4.5,0,0,0,5.5,29.112Zm-3.861,11.2c1.407-1.568,1.5-1.8,2.083-2.035a6.732,6.732,0,0,0,1.06,2.287C3.547,41.078,2.709,40.671,1.643,40.312Zm9.919,5.118a1.562,1.562,0,0,1-2.676-.072l-.443-.748a4.358,4.358,0,0,1,3.819-.245ZM21.4,41.192l-.419,9.194H18.589l2.251-9.128ZM18.29,51.583h2.658l-.036.688H18.122Zm-11.858-2.5a4.022,4.022,0,0,1,2.61,3.184H6.976a5.232,5.232,0,0,0-.545-3.185Zm3.825,3.184A5.878,5.878,0,0,0,9.9,50.9a4,4,0,0,1,2.137-1.8A5.22,5.22,0,0,0,11.5,52.29Zm11.84,0v-.688h2.287l-.156.688ZM39.606,41.545h6.626A11.128,11.128,0,0,1,47.9,43.3a4.483,4.483,0,0,1-8.29-1.76ZM47.07,52.272H43.844l1.712-5.8a5.711,5.711,0,0,0,2.754-1.712C48.309,45.1,48.387,44.526,47.07,52.272Zm-4.789-5.9-.162.8a.61.61,0,1,0,1.2.239l.162-.778a3.472,3.472,0,0,0,.826,0l-1.149,3.753H40.7l.742-4.364a5.806,5.806,0,0,0,.808.347Zm-1.915,5.9.12-.688H42.8l-.2.688Zm7.919,0,.114-.688h2.317l-.2.688Zm5.184-18.64c0,.545-.078.6-1.071,3.22a3.963,3.963,0,0,0,0,2.777l.688,1.8a2.915,2.915,0,0,1,.072,1.862l-2.089,7.1H48.6l.856-5a3.861,3.861,0,0,0-1.071-3.37L45.6,39.222a5.022,5.022,0,0,1-1.473-3.592V33.488a.6.6,0,1,0-1.2,0,13.554,13.554,0,0,0,.239,3.861H36.684a.6.6,0,1,0,0,1.2H43.64a6.9,6.9,0,0,0,1.4,1.8c-17.79,0-16.4-.042-16.868.09l.964-4.256a.613.613,0,0,0-1.2-.263c-1.832,8.075-.952,4.19-3.28,14.468H22.181l.449-9.847a.6.6,0,0,0-.67-.6l-7.183.868a.6.6,0,0,0-.431.275l-1.455,2.257a5.561,5.561,0,0,0-5.064.215L5.181,38.833a2.394,2.394,0,0,1,.6-3.083c1.06-.844,1.933-1.365,2.191-2.736l.072-.359a2.179,2.179,0,0,1,.832-1.335l1.6-1.2.257,1.024a3.053,3.053,0,0,1-.4,2.394L9.407,35a.6.6,0,0,0,1,.629,20.842,20.842,0,0,0,1.167-1.874h1.712a4.621,4.621,0,0,0,3.3-1.371L19.277,29.7a3.364,3.364,0,0,0,1-2.394V24.5a12.9,12.9,0,0,1,4.011-2.352v2.909A4.286,4.286,0,0,0,25.551,28.1l2.071,2.071a4.256,4.256,0,0,0,3.041,1.269h8.326A5.5,5.5,0,0,0,42.9,29.824l2.544-2.574a2.843,2.843,0,0,1,2.023-.838,4.023,4.023,0,0,0,2.867-1.2l1.8-1.8a5.77,5.77,0,0,1,1.359,3.717Z" transform="translate(0.008 -20.168)" fill="#231f20"/>
      </g>
    </g>
  </g>
</svg>
