<svg xmlns="http://www.w3.org/2000/svg" xmlns:xlink="http://www.w3.org/1999/xlink" width="109.652" height="109.652" viewBox="0 0 109.652 109.652">
  <defs>
    <filter id="Path_874925" x="0" y="0" width="109.652" height="109.652" filterUnits="userSpaceOnUse">
      <feOffset dy="3" input="SourceAlpha"/>
      <feGaussianBlur stdDeviation="3" result="blur"/>
      <feFlood flood-opacity="0.161"/>
      <feComposite operator="in" in2="blur"/>
      <feComposite in="SourceGraphic"/>
    </filter>
  </defs>
  <g id="Group_1111646" data-name="Group 1111646" transform="translate(-12226.174 9873.58)">
    <g id="Group_1111416" data-name="Group 1111416" transform="translate(11215.443 -12944.58)">
      <g transform="matrix(1, 0, 0, 1, 1010.73, 3071)" filter="url(#Path_874925)">
        <g id="Path_874925-2" data-name="Path 874925" transform="translate(9 6)" fill="#ffd63c">
          <path d="M 45.82614517211914 90.15280151367188 C 39.84149551391602 90.15280151367188 34.03665924072266 88.98104095458984 28.5728702545166 86.67005157470703 C 23.29473304748535 84.43759155273438 18.55415725708008 81.24130249023438 14.48283290863037 77.16998291015625 C 10.41150760650635 73.09866333007812 7.215232849121094 68.35809326171875 4.982757568359375 63.07994079589844 C 2.671770095825195 57.61616897583008 1.500007629394531 51.81131744384766 1.500007629394531 45.82666778564453 C 1.500007629394531 39.84149169921875 2.671770095825195 34.03665542602539 4.982757568359375 28.57286643981934 C 7.215232849121094 23.29472923278809 10.41150760650635 18.55415534973145 14.48283290863037 14.48283004760742 C 18.55415725708008 10.4115047454834 23.29473304748535 7.215229511260986 28.5728702545166 4.982754707336426 C 34.03665924072266 2.671766996383667 39.84149551391602 1.500004529953003 45.82614517211914 1.500004529953003 C 51.81079483032227 1.500004529953003 57.61564636230469 2.671766996383667 63.07942199707031 4.982754707336426 C 68.35756683349609 7.215229511260986 73.09814453125 10.4115047454834 77.16947174072266 14.48283004760742 C 81.24078369140625 18.55415534973145 84.43707275390625 23.29472923278809 86.66954803466797 28.57286643981934 C 88.98052978515625 34.03665542602539 90.15229797363281 39.84149169921875 90.15229797363281 45.82614135742188 C 90.15229797363281 51.81131744384766 88.98052978515625 57.61616897583008 86.66954803466797 63.07994079589844 C 84.43707275390625 68.35809326171875 81.24078369140625 73.09866333007812 77.16947174072266 77.16998291015625 C 73.09814453125 81.24130249023438 68.35756683349609 84.43759155273438 63.07942199707031 86.67005157470703 C 57.61564636230469 88.98104095458984 51.81079483032227 90.15280151367188 45.82614517211914 90.15280151367188 Z" stroke="none"/>
          <path d="M 45.82614517211914 3.000007629394531 C 40.04333114624023 3.000007629394531 34.43508911132812 4.131904602050781 29.15720367431641 6.364265441894531 C 24.05784606933594 8.521102905273438 19.47753143310547 11.60944366455078 15.54348754882812 15.54348754882812 C 11.60944366455078 19.47753143310547 8.521102905273438 24.05784606933594 6.3642578125 29.15720367431641 C 4.131904602050781 34.43508911132812 3 40.0433349609375 3 45.82667541503906 C 3 51.60948944091797 4.131904602050781 57.21773147583008 6.3642578125 62.49562072753906 C 8.521102905273438 67.59497833251953 11.60944366455078 72.17527770996094 15.54348754882812 76.10932922363281 C 19.47753143310547 80.04337310791016 24.05784606933594 83.13170623779297 29.15718841552734 85.28854370117188 C 34.43508911132812 87.52090454101562 40.04333114624023 88.65280151367188 45.82614517211914 88.65280151367188 C 51.60895919799805 88.65280151367188 57.21720123291016 87.52090454101562 62.49510192871094 85.28854370117188 C 67.59444427490234 83.13170623779297 72.17475891113281 80.04337310791016 76.10880279541016 76.10932922363281 C 80.0428466796875 72.17527770996094 83.13118743896484 67.59497833251953 85.28803253173828 62.49562072753906 C 87.5203857421875 57.21773147583008 88.65229034423828 51.60948944091797 88.65229034423828 45.82614898681641 C 88.65229034423828 40.0433349609375 87.5203857421875 34.43508911132812 85.28803253173828 29.15720367431641 C 83.13118743896484 24.05784606933594 80.0428466796875 19.47753143310547 76.10880279541016 15.54348754882812 C 72.17475891113281 11.60944366455078 67.59444427490234 8.521102905273438 62.49508666992188 6.364265441894531 C 57.21720123291016 4.131904602050781 51.60895919799805 3.000007629394531 45.82614517211914 3.000007629394531 M 45.82614517211914 7.62939453125e-06 C 71.13523101806641 7.62939453125e-06 91.65229034423828 20.51705932617188 91.65229034423828 45.82614898681641 L 91.65229034423828 45.82667541503906 C 91.65229034423828 71.13575744628906 71.13523101806641 91.65280151367188 45.82614517211914 91.65280151367188 C 20.51705932617188 91.65280151367188 0 71.13575744628906 0 45.82667541503906 L 0 45.82614898681641 C 0 20.51705932617188 20.51705932617188 7.62939453125e-06 45.82614517211914 7.62939453125e-06 Z" stroke="none" fill="#fff"/>
        </g>
      </g>
    </g>
    <g id="hierarchy_12905245" transform="translate(12251.623 -9849.131)">
      <circle id="Ellipse_11560" data-name="Ellipse 11560" cx="7" cy="7" r="7" transform="translate(40 0.754)" fill="#64c4ff"/>
      <path id="Path_900744" data-name="Path 900744" d="M54.2,16.133A6.846,6.846,0,0,1,49.446,14.2c.016-.043.033-.084.052-.125a5.129,5.129,0,0,1,9.128-.533,4.791,4.791,0,0,1,.32.661A6.84,6.84,0,0,1,54.2,16.133Z" transform="translate(-7.144 -1.589)" fill="#6d8aa0"/>
      <ellipse id="Ellipse_11561" data-name="Ellipse 11561" cx="3" cy="2.5" rx="3" ry="2.5" transform="translate(44 4.754)" fill="#ffe2dc"/>
      <ellipse id="Ellipse_11562" data-name="Ellipse 11562" cx="7" cy="6.5" rx="7" ry="6.5" transform="translate(40 20.754)" fill="#64c4ff"/>
      <path id="Path_900745" data-name="Path 900745" d="M54.2,39.133A6.846,6.846,0,0,1,49.446,37.2c.016-.043.033-.084.052-.125a5.129,5.129,0,0,1,9.128-.533,4.791,4.791,0,0,1,.32.661A6.84,6.84,0,0,1,54.2,39.133Z" transform="translate(-7.144 -4.912)" fill="#6d8aa0"/>
      <ellipse id="Ellipse_11563" data-name="Ellipse 11563" cx="3" cy="2.5" rx="3" ry="2.5" transform="translate(44 23.754)" fill="#ffe2dc"/>
      <circle id="Ellipse_11564" data-name="Ellipse 11564" cx="7" cy="7" r="7" transform="translate(40 39.754)" fill="#64c4ff"/>
      <path id="Path_900746" data-name="Path 900746" d="M54.2,62.133A6.846,6.846,0,0,1,49.446,60.2c.016-.043.033-.084.052-.125a5.129,5.129,0,0,1,9.128-.533,4.791,4.791,0,0,1,.32.661A6.84,6.84,0,0,1,54.2,62.133Z" transform="translate(-7.144 -8.235)" fill="#6d8aa0"/>
      <ellipse id="Ellipse_11565" data-name="Ellipse 11565" cx="3" cy="2.5" rx="3" ry="2.5" transform="translate(44 43.754)" fill="#ffe2dc"/>
      <path id="Path_900747" data-name="Path 900747" d="M12.977,44.8v-.942a2.527,2.527,0,0,0-1.584-2.371,2.606,2.606,0,0,0-1-.2,2.53,2.53,0,0,0-1.795.759l-.666.666-4.84-4.84.666-.666a2.527,2.527,0,0,0,.556-2.8,2.527,2.527,0,0,0-2.371-1.584H1V25.977h.942a2.527,2.527,0,0,0,2.371-1.584,2.527,2.527,0,0,0-.556-2.8L3.09,20.93l4.84-4.84.666.666a2.53,2.53,0,0,0,1.795.759,2.6,2.6,0,0,0,1-.2,2.526,2.526,0,0,0,1.585-2.371V14h6.844v.942a2.527,2.527,0,0,0,1.584,2.371,2.606,2.606,0,0,0,1,.2,2.53,2.53,0,0,0,1.795-.759l.666-.666,4.84,4.84-.666.666a2.566,2.566,0,0,0,1.815,4.381H31.8v6.844h-.942A2.566,2.566,0,0,0,29.043,37.2l.666.666-4.84,4.84-.666-.666a2.526,2.526,0,0,0-1.795-.76,2.611,2.611,0,0,0-1,.2,2.527,2.527,0,0,0-1.583,2.371V44.8Z" transform="translate(-0.144 -2.023)" fill="#ffcd5f"/>
      <ellipse id="Ellipse_11566" data-name="Ellipse 11566" cx="7" cy="6.5" rx="7" ry="6.5" transform="translate(9 20.754)" fill="#f9a93e"/>
      <g id="Group_1111662" data-name="Group 1111662">
        <path id="Path_900748" data-name="Path 900748" d="M36.788,28.232H39.4a7.7,7.7,0,1,0,0-1.711H36.788V8.555H39.4a7.7,7.7,0,1,0,0-1.711H35.932a.855.855,0,0,0-.856.856V26.521H32.51V23.955a.855.855,0,0,0-.856-.856h-.942a1.711,1.711,0,0,1-1.21-2.921l.666-.666a.855.855,0,0,0,0-1.21l-4.84-4.84a.855.855,0,0,0-1.21,0l-.666.666a1.711,1.711,0,0,1-2.921-1.21v-.942a.855.855,0,0,0-.856-.856H12.833a.855.855,0,0,0-.856.856v.942a1.711,1.711,0,0,1-2.921,1.21l-.666-.666a.855.855,0,0,0-1.21,0L2.341,18.3a.855.855,0,0,0,0,1.21l.666.666a1.664,1.664,0,0,1,.371,1.865A1.664,1.664,0,0,1,1.8,23.1H.856A.855.855,0,0,0,0,23.955V30.8a.855.855,0,0,0,.856.856H1.8a1.664,1.664,0,0,1,1.581,1.056,1.664,1.664,0,0,1-.371,1.865l-.666.666a.855.855,0,0,0,0,1.21l4.84,4.84a.855.855,0,0,0,1.21,0l.666-.666a1.711,1.711,0,0,1,2.921,1.21v.942a.855.855,0,0,0,.856.856h6.844a.855.855,0,0,0,.856-.856v-.942a1.711,1.711,0,0,1,2.921-1.21l.666.666a.855.855,0,0,0,1.21,0l4.84-4.84a.855.855,0,0,0,0-1.21l-.666-.666a1.711,1.711,0,0,1,1.21-2.921h.942a.855.855,0,0,0,.856-.856V28.232h2.567V47.054a.855.855,0,0,0,.856.856H39.4a7.7,7.7,0,1,0,0-1.711H36.788ZM43.357,12.4a4.268,4.268,0,0,1,7.394,0,5.953,5.953,0,0,1-7.394,0Zm1.986-5.557a1.711,1.711,0,1,1,1.711,1.711A1.713,1.713,0,0,1,45.343,6.844Zm1.711-5.133a5.98,5.98,0,0,1,4.9,9.419,5.942,5.942,0,0,0-2.364-2.011,3.422,3.422,0,1,0-5.075,0,5.942,5.942,0,0,0-2.364,2.011,5.98,5.98,0,0,1,4.9-9.419ZM30.8,29.944h-.086a3.422,3.422,0,0,0-2.42,5.842l.061.061-3.63,3.63-.061-.061a3.422,3.422,0,0,0-5.842,2.42v.086H13.688v-.086a3.422,3.422,0,0,0-5.842-2.42l-.061.061-3.63-3.63.061-.061a3.369,3.369,0,0,0,.742-3.73A3.369,3.369,0,0,0,1.8,29.944H1.711V24.81H1.8A3.369,3.369,0,0,0,4.959,22.7a3.369,3.369,0,0,0-.742-3.73l-.061-.061,3.63-3.63.061.061a3.422,3.422,0,0,0,5.842-2.42v-.086h5.133v.086a3.422,3.422,0,0,0,5.842,2.42l.061-.061,3.63,3.63-.061.061a3.422,3.422,0,0,0,2.42,5.842H30.8ZM43.357,51.756a4.268,4.268,0,0,1,7.394,0,5.953,5.953,0,0,1-7.394,0ZM45.343,46.2a1.711,1.711,0,1,1,1.711,1.711A1.713,1.713,0,0,1,45.343,46.2Zm1.711-5.133a5.98,5.98,0,0,1,4.9,9.419,5.942,5.942,0,0,0-2.364-2.011,3.422,3.422,0,1,0-5.075,0,5.942,5.942,0,0,0-2.364,2.011,5.98,5.98,0,0,1,4.9-9.419Zm-3.7-8.987a4.268,4.268,0,0,1,7.394,0,5.953,5.953,0,0,1-7.394,0Zm1.986-5.557a1.711,1.711,0,1,1,1.711,1.711A1.713,1.713,0,0,1,45.343,26.521Zm1.711-5.133a5.98,5.98,0,0,1,4.9,9.419A5.942,5.942,0,0,0,49.591,28.8a3.422,3.422,0,1,0-5.075,0,5.942,5.942,0,0,0-2.364,2.011,5.98,5.98,0,0,1,4.9-9.419Z" fill="#2f353f"/>
        <path id="Path_900749" data-name="Path 900749" d="M17.7,23a7.7,7.7,0,1,0,7.7,7.7A7.708,7.708,0,0,0,17.7,23Zm0,13.688A5.989,5.989,0,1,1,23.688,30.7,6,6,0,0,1,17.7,36.688Z" transform="translate(-1.445 -3.323)" fill="#2f353f"/>
      </g>
    </g>
  </g>
</svg>
