<svg xmlns="http://www.w3.org/2000/svg" xmlns:xlink="http://www.w3.org/1999/xlink" width="109.652" height="109.652" viewBox="0 0 109.652 109.652">
  <defs>
    <filter id="Path_874925" x="0" y="0" width="109.652" height="109.652" filterUnits="userSpaceOnUse">
      <feOffset dy="3" input="SourceAlpha"/>
      <feGaussianBlur stdDeviation="3" result="blur"/>
      <feFlood flood-opacity="0.161"/>
      <feComposite operator="in" in2="blur"/>
      <feComposite in="SourceGraphic"/>
    </filter>
  </defs>
  <g id="Group_1111910" data-name="Group 1111910" transform="translate(9 6)">
    <g transform="matrix(1, 0, 0, 1, -9, -6)" filter="url(#Path_874925)">
      <g id="Path_874925-2" data-name="Path 874925" transform="translate(9 6)" fill="#ffd63c">
        <path d="M 45.82614517211914 90.15280151367188 C 39.84149551391602 90.15280151367188 34.03665924072266 88.98104095458984 28.5728702545166 86.67005157470703 C 23.29473304748535 84.43759155273438 18.55415725708008 81.24130249023438 14.48283290863037 77.16998291015625 C 10.41150760650635 73.09866333007812 7.215232849121094 68.35809326171875 4.982757568359375 63.07994079589844 C 2.671770095825195 57.61616897583008 1.500007629394531 51.81131744384766 1.500007629394531 45.82666778564453 C 1.500007629394531 39.84149169921875 2.671770095825195 34.03665542602539 4.982757568359375 28.57286643981934 C 7.215232849121094 23.29472923278809 10.41150760650635 18.55415534973145 14.48283290863037 14.48283004760742 C 18.55415725708008 10.4115047454834 23.29473304748535 7.215229511260986 28.5728702545166 4.982754707336426 C 34.03665924072266 2.671766996383667 39.84149551391602 1.500004529953003 45.82614517211914 1.500004529953003 C 51.81079483032227 1.500004529953003 57.61564636230469 2.671766996383667 63.07942199707031 4.982754707336426 C 68.35756683349609 7.215229511260986 73.09814453125 10.4115047454834 77.16947174072266 14.48283004760742 C 81.24078369140625 18.55415534973145 84.43707275390625 23.29472923278809 86.66954803466797 28.57286643981934 C 88.98052978515625 34.03665542602539 90.15229797363281 39.84149169921875 90.15229797363281 45.82614135742188 C 90.15229797363281 51.81131744384766 88.98052978515625 57.61616897583008 86.66954803466797 63.07994079589844 C 84.43707275390625 68.35809326171875 81.24078369140625 73.09866333007812 77.16947174072266 77.16998291015625 C 73.09814453125 81.24130249023438 68.35756683349609 84.43759155273438 63.07942199707031 86.67005157470703 C 57.61564636230469 88.98104095458984 51.81079483032227 90.15280151367188 45.82614517211914 90.15280151367188 Z" stroke="none"/>
        <path d="M 45.82614517211914 3.000007629394531 C 40.04333114624023 3.000007629394531 34.43508911132812 4.131904602050781 29.15720367431641 6.364265441894531 C 24.05784606933594 8.521102905273438 19.47753143310547 11.60944366455078 15.54348754882812 15.54348754882812 C 11.60944366455078 19.47753143310547 8.521102905273438 24.05784606933594 6.3642578125 29.15720367431641 C 4.131904602050781 34.43508911132812 3 40.0433349609375 3 45.82667541503906 C 3 51.60948944091797 4.131904602050781 57.21773147583008 6.3642578125 62.49562072753906 C 8.521102905273438 67.59497833251953 11.60944366455078 72.17527770996094 15.54348754882812 76.10932922363281 C 19.47753143310547 80.04337310791016 24.05784606933594 83.13170623779297 29.15718841552734 85.28854370117188 C 34.43508911132812 87.52090454101562 40.04333114624023 88.65280151367188 45.82614517211914 88.65280151367188 C 51.60895919799805 88.65280151367188 57.21720123291016 87.52090454101562 62.49510192871094 85.28854370117188 C 67.59444427490234 83.13170623779297 72.17475891113281 80.04337310791016 76.10880279541016 76.10932922363281 C 80.0428466796875 72.17527770996094 83.13118743896484 67.59497833251953 85.28803253173828 62.49562072753906 C 87.5203857421875 57.21773147583008 88.65229034423828 51.60948944091797 88.65229034423828 45.82614898681641 C 88.65229034423828 40.0433349609375 87.5203857421875 34.43508911132812 85.28803253173828 29.15720367431641 C 83.13118743896484 24.05784606933594 80.0428466796875 19.47753143310547 76.10880279541016 15.54348754882812 C 72.17475891113281 11.60944366455078 67.59444427490234 8.521102905273438 62.49508666992188 6.364265441894531 C 57.21720123291016 4.131904602050781 51.60895919799805 3.000007629394531 45.82614517211914 3.000007629394531 M 45.82614517211914 7.62939453125e-06 C 71.13523101806641 7.62939453125e-06 91.65229034423828 20.51705932617188 91.65229034423828 45.82614898681641 L 91.65229034423828 45.82667541503906 C 91.65229034423828 71.13575744628906 71.13523101806641 91.65280151367188 45.82614517211914 91.65280151367188 C 20.51705932617188 91.65280151367188 0 71.13575744628906 0 45.82667541503906 L 0 45.82614898681641 C 0 20.51705932617188 20.51705932617188 7.62939453125e-06 45.82614517211914 7.62939453125e-06 Z" stroke="none" fill="#fff"/>
      </g>
    </g>
    <g id="admirador" transform="translate(21.803 21.578)">
      <rect id="Rectangle_404982" data-name="Rectangle 404982" width="48" height="48" rx="4" transform="translate(0.248 0.248)" fill="#607d8b"/>
      <path id="Path_901273" data-name="Path 901273" d="M54.425,1H52a3.233,3.233,0,0,1,3.233,3.233V44.646A3.233,3.233,0,0,1,52,47.88h2.425a3.233,3.233,0,0,0,3.233-3.233V4.233A3.233,3.233,0,0,0,54.425,1Z" transform="translate(-9.97 -0.192)" fill="#37474f"/>
      <circle id="Ellipse_11776" data-name="Ellipse 11776" cx="21" cy="21" r="21" transform="translate(3.248 3.248)" fill="#02a9f4"/>
      <path id="Path_901274" data-name="Path 901274" d="M29.712,5c-.4,0-.808.015-1.212.04a20.207,20.207,0,0,1,0,40.333c.4.024.808.04,1.212.04A20.206,20.206,0,1,0,29.712,5Z" transform="translate(-5.464 -0.958)" fill="#0377bc"/>
      <path id="Path_901275" data-name="Path 901275" d="M33.879,16.921a16.508,16.508,0,0,1-3.548,7.3,2.425,2.425,0,0,0-3.346,0,16.508,16.508,0,0,1-3.548-7.3,19.2,19.2,0,0,1-.21-7.024,16.893,16.893,0,0,1,10.863,0,19.2,19.2,0,0,1-.21,7.024Z" transform="translate(-4.41 -1.726)" fill="#00bcd4"/>
      <path id="Path_901276" data-name="Path 901276" d="M35.144,9.9A16.787,16.787,0,0,0,29.712,9c-.4,0-.808.022-1.212.05a16.744,16.744,0,0,1,4.219.847,19.2,19.2,0,0,1-.21,7.024,16.616,16.616,0,0,1-3.039,6.651,2.344,2.344,0,0,1,.242-.023,2.406,2.406,0,0,1,1.673.671,16.508,16.508,0,0,0,3.548-7.3,19.2,19.2,0,0,0,.21-7.024Z" transform="translate(-5.464 -1.726)" fill="#00838f"/>
      <path id="Path_901277" data-name="Path 901277" d="M47.039,23.64a19.063,19.063,0,0,1-6.2,3.338,16.489,16.489,0,0,1-8.091.574,2.279,2.279,0,0,0,.073-.574,2.435,2.435,0,0,0-.752-1.754,16.508,16.508,0,0,0,3.548-7.3,19.322,19.322,0,0,1,5.973-3.686,16.932,16.932,0,0,1,5.448,9.4Z" transform="translate(-6.149 -2.73)" fill="#00bcd4"/>
      <path id="Path_901278" data-name="Path 901278" d="M42.155,14.24a15.807,15.807,0,0,0-1.655.727,16.907,16.907,0,0,1,4.678,8.673,19.063,19.063,0,0,1-6.2,3.338,17.506,17.506,0,0,1-3.967.785,16.812,16.812,0,0,0,6.392-.785,19.063,19.063,0,0,0,6.2-3.338,16.932,16.932,0,0,0-5.448-9.4Z" transform="translate(-6.713 -2.73)" fill="#00838f"/>
      <path id="Path_901279" data-name="Path 901279" d="M36.46,17.134a19.2,19.2,0,0,0,.21-7.024,16.843,16.843,0,0,1,5.763,3.338,19.322,19.322,0,0,0-5.973,3.686Z" transform="translate(-6.991 -1.938)" fill="#607d8b"/>
      <path id="Path_901280" data-name="Path 901280" d="M49.451,29.208a16.88,16.88,0,0,1-.331,3.338,19.2,19.2,0,0,0-6.2-3.338,19.063,19.063,0,0,0,6.2-3.338,16.88,16.88,0,0,1,.331,3.338Z" transform="translate(-8.229 -4.96)" fill="#607d8b"/>
      <path id="Path_901281" data-name="Path 901281" d="M36.67,48.222a19.2,19.2,0,0,0-.21-7.024l.008-.008a18.994,18.994,0,0,0,5.973,3.694A17.01,17.01,0,0,1,36.67,48.222Z" transform="translate(-6.991 -7.897)" fill="#607d8b"/>
      <path id="Path_901282" data-name="Path 901282" d="M34.089,46.493a16.893,16.893,0,0,1-10.863,0,19.2,19.2,0,0,1,.21-7.024,16.508,16.508,0,0,1,3.548-7.3,2.406,2.406,0,0,0,1.673.671,2.144,2.144,0,0,0,.687-.105,16.511,16.511,0,0,0,4.542,6.725l-.008.008A19.2,19.2,0,0,1,34.089,46.493Z" transform="translate(-4.41 -6.168)" fill="#00bcd4"/>
      <path id="Path_901283" data-name="Path 901283" d="M34.7,39.469l.008-.008a16.511,16.511,0,0,1-4.542-6.725,2.144,2.144,0,0,1-.687.105,2.406,2.406,0,0,1-1.673-.671c-.183.216-.35.435-.517.654a2.02,2.02,0,0,0,.453-.088,16.511,16.511,0,0,0,4.542,6.725l-.008.008a19.2,19.2,0,0,1,.21,7.024,16.744,16.744,0,0,1-4.219.847c.4.028.808.05,1.212.05a16.787,16.787,0,0,0,5.432-.9A19.2,19.2,0,0,0,34.7,39.469Z" transform="translate(-5.232 -6.168)" fill="#00838f"/>
      <path id="Path_901284" data-name="Path 901284" d="M21.913,48.224a16.843,16.843,0,0,1-5.763-3.338A19.323,19.323,0,0,0,22.123,41.2a19.2,19.2,0,0,0-.21,7.024Z" transform="translate(-3.096 -7.899)" fill="#607d8b"/>
      <path id="Path_901285" data-name="Path 901285" d="M15.531,29.208a19.063,19.063,0,0,0-6.2,3.338,16.978,16.978,0,0,1,0-6.676,19.2,19.2,0,0,0,6.2,3.338Z" transform="translate(-1.726 -4.96)" fill="#607d8b"/>
      <path id="Path_901286" data-name="Path 901286" d="M24.379,31.556a16.508,16.508,0,0,0-3.548,7.3,19.322,19.322,0,0,1-5.973,3.686,16.932,16.932,0,0,1-5.448-9.4,19.063,19.063,0,0,1,6.2-3.338,16.489,16.489,0,0,1,8.091-.574,2.279,2.279,0,0,0-.073.574,2.435,2.435,0,0,0,.752,1.754Z" transform="translate(-1.804 -5.554)" fill="#00bcd4"/>
      <path id="Path_901287" data-name="Path 901287" d="M24.379,25.224A2.35,2.35,0,0,0,23.7,26.4a16.489,16.489,0,0,0-8.091.574,19.2,19.2,0,0,1-6.2-3.338,16.932,16.932,0,0,1,5.448-9.4,19.322,19.322,0,0,1,5.973,3.686,16.508,16.508,0,0,0,3.548,7.3Z" transform="translate(-1.804 -2.73)" fill="#00bcd4"/>
      <path id="Path_901288" data-name="Path 901288" d="M31.85,29.425a2.279,2.279,0,0,1-.073.574,2.4,2.4,0,0,1-1.665,1.746,2.144,2.144,0,0,1-.687.105,2.406,2.406,0,0,1-1.673-.671A2.435,2.435,0,0,1,27,29.425a2.279,2.279,0,0,1,.073-.574,2.35,2.35,0,0,1,.679-1.18,2.425,2.425,0,0,1,4.1,1.754Z" transform="translate(-5.177 -5.177)" fill="#02a9f4"/>
      <g id="Group_1111918" data-name="Group 1111918" transform="translate(3.702 3.703)">
        <circle id="Ellipse_11777" data-name="Ellipse 11777" cx="2" cy="2" r="2" transform="translate(-0.455 -0.455)" fill="#f5f5f5"/>
        <circle id="Ellipse_11778" data-name="Ellipse 11778" cx="2" cy="2" r="2" transform="translate(37.545 -0.455)" fill="#f5f5f5"/>
        <circle id="Ellipse_11779" data-name="Ellipse 11779" cx="2" cy="2" r="2" transform="translate(-0.455 37.545)" fill="#f5f5f5"/>
        <circle id="Ellipse_11780" data-name="Ellipse 11780" cx="2" cy="2" r="2" transform="translate(37.545 37.545)" fill="#f5f5f5"/>
      </g>
      <path id="Path_901289" data-name="Path 901289" d="M22.123,17.134a19.322,19.322,0,0,0-5.973-3.686,16.843,16.843,0,0,1,5.763-3.338A19.2,19.2,0,0,0,22.123,17.134Z" transform="translate(-3.096 -1.938)" fill="#607d8b"/>
      <path id="Path_901290" data-name="Path 901290" d="M46.805,33.338a16.967,16.967,0,0,1-5.44,9.4,18.994,18.994,0,0,1-5.973-3.694A16.511,16.511,0,0,1,30.85,32.32a2.4,2.4,0,0,0,1.665-1.746A16.489,16.489,0,0,0,40.606,30a19.2,19.2,0,0,1,6.2,3.338Z" transform="translate(-5.915 -5.752)" fill="#00bcd4"/>
      <path id="Path_901291" data-name="Path 901291" d="M42.594,30c-.44.141-.9.265-1.374.377a19.129,19.129,0,0,1,5.149,2.961,16.943,16.943,0,0,1-4.673,8.67,15.06,15.06,0,0,0,1.659.727,16.967,16.967,0,0,0,5.44-9.4A19.2,19.2,0,0,0,42.594,30Z" transform="translate(-7.903 -5.752)" fill="#00838f"/>
      <path id="Path_901292" data-name="Path 901292" d="M44.455,0H4.041A4.046,4.046,0,0,0,0,4.041V44.455A4.046,4.046,0,0,0,4.041,48.5H44.455A4.046,4.046,0,0,0,48.5,44.455V4.041A4.046,4.046,0,0,0,44.455,0ZM46.88,44.455a2.425,2.425,0,0,1-2.425,2.425H4.041a2.425,2.425,0,0,1-2.425-2.425V4.041A2.425,2.425,0,0,1,4.041,1.617H44.455A2.425,2.425,0,0,1,46.88,4.041Z"/>
      <path id="Path_901293" data-name="Path 901293" d="M25.015,4A21.015,21.015,0,1,0,46.03,25.015,21.015,21.015,0,0,0,25.015,4Zm0,40.413a19.4,19.4,0,1,1,19.4-19.4,19.4,19.4,0,0,1-19.4,19.4Z" transform="translate(-0.767 -0.767)"/>
      <path id="Path_901294" data-name="Path 901294" d="M25.782,8A17.782,17.782,0,1,0,43.564,25.782,17.782,17.782,0,0,0,25.782,8ZM41.947,25.782a16.2,16.2,0,0,1-.119,1.878,20.417,20.417,0,0,0-3.362-1.878,20.509,20.509,0,0,0,3.363-1.875,16.142,16.142,0,0,1,.118,1.875Zm-5.969-.769A15.778,15.778,0,0,1,29,25.671a3.206,3.206,0,0,0-.514-1.645,17.289,17.289,0,0,0,3.238-6.857A19.035,19.035,0,0,1,36.8,13.981a16.151,16.151,0,0,1,4.721,8.153A18.752,18.752,0,0,1,35.978,25.012ZM25.782,27.4A1.617,1.617,0,1,1,27.4,25.782,1.617,1.617,0,0,1,25.782,27.4ZM32.13,14.779a20.793,20.793,0,0,0,.048-3.837,16.122,16.122,0,0,1,3.233,1.886,20.71,20.71,0,0,0-3.282,1.95Zm-1.641-4.458a18.759,18.759,0,0,1-.276,6.239,15.739,15.739,0,0,1-2.923,6.38,3.109,3.109,0,0,0-3.016,0,15.735,15.735,0,0,1-2.923-6.381,18.752,18.752,0,0,1-.276-6.237,16.09,16.09,0,0,1,9.415,0ZM19.434,14.779a20.709,20.709,0,0,0-3.282-1.95,16.123,16.123,0,0,1,3.233-1.886,20.793,20.793,0,0,0,.048,3.837Zm-4.666-.8a19.035,19.035,0,0,1,5.069,3.188,17.268,17.268,0,0,0,3.233,6.856,3.249,3.249,0,0,0-.156.286,17.3,17.3,0,0,0-7.552.621,18.841,18.841,0,0,1-5.319-2.8,16.152,16.152,0,0,1,4.724-8.15Zm-5.151,11.8A16.2,16.2,0,0,1,9.735,23.9,20.418,20.418,0,0,0,13.1,25.782a20.509,20.509,0,0,0-3.363,1.875,16.14,16.14,0,0,1-.118-1.875Zm.43,3.646a18.752,18.752,0,0,1,5.539-2.877,15.767,15.767,0,0,1,6.975-.659,3.206,3.206,0,0,0,.514,1.645,17.289,17.289,0,0,0-3.238,6.857,19.035,19.035,0,0,1-5.069,3.189,16.151,16.151,0,0,1-4.721-8.155Zm9.387,7.355a20.793,20.793,0,0,0-.048,3.837,16.122,16.122,0,0,1-3.233-1.886,20.71,20.71,0,0,0,3.282-1.949Zm1.641,4.458A18.759,18.759,0,0,1,21.351,35a15.739,15.739,0,0,1,2.923-6.38,3.2,3.2,0,0,0,1.508.392c.058,0,.112-.014.17-.017a17.253,17.253,0,0,0,4.3,6.224,18.779,18.779,0,0,1,.234,6.022,16.09,16.09,0,0,1-9.415,0Zm11.055-4.467a20.4,20.4,0,0,0,3.284,1.957,16.161,16.161,0,0,1-3.233,1.887,20.811,20.811,0,0,0-.051-3.844Zm4.669.8a18.716,18.716,0,0,1-5.244-3.353A15.719,15.719,0,0,1,27.5,28.508a3.233,3.233,0,0,0,1.153-1.269,16.655,16.655,0,0,0,2.364.186,17.742,17.742,0,0,0,5.179-.8,18.833,18.833,0,0,1,5.323,2.8A16.15,16.15,0,0,1,36.8,37.583Z" transform="translate(-1.534 -1.534)"/>
      <path id="Path_901295" data-name="Path 901295" d="M6.425,8.85A2.425,2.425,0,1,0,4,6.425,2.425,2.425,0,0,0,6.425,8.85Zm0-3.233a.808.808,0,1,1-.808.808A.808.808,0,0,1,6.425,5.617Z" transform="translate(-0.767 -0.767)"/>
      <path id="Path_901296" data-name="Path 901296" d="M52.425,4A2.425,2.425,0,1,0,54.85,6.425,2.425,2.425,0,0,0,52.425,4Zm0,3.233a.808.808,0,1,1,.808-.808A.808.808,0,0,1,52.425,7.233Z" transform="translate(-9.587 -0.767)"/>
      <path id="Path_901297" data-name="Path 901297" d="M6.425,50A2.425,2.425,0,1,0,8.85,52.425,2.425,2.425,0,0,0,6.425,50Zm0,3.233a.808.808,0,1,1,.808-.808A.808.808,0,0,1,6.425,53.233Z" transform="translate(-0.767 -9.587)"/>
      <path id="Path_901298" data-name="Path 901298" d="M52.425,50a2.425,2.425,0,1,0,2.425,2.425A2.425,2.425,0,0,0,52.425,50Zm0,3.233a.808.808,0,1,1,.808-.808A.808.808,0,0,1,52.425,53.233Z" transform="translate(-9.587 -9.587)"/>
    </g>
  </g>
</svg>
