<svg xmlns="http://www.w3.org/2000/svg" xmlns:xlink="http://www.w3.org/1999/xlink" width="109.652" height="109.653" viewBox="0 0 109.652 109.653">
  <defs>
    <filter id="Trazado_874925" x="0" y="0" width="109.652" height="109.653" filterUnits="userSpaceOnUse">
      <feOffset dy="3" input="SourceAlpha"/>
      <feGaussianBlur stdDeviation="3" result="blur"/>
      <feFlood flood-opacity="0.161"/>
      <feComposite operator="in" in2="blur"/>
      <feComposite in="SourceGraphic"/>
    </filter>
  </defs>
  <g id="Grupo_1112179" data-name="Grupo 1112179" transform="translate(-1010.73 -3071)">
    <g transform="matrix(1, 0, 0, 1, 1010.73, 3071)" filter="url(#Trazado_874925)">
      <g id="Trazado_874925-2" data-name="Trazado 874925" transform="translate(9 6)" fill="#ffd63c">
        <path d="M 45.82614517211914 90.15280151367188 C 39.84149551391602 90.15280151367188 34.03665924072266 88.98104095458984 28.5728702545166 86.67005157470703 C 23.29473304748535 84.43759155273438 18.55415725708008 81.24130249023438 14.48283290863037 77.16998291015625 C 10.41150760650635 73.09866333007812 7.215232849121094 68.35809326171875 4.982757568359375 63.07994079589844 C 2.671770095825195 57.61616897583008 1.500007629394531 51.81131744384766 1.500007629394531 45.82666778564453 C 1.500007629394531 39.84149169921875 2.671770095825195 34.03665542602539 4.982757568359375 28.57286643981934 C 7.215232849121094 23.29472923278809 10.41150760650635 18.55415534973145 14.48283290863037 14.48283004760742 C 18.55415725708008 10.4115047454834 23.29473304748535 7.215229511260986 28.5728702545166 4.982754707336426 C 34.03665924072266 2.671766996383667 39.84149551391602 1.500004529953003 45.82614517211914 1.500004529953003 C 51.81079483032227 1.500004529953003 57.61564636230469 2.671766996383667 63.07942199707031 4.982754707336426 C 68.35756683349609 7.215229511260986 73.09814453125 10.4115047454834 77.16947174072266 14.48283004760742 C 81.24078369140625 18.55415534973145 84.43707275390625 23.29472923278809 86.66954803466797 28.57286643981934 C 88.98052978515625 34.03665542602539 90.15229797363281 39.84149169921875 90.15229797363281 45.82614135742188 C 90.15229797363281 51.81131744384766 88.98052978515625 57.61616897583008 86.66954803466797 63.07994079589844 C 84.43707275390625 68.35809326171875 81.24078369140625 73.09866333007812 77.16947174072266 77.16998291015625 C 73.09814453125 81.24130249023438 68.35756683349609 84.43759155273438 63.07942199707031 86.67005157470703 C 57.61564636230469 88.98104095458984 51.81079483032227 90.15280151367188 45.82614517211914 90.15280151367188 Z" stroke="none"/>
        <path d="M 45.82614517211914 3.000007629394531 C 40.04333114624023 3.000007629394531 34.43508911132812 4.131904602050781 29.15720367431641 6.364265441894531 C 24.05784606933594 8.521102905273438 19.47753143310547 11.60944366455078 15.54348754882812 15.54348754882812 C 11.60944366455078 19.47753143310547 8.521102905273438 24.05784606933594 6.3642578125 29.15720367431641 C 4.131904602050781 34.43508911132812 3 40.0433349609375 3 45.82667541503906 C 3 51.60948944091797 4.131904602050781 57.21773147583008 6.3642578125 62.49562072753906 C 8.521102905273438 67.59497833251953 11.60944366455078 72.17527770996094 15.54348754882812 76.10932922363281 C 19.47753143310547 80.04337310791016 24.05784606933594 83.13170623779297 29.15718841552734 85.28854370117188 C 34.43508911132812 87.52090454101562 40.04333114624023 88.65280151367188 45.82614517211914 88.65280151367188 C 51.60895919799805 88.65280151367188 57.21720123291016 87.52090454101562 62.49510192871094 85.28854370117188 C 67.59444427490234 83.13170623779297 72.17475891113281 80.04337310791016 76.10880279541016 76.10932922363281 C 80.0428466796875 72.17527770996094 83.13118743896484 67.59497833251953 85.28803253173828 62.49562072753906 C 87.5203857421875 57.21773147583008 88.65229034423828 51.60948944091797 88.65229034423828 45.82614898681641 C 88.65229034423828 40.0433349609375 87.5203857421875 34.43508911132812 85.28803253173828 29.15720367431641 C 83.13118743896484 24.05784606933594 80.0428466796875 19.47753143310547 76.10880279541016 15.54348754882812 C 72.17475891113281 11.60944366455078 67.59444427490234 8.521102905273438 62.49508666992188 6.364265441894531 C 57.21720123291016 4.131904602050781 51.60895919799805 3.000007629394531 45.82614517211914 3.000007629394531 M 45.82614517211914 7.62939453125e-06 C 71.13523101806641 7.62939453125e-06 91.65229034423828 20.51705932617188 91.65229034423828 45.82614898681641 L 91.65229034423828 45.82667541503906 C 91.65229034423828 71.13575744628906 71.13523101806641 91.65280151367188 45.82614517211914 91.65280151367188 C 20.51705932617188 91.65280151367188 0 71.13575744628906 0 45.82667541503906 L 0 45.82614898681641 C 0 20.51705932617188 20.51705932617188 7.62939453125e-06 45.82614517211914 7.62939453125e-06 Z" stroke="none" fill="#fff"/>
      </g>
    </g>
    <g id="proteger" transform="translate(1016.551 3098.564)">
      <path id="Trazado_901791" data-name="Trazado 901791" d="M58.549,60.264l-2.431,1.278a1.336,1.336,0,0,1-1.243,0l-2.431-1.278C39.092,53.247,30.871,40.3,30.871,26.287V17.729A1.329,1.329,0,0,1,32.049,16.4a9.7,9.7,0,0,0,8.844-7.946,1.344,1.344,0,0,1,1.325-1.169H68.774A1.344,1.344,0,0,1,70.1,8.456,9.7,9.7,0,0,0,78.943,16.4a1.329,1.329,0,0,1,1.178,1.326v8.558C80.121,40.3,71.9,53.247,58.549,60.264Z" transform="translate(-6.49 -6.49)" fill="#e1e6e9"/>
      <path id="Trazado_901792" data-name="Trazado 901792" d="M276.4,16.4a9.7,9.7,0,0,1-8.844-7.947,1.344,1.344,0,0,0-1.325-1.169h-1.808c.26,5.777,4.377,9.873,8.83,10.343a1.328,1.328,0,0,1,1.178,1.326v8.558c0,14.011-8.221,26.96-21.572,33.977l-.281.148a1.334,1.334,0,0,0,1-.1l2.431-1.278C269.359,53.246,277.58,40.3,277.58,26.286V17.728A1.329,1.329,0,0,0,276.4,16.4Z" transform="translate(-203.949 -6.489)" fill="#cbcbcb"/>
      <path id="Trazado_901793" data-name="Trazado 901793" d="M86.473,86.89A38.253,38.253,0,0,1,71.91,73.665,33.14,33.14,0,0,1,66.664,55.9V51.042a1.715,1.715,0,0,1,1.081-1.6,15.053,15.053,0,0,0,8.095-7.44,1.711,1.711,0,0,1,1.548-.97H97.36a1.711,1.711,0,0,1,1.548.97,15.054,15.054,0,0,0,8.1,7.44,1.715,1.715,0,0,1,1.081,1.6V55.9a33.14,33.14,0,0,1-5.246,17.765A38.254,38.254,0,0,1,88.275,86.89l-.1.053a1.72,1.72,0,0,1-1.6,0Z" transform="translate(-38.368 -36.547)" fill="#4ad194"/>
      <path id="Trazado_901794" data-name="Trazado 901794" d="M275.63,49.445l-.084-.034-.14-.057-.237-.1-.136-.059-.251-.114-.113-.053q-.18-.085-.357-.175l-.026-.014q-.164-.083-.325-.17l-.114-.063c-.078-.043-.156-.086-.234-.131l-.128-.074-.218-.13-.126-.077c-.076-.047-.15-.094-.225-.142l-.109-.07q-.153-.1-.3-.2l-.023-.015q-.161-.112-.319-.227l-.1-.073q-.108-.081-.216-.163l-.114-.089-.2-.157-.113-.092-.2-.167-.1-.087q-.121-.106-.24-.214l-.05-.045q-.143-.131-.282-.265l-.079-.078c-.066-.065-.131-.13-.2-.2l-.1-.1q-.087-.09-.172-.181l-.1-.107q-.085-.093-.168-.188l-.09-.1c-.065-.075-.129-.151-.193-.228l-.056-.066q-.122-.149-.24-.3l-.06-.078q-.087-.114-.173-.229l-.081-.111q-.073-.1-.145-.2l-.083-.12q-.07-.1-.138-.207l-.076-.116c-.051-.079-.1-.158-.15-.238l-.054-.088q-.1-.164-.194-.33l-.039-.071q-.074-.132-.146-.266l-.062-.119c-.039-.075-.077-.15-.115-.225l-.064-.13c-.016-.033-.033-.066-.048-.1a1.711,1.711,0,0,0-1.548-.97H256v46.1a1.719,1.719,0,0,0,.8-.2l.1-.053a38.252,38.252,0,0,0,14.563-13.225A33.14,33.14,0,0,0,276.711,55.9V51.041A1.715,1.715,0,0,0,275.63,49.445Z" transform="translate(-206.995 -36.547)" fill="#35b79e"/>
      <path id="Trazado_901795" data-name="Trazado 901795" d="M275.63,49.445l-.084-.034-.14-.057-.237-.1-.136-.059-.251-.114-.113-.053q-.18-.085-.357-.175l-.026-.014q-.164-.083-.325-.17l-.114-.063c-.078-.043-.156-.086-.234-.131l-.128-.074-.218-.13-.126-.077c-.076-.047-.15-.094-.225-.142l-.109-.07q-.153-.1-.3-.2l-.023-.015q-.161-.112-.319-.227l-.1-.073q-.108-.081-.216-.163l-.114-.089-.2-.157-.113-.092-.2-.167-.1-.087q-.121-.106-.24-.214l-.05-.045q-.143-.131-.282-.265l-.079-.078c-.066-.065-.131-.13-.2-.2l-.1-.1q-.087-.09-.172-.181l-.1-.107q-.085-.093-.168-.188l-.09-.1c-.065-.075-.129-.151-.193-.228l-.056-.066q-.122-.149-.24-.3l-.06-.078q-.087-.114-.173-.229l-.081-.111q-.073-.1-.145-.2l-.083-.12q-.07-.1-.138-.207l-.076-.116c-.051-.079-.1-.159-.15-.238l-.054-.088q-.1-.164-.194-.33l-.039-.071q-.074-.132-.146-.266l-.062-.119q-.058-.112-.115-.225l-.064-.13c-.016-.033-.033-.066-.048-.1a1.711,1.711,0,0,0-1.548-.97h-2.764a15.337,15.337,0,0,1,1.215,1.833c.018.032.032.066.048.1l.064.13q.056.113.115.225l.062.119q.071.134.146.266l.039.071q.095.167.194.33l.054.088q.074.12.15.238l.076.116q.068.1.138.207l.083.12q.071.1.145.2l.081.111c.057.077.115.153.173.229l.06.078q.118.152.24.3l.056.066c.064.077.128.153.193.228l.09.1q.084.095.168.188l.1.107q.085.091.172.181l.1.1q.1.1.2.2l.079.078q.139.134.282.265l.05.045q.119.108.24.214l.1.087q.1.084.2.167l.113.092.2.157.114.089q.107.082.216.163l.1.073q.158.115.319.227l.023.015q.15.1.3.2l.109.07.225.142.126.077.218.13.128.074.234.131.114.063q.162.087.325.17l.026.014q.177.09.357.175l.113.053c.083.039.167.077.251.114l.136.059.237.1.14.057.084.034a1.715,1.715,0,0,1,1.081,1.6v4.858a33.14,33.14,0,0,1-5.246,17.765A40.816,40.816,0,0,1,256,87.094v.045a1.719,1.719,0,0,0,.8-.2l.1-.053a38.252,38.252,0,0,0,14.563-13.225A33.14,33.14,0,0,0,276.711,55.9V51.041A1.715,1.715,0,0,0,275.63,49.445Z" transform="translate(-206.995 -36.547)" fill="#1e9690"/>
      <path id="Trazado_901796" data-name="Trazado 901796" d="M177.148,204.039h-18.2a1.738,1.738,0,0,1-1.738-1.738V190.89a1.738,1.738,0,0,1,1.738-1.738h18.2a1.738,1.738,0,0,1,1.738,1.738V202.3A1.738,1.738,0,0,1,177.148,204.039Z" transform="translate(-119.014 -168.462)" fill="#636a75"/>
      <path id="Trazado_901797" data-name="Trazado 901797" d="M313.841,189.152H310.7a1.738,1.738,0,0,1,1.738,1.738V202.3a1.738,1.738,0,0,1-1.738,1.738h3.146a1.738,1.738,0,0,0,1.738-1.738V190.89A1.738,1.738,0,0,0,313.841,189.152Z" transform="translate(-255.707 -168.462)" fill="#515a66"/>
      <path id="Trazado_901798" data-name="Trazado 901798" d="M240.284,235.808v2.269a.8.8,0,1,0,1.594,0v-2.269a1.867,1.867,0,1,0-1.594,0Z" transform="translate(-192.044 -206.851)"/>
      <path id="Trazado_901799" data-name="Trazado 901799" d="M79.614,81.106h0l.1.053a2.517,2.517,0,0,0,2.342,0l.1-.053A39.051,39.051,0,0,0,97.022,67.6a33.936,33.936,0,0,0,5.37-18.192V44.552a2.5,2.5,0,0,0-1.584-2.337,14.173,14.173,0,0,1-7.668-7.041,2.519,2.519,0,0,0-2.267-1.425H70.9a2.519,2.519,0,0,0-2.267,1.425,14.172,14.172,0,0,1-7.668,7.041,2.5,2.5,0,0,0-1.584,2.337V49.41A33.934,33.934,0,0,0,64.749,67.6,39.049,39.049,0,0,0,79.614,81.106ZM60.973,49.41V44.552a.912.912,0,0,1,.577-.855,15.76,15.76,0,0,0,8.521-7.839.917.917,0,0,1,.828-.516H90.872a.917.917,0,0,1,.828.516,15.762,15.762,0,0,0,8.522,7.839.912.912,0,0,1,.577.855V49.41a32.345,32.345,0,0,1-5.122,17.338,37.457,37.457,0,0,1-14.26,12.947l-.1.053a.923.923,0,0,1-.859,0l-.1-.053A37.456,37.456,0,0,1,66.095,66.748,32.344,32.344,0,0,1,60.973,49.41Z" transform="translate(-31.88 -30.058)"/>
      <path id="Trazado_901800" data-name="Trazado 901800" d="M80.025,245.552a.8.8,0,0,0-.953.6c-2.427,10.739-9.82,20.052-20.283,25.551l-2.431,1.278a.539.539,0,0,1-.5,0L53.425,271.7c-10.479-5.508-17.876-14.837-20.293-25.6a.8.8,0,0,0-1.555.349c2.52,11.215,10.213,20.931,21.107,26.657l2.431,1.278a2.132,2.132,0,0,0,1.985,0l2.431-1.278C70.407,267.4,78.1,257.7,80.627,246.5A.8.8,0,0,0,80.025,245.552Z" transform="translate(-7.101 -218.636)"/>
      <path id="Trazado_901801" data-name="Trazado 901801" d="M72.536,9.12A8.865,8.865,0,0,1,64.4,1.855,2.153,2.153,0,0,0,62.284,0H35.728a2.153,2.153,0,0,0-2.114,1.855A8.865,8.865,0,0,1,25.476,9.12a2.119,2.119,0,0,0-1.892,2.119V19.8a36.687,36.687,0,0,0,.192,3.737.8.8,0,0,0,.792.716.807.807,0,0,0,.082,0,.8.8,0,0,0,.711-.874,35.1,35.1,0,0,1-.183-3.574V11.239a.535.535,0,0,1,.465-.534,10.452,10.452,0,0,0,9.549-8.629.545.545,0,0,1,.536-.482H62.284a.545.545,0,0,1,.536.482A10.452,10.452,0,0,0,72.369,10.7a.535.535,0,0,1,.465.534V19.8a35.11,35.11,0,0,1-.179,3.537.8.8,0,0,0,1.586.161,36.7,36.7,0,0,0,.187-3.7V11.239A2.118,2.118,0,0,0,72.536,9.12Z"/>
      <path id="Trazado_901802" data-name="Trazado 901802" d="M170.658,103.958a2.538,2.538,0,0,0,2.535-2.535V90.012a2.538,2.538,0,0,0-2.535-2.535h-1.311v-3.8a7.788,7.788,0,0,0-15.576,0v3.8h-1.31a2.538,2.538,0,0,0-2.535,2.535v11.412a2.538,2.538,0,0,0,2.535,2.535ZM155.366,83.673a6.194,6.194,0,0,1,12.388,0v3.8H155.366Zm-3.845,17.751V90.012a.942.942,0,0,1,.941-.941h18.2a.942.942,0,0,1,.941.941v11.412a.942.942,0,0,1-.941.941h-18.2A.942.942,0,0,1,151.521,101.423Z" transform="translate(-112.524 -67.585)"/>
    </g>
  </g>
</svg>
