<svg xmlns="http://www.w3.org/2000/svg" xmlns:xlink="http://www.w3.org/1999/xlink" width="109.652" height="109.652" viewBox="0 0 109.652 109.652">
  <defs>
    <filter id="Trazado_874925" x="0" y="0" width="109.652" height="109.652" filterUnits="userSpaceOnUse">
      <feOffset dy="3" input="SourceAlpha"/>
      <feGaussianBlur stdDeviation="3" result="blur"/>
      <feFlood flood-opacity="0.161"/>
      <feComposite operator="in" in2="blur"/>
      <feComposite in="SourceGraphic"/>
    </filter>
  </defs>
  <g id="Grupo_1110055" data-name="Grupo 1110055" transform="translate(-1010.73 -3071)">
    <g transform="matrix(1, 0, 0, 1, 1010.73, 3071)" filter="url(#Trazado_874925)">
      <g id="Trazado_874925-2" data-name="Trazado 874925" transform="translate(9 6)" fill="#ffd63c">
        <path d="M 45.82614517211914 90.15280151367188 C 39.84149551391602 90.15280151367188 34.03665924072266 88.98104095458984 28.5728702545166 86.67005157470703 C 23.29473304748535 84.43759155273438 18.55415725708008 81.24130249023438 14.48283290863037 77.16998291015625 C 10.41150760650635 73.09866333007812 7.215232849121094 68.35809326171875 4.982757568359375 63.07994079589844 C 2.671770095825195 57.61616897583008 1.500007629394531 51.81131744384766 1.500007629394531 45.82666778564453 C 1.500007629394531 39.84149169921875 2.671770095825195 34.03665542602539 4.982757568359375 28.57286643981934 C 7.215232849121094 23.29472923278809 10.41150760650635 18.55415534973145 14.48283290863037 14.48283004760742 C 18.55415725708008 10.4115047454834 23.29473304748535 7.215229511260986 28.5728702545166 4.982754707336426 C 34.03665924072266 2.671766996383667 39.84149551391602 1.500004529953003 45.82614517211914 1.500004529953003 C 51.81079483032227 1.500004529953003 57.61564636230469 2.671766996383667 63.07942199707031 4.982754707336426 C 68.35756683349609 7.215229511260986 73.09814453125 10.4115047454834 77.16947174072266 14.48283004760742 C 81.24078369140625 18.55415534973145 84.43707275390625 23.29472923278809 86.66954803466797 28.57286643981934 C 88.98052978515625 34.03665542602539 90.15229797363281 39.84149169921875 90.15229797363281 45.82614135742188 C 90.15229797363281 51.81131744384766 88.98052978515625 57.61616897583008 86.66954803466797 63.07994079589844 C 84.43707275390625 68.35809326171875 81.24078369140625 73.09866333007812 77.16947174072266 77.16998291015625 C 73.09814453125 81.24130249023438 68.35756683349609 84.43759155273438 63.07942199707031 86.67005157470703 C 57.61564636230469 88.98104095458984 51.81079483032227 90.15280151367188 45.82614517211914 90.15280151367188 Z" stroke="none"/>
        <path d="M 45.82614517211914 3.000007629394531 C 40.04333114624023 3.000007629394531 34.43508911132812 4.131904602050781 29.15720367431641 6.364265441894531 C 24.05784606933594 8.521102905273438 19.47753143310547 11.60944366455078 15.54348754882812 15.54348754882812 C 11.60944366455078 19.47753143310547 8.521102905273438 24.05784606933594 6.3642578125 29.15720367431641 C 4.131904602050781 34.43508911132812 3 40.0433349609375 3 45.82667541503906 C 3 51.60948944091797 4.131904602050781 57.21773147583008 6.3642578125 62.49562072753906 C 8.521102905273438 67.59497833251953 11.60944366455078 72.17527770996094 15.54348754882812 76.10932922363281 C 19.47753143310547 80.04337310791016 24.05784606933594 83.13170623779297 29.15718841552734 85.28854370117188 C 34.43508911132812 87.52090454101562 40.04333114624023 88.65280151367188 45.82614517211914 88.65280151367188 C 51.60895919799805 88.65280151367188 57.21720123291016 87.52090454101562 62.49510192871094 85.28854370117188 C 67.59444427490234 83.13170623779297 72.17475891113281 80.04337310791016 76.10880279541016 76.10932922363281 C 80.0428466796875 72.17527770996094 83.13118743896484 67.59497833251953 85.28803253173828 62.49562072753906 C 87.5203857421875 57.21773147583008 88.65229034423828 51.60948944091797 88.65229034423828 45.82614898681641 C 88.65229034423828 40.0433349609375 87.5203857421875 34.43508911132812 85.28803253173828 29.15720367431641 C 83.13118743896484 24.05784606933594 80.0428466796875 19.47753143310547 76.10880279541016 15.54348754882812 C 72.17475891113281 11.60944366455078 67.59444427490234 8.521102905273438 62.49508666992188 6.364265441894531 C 57.21720123291016 4.131904602050781 51.60895919799805 3.000007629394531 45.82614517211914 3.000007629394531 M 45.82614517211914 7.62939453125e-06 C 71.13523101806641 7.62939453125e-06 91.65229034423828 20.51705932617188 91.65229034423828 45.82614898681641 L 91.65229034423828 45.82667541503906 C 91.65229034423828 71.13575744628906 71.13523101806641 91.65280151367188 45.82614517211914 91.65280151367188 C 20.51705932617188 91.65280151367188 0 71.13575744628906 0 45.82667541503906 L 0 45.82614898681641 C 0 20.51705932617188 20.51705932617188 7.62939453125e-06 45.82614517211914 7.62939453125e-06 Z" stroke="none" fill="#fff"/>
      </g>
    </g>
    <g id="equipo-medico" transform="translate(1039.434 3096.704)">
      <g id="Grupo_1112186" data-name="Grupo 1112186" transform="translate(32.22 15.666)">
        <g id="Grupo_1112182" data-name="Grupo 1112182" transform="translate(0 12.426)">
          <path id="Trazado_901803" data-name="Trazado 901803" d="M315.75,280.894v17.8h19.26v-17.8a5.592,5.592,0,0,0-5.592-5.592h-8.077A5.592,5.592,0,0,0,315.75,280.894Z" transform="translate(-315.75 -275.302)" fill="#4f66d0"/>
        </g>
        <g id="Grupo_1112183" data-name="Grupo 1112183" transform="translate(0 12.447)">
          <path id="Trazado_901804" data-name="Trazado 901804" d="M327.6,284.666a9.654,9.654,0,0,0-6.721-9.164,5.591,5.591,0,0,0-5.13,5.571v17.8H327.6Z" transform="translate(-315.75 -275.502)" fill="#314dc9"/>
        </g>
        <g id="Grupo_1112184" data-name="Grupo 1112184" transform="translate(3.417)">
          <circle id="Elipse_11921" data-name="Elipse 11921" cx="6.213" cy="6.213" r="6.213" fill="#ffdfcf"/>
        </g>
        <g id="Grupo_1112185" data-name="Grupo 1112185" transform="translate(4.146 0.729)">
          <path id="Trazado_901805" data-name="Trazado 901805" d="M364.788,160.673a6.214,6.214,0,0,1-8.4,8.4,6.213,6.213,0,1,0,8.4-8.4Z" transform="translate(-356.383 -160.673)" fill="#ffcebf"/>
        </g>
      </g>
      <g id="Grupo_1112191" data-name="Grupo 1112191" transform="translate(0.765 15.666)">
        <g id="Grupo_1112187" data-name="Grupo 1112187" transform="translate(0 12.426)">
          <path id="Trazado_901806" data-name="Trazado 901806" d="M26.761,280.894v17.8H7.5v-17.8a5.592,5.592,0,0,1,5.592-5.592h8.077A5.592,5.592,0,0,1,26.761,280.894Z" transform="translate(-7.5 -275.302)" fill="#4f66d0"/>
        </g>
        <g id="Grupo_1112188" data-name="Grupo 1112188" transform="translate(7.409 12.447)">
          <path id="Trazado_901807" data-name="Trazado 901807" d="M80.109,284.666a9.654,9.654,0,0,1,6.721-9.164,5.591,5.591,0,0,1,5.13,5.571v17.8H80.108Z" transform="translate(-80.108 -275.502)" fill="#314dc9"/>
        </g>
        <g id="Grupo_1112189" data-name="Grupo 1112189" transform="translate(3.417)">
          <circle id="Elipse_11922" data-name="Elipse 11922" cx="6.213" cy="6.213" r="6.213" fill="#ffdfcf"/>
        </g>
        <g id="Grupo_1112190" data-name="Grupo 1112190" transform="translate(4.146 0.729)">
          <path id="Trazado_901808" data-name="Trazado 901808" d="M48.134,169.078a6.214,6.214,0,0,0,8.4-8.4,6.213,6.213,0,1,1-8.4,8.4Z" transform="translate(-48.134 -160.673)" fill="#ffcebf"/>
        </g>
      </g>
      <g id="Grupo_1112205" data-name="Grupo 1112205" transform="translate(11.475 0.765)">
        <g id="Grupo_1112192" data-name="Grupo 1112192" transform="translate(10.525)">
          <circle id="Elipse_11923" data-name="Elipse 11923" cx="4.123" cy="4.123" r="4.123" fill="#9b5e5e"/>
        </g>
        <g id="Grupo_1112203" data-name="Grupo 1112203" transform="translate(0 4.123)">
          <g id="Grupo_1112193" data-name="Grupo 1112193" transform="translate(0 25.598)">
            <path id="Trazado_901809" data-name="Trazado 901809" d="M141.747,305.569a6.369,6.369,0,0,0-5.285-6.247l-3.233-.558-6.131,4.672-6.131-4.672-3.233.558a6.369,6.369,0,0,0-5.285,6.247v14.189h29.3Z" transform="translate(-112.45 -298.764)" fill="#e6f7fe"/>
          </g>
          <g id="Grupo_1112194" data-name="Grupo 1112194" transform="translate(24.255 26.204)">
            <path id="Trazado_901810" data-name="Trazado 901810" d="M355.189,310.9a6.368,6.368,0,0,0-5.042-6.2A6.361,6.361,0,0,1,352,309.165h0v15.922h3.185V310.9Z" transform="translate(-350.147 -304.699)" fill="#d3effd"/>
          </g>
          <g id="Grupo_1112195" data-name="Grupo 1112195" transform="translate(8.518 22.132)">
            <path id="Trazado_901811" data-name="Trazado 901811" d="M205.643,267.82v-3.026h-7.166v3.026l-2.548.44,6.131,4.672,6.131-4.672Z" transform="translate(-195.929 -264.794)" fill="#ffdfcf"/>
          </g>
          <g id="Grupo_1112196" data-name="Grupo 1112196" transform="translate(11.066 19.824)">
            <path id="Trazado_901812" data-name="Trazado 901812" d="M220.9,247.512a6.826,6.826,0,0,0,2.912.647h1.341a6.824,6.824,0,0,0,2.912-.647v-5.334H220.9Z" transform="translate(-220.899 -242.178)" fill="#ffcebf"/>
          </g>
          <g id="Grupo_1112197" data-name="Grupo 1112197" transform="translate(7.566 2.708)">
            <path id="Trazado_901813" data-name="Trazado 901813" d="M186.6,81.531v6.353a6.229,6.229,0,0,0,1.859,4.438l1.14,1.122a5.822,5.822,0,0,0,8.169,0l1.14-1.122a6.228,6.228,0,0,0,1.859-4.438V81.531a7.083,7.083,0,1,0-14.165,0Z" transform="translate(-186.599 -74.448)" fill="#ffdfcf"/>
          </g>
          <g id="Grupo_1112198" data-name="Grupo 1112198" transform="translate(13.36 2.708)">
            <path id="Trazado_901814" data-name="Trazado 901814" d="M244.663,74.447a7.118,7.118,0,0,0-1.289.117,7.085,7.085,0,0,1,5.793,6.965v6.353a6.229,6.229,0,0,1-1.859,4.438l-1.14,1.122a5.82,5.82,0,0,1-2.8,1.527,5.807,5.807,0,0,0,5.374-1.527l1.14-1.122a6.228,6.228,0,0,0,1.859-4.438V81.53A7.083,7.083,0,0,0,244.663,74.447Z" transform="translate(-243.374 -74.447)" fill="#ffcebf"/>
          </g>
          <g id="Grupo_1112199" data-name="Grupo 1112199" transform="translate(4.988)">
            <path id="Trazado_901815" data-name="Trazado 901815" d="M170.992,47.907a9.66,9.66,0,0,0-9.66,9.66v2.821h2.578v1.358c3.721,0,7.083-4.206,7.083-4.206s3.362,4.206,7.083,4.206V60.389h2.578V57.567a9.66,9.66,0,0,0-9.66-9.66" transform="translate(-161.332 -47.907)" fill="#b98080"/>
          </g>
          <g id="Grupo_1112200" data-name="Grupo 1112200" transform="translate(16.321 1.258)">
            <path id="Trazado_901816" data-name="Trazado 901816" d="M275.49,60.231c1.068,5.85-1.768,8.938-3.1,10.081,1.331,1.166,3.314,2.5,5.411,2.5V71.455h2.578V68.634a9.657,9.657,0,0,0-4.892-8.4Z" transform="translate(-272.393 -60.231)" fill="#ae6c6c"/>
          </g>
          <g id="Grupo_1112201" data-name="Grupo 1112201" transform="translate(4.541 11.534)">
            <path id="Trazado_901817" data-name="Trazado 901817" d="M159.256,165.551a2.305,2.305,0,0,1-2.3-2.37,2.336,2.336,0,0,1,2.352-2.24h.195a.478.478,0,0,1,.478.478v4.132h-.72Z" transform="translate(-156.951 -160.941)" fill="#ffb09e"/>
          </g>
          <g id="Grupo_1112202" data-name="Grupo 1112202" transform="translate(21.732 11.534)">
            <path id="Trazado_901818" data-name="Trazado 901818" d="M326.138,165.551a2.305,2.305,0,0,0,2.3-2.37,2.336,2.336,0,0,0-2.352-2.24H325.9a.478.478,0,0,0-.478.478v4.132h.72Z" transform="translate(-325.418 -160.941)" fill="#ffb09e"/>
          </g>
        </g>
        <g id="Grupo_1112204" data-name="Grupo 1112204" transform="translate(20.535 40.552)">
          <circle id="Elipse_11924" data-name="Elipse 11924" cx="1.649" cy="1.649" r="1.649" fill="#4f66d0"/>
        </g>
      </g>
      <path id="Trazado_901819" data-name="Trazado 901819" d="M51.48,37.553a.765.765,0,0,0,.765-.765v-3.1a6.365,6.365,0,0,0-6.051-6.349,6.974,6.974,0,1,0-9.57-10.074q-.036-.066-.075-.13V14.549A10.435,10.435,0,0,0,30.99,5.331c.013-.147.021-.294.021-.442a4.889,4.889,0,1,0-9.777,0c0,.148.008.3.021.443A10.435,10.435,0,0,0,15.7,14.549v2.582q-.04.065-.076.132A6.974,6.974,0,1,0,6.051,27.335,6.365,6.365,0,0,0,0,33.684v7.5a.765.765,0,1,0,1.531,0v-7.5a4.832,4.832,0,0,1,4.827-4.827h8.077a4.81,4.81,0,0,1,3.243,1.253l-1.048.181a7.127,7.127,0,0,0-5.92,7V50.715H5.878V38.522a.765.765,0,0,0-.224-.541l-.637-.637a.765.765,0,0,0-1.082,1.082l.413.413V50.715H1.531V44.753a.765.765,0,1,0-1.531,0V51.48a.765.765,0,0,0,.765.765H51.48a.765.765,0,0,0,.765-.765V40.359a.765.765,0,1,0-1.531,0V50.715H47.9V38.839l.413-.413a.765.765,0,1,0-1.082-1.082l-.637.637a.765.765,0,0,0-.224.541V50.715h-4.83V45.886a.765.765,0,1,0-1.531,0v4.829H35.965V47.46a.765.765,0,1,0-1.531,0v3.255H17.813V47.46a.765.765,0,1,0-1.531,0v3.255H12.24V37.3a5.6,5.6,0,0,1,4.65-5.5l.932-.161v4.134a4.586,4.586,0,0,0-3.814,4.514v2.371a2.211,2.211,0,0,0,2.207,2.208.765.765,0,0,0,1.488-.25V43.585a.765.765,0,0,0-1.488-.25.679.679,0,0,1-.677-.678V40.286a3.049,3.049,0,1,1,6.1,0v2.371a.679.679,0,0,1-.677.678.765.765,0,0,0-1.488.25v1.031a.765.765,0,0,0,1.488.25,2.211,2.211,0,0,0,2.207-2.208V40.286a4.586,4.586,0,0,0-3.814-4.514v-4.4L19.8,31.3l5.865,4.47a.765.765,0,0,0,.928,0l5.865-4.47.441.076v9.3a2.415,2.415,0,1,0,1.531,0V31.638l.933.161a5.6,5.6,0,0,1,4.65,5.492v5.024a.765.765,0,0,0,1.531,0V37.288a7.126,7.126,0,0,0-5.92-7l-1.049-.181a4.809,4.809,0,0,1,3.243-1.252h8.076a4.832,4.832,0,0,1,4.827,4.827v3.1a.765.765,0,0,0,.765.765Zm-17.822,6.3a.884.884,0,1,1,.884-.884A.885.885,0,0,1,33.659,43.851ZM41.85,16.432a5.448,5.448,0,0,1,.008,10.9h-.016a5.448,5.448,0,0,1,.008-10.9Zm-6.82,1.223a1.529,1.529,0,0,1,.435,1.117,1.572,1.572,0,0,1-1.494,1.493V17.189a1.527,1.527,0,0,1,1.059.466ZM26.123,1.531a3.362,3.362,0,0,1,3.35,3.145,10.439,10.439,0,0,0-6.7,0,3.362,3.362,0,0,1,3.35-3.145Zm0,4.123a8.9,8.9,0,0,1,8.9,8.9v1.308a3.069,3.069,0,0,0-1.092-.2h-.243A1.244,1.244,0,0,0,32.441,16.9v.993c-3.009-.513-5.691-3.814-5.72-3.85a.765.765,0,0,0-.6-.287h0a.766.766,0,0,0-.6.287c-.029.036-2.711,3.337-5.72,3.85V16.9a1.245,1.245,0,0,0-1.243-1.243h-.243a3.069,3.069,0,0,0-1.092.2V14.549a8.9,8.9,0,0,1,8.9-8.9Zm6.77,24q-.058.071-.114.144l-2.308-.4v-1.38H31.6a1.3,1.3,0,0,1,1.3,1.3Zm-3.222-3.609a5.056,5.056,0,0,1-7.1,0l-1.14-1.122a5.5,5.5,0,0,1-1.63-3.893V19.441c2.8-.364,5.231-2.608,6.317-3.763,1.086,1.155,3.52,3.4,6.318,3.763v1.591a5.5,5.5,0,0,1-1.63,3.893ZM19.466,29.8q-.056-.073-.114-.144v-.339a1.3,1.3,0,0,1,1.3-1.3h1.127V29.4ZM16.782,18.772a1.54,1.54,0,0,1,1.494-1.583v3.076a1.572,1.572,0,0,1-1.494-1.493ZM4.948,21.879A5.448,5.448,0,1,1,10.4,27.327h-.016a5.454,5.454,0,0,1-5.44-5.448Zm12.426,0c0-.083,0-.165-.006-.247a3.109,3.109,0,0,0,.952.165,7.042,7.042,0,0,0,2.043,4.22l.482.475h-.2A2.831,2.831,0,0,0,17.975,28.4a6.335,6.335,0,0,0-3.235-1.067,6.968,6.968,0,0,0,2.634-5.456ZM26.124,34.2l-4.27-3.254.818-.141a.765.765,0,0,0,.635-.754V28.4a6.611,6.611,0,0,0,5.634,0v1.645a.765.765,0,0,0,.635.754l.819.141ZM34.271,28.4A2.831,2.831,0,0,0,31.6,26.491H31.4l.482-.475a7.043,7.043,0,0,0,2.043-4.22,3.109,3.109,0,0,0,.95-.164c0,.082-.006.164-.006.247a6.967,6.967,0,0,0,2.635,5.456A6.337,6.337,0,0,0,34.271,28.4Z" transform="translate(0)"/>
    </g>
  </g>
</svg>
