<svg xmlns="http://www.w3.org/2000/svg" xmlns:xlink="http://www.w3.org/1999/xlink" width="109.652" height="109.652" viewBox="0 0 109.652 109.652">
  <defs>
    <filter id="Trazado_874925" x="0" y="0" width="109.652" height="109.652" filterUnits="userSpaceOnUse">
      <feOffset dy="3" input="SourceAlpha"/>
      <feGaussianBlur stdDeviation="3" result="blur"/>
      <feFlood flood-opacity="0.161"/>
      <feComposite operator="in" in2="blur"/>
      <feComposite in="SourceGraphic"/>
    </filter>
    <clipPath id="clip-path">
      <path id="path3309" d="M0-682.665H54.266V-628.4H0Z" transform="translate(0 682.665)"/>
    </clipPath>
  </defs>
  <g id="Grupo_1110054" data-name="Grupo 1110054" transform="translate(-1010.73 -3071)">
    <g transform="matrix(1, 0, 0, 1, 1010.73, 3071)" filter="url(#Trazado_874925)">
      <g id="Trazado_874925-2" data-name="Trazado 874925" transform="translate(9 6)" fill="#ffd63c">
        <path d="M 45.82614517211914 90.15280151367188 C 39.84149551391602 90.15280151367188 34.03665924072266 88.98104095458984 28.5728702545166 86.67005157470703 C 23.29473304748535 84.43759155273438 18.55415725708008 81.24130249023438 14.48283290863037 77.16998291015625 C 10.41150760650635 73.09866333007812 7.215232849121094 68.35809326171875 4.982757568359375 63.07994079589844 C 2.671770095825195 57.61616897583008 1.500007629394531 51.81131744384766 1.500007629394531 45.82666778564453 C 1.500007629394531 39.84149169921875 2.671770095825195 34.03665542602539 4.982757568359375 28.57286643981934 C 7.215232849121094 23.29472923278809 10.41150760650635 18.55415534973145 14.48283290863037 14.48283004760742 C 18.55415725708008 10.4115047454834 23.29473304748535 7.215229511260986 28.5728702545166 4.982754707336426 C 34.03665924072266 2.671766996383667 39.84149551391602 1.500004529953003 45.82614517211914 1.500004529953003 C 51.81079483032227 1.500004529953003 57.61564636230469 2.671766996383667 63.07942199707031 4.982754707336426 C 68.35756683349609 7.215229511260986 73.09814453125 10.4115047454834 77.16947174072266 14.48283004760742 C 81.24078369140625 18.55415534973145 84.43707275390625 23.29472923278809 86.66954803466797 28.57286643981934 C 88.98052978515625 34.03665542602539 90.15229797363281 39.84149169921875 90.15229797363281 45.82614135742188 C 90.15229797363281 51.81131744384766 88.98052978515625 57.61616897583008 86.66954803466797 63.07994079589844 C 84.43707275390625 68.35809326171875 81.24078369140625 73.09866333007812 77.16947174072266 77.16998291015625 C 73.09814453125 81.24130249023438 68.35756683349609 84.43759155273438 63.07942199707031 86.67005157470703 C 57.61564636230469 88.98104095458984 51.81079483032227 90.15280151367188 45.82614517211914 90.15280151367188 Z" stroke="none"/>
        <path d="M 45.82614517211914 3.000007629394531 C 40.04333114624023 3.000007629394531 34.43508911132812 4.131904602050781 29.15720367431641 6.364265441894531 C 24.05784606933594 8.521102905273438 19.47753143310547 11.60944366455078 15.54348754882812 15.54348754882812 C 11.60944366455078 19.47753143310547 8.521102905273438 24.05784606933594 6.3642578125 29.15720367431641 C 4.131904602050781 34.43508911132812 3 40.0433349609375 3 45.82667541503906 C 3 51.60948944091797 4.131904602050781 57.21773147583008 6.3642578125 62.49562072753906 C 8.521102905273438 67.59497833251953 11.60944366455078 72.17527770996094 15.54348754882812 76.10932922363281 C 19.47753143310547 80.04337310791016 24.05784606933594 83.13170623779297 29.15718841552734 85.28854370117188 C 34.43508911132812 87.52090454101562 40.04333114624023 88.65280151367188 45.82614517211914 88.65280151367188 C 51.60895919799805 88.65280151367188 57.21720123291016 87.52090454101562 62.49510192871094 85.28854370117188 C 67.59444427490234 83.13170623779297 72.17475891113281 80.04337310791016 76.10880279541016 76.10932922363281 C 80.0428466796875 72.17527770996094 83.13118743896484 67.59497833251953 85.28803253173828 62.49562072753906 C 87.5203857421875 57.21773147583008 88.65229034423828 51.60948944091797 88.65229034423828 45.82614898681641 C 88.65229034423828 40.0433349609375 87.5203857421875 34.43508911132812 85.28803253173828 29.15720367431641 C 83.13118743896484 24.05784606933594 80.0428466796875 19.47753143310547 76.10880279541016 15.54348754882812 C 72.17475891113281 11.60944366455078 67.59444427490234 8.521102905273438 62.49508666992188 6.364265441894531 C 57.21720123291016 4.131904602050781 51.60895919799805 3.000007629394531 45.82614517211914 3.000007629394531 M 45.82614517211914 7.62939453125e-06 C 71.13523101806641 7.62939453125e-06 91.65229034423828 20.51705932617188 91.65229034423828 45.82614898681641 L 91.65229034423828 45.82667541503906 C 91.65229034423828 71.13575744628906 71.13523101806641 91.65280151367188 45.82614517211914 91.65280151367188 C 20.51705932617188 91.65280151367188 0 71.13575744628906 0 45.82667541503906 L 0 45.82614898681641 C 0 20.51705932617188 20.51705932617188 7.62939453125e-06 45.82614517211914 7.62939453125e-06 Z" stroke="none" fill="#fff"/>
      </g>
    </g>
    <g id="g3303" transform="translate(1038.424 3778.359)">
      <g id="g3305" transform="translate(0 -682.665)">
        <g id="g3307" clip-path="url(#clip-path)">
          <g id="g3313" transform="translate(0.803 9.989)">
            <path id="path3315" d="M-609.793-35.814V-2.8a1.271,1.271,0,0,1-1.272,1.272H-661.18A1.272,1.272,0,0,1-662.452-2.8V-35.814l3.11-2.088,44.9-1Z" transform="translate(662.452 38.907)" fill="#f2fbff"/>
          </g>
          <g id="g3317" transform="translate(0.803 10.994)">
            <path id="path3319" d="M-45.412-421.229h-2.65a1.271,1.271,0,0,1-1.272-1.272v-33.015l1.465-2.088,1.184,2.088V-422.5a1.271,1.271,0,0,0,1.272,1.272" transform="translate(49.333 457.604)" fill="#d8ecfe"/>
          </g>
          <g id="g3321" transform="translate(0.803 6.897)">
            <path id="path3323" d="M-609.793-14.728v4.914h-52.659v-4.914A1.272,1.272,0,0,1-661.18-16h50.115a1.272,1.272,0,0,1,1.272,1.272" transform="translate(662.452 16)" fill="#b3dafe"/>
          </g>
          <g id="g3325" transform="translate(0.803 6.897)">
            <path id="path3327" d="M-45.412,0a1.272,1.272,0,0,0-1.272,1.272V6.185h-2.65V1.272A1.272,1.272,0,0,1-48.061,0Z" transform="translate(49.333)" fill="#8ac9fe"/>
          </g>
          <g id="g3329" transform="translate(18.213 17.699)">
            <path id="path3331" d="M-179.527-170.38h-13.167a.421.421,0,0,1-.326-.152,8.88,8.88,0,0,1-2.01-5.641,8.9,8.9,0,0,1,8.784-8.919,8.92,8.92,0,0,1,9.056,8.919,8.88,8.88,0,0,1-2.01,5.641.421.421,0,0,1-.327.152" transform="translate(195.03 185.094)" fill="#b6c4cf"/>
          </g>
          <g id="g3333" transform="translate(18.213 17.699)">
            <path id="path3335" d="M-27-103.292a8.876,8.876,0,0,0,2.011,5.641.421.421,0,0,0,.326.153H-27a.421.421,0,0,1-.326-.153,8.876,8.876,0,0,1-2.011-5.641,8.9,8.9,0,0,1,8.784-8.919,8.92,8.92,0,0,1,1.3.075A8.9,8.9,0,0,0-27-103.292" transform="translate(29.333 112.212)" fill="#9facba"/>
          </g>
          <g id="g3337" transform="translate(23.463 26.326)">
            <path id="path3339" d="M-85.006-70.474v-2.415a3.659,3.659,0,0,0-1.075-2.595,3.658,3.658,0,0,0-2.6-1.076,3.67,3.67,0,0,0-3.67,3.67v2.415Z" transform="translate(92.346 76.56)" fill="#fd9aa0"/>
          </g>
          <g id="g3341" transform="translate(23.463 26.326)">
            <path id="path3343" d="M-57.845-2.847A3.674,3.674,0,0,0-60.19.577V2.992h-2.65V.577a3.67,3.67,0,0,1,3.67-3.67,3.66,3.66,0,0,1,1.325.246" transform="translate(62.84 3.093)" fill="#fd8087"/>
          </g>
          <g id="g3345" transform="translate(24.665 21.551)">
            <path id="path3347" d="M-57.145-28.573a2.467,2.467,0,0,1-2.467,2.467,2.467,2.467,0,0,1-2.467-2.467,2.467,2.467,0,0,1,2.467-2.467,2.467,2.467,0,0,1,2.467,2.467" transform="translate(62.08 31.04)" fill="#f2fbff"/>
          </g>
          <g id="g3349" transform="translate(0.803 19.836)">
            <path id="path3351" d="M0,0V26.262a1.272,1.272,0,0,0,1.272,1.272H43.759" fill="none" stroke="#000" stroke-linecap="round" stroke-linejoin="round" stroke-miterlimit="10" stroke-width="2"/>
          </g>
          <g id="g3353" transform="translate(0.803 6.897)">
            <path id="path3355" d="M0-106.877v-7.958a1.271,1.271,0,0,1,1.272-1.272H51.387a1.271,1.271,0,0,1,1.272,1.272v37.929a1.272,1.272,0,0,1-1.272,1.272H47.469" transform="translate(0 116.106)" fill="none" stroke="#000" stroke-linecap="round" stroke-linejoin="round" stroke-miterlimit="10" stroke-width="2"/>
          </g>
          <g id="g3357" transform="translate(0.803 13.082)">
            <path id="path3359" d="M-609.793,0h-52.659" transform="translate(662.452)" fill="none" stroke="#000" stroke-linecap="round" stroke-linejoin="round" stroke-miterlimit="10" stroke-width="2"/>
          </g>
          <g id="g3361" transform="translate(5.36 9.989)">
            <path id="path3363" d="M0,0H27.861" fill="none" stroke="#000" stroke-linecap="round" stroke-linejoin="round" stroke-miterlimit="10" stroke-width="2"/>
          </g>
          <g id="g3365" transform="translate(48.546 9.989)">
            <path id="path3367" d="M0,0H.359" fill="none" stroke="#000" stroke-linecap="round" stroke-linejoin="round" stroke-miterlimit="10" stroke-width="2"/>
          </g>
          <g id="g3369" transform="translate(45.537 9.989)">
            <path id="path3371" d="M0,0H.359" fill="none" stroke="#000" stroke-linecap="round" stroke-linejoin="round" stroke-miterlimit="10" stroke-width="2"/>
          </g>
          <g id="g3373" transform="translate(42.528 9.989)">
            <path id="path3375" d="M0,0H.36" fill="none" stroke="#000" stroke-linecap="round" stroke-linejoin="round" stroke-miterlimit="10" stroke-width="2"/>
          </g>
          <g id="g3377" transform="translate(15 37.237)">
            <path id="path3379" d="M0,0V5.668" fill="none" stroke="#000" stroke-linecap="round" stroke-linejoin="round" stroke-miterlimit="10" stroke-width="2"/>
          </g>
          <g id="g3381" transform="translate(12.545 38.654)">
            <path id="path3383" d="M0,0,4.909,2.834" fill="none" stroke="#000" stroke-linecap="round" stroke-linejoin="round" stroke-miterlimit="10" stroke-width="2"/>
          </g>
          <g id="g3385" transform="translate(12.545 38.654)">
            <path id="path3387" d="M-56.847,0l-4.909,2.834" transform="translate(61.756)" fill="none" stroke="#000" stroke-linecap="round" stroke-linejoin="round" stroke-miterlimit="10" stroke-width="2"/>
          </g>
          <g id="g3389" transform="translate(23.089 37.237)">
            <path id="path3391" d="M0,0V5.668" fill="none" stroke="#000" stroke-linecap="round" stroke-linejoin="round" stroke-miterlimit="10" stroke-width="2"/>
          </g>
          <g id="g3393" transform="translate(20.634 38.654)">
            <path id="path3395" d="M0,0,4.909,2.834" fill="none" stroke="#000" stroke-linecap="round" stroke-linejoin="round" stroke-miterlimit="10" stroke-width="2"/>
          </g>
          <g id="g3397" transform="translate(20.634 38.654)">
            <path id="path3399" d="M-56.847,0l-4.909,2.834" transform="translate(61.756)" fill="none" stroke="#000" stroke-linecap="round" stroke-linejoin="round" stroke-miterlimit="10" stroke-width="2"/>
          </g>
          <g id="g3401" transform="translate(31.177 37.237)">
            <path id="path3403" d="M0,0V5.668" fill="none" stroke="#000" stroke-linecap="round" stroke-linejoin="round" stroke-miterlimit="10" stroke-width="2"/>
          </g>
          <g id="g3405" transform="translate(28.723 38.654)">
            <path id="path3407" d="M0,0,4.909,2.834" fill="none" stroke="#000" stroke-linecap="round" stroke-linejoin="round" stroke-miterlimit="10" stroke-width="2"/>
          </g>
          <g id="g3409" transform="translate(28.723 38.654)">
            <path id="path3411" d="M-56.847,0l-4.909,2.834" transform="translate(61.756)" fill="none" stroke="#000" stroke-linecap="round" stroke-linejoin="round" stroke-miterlimit="10" stroke-width="2"/>
          </g>
          <g id="g3413" transform="translate(39.266 37.237)">
            <path id="path3415" d="M0,0V5.668" fill="none" stroke="#000" stroke-linecap="round" stroke-linejoin="round" stroke-miterlimit="10" stroke-width="2"/>
          </g>
          <g id="g3417" transform="translate(36.811 38.654)">
            <path id="path3419" d="M0,0,4.909,2.834" fill="none" stroke="#000" stroke-linecap="round" stroke-linejoin="round" stroke-miterlimit="10" stroke-width="2"/>
          </g>
          <g id="g3421" transform="translate(36.811 38.654)">
            <path id="path3423" d="M-56.847,0l-4.909,2.834" transform="translate(61.756)" fill="none" stroke="#000" stroke-linecap="round" stroke-linejoin="round" stroke-miterlimit="10" stroke-width="2"/>
          </g>
          <g id="g3425" transform="translate(18.213 17.546)">
            <path id="path3427" d="M-179.527-170.38h-13.167a.422.422,0,0,1-.326-.152,8.879,8.879,0,0,1-2.01-5.641,8.9,8.9,0,0,1,8.784-8.919,8.92,8.92,0,0,1,9.056,8.919,8.88,8.88,0,0,1-2.01,5.641A.421.421,0,0,1-179.527-170.38Z" transform="translate(195.03 185.094)" fill="none" stroke="#000" stroke-linecap="round" stroke-linejoin="round" stroke-miterlimit="10" stroke-width="2"/>
          </g>
          <g id="g3429" transform="translate(27.866 26.247)">
            <path id="path3431" d="M0,0A3.664,3.664,0,0,1,1.862,1,3.659,3.659,0,0,1,2.937,3.6V6.013" fill="none" stroke="#000" stroke-linecap="round" stroke-linejoin="round" stroke-miterlimit="10" stroke-width="2"/>
          </g>
          <g id="g3433" transform="translate(23.463 26.247)">
            <path id="path3435" d="M0-69.627v-2.415a3.673,3.673,0,0,1,2.937-3.6" transform="translate(0 75.64)" fill="none" stroke="#000" stroke-linecap="round" stroke-linejoin="round" stroke-miterlimit="10" stroke-width="2"/>
          </g>
          <g id="g3437" transform="translate(24.666 21.424)">
            <path id="path3439" d="M-57.145-28.573a2.467,2.467,0,0,1-2.467,2.467,2.467,2.467,0,0,1-2.467-2.467,2.467,2.467,0,0,1,2.467-2.467A2.467,2.467,0,0,1-57.145-28.573Z" transform="translate(62.08 31.04)" fill="none" stroke="#000" stroke-linecap="round" stroke-linejoin="round" stroke-miterlimit="10" stroke-width="2"/>
          </g>
        </g>
      </g>
    </g>
  </g>
</svg>
