<svg xmlns="http://www.w3.org/2000/svg" xmlns:xlink="http://www.w3.org/1999/xlink" width="109.652" height="109.652" viewBox="0 0 109.652 109.652">
  <defs>
    <filter id="Trazado_874925" x="0" y="0" width="109.652" height="109.652" filterUnits="userSpaceOnUse">
      <feOffset dy="3" input="SourceAlpha"/>
      <feGaussianBlur stdDeviation="3" result="blur"/>
      <feFlood flood-opacity="0.161"/>
      <feComposite operator="in" in2="blur"/>
      <feComposite in="SourceGraphic"/>
    </filter>
  </defs>
  <g id="Grupo_1111635" data-name="Grupo 1111635" transform="translate(-1055.174 -1742.91)">
    <g id="Grupo_1111414" data-name="Grupo 1111414" transform="translate(44.443 -1328.09)">
      <g transform="matrix(1, 0, 0, 1, 1010.73, 3071)" filter="url(#Trazado_874925)">
        <g id="Trazado_874925-2" data-name="Trazado 874925" transform="translate(9 6)" fill="#ffd63c">
          <path d="M 45.82614517211914 90.15280151367188 C 39.84149551391602 90.15280151367188 34.03665924072266 88.98104095458984 28.5728702545166 86.67005157470703 C 23.29473304748535 84.43759155273438 18.55415725708008 81.24130249023438 14.48283290863037 77.16998291015625 C 10.41150760650635 73.09866333007812 7.215232849121094 68.35809326171875 4.982757568359375 63.07994079589844 C 2.671770095825195 57.61616897583008 1.500007629394531 51.81131744384766 1.500007629394531 45.82666778564453 C 1.500007629394531 39.84149169921875 2.671770095825195 34.03665542602539 4.982757568359375 28.57286643981934 C 7.215232849121094 23.29472923278809 10.41150760650635 18.55415534973145 14.48283290863037 14.48283004760742 C 18.55415725708008 10.4115047454834 23.29473304748535 7.215229511260986 28.5728702545166 4.982754707336426 C 34.03665924072266 2.671766996383667 39.84149551391602 1.500004529953003 45.82614517211914 1.500004529953003 C 51.81079483032227 1.500004529953003 57.61564636230469 2.671766996383667 63.07942199707031 4.982754707336426 C 68.35756683349609 7.215229511260986 73.09814453125 10.4115047454834 77.16947174072266 14.48283004760742 C 81.24078369140625 18.55415534973145 84.43707275390625 23.29472923278809 86.66954803466797 28.57286643981934 C 88.98052978515625 34.03665542602539 90.15229797363281 39.84149169921875 90.15229797363281 45.82614135742188 C 90.15229797363281 51.81131744384766 88.98052978515625 57.61616897583008 86.66954803466797 63.07994079589844 C 84.43707275390625 68.35809326171875 81.24078369140625 73.09866333007812 77.16947174072266 77.16998291015625 C 73.09814453125 81.24130249023438 68.35756683349609 84.43759155273438 63.07942199707031 86.67005157470703 C 57.61564636230469 88.98104095458984 51.81079483032227 90.15280151367188 45.82614517211914 90.15280151367188 Z" stroke="none"/>
          <path d="M 45.82614517211914 3.000007629394531 C 40.04333114624023 3.000007629394531 34.43508911132812 4.131904602050781 29.15720367431641 6.364265441894531 C 24.05784606933594 8.521102905273438 19.47753143310547 11.60944366455078 15.54348754882812 15.54348754882812 C 11.60944366455078 19.47753143310547 8.521102905273438 24.05784606933594 6.3642578125 29.15720367431641 C 4.131904602050781 34.43508911132812 3 40.0433349609375 3 45.82667541503906 C 3 51.60948944091797 4.131904602050781 57.21773147583008 6.3642578125 62.49562072753906 C 8.521102905273438 67.59497833251953 11.60944366455078 72.17527770996094 15.54348754882812 76.10932922363281 C 19.47753143310547 80.04337310791016 24.05784606933594 83.13170623779297 29.15718841552734 85.28854370117188 C 34.43508911132812 87.52090454101562 40.04333114624023 88.65280151367188 45.82614517211914 88.65280151367188 C 51.60895919799805 88.65280151367188 57.21720123291016 87.52090454101562 62.49510192871094 85.28854370117188 C 67.59444427490234 83.13170623779297 72.17475891113281 80.04337310791016 76.10880279541016 76.10932922363281 C 80.0428466796875 72.17527770996094 83.13118743896484 67.59497833251953 85.28803253173828 62.49562072753906 C 87.5203857421875 57.21773147583008 88.65229034423828 51.60948944091797 88.65229034423828 45.82614898681641 C 88.65229034423828 40.0433349609375 87.5203857421875 34.43508911132812 85.28803253173828 29.15720367431641 C 83.13118743896484 24.05784606933594 80.0428466796875 19.47753143310547 76.10880279541016 15.54348754882812 C 72.17475891113281 11.60944366455078 67.59444427490234 8.521102905273438 62.49508666992188 6.364265441894531 C 57.21720123291016 4.131904602050781 51.60895919799805 3.000007629394531 45.82614517211914 3.000007629394531 M 45.82614517211914 7.62939453125e-06 C 71.13523101806641 7.62939453125e-06 91.65229034423828 20.51705932617188 91.65229034423828 45.82614898681641 L 91.65229034423828 45.82667541503906 C 91.65229034423828 71.13575744628906 71.13523101806641 91.65280151367188 45.82614517211914 91.65280151367188 C 20.51705932617188 91.65280151367188 0 71.13575744628906 0 45.82667541503906 L 0 45.82614898681641 C 0 20.51705932617188 20.51705932617188 7.62939453125e-06 45.82614517211914 7.62939453125e-06 Z" stroke="none" fill="#fff"/>
        </g>
      </g>
    </g>
    <g id="_4-washings_hands" data-name="4-washings hands" transform="translate(1081.292 1768.065)">
      <path id="Trazado_901757" data-name="Trazado 901757" d="M40,13H50.384v3.461H40Z" transform="translate(-5.388 -1.751)" fill="#808285"/>
      <path id="Trazado_901758" data-name="Trazado 901758" d="M48.922,11.384V6.192H61.037V1H42V11.384Z" transform="translate(-5.657 -0.135)" fill="#d1d3d4"/>
      <path id="Trazado_901759" data-name="Trazado 901759" d="M48,5v6.922h1.731V6.731H61.845V5Z" transform="translate(-6.465 -0.673)" fill="#808285"/>
      <path id="Trazado_901760" data-name="Trazado 901760" d="M48.192,25.325a2.6,2.6,0,0,1-5.192,0C43,23.891,45.6,21,45.6,21S48.192,23.891,48.192,25.325Z" transform="translate(-5.792 -2.828)" fill="#6ee1ef"/>
      <g id="Grupo_1112177" data-name="Grupo 1112177" transform="translate(17.306 12.114)">
        <circle id="Elipse_11918" data-name="Elipse 11918" cx="1.731" cy="1.731" r="1.731" transform="translate(0 4.327)" fill="#f1f2f2"/>
        <circle id="Elipse_11919" data-name="Elipse 11919" cx="2.596" cy="2.596" r="2.596" transform="translate(7.788)" fill="#f1f2f2"/>
        <circle id="Elipse_11920" data-name="Elipse 11920" cx="2.596" cy="2.596" r="2.596" transform="translate(27.69 32.882)" fill="#f1f2f2"/>
      </g>
      <path id="Trazado_901761" data-name="Trazado 901761" d="M33.436,47.329c-.865,1.5-3.115.2-3.115.2l-2.1-1.211c.476.312,1.973,1.436,1.237,2.708-.865,1.5-3.115.2-3.115.2l-4.353-2.509c.476.312,1.982,1.436,1.246,2.717-.865,1.5-3.115.2-3.115.2l-9.743-5.625-2.769-5.6L0,34.513V19L13.663,27.92l7.848-1.471L30.5,31.64s-2.483,2.57-3.98,1.7l-2.994-1.731A1.729,1.729,0,1,0,21.8,34.609l9.735,5.624s2.25,1.3,1.384,2.795c-.753,1.307-2.561.485-3.011.26l2.146,1.237s2.25,1.3,1.384,2.8Z" transform="translate(0 -2.559)" fill="#efb175"/>
      <path id="Trazado_901762" data-name="Trazado 901762" d="M41.5,35.921a5.2,5.2,0,0,0-.869.078c0-.026,0-.052,0-.078a6.918,6.918,0,0,0-12.909-3.465,5.933,5.933,0,0,0-3.1-.861A5.421,5.421,0,0,0,19,36.786a5.218,5.218,0,0,0,3.585,4.834,6.058,6.058,0,0,0,5.174,7.227,3.439,3.439,0,0,0,5.934,1.475,5.173,5.173,0,0,0,6.875-4.106,5.19,5.19,0,1,0,.93-10.3Z" transform="translate(-2.559 -3.906)" fill="#f1f2f2"/>
      <path id="Trazado_901763" data-name="Trazado 901763" d="M33.436,55.329c-.865,1.5-3.115.2-3.115.2l-2.1-1.211c.476.312,1.973,1.436,1.237,2.708-.865,1.5-3.115.2-3.115.2l-4.353-2.509c.476.312,1.982,1.436,1.246,2.717-.865,1.5-3.115.2-3.115.2l-9.743-5.625-2.769-5.6L0,41.709V27L13.663,35.92l7.848-1.471L30.5,39.64s-2.483,2.57-3.98,1.7l-2.994-1.731A1.729,1.729,0,1,0,21.8,42.609l9.735,5.624s2.25,1.3,1.384,2.795c-.753,1.307-2.561.485-3.011.26l2.146,1.237s2.25,1.3,1.384,2.8Z" transform="translate(0 -3.636)" fill="#ffd285"/>
      <path id="Trazado_901764" data-name="Trazado 901764" d="M33.032,52.156a2.249,2.249,0,0,0,.637-.688c1.027-1.778-.663-3.381-1.7-3.979l-9.742-5.625a.856.856,0,0,1-.383-.54.888.888,0,0,1,.066-.642.924.924,0,0,1,1.182-.316l3,1.731c1.981,1.143,4.54-1.338,5.034-1.848a.866.866,0,0,0-.189-1.351l-8.993-5.192a.864.864,0,0,0-.592-.1L13.841,35.01,1.326,27.136A.865.865,0,0,0,.405,28.6l12.8,8.055a.874.874,0,0,0,.619.118l7.528-1.409,7.673,4.43c-.773.587-1.656,1.041-2.071.8l-3-1.731a2.664,2.664,0,0,0-3.547.95,2.619,2.619,0,0,0-.246,1.926,2.555,2.555,0,0,0,1.2,1.62L31.1,48.987c.015.008,1.473.909,1.066,1.615s-1.918-.109-1.931-.116l-3.148-1.817-1.349-.779h0l-.749-.433a.865.865,0,1,0-.865,1.5l4.6,2.657,2.889,1.668c.015.009,1.477.908,1.068,1.616s-1.918-.109-1.931-.116l-2.244-1.3,0,0-3.148-1.817-1.349-.779h0l-.749-.433a.865.865,0,0,0-.865,1.5l2.1,1.211,3.15,1.819c.029.017,1.468.911,1.063,1.613s-1.918-.109-1.931-.116l-8.243-4.759a.865.865,0,1,0-.865,1.5l3.747,2.163c.03.018,1.472.91,1.065,1.614s-1.918-.109-1.931-.116l-9.516-5.493L8.386,46.03a.871.871,0,0,0-.343-.366L1.3,41.771a.865.865,0,1,0-.865,1.5l6.518,3.763L9.6,52.391a.871.871,0,0,0,.343.366l9.742,5.625a5.455,5.455,0,0,0,1.491.56,3.551,3.551,0,0,0,.713.076,2.324,2.324,0,0,0,2.382-1.984l1.641.947a5.456,5.456,0,0,0,1.491.56,3.552,3.552,0,0,0,.713.076,2.328,2.328,0,0,0,2.391-2.044,5.1,5.1,0,0,0,.874.268,3.552,3.552,0,0,0,.713.076,2.3,2.3,0,0,0,2.091-1.153c.859-1.488-.184-2.85-1.154-3.607Z" transform="translate(0 -3.637)"/>
      <path id="Trazado_901765" data-name="Trazado 901765" d="M.405,20.6l12.8,8.055a.868.868,0,0,0,.619.118l7.527-1.409L23.8,28.772a.865.865,0,0,0,.865-1.5l-2.72-1.57a.867.867,0,0,0-.592-.1l-7.509,1.405L1.326,19.133A.865.865,0,0,0,.405,20.6Z" transform="translate(0 -2.559)"/>
      <path id="Trazado_901766" data-name="Trazado 901766" d="M41.767,34.922H41.72a7.784,7.784,0,0,0-13.886-3.91,7.853,7.853,0,0,0-6.4.625.866.866,0,1,0,.867,1.5,6.1,6.1,0,0,1,5.5-.28.868.868,0,0,0,1.083-.324,6.051,6.051,0,0,1,11.155,3.306.865.865,0,0,0,1.01.881,4.278,4.278,0,0,1,.724-.066,4.327,4.327,0,1,1-.887,8.561.866.866,0,0,0-1.018.645,6.031,6.031,0,0,1-1.883,3.125.865.865,0,1,0,1.146,1.3,7.759,7.759,0,0,0,2.2-3.261,6.057,6.057,0,1,0,.445-12.1Z" transform="translate(-2.828 -3.771)"/>
      <path id="Trazado_901767" data-name="Trazado 901767" d="M59.767,5.192H48.518a.865.865,0,0,0-.865.865v4.327H42.461V1.731H59.767a.865.865,0,0,0,0-1.731H41.6a.865.865,0,0,0-.865.865v9.518h-.865a.865.865,0,0,0-.865.865V14.71a.865.865,0,0,0,.865.865H50.249a.865.865,0,0,0,.865-.865V11.249a.865.865,0,0,0-.865-.865h-.865V6.922H59.767a.865.865,0,0,0,0-1.731ZM49.384,13.845H40.731V12.114h8.653Z" transform="translate(-5.253)"/>
      <path id="Trazado_901768" data-name="Trazado 901768" d="M45.461,28.655a3.465,3.465,0,0,0,3.461-3.461c0-1.68-2.347-4.38-2.817-4.9a.893.893,0,0,0-1.288,0c-.471.524-2.817,3.225-2.817,4.9A3.465,3.465,0,0,0,45.461,28.655Zm0-6.448a7.886,7.886,0,0,1,1.731,2.986,1.731,1.731,0,0,1-3.461,0A7.759,7.759,0,0,1,45.461,22.208Z" transform="translate(-5.657 -2.696)"/>
      <path id="Trazado_901769" data-name="Trazado 901769" d="M21.6,23.192A2.6,2.6,0,1,0,19,20.6a2.6,2.6,0,0,0,2.6,2.6Zm0-3.461a.865.865,0,1,1-.865.865.865.865,0,0,1,.865-.865Z" transform="translate(-2.559 -2.424)"/>
      <path id="Trazado_901770" data-name="Trazado 901770" d="M31.461,19.922A3.461,3.461,0,1,0,28,16.461a3.461,3.461,0,0,0,3.461,3.461Zm0-5.192a1.731,1.731,0,1,1-1.731,1.731A1.731,1.731,0,0,1,31.461,14.731Z" transform="translate(-3.771 -1.751)"/>
      <path id="Trazado_901771" data-name="Trazado 901771" d="M54.461,51a3.461,3.461,0,1,0,3.461,3.461A3.461,3.461,0,0,0,54.461,51Zm0,5.192a1.731,1.731,0,1,1,1.731-1.731A1.731,1.731,0,0,1,54.461,56.192Z" transform="translate(-6.869 -6.869)"/>
    </g>
  </g>
</svg>
