<svg xmlns="http://www.w3.org/2000/svg" xmlns:xlink="http://www.w3.org/1999/xlink" width="109.652" height="109.652" viewBox="0 0 109.652 109.652">
  <defs>
    <filter id="Trazado_874925" x="0" y="0" width="109.652" height="109.652" filterUnits="userSpaceOnUse">
      <feOffset dy="3" input="SourceAlpha"/>
      <feGaussianBlur stdDeviation="3" result="blur"/>
      <feFlood flood-opacity="0.161"/>
      <feComposite operator="in" in2="blur"/>
      <feComposite in="SourceGraphic"/>
    </filter>
  </defs>
  <g id="Grupo_1111537" data-name="Grupo 1111537" transform="translate(-645 -1298)">
    <g id="Grupo_1111388" data-name="Grupo 1111388" transform="translate(-365.73 -1773)">
      <g transform="matrix(1, 0, 0, 1, 1010.73, 3071)" filter="url(#Trazado_874925)">
        <g id="Trazado_874925-2" data-name="Trazado 874925" transform="translate(9 6)" fill="#ffd63c">
          <path d="M 45.82614517211914 90.15280151367188 C 39.84149551391602 90.15280151367188 34.03665924072266 88.98104095458984 28.5728702545166 86.67005157470703 C 23.29473304748535 84.43759155273438 18.55415725708008 81.24130249023438 14.48283290863037 77.16998291015625 C 10.41150760650635 73.09866333007812 7.215232849121094 68.35809326171875 4.982757568359375 63.07994079589844 C 2.671770095825195 57.61616897583008 1.500007629394531 51.81131744384766 1.500007629394531 45.82666778564453 C 1.500007629394531 39.84149169921875 2.671770095825195 34.03665542602539 4.982757568359375 28.57286643981934 C 7.215232849121094 23.29472923278809 10.41150760650635 18.55415534973145 14.48283290863037 14.48283004760742 C 18.55415725708008 10.4115047454834 23.29473304748535 7.215229511260986 28.5728702545166 4.982754707336426 C 34.03665924072266 2.671766996383667 39.84149551391602 1.500004529953003 45.82614517211914 1.500004529953003 C 51.81079483032227 1.500004529953003 57.61564636230469 2.671766996383667 63.07942199707031 4.982754707336426 C 68.35756683349609 7.215229511260986 73.09814453125 10.4115047454834 77.16947174072266 14.48283004760742 C 81.24078369140625 18.55415534973145 84.43707275390625 23.29472923278809 86.66954803466797 28.57286643981934 C 88.98052978515625 34.03665542602539 90.15229797363281 39.84149169921875 90.15229797363281 45.82614135742188 C 90.15229797363281 51.81131744384766 88.98052978515625 57.61616897583008 86.66954803466797 63.07994079589844 C 84.43707275390625 68.35809326171875 81.24078369140625 73.09866333007812 77.16947174072266 77.16998291015625 C 73.09814453125 81.24130249023438 68.35756683349609 84.43759155273438 63.07942199707031 86.67005157470703 C 57.61564636230469 88.98104095458984 51.81079483032227 90.15280151367188 45.82614517211914 90.15280151367188 Z" stroke="none"/>
          <path d="M 45.82614517211914 3.000007629394531 C 40.04333114624023 3.000007629394531 34.43508911132812 4.131904602050781 29.15720367431641 6.364265441894531 C 24.05784606933594 8.521102905273438 19.47753143310547 11.60944366455078 15.54348754882812 15.54348754882812 C 11.60944366455078 19.47753143310547 8.521102905273438 24.05784606933594 6.3642578125 29.15720367431641 C 4.131904602050781 34.43508911132812 3 40.0433349609375 3 45.82667541503906 C 3 51.60948944091797 4.131904602050781 57.21773147583008 6.3642578125 62.49562072753906 C 8.521102905273438 67.59497833251953 11.60944366455078 72.17527770996094 15.54348754882812 76.10932922363281 C 19.47753143310547 80.04337310791016 24.05784606933594 83.13170623779297 29.15718841552734 85.28854370117188 C 34.43508911132812 87.52090454101562 40.04333114624023 88.65280151367188 45.82614517211914 88.65280151367188 C 51.60895919799805 88.65280151367188 57.21720123291016 87.52090454101562 62.49510192871094 85.28854370117188 C 67.59444427490234 83.13170623779297 72.17475891113281 80.04337310791016 76.10880279541016 76.10932922363281 C 80.0428466796875 72.17527770996094 83.13118743896484 67.59497833251953 85.28803253173828 62.49562072753906 C 87.5203857421875 57.21773147583008 88.65229034423828 51.60948944091797 88.65229034423828 45.82614898681641 C 88.65229034423828 40.0433349609375 87.5203857421875 34.43508911132812 85.28803253173828 29.15720367431641 C 83.13118743896484 24.05784606933594 80.0428466796875 19.47753143310547 76.10880279541016 15.54348754882812 C 72.17475891113281 11.60944366455078 67.59444427490234 8.521102905273438 62.49508666992188 6.364265441894531 C 57.21720123291016 4.131904602050781 51.60895919799805 3.000007629394531 45.82614517211914 3.000007629394531 M 45.82614517211914 7.62939453125e-06 C 71.13523101806641 7.62939453125e-06 91.65229034423828 20.51705932617188 91.65229034423828 45.82614898681641 L 91.65229034423828 45.82667541503906 C 91.65229034423828 71.13575744628906 71.13523101806641 91.65280151367188 45.82614517211914 91.65280151367188 C 20.51705932617188 91.65280151367188 0 71.13575744628906 0 45.82667541503906 L 0 45.82614898681641 C 0 20.51705932617188 20.51705932617188 7.62939453125e-06 45.82614517211914 7.62939453125e-06 Z" stroke="none" fill="#fff"/>
        </g>
      </g>
    </g>
    <g id="vaca-orde" transform="translate(675 1325)">
      <path id="Trazado_900444" data-name="Trazado 900444" d="M277.337,395.035v1.037a2.343,2.343,0,0,1-.03.382,2.438,2.438,0,0,1-4.815,0,2.343,2.343,0,0,1-.03-.382v-1.037Zm0,0" transform="translate(-245.822 -356.412)" fill="#e3f4ff"/>
      <path id="Trazado_900445" data-name="Trazado 900445" d="M277.337,395.035v1.037a2.343,2.343,0,0,1-.03.382h-4.815a2.343,2.343,0,0,1-.03-.382v-1.037Zm0,0" transform="translate(-245.822 -356.412)" fill="#bddff4"/>
      <path id="Trazado_900446" data-name="Trazado 900446" d="M57.535,83.555h2.347v41.029H57.535Zm0,0" transform="translate(-51.91 -75.385)" fill="#e3f4ff"/>
      <path id="Trazado_900447" data-name="Trazado 900447" d="M430.465,83.555h2.346v41.029h-2.346Zm0,0" transform="translate(-388.378 -75.385)" fill="#e3f4ff"/>
      <path id="Trazado_900448" data-name="Trazado 900448" d="M231.228,258.813v18.869a1.94,1.94,0,0,1-3.881,0v-6.811a.977.977,0,0,0-.978-.978h-6.414a.977.977,0,0,0-.978.978v6.811a1.94,1.94,0,0,1-3.881,0V258.813a2.745,2.745,0,0,1,.472-1.543h0a2.748,2.748,0,0,1,2.281-1.211h10.622a2.753,2.753,0,0,1,2.754,2.754Zm0,0" transform="translate(-194.067 -231.023)" fill="#ffeee1"/>
      <path id="Trazado_900449" data-name="Trazado 900449" d="M235.12,257.267a3.286,3.286,0,0,1-1.059.312v4.208a6.492,6.492,0,0,1-.387,2.217,6.587,6.587,0,0,1-1.525,2.4A6.531,6.531,0,0,1,221,261.787v-4.208a3.314,3.314,0,0,1-1.06-.309,2.748,2.748,0,0,1,2.281-1.211H232.84A2.752,2.752,0,0,1,235.12,257.267Zm0,0" transform="translate(-198.434 -231.023)" fill="#fecbaa"/>
      <path id="Trazado_900450" data-name="Trazado 900450" d="M344.263,428.059v4.806a1.94,1.94,0,0,1-3.881,0v-4.806Zm0,0" transform="translate(-307.103 -386.207)" fill="#618baa"/>
      <path id="Trazado_900451" data-name="Trazado 900451" d="M217.391,366.356a2.3,2.3,0,0,1-2.3,2.3v-4.6A2.3,2.3,0,0,1,217.391,366.356Zm0,0" transform="translate(-194.064 -328.464)" fill="#618baa"/>
      <path id="Trazado_900452" data-name="Trazado 900452" d="M229.27,210.3a2.166,2.166,0,0,1-2.167,2.167h-.777v5.358a5.359,5.359,0,1,1-10.718,0v-5.358h-.777a2.167,2.167,0,0,1-2.167-2.167.959.959,0,0,1,.959-.959h.818a2.041,2.041,0,0,0,1.76-1,2.043,2.043,0,0,1,1.76-1h6.011a2.043,2.043,0,0,1,1.76,1,2.044,2.044,0,0,0,1.76,1h.818a.958.958,0,0,1,.959.959Zm0,0" transform="translate(-191.872 -187.057)" fill="#ffeee1"/>
      <path id="Trazado_900453" data-name="Trazado 900453" d="M300.265,265.206h2.679v-5.359h-2.679a2.679,2.679,0,0,0,0,5.359Zm0,0" transform="translate(-268.491 -234.442)" fill="#618baa"/>
      <path id="Trazado_900454" data-name="Trazado 900454" d="M256.1,333.25a5.361,5.361,0,0,1-10.084,0Zm0,0" transform="translate(-221.962 -300.668)" fill="#ffae85"/>
      <path id="Trazado_900455" data-name="Trazado 900455" d="M71.635,47.483H29.012a.977.977,0,0,1-.977-.977V43.574H72.612v2.932A.977.977,0,0,1,71.635,47.483Zm0,0" transform="translate(-25.294 -39.314)" fill="#64bdff"/>
      <path id="Trazado_900456" data-name="Trazado 900456" d="M55.114,12.057H8.479a.977.977,0,0,1-.9-1.37l1.14-2.6a.977.977,0,0,1,.9-.585H53.974a.977.977,0,0,1,.9.585l1.14,2.6A.977.977,0,0,1,55.114,12.057Zm0,0" transform="translate(-6.767 -6.767)" fill="#e3f4ff"/>
      <path id="Trazado_900457" data-name="Trazado 900457" d="M104.875,348.93h-2.034a.806.806,0,0,1-.806-.806v-2.081h3.646v2.081A.806.806,0,0,1,104.875,348.93Zm0,0" transform="translate(-92.059 -312.21)" fill="#64bdff"/>
      <path id="Trazado_900458" data-name="Trazado 900458" d="M110.178,179.192h-2.592v-1.706a.54.54,0,0,1,.54-.54h1.512a.54.54,0,0,1,.54.54Zm0,0" transform="translate(-97.067 -159.645)" fill="#bddff4"/>
      <path id="Trazado_900459" data-name="Trazado 900459" d="M69.54,202.1v10.2a2.168,2.168,0,0,1-2.168,2.168H59.707a2.169,2.169,0,0,1-2.168-2.168V202.1a2.144,2.144,0,0,1,.051-.466,2.166,2.166,0,0,1,2.117-1.7h7.665A2.168,2.168,0,0,1,69.54,202.1Zm0,0" transform="translate(-51.913 -180.382)" fill="#bddff4"/>
      <path id="Trazado_900460" data-name="Trazado 900460" d="M62.473,219.491v6.831a2.154,2.154,0,0,1-2.151,2.151H57.59a2.152,2.152,0,0,1-.051-.466v-10.2a2.144,2.144,0,0,1,.051-.466h2.732A2.154,2.154,0,0,1,62.473,219.491Zm0,0" transform="translate(-51.913 -196.09)" fill="#9cc6db"/>
      <path id="Trazado_900461" data-name="Trazado 900461" d="M142.148,202.094v10.2a2.168,2.168,0,0,1-2.167,2.167h-1.965a2.168,2.168,0,0,0,2.168-2.167v-10.2a2.168,2.168,0,0,0-2.168-2.168h1.965A2.168,2.168,0,0,1,142.148,202.094Zm0,0" transform="translate(-124.522 -180.379)" fill="#9cc6db"/>
      <path id="Trazado_900462" data-name="Trazado 900462" d="M69.54,240.7v8.384a2.168,2.168,0,0,1-2.168,2.168H59.707a2.167,2.167,0,0,1-2.117-1.7c-.008-.037-.016-.075-.021-.113s-.012-.074-.016-.113v0c0-.024,0-.048-.006-.072s0-.034,0-.052c0-.037,0-.074,0-.112V240.7Zm0,0" transform="translate(-51.913 -217.166)" fill="#ffeee1"/>
      <g id="Grupo_1111536" data-name="Grupo 1111536" transform="translate(0.733 10.871)">
        <path id="Trazado_900463" data-name="Trazado 900463" d="M62.473,240.7v6.7a2.154,2.154,0,0,1-2.151,2.151H57.59c-.008-.037-.016-.075-.021-.113s-.012-.074-.016-.113v0c0-.024,0-.048-.006-.072s0-.034,0-.052c0-.037,0-.074,0-.112V240.7Zm0,0" transform="translate(-52.647 -228.037)" fill="#fedfc5"/>
        <path id="Trazado_900464" data-name="Trazado 900464" d="M142.148,240.7v8.384a2.167,2.167,0,0,1-2.167,2.167h-1.965a2.168,2.168,0,0,0,2.168-2.167V240.7Zm0,0" transform="translate(-125.255 -228.037)" fill="#fedfc5"/>
        <path id="Trazado_900465" data-name="Trazado 900465" d="M7.5,111.191H56.093v2.253H7.5Zm0,0" transform="translate(-7.5 -111.191)" fill="#fedfc5"/>
      </g>
      <path id="Trazado_900466" data-name="Trazado 900466" d="M44.5,238.127H41.389A1.389,1.389,0,0,1,40,236.737v-6.008a1.389,1.389,0,0,1,1.389-1.389H44.5a.978.978,0,0,1,.978.978v6.831A.978.978,0,0,1,44.5,238.127Zm0,0" transform="translate(-36.089 -206.917)" fill="#64bdff"/>
      <path id="Trazado_900467" data-name="Trazado 900467" d="M322.319,274.895a.733.733,0,0,0-.733.733v.587a.733.733,0,1,0,1.467,0v-.587A.733.733,0,0,0,322.319,274.895Zm0,0" transform="translate(-290.144 -248.018)"/>
      <path id="Trazado_900468" data-name="Trazado 900468" d="M259.319,276.948a.733.733,0,0,0,.733-.733v-.587a.733.733,0,1,0-1.467,0v.587A.733.733,0,0,0,259.319,276.948Zm0,0" transform="translate(-233.304 -248.018)"/>
      <path id="Trazado_900469" data-name="Trazado 900469" d="M.733,10.138a.733.733,0,1,0,0,1.467H49.326a.733.733,0,0,0,0-1.467H45.167V8.9h1.174a1.713,1.713,0,0,0,1.711-1.711V6.023h.3a1.711,1.711,0,0,0,1.567-2.4l-1.14-2.6A1.711,1.711,0,0,0,47.207,0H2.852A1.711,1.711,0,0,0,1.285,1.024l-1.14,2.6a1.711,1.711,0,0,0,1.567,2.4h.3V7.192A1.712,1.712,0,0,0,3.718,8.9H4.892v1.236Zm42.087,0V8.9h.88v1.236ZM1.507,4.446a.238.238,0,0,1-.019-.231l1.14-2.6a.244.244,0,0,1,.224-.146H47.207a.244.244,0,0,1,.224.146l1.14,2.6a.245.245,0,0,1-.224.342H1.712a.238.238,0,0,1-.2-.111ZM3.474,7.192V6.023h43.11V7.192a.244.244,0,0,1-.244.244H3.718A.244.244,0,0,1,3.474,7.192ZM41.354,8.9v1.236H8.705V8.9Zm-35,0h.88v1.236h-.88Zm0,0"/>
      <path id="Trazado_900470" data-name="Trazado 900470" d="M49.326,126.73H.733a.733.733,0,1,0,0,1.467H4.892v7.872a2.126,2.126,0,0,0-1.714,2.083v6.008a2.126,2.126,0,0,0,1.714,2.083v17.294a.733.733,0,0,0,.733.733H7.972a.733.733,0,0,0,.733-.733v-2.714a.733.733,0,0,0-1.467,0V162.8h-.88V148.777a2.874,2.874,0,0,0,.88.327v8.378a.733.733,0,1,0,1.467,0v-8.324h.538v1.1a1.541,1.541,0,0,0,1.539,1.539h.3v4.84a2.98,2.98,0,0,0,2.976,2.976H20.3V161a2.673,2.673,0,0,0,5.347,0V159.61h1.209a2.981,2.981,0,0,0,2.942-2.521A3.176,3.176,0,0,0,32.249,154v-.057H32.3a.245.245,0,0,1,.244.244v2s0,0,0,.007,0,0,0,.007V161a2.673,2.673,0,0,0,5.346,0v-4.8s0-.005,0-.008,0-.006,0-.008v-4.355a.733.733,0,0,0-1.467,0v3.63H34.014v-1.271a1.713,1.713,0,0,0-1.711-1.711H25.888a1.713,1.713,0,0,0-1.711,1.711V161a1.206,1.206,0,0,1-2.413,0v-5.824a3.031,3.031,0,0,0,0-5.882v-7.163a2.03,2.03,0,0,1,.88-1.668,2.861,2.861,0,0,0,.315.018H23V145.1a6.066,6.066,0,0,0,.344,2.015.786.786,0,0,0,.033.094,6.092,6.092,0,0,0,11.43,0,.672.672,0,0,0,.033-.094,6.056,6.056,0,0,0,.344-2.015v-4.625h.045a2.861,2.861,0,0,0,.315-.018,2.03,2.03,0,0,1,.88,1.668v6.358a.733.733,0,0,0,1.467,0v-6.358a3.5,3.5,0,0,0-.855-2.285,2.894,2.894,0,0,0,1.093-2.266,1.7,1.7,0,0,0-1.693-1.693h-.818a1.315,1.315,0,0,1-1.128-.644,2.789,2.789,0,0,0-2.391-1.365H26.09a2.789,2.789,0,0,0-2.391,1.365,1.315,1.315,0,0,1-1.128.644h-.819a1.694,1.694,0,0,0-1.692,1.693,2.9,2.9,0,0,0,1.093,2.266,3.5,3.5,0,0,0-.854,2.285v7.8s0,.006,0,.008,0,.006,0,.008v4.578s0,.006,0,.008,0,.006,0,.008v3.606h-6.24a1.511,1.511,0,0,1-1.509-1.51v-4.84h.268a1.541,1.541,0,0,0,1.539-1.539v-1.1h1.1a2.9,2.9,0,0,0,2.9-2.9v-10.2a2.9,2.9,0,0,0-2.9-2.9H13.844v-.974a1.273,1.273,0,0,0-.582-1.068,1.166,1.166,0,0,1,1.038-.638h5.891A2.636,2.636,0,0,0,22.8,128.2H41.354v4.94a.733.733,0,1,0,1.467,0V128.2h.88V162.8h-.88V136.479a.733.733,0,0,0-1.467,0v27.059a.733.733,0,0,0,.733.733h2.347a.733.733,0,0,0,.733-.733V128.2h4.159a.733.733,0,1,0,0-1.467Zm-12.9,30.195V161a1.207,1.207,0,0,1-2.413,0v-4.073ZM30.782,154a1.7,1.7,0,1,1-3.409,0v-.057h3.409Zm-4.894-.057h.018V154a3.177,3.177,0,0,0,2.391,3.074,1.511,1.511,0,0,1-1.444,1.069H25.644v-3.956A.245.245,0,0,1,25.888,153.943Zm3.207-4.214a4.624,4.624,0,0,1-3.855-2.074h7.711A4.624,4.624,0,0,1,29.1,149.729Zm2.679-5.358a1.946,1.946,0,0,1,0-3.892h1.946v3.892Zm-10.023-7.018h.818a2.788,2.788,0,0,0,2.391-1.365,1.315,1.315,0,0,1,1.129-.644H32.1a1.315,1.315,0,0,1,1.128.644,2.788,2.788,0,0,0,2.391,1.365h.818a.226.226,0,0,1,.226.226,1.435,1.435,0,0,1-1.433,1.433H31.775a3.412,3.412,0,0,0,0,6.825h1.887c-.019.119-.043.236-.071.352H24.6a4.619,4.619,0,0,1-.13-1.085v-5.358a.733.733,0,0,0-.733-.733h-.778a1.435,1.435,0,0,1-1.433-1.433A.226.226,0,0,1,21.752,137.353Zm.843,14.879a1.557,1.557,0,0,1-.457,1.106,1.583,1.583,0,0,1-.374.277v-2.763A1.565,1.565,0,0,1,22.594,152.232ZM10.326,131.141a1.271,1.271,0,0,0-.54,1.039v.974H8.705V128.2h1.62ZM7.239,128.2v5.01a2.884,2.884,0,0,0-.88.327V128.2ZM4.644,144.16v-6.008A.656.656,0,0,1,5.3,137.5H8.408a.245.245,0,0,1,.244.244v6.831a.245.245,0,0,1-.244.244H5.3A.656.656,0,0,1,4.644,144.16Zm8.245,6.094a.073.073,0,0,1-.073.073H10.782a.073.073,0,0,1-.073-.073v-1.1h2.18v1.1Zm2.57-2.563H7.793a1.435,1.435,0,0,1-1.433-1.409H8.408a1.713,1.713,0,0,0,1.711-1.711v-5.965h6.774v7.651A1.436,1.436,0,0,1,15.459,147.692Zm1.434-11.637v1.085H10.009a1.713,1.713,0,0,0-1.6-1.111H6.36a1.435,1.435,0,0,1,1.433-1.409h7.666A1.436,1.436,0,0,1,16.893,136.055Zm-5.641-2.9v-.78h1.126v.78Zm8.939-4.146H14.3a2.637,2.637,0,0,0-2.508,1.835V128.2H21.3A1.167,1.167,0,0,1,20.191,129.008Zm0,0" transform="translate(0 -114.34)"/>
    </g>
  </g>
</svg>
