<svg xmlns="http://www.w3.org/2000/svg" width="66.152" height="54.366" viewBox="0 0 66.152 54.366">
  <g id="Group_1111352" data-name="Group 1111352" transform="translate(0 -45.609)">
    <g id="Group_1110018" data-name="Group 1110018" transform="translate(0.969 46.579)">
      <path id="Path_899767" data-name="Path 899767" d="M371.425,112.389c3.98,0,8.233-2.022,9.859-4.908a9.745,9.745,0,0,0,.875-4.065,3.723,3.723,0,0,0-3.908-4c-4.6,0-11.168,2.939-14.244,4.453l2.105,8.162A24.176,24.176,0,0,0,371.425,112.389Z" transform="translate(-317.944 -93.437)" fill="#c38778"/>
      <path id="Path_899768" data-name="Path 899768" d="M24.079,112.344a35.359,35.359,0,0,0,9.045-1.376l1.412-6.217H33.124s-9.76-5.332-15.959-5.332a4.591,4.591,0,0,0-1.188.15A5.073,5.073,0,0,0,14.11,103.4C14.11,108.106,17.907,112.344,24.079,112.344Z" transform="translate(-13.256 -93.436)" fill="#c38778"/>
      <path id="Path_899769" data-name="Path 899769" d="M60.98,112.5a24.168,24.168,0,0,1-5.313-.355s-.879-3.582-2.105-7.257c-1.067.525-1.715.879-1.715.879H28.779l-2.389,5.991a53.247,53.247,0,0,1-8.156.742c-5.445,0-8.8-3.824-8.8-8.069a7.973,7.973,0,0,1,.783-3.845A3.7,3.7,0,0,0,7.5,104.429c0,5.623,4.6,10.007,10.734,10.007a35.988,35.988,0,0,0,6.864-.613H54.117a35.99,35.99,0,0,0,6.864.613,10.563,10.563,0,0,0,9.859-5.942C68.7,111.048,64.961,112.5,60.98,112.5Z" transform="translate(-7.5 -94.451)" fill="#8c5e5e"/>
      <path id="Path_899770" data-name="Path 899770" d="M163.723,140.685H141.182s-5.206,13.109-5.206,20.151c0,6.3,5.368,11.287,5.368,11.287l2.584,4.579c.382,3.04,2.093,3.933,3.948,3.933h8.172c1.459,0,2.49-1.15,3.167-1.536a6.481,6.481,0,0,0,.43-1.177l.086-6.053,3.948-.721a15.725,15.725,0,0,0,4.346-10.312c0-7.042-4.3-20.151-4.3-20.151Z" transform="translate(-119.376 -129.371)" fill="#c38778"/>
      <path id="Path_899771" data-name="Path 899771" d="M156.713,171.148c-.721-2.368-1.9-5.125-2.738-5.968a34.6,34.6,0,0,1-2.739-13.242c0-6.34,1.446-8.985,1.446-8.985H148.43l-13.148,28.394s-5.368-4.209-5.368-10.511c0-7.042,4.3-20.151,4.3-20.151h-1.938s-4.3,13.109-4.3,20.151,5.758,11.688,5.758,11.688l2.622,5.4s.888,3.876,4.148,3.876h8.028a4.177,4.177,0,0,0,3.718-2.7,6.29,6.29,0,0,1-3.167.761H140.91c-1.855,0-2.662-.894-3.044-3.933,0,0,11.7-.674,16.82-2.137l.615-1.266a14.246,14.246,0,0,0,1.412-1.376Z" transform="translate(-112.41 -129.371)" fill="#8c5e5e"/>
      <path id="Path_899772" data-name="Path 899772" d="M115.176,54a1.429,1.429,0,0,0-1.128-.8c-3,5.19.046,9.7,5.708,9.7l1.556-3.949A9.079,9.079,0,0,1,115.176,54Z" transform="translate(-99.256 -53.184)" fill="#fff0af"/>
      <path id="Path_899773" data-name="Path 899773" d="M108.634,53.126a1.414,1.414,0,0,0-1.563,1.07c-1.706,6.82,2.076,8.9,6.639,10.235l.632-1.605C109.731,61.437,107.1,59.124,108.634,53.126Z" transform="translate(-93.842 -53.115)" fill="#ffd064"/>
      <path id="Path_899774" data-name="Path 899774" d="M356.065,54.194a1.44,1.44,0,0,0-2.691-.267,8.683,8.683,0,0,1-4.142,4.192,41.609,41.609,0,0,0,.76,5.093c2.436-.934,5.156-2.32,6.4-4.776a10.865,10.865,0,0,0-.331-4.243Z" transform="translate(-305.079 -53.114)" fill="#fff0af"/>
      <path id="Path_899775" data-name="Path 899775" d="M335.79,91.851a12.724,12.724,0,0,1-1.994.756l2.188,5.554c3.437-1.006,6.431-2.434,6.97-5.992a13.93,13.93,0,0,1-5.716,3.574A22.741,22.741,0,0,0,335.79,91.851Z" transform="translate(-291.637 -86.846)" fill="#ffd064"/>
      <path id="Path_899776" data-name="Path 899776" d="M195.065,89.176l-1.1-3.547a5.814,5.814,0,0,0-5.554-4.1H177.237a5.8,5.8,0,0,0-1.547.21,5.9,5.9,0,0,0-2.973,3.886l-.748,2.419s7.111,2.6,7.111,12.38a44.986,44.986,0,0,1-2.311,14.274H190.82a34.026,34.026,0,0,1-3.216-14.274C187.6,90.648,195.065,89.176,195.065,89.176Z" transform="translate(-150.718 -77.861)" fill="#f5fcff"/>
      <path id="Path_899777" data-name="Path 899777" d="M163.556,89.467l.748-2.419c.509-1.646.925-2.937,2.069-3.886a5.814,5.814,0,0,0-4.007,3.886l-1.1,3.547s7.46,1.472,7.46,11.253a34.026,34.026,0,0,1-3.216,14.274h1.938a34.026,34.026,0,0,0,3.216-14.274C170.667,92.066,163.556,89.467,163.556,89.467Z" transform="translate(-141.401 -79.28)" fill="#d8e2f3"/>
      <path id="Path_899778" data-name="Path 899778" d="M195.876,327.409c-1.7-1.7-9.365-2.052-13.562-1.065-1.974,1.065-4.541,6.224-4.541,9.726a1.789,1.789,0,0,0,1.946,2.016h16.323a3.787,3.787,0,0,0,2.911-1.617c.014-.148.023-.3.023-.456C198.977,333.48,197.207,328.741,195.876,327.409Z" transform="translate(-155.773 -290.567)" fill="#ffcdbe"/>
      <path id="Path_899779" data-name="Path 899779" d="M173.053,340.85c-.572,0-1.041-.166-1.041-1.111,0-3.5,1.9-8.049,3.636-9.726a5.319,5.319,0,0,0-2.429,1.065c-1.332,1.332-3.1,6.071-3.1,8.6,0,1.932,1.033,3.107,2.934,3.107h16.323a2.679,2.679,0,0,0,2.911-2.651,5.62,5.62,0,0,1-2.911.713Z" transform="translate(-149.108 -294.237)" fill="#ebae9d"/>
    </g>
    <g id="Group_1110019" data-name="Group 1110019" transform="translate(0 45.609)">
      <path id="Path_899780" data-name="Path 899780" d="M37.09,99.975H29.062c-3.073,0-4.42-2.693-4.875-3.927-1.978-.287-3.176-1.775-3.176-4.025a10.362,10.362,0,0,1,.219-1.936c-1.456-1.344-5.664-5.774-5.664-12.043a51.84,51.84,0,0,1,1.661-10.887,40.527,40.527,0,0,1-5.524.376.969.969,0,1,1,0-1.938,37.451,37.451,0,0,0,6.031-.476c.739-2.861,1.48-5.307,1.882-6.588a12.821,12.821,0,0,1-4.313-2.2c-4.31-1.831-7.913-2.8-10.425-2.8a2.768,2.768,0,0,0-2.939,3.027A8.9,8.9,0,0,0,8.389,65.1a.969.969,0,1,1-.582,1.848A10.811,10.811,0,0,1,0,56.557a4.709,4.709,0,0,1,4.877-4.965,25.6,25.6,0,0,1,8.374,1.84,10.273,10.273,0,0,1,.006-6.009,2.372,2.372,0,0,1,2.066-1.8,2.4,2.4,0,0,1,2.434,1.338,7.93,7.93,0,0,0,4.965,4.266,6.757,6.757,0,0,1,4.766-1.946h5.64a.969.969,0,1,1,0,1.938h-5.64a4.822,4.822,0,0,0-4.629,3.413l-.81,2.617a10.849,10.849,0,0,1,6.744,7.836.969.969,0,1,1-1.879.474A9.017,9.017,0,0,0,21.469,59.1c-.957,3.072-3.965,13.188-3.965,18.94,0,4.617,2.727,8.2,4.29,9.866a15.35,15.35,0,0,1,2.484-5.051,33.577,33.577,0,0,0,3.05-13.713.969.969,0,0,1,1.938,0,35.536,35.536,0,0,1-2.3,12.34,22.058,22.058,0,0,1,4.112-.586.969.969,0,1,1,.116,1.935c-3.035.181-4.9.762-5.421,1.26l-.024.024c-1.113,1.133-2.8,5.549-2.8,7.9,0,1.439.643,2.138,1.965,2.138H41.238c1.323,0,1.965-.7,1.965-2.138,0-2.356-1.691-6.771-2.8-7.9l-.024-.024c-.517-.5-2.386-1.079-5.421-1.26A.969.969,0,1,1,35.07,80.9a22.071,22.071,0,0,1,4.112.586,35.536,35.536,0,0,1-2.3-12.34c0-5.422,2.213-8.448,4.07-10.032A10.674,10.674,0,0,1,44.1,57.253l-.81-2.62a4.822,4.822,0,0,0-4.629-3.413H37a.969.969,0,1,1,0-1.938h1.66a6.757,6.757,0,0,1,4.766,1.946A7.931,7.931,0,0,0,48.4,46.962a2.4,2.4,0,0,1,2.434-1.338,2.372,2.372,0,0,1,2.066,1.8,10.273,10.273,0,0,1,.006,6.009,25.6,25.6,0,0,1,8.374-1.84,4.709,4.709,0,0,1,4.877,4.965,10.811,10.811,0,0,1-7.806,10.389.969.969,0,0,1-.582-1.848,8.9,8.9,0,0,0,6.451-8.54,2.768,2.768,0,0,0-2.939-3.027c-2.512,0-6.116.967-10.425,2.8a12.824,12.824,0,0,1-4.313,2.2c.4,1.281,1.142,3.727,1.882,6.588a37.466,37.466,0,0,0,6.031.476.969.969,0,0,1,0,1.938,40.526,40.526,0,0,1-5.524-.376,51.84,51.84,0,0,1,1.661,10.887c0,6.27-4.208,10.7-5.664,12.043a10.364,10.364,0,0,1,.219,1.936c0,2.25-1.2,3.737-3.176,4.025-.455,1.234-1.8,3.927-4.875,3.927ZM26.318,96.1a3.137,3.137,0,0,0,2.744,1.938H37.09A3.138,3.138,0,0,0,39.834,96.1ZM41.874,82.858a15.348,15.348,0,0,1,2.484,5.052c1.563-1.671,4.29-5.249,4.29-9.866,0-5.755-3.012-15.879-3.967-18.945-1.791.687-5.857,3.022-5.857,10.047a33.445,33.445,0,0,0,3.049,13.712ZM44.64,52.849a6.881,6.881,0,0,1,.5,1.211l.811,2.62c4.262-1.406,6.4-3.448,5.06-8.787a.432.432,0,0,0-.393-.343.47.47,0,0,0-.49.271A9.707,9.707,0,0,1,44.64,52.849Zm-29.052-5.3c-.022,0-.041,0-.057,0a.432.432,0,0,0-.393.343c-1.335,5.338.8,7.381,5.06,8.787l.81-2.62a6.884,6.884,0,0,1,.5-1.211,9.707,9.707,0,0,1-5.492-5.027.463.463,0,0,0-.433-.274ZM36.744,90.7a.969.969,0,0,1-.691-1.648,5.209,5.209,0,0,0,1.518-2.709.969.969,0,0,1,1.938,0c0,1.907-1.861,3.852-2.074,4.068A.966.966,0,0,1,36.744,90.7Zm-7.336,0a.964.964,0,0,1-.69-.289c-.212-.216-2.074-2.161-2.074-4.068a.969.969,0,1,1,1.938,0A5.209,5.209,0,0,0,30.1,89.054a.969.969,0,0,1-.692,1.647ZM43.7,74.128a.969.969,0,0,1-.969-.969V69.313a.969.969,0,0,1,1.938,0v3.846A.969.969,0,0,1,43.7,74.128Zm-21.245,0a.969.969,0,0,1-.969-.969V69.313a.969.969,0,0,1,1.938,0v3.846A.969.969,0,0,1,22.454,74.128ZM38.788,58.862a9.181,9.181,0,0,1-6.219-3.26A.969.969,0,0,1,34.1,54.419a7.29,7.29,0,0,0,4.684,2.505.969.969,0,0,1,0,1.938Zm-7.623,0a9.181,9.181,0,0,1-6.219-3.26.969.969,0,0,1,1.535-1.183,7.29,7.29,0,0,0,4.684,2.505.969.969,0,0,1,0,1.938Z" transform="translate(0 -45.609)"/>
    </g>
  </g>
</svg>
