<svg xmlns="http://www.w3.org/2000/svg" xmlns:xlink="http://www.w3.org/1999/xlink" width="109.652" height="109.653" viewBox="0 0 109.652 109.653">
  <defs>
    <filter id="Path_874925" x="0" y="0" width="109.652" height="109.653" filterUnits="userSpaceOnUse">
      <feOffset dy="3" input="SourceAlpha"/>
      <feGaussianBlur stdDeviation="3" result="blur"/>
      <feFlood flood-opacity="0.161"/>
      <feComposite operator="in" in2="blur"/>
      <feComposite in="SourceGraphic"/>
    </filter>
  </defs>
  <g id="Group_1110060" data-name="Group 1110060" transform="translate(-1010.73 -3071)">
    <g transform="matrix(1, 0, 0, 1, 1010.73, 3071)" filter="url(#Path_874925)">
      <g id="Path_874925-2" data-name="Path 874925" transform="translate(9 6)" fill="#ffd63c">
        <path d="M 45.82614517211914 90.15280151367188 C 39.84149551391602 90.15280151367188 34.03665924072266 88.98104095458984 28.5728702545166 86.67005157470703 C 23.29473304748535 84.43759155273438 18.55415725708008 81.24130249023438 14.48283290863037 77.16998291015625 C 10.41150760650635 73.09866333007812 7.215232849121094 68.35809326171875 4.982757568359375 63.07994079589844 C 2.671770095825195 57.61616897583008 1.500007629394531 51.81131744384766 1.500007629394531 45.82666778564453 C 1.500007629394531 39.84149169921875 2.671770095825195 34.03665542602539 4.982757568359375 28.57286643981934 C 7.215232849121094 23.29472923278809 10.41150760650635 18.55415534973145 14.48283290863037 14.48283004760742 C 18.55415725708008 10.4115047454834 23.29473304748535 7.215229511260986 28.5728702545166 4.982754707336426 C 34.03665924072266 2.671766996383667 39.84149551391602 1.500004529953003 45.82614517211914 1.500004529953003 C 51.81079483032227 1.500004529953003 57.61564636230469 2.671766996383667 63.07942199707031 4.982754707336426 C 68.35756683349609 7.215229511260986 73.09814453125 10.4115047454834 77.16947174072266 14.48283004760742 C 81.24078369140625 18.55415534973145 84.43707275390625 23.29472923278809 86.66954803466797 28.57286643981934 C 88.98052978515625 34.03665542602539 90.15229797363281 39.84149169921875 90.15229797363281 45.82614135742188 C 90.15229797363281 51.81131744384766 88.98052978515625 57.61616897583008 86.66954803466797 63.07994079589844 C 84.43707275390625 68.35809326171875 81.24078369140625 73.09866333007812 77.16947174072266 77.16998291015625 C 73.09814453125 81.24130249023438 68.35756683349609 84.43759155273438 63.07942199707031 86.67005157470703 C 57.61564636230469 88.98104095458984 51.81079483032227 90.15280151367188 45.82614517211914 90.15280151367188 Z" stroke="none"/>
        <path d="M 45.82614517211914 3.000007629394531 C 40.04333114624023 3.000007629394531 34.43508911132812 4.131904602050781 29.15720367431641 6.364265441894531 C 24.05784606933594 8.521102905273438 19.47753143310547 11.60944366455078 15.54348754882812 15.54348754882812 C 11.60944366455078 19.47753143310547 8.521102905273438 24.05784606933594 6.3642578125 29.15720367431641 C 4.131904602050781 34.43508911132812 3 40.0433349609375 3 45.82667541503906 C 3 51.60948944091797 4.131904602050781 57.21773147583008 6.3642578125 62.49562072753906 C 8.521102905273438 67.59497833251953 11.60944366455078 72.17527770996094 15.54348754882812 76.10932922363281 C 19.47753143310547 80.04337310791016 24.05784606933594 83.13170623779297 29.15718841552734 85.28854370117188 C 34.43508911132812 87.52090454101562 40.04333114624023 88.65280151367188 45.82614517211914 88.65280151367188 C 51.60895919799805 88.65280151367188 57.21720123291016 87.52090454101562 62.49510192871094 85.28854370117188 C 67.59444427490234 83.13170623779297 72.17475891113281 80.04337310791016 76.10880279541016 76.10932922363281 C 80.0428466796875 72.17527770996094 83.13118743896484 67.59497833251953 85.28803253173828 62.49562072753906 C 87.5203857421875 57.21773147583008 88.65229034423828 51.60948944091797 88.65229034423828 45.82614898681641 C 88.65229034423828 40.0433349609375 87.5203857421875 34.43508911132812 85.28803253173828 29.15720367431641 C 83.13118743896484 24.05784606933594 80.0428466796875 19.47753143310547 76.10880279541016 15.54348754882812 C 72.17475891113281 11.60944366455078 67.59444427490234 8.521102905273438 62.49508666992188 6.364265441894531 C 57.21720123291016 4.131904602050781 51.60895919799805 3.000007629394531 45.82614517211914 3.000007629394531 M 45.82614517211914 7.62939453125e-06 C 71.13523101806641 7.62939453125e-06 91.65229034423828 20.51705932617188 91.65229034423828 45.82614898681641 L 91.65229034423828 45.82667541503906 C 91.65229034423828 71.13575744628906 71.13523101806641 91.65280151367188 45.82614517211914 91.65280151367188 C 20.51705932617188 91.65280151367188 0 71.13575744628906 0 45.82667541503906 L 0 45.82614898681641 C 0 20.51705932617188 20.51705932617188 7.62939453125e-06 45.82614517211914 7.62939453125e-06 Z" stroke="none" fill="#fff"/>
      </g>
    </g>
    <g id="filled_outline" data-name="filled outline" transform="translate(1023.353 3067.032)">
      <path id="Path_900846" data-name="Path 900846" d="M236.451,358.816h-2.705l-1.353-2.7-.676-5.41-3.381-9.468H235.1v14.878l1.352,1.352Z" transform="translate(-185.73 -275.707)" fill="#5f86fe"/>
      <path id="Path_900847" data-name="Path 900847" d="M314.127,358.816h-2.705l-1.352-2.705-2.705-14.878h5.41v14.878l1.353,1.352Z" transform="translate(-255.291 -275.707)" fill="#3a69ff"/>
      <path id="Path_900848" data-name="Path 900848" d="M123.554,358.816h-2.705l-1.353-2.705-4.058-14.878H119.5l2.705,14.878,2.705,1.352v1.353Z" transform="translate(-86.359 -275.707)" fill="#3a69ff"/>
      <path id="Path_900849" data-name="Path 900849" d="M82.922,307.364H96.448L94.9,313.556a6.111,6.111,0,0,1-5.928,4.629h-7.4Z" transform="translate(-56.547 -245.896)" fill="#154dfc"/>
      <path id="Path_900850" data-name="Path 900850" d="M22.807,345.571l-1.072,1.072-.269-.806a3.728,3.728,0,0,1,2.065-4.6l.173.515a3.728,3.728,0,0,1-.9,3.823Z" transform="translate(-3.475 -275.707)" fill="#154dfc"/>
      <path id="Path_900851" data-name="Path 900851" d="M39.116,215.578a44.493,44.493,0,0,0,.605,7.314l.747,4.483-4.058,6.763V240.9l1.352,2.705h4.058v-1.353L39.454,240.9l1.014-5.41,6.763-6.763,5.263,1.754a19.884,19.884,0,0,0,13.673-.4l5.128,1.709a4,4,0,0,0,4.656-1.675l5.094-8.15V213.85l-8.224-2.243a29.215,29.215,0,0,0-13.416-.462H52.641l-7.769-.777a5.235,5.235,0,0,0-5.757,5.21Z" transform="translate(-16.798 -160.497)" fill="#5f86fe"/>
      <path id="Path_900852" data-name="Path 900852" d="M346.643,194.907l-.818-.2a6.063,6.063,0,0,1-4.593-5.882l2.705,2.705,2.705.676Z" transform="translate(-285.102 -141.553)" fill="#3a69ff"/>
      <path id="Path_900853" data-name="Path 900853" d="M431.551,194.907l.818-.2a6.063,6.063,0,0,0,4.592-5.882l-2.7,2.705-2.705.676Z" transform="translate(-364.6 -141.553)" fill="#3a69ff"/>
      <g id="Group_1111736" data-name="Group 1111736" transform="translate(54.779 50.648)">
        <path id="Path_900854" data-name="Path 900854" d="M370.576,231.924h-2.705a1.353,1.353,0,0,1-1.353-1.352v-1.353l-2.705-8.115,2.705-4.058h5.41l2.705,4.058-2.705,8.115v1.353A1.352,1.352,0,0,1,370.576,231.924Z" transform="translate(-359.755 -217.046)" fill="#83a1ff"/>
        <path id="Path_900855" data-name="Path 900855" d="M329.944,250.916h6.763v2.706l-2.784.557a3.326,3.326,0,0,1-3.979-3.262Z" transform="translate(-329.944 -246.858)" fill="#83a1ff"/>
        <path id="Path_900856" data-name="Path 900856" d="M438.314,250.916h-6.763v2.706l2.784.557a3.326,3.326,0,0,0,3.979-3.262Z" transform="translate(-419.378 -246.858)" fill="#83a1ff"/>
      </g>
      <path id="Path_900857" data-name="Path 900857" d="M386.392,318.654h5.41V320.4a.958.958,0,0,1-.958.958H387.35a.958.958,0,0,1-.958-.958Z" transform="translate(-324.851 -255.833)" fill="#3a69ff"/>
      <circle id="Ellipse_11668" data-name="Ellipse 11668" cx="15.335" cy="15.335" r="15.335" transform="translate(20.043 28.479)" fill="#83a1ff"/>
      <path id="Path_900858" data-name="Path 900858" d="M118.063,53.75V50.875a2.875,2.875,0,0,0-5.75,0V53.75A4.313,4.313,0,0,1,108,58.063v13.9h14.376v-13.9a4.313,4.313,0,0,1-4.313-4.313Zm-2.875-1.917a.958.958,0,1,1,.958-.958A.958.958,0,0,1,115.188,51.834Z" transform="translate(-79.811 -17.604)" fill="#fcc419"/>
      <path id="Path_900859" data-name="Path 900859" d="M303.538,271.806l-4.987-2.1,2.1-4.987L302.42,264l.525-1.247a1.352,1.352,0,1,1,2.493,1.049l-.525,1.246.722,1.771Z" transform="translate(-247.533 -205.9)" fill="#fcc419"/>
      <path id="Path_900860" data-name="Path 900860" d="M86.99,192.259h-3.8l-.727-1.091a6.581,6.581,0,0,0,3.655-5.869.479.479,0,0,0-.818-.339l-2.612,2.612-2.518.63h-5.3l-2.518-.63-2.611-2.612a.479.479,0,0,0-.818.339,6.535,6.535,0,0,0,1.043,3.53l-.547-.149a29.759,29.759,0,0,0-4.381-.847.479.479,0,1,0-.111.952,28.808,28.808,0,0,1,4.24.82l1.879.512a6.493,6.493,0,0,0,1.532,1.052l-.727,1.091h-3.8a.479.479,0,0,0-.479.479,3.758,3.758,0,0,0,.62,2.082l-.4.943-1.587.647a.479.479,0,0,0-.261.258l-2.1,4.987a.479.479,0,0,0,.256.628l4.987,2.1a.479.479,0,0,0,.628-.256l2.1-4.987a.479.479,0,0,0,0-.367l-.647-1.587.27-.641a3.829,3.829,0,0,0,.683-.073l.678-.135,1.532,4.6v1.275a1.82,1.82,0,0,0,.3,1L72.022,207.4a3.508,3.508,0,0,1-4.1,1.474l-4.8-1.6v-3.712a.479.479,0,1,0-.958,0v14.878a.479.479,0,0,0,.14.339l1.212,1.212v.675h-1.93L60.405,218.3l-.666-5.329a.472.472,0,0,0-.024-.1l-1.479-4.141,0-.007-1.9-5.319a.479.479,0,0,0-.9.322l1.7,4.746a19.513,19.513,0,0,1-8-.9l-5.262-1.755a.479.479,0,0,0-.49.116l-6.763,6.763a.478.478,0,0,0-.132.25l-1.015,5.41a.479.479,0,0,0,.233.5l2.125,1.215v.6H34.538l-1.169-2.339v-6.517l3.989-6.649a.479.479,0,0,0,.062-.325l-.748-4.483a44.165,44.165,0,0,1-.6-7.235.479.479,0,1,0-.958,0,45.088,45.088,0,0,0,.61,7.386l.72,4.315-3.967,6.611a.479.479,0,0,0-.068.247v6.763a.481.481,0,0,0,.051.214l1.353,2.705a.479.479,0,0,0,.429.265H38.3a.479.479,0,0,0,.479-.479v-1.353a.479.479,0,0,0-.241-.416l-2.071-1.183.925-4.929,2.46-2.46h3.985l2.116,7.762a.49.49,0,0,0,.034.088l1.353,2.705a.479.479,0,0,0,.429.265h4.058a.479.479,0,0,0,.479-.479v-1.353a.479.479,0,0,0-.265-.429l-2.491-1.246-1.415-7.784a6.612,6.612,0,0,0,2.189-1.423,20.5,20.5,0,0,0,7.136.488l1.337,3.743.67,5.358a.481.481,0,0,0,.047.155l1.353,2.705a.479.479,0,0,0,.429.265H64a.479.479,0,0,0,.479-.479v-1.353a.479.479,0,0,0-.14-.339l-1.212-1.212v-9.957l2.764.921,1.695,9.32a.482.482,0,0,0,.043.129l1.353,2.705a.479.479,0,0,0,.428.265h2.705a.479.479,0,0,0,.479-.479v-1.353a.479.479,0,0,0-.14-.339l-1.212-1.212v-8.8a4.476,4.476,0,0,0,1.6-1.529l2.534-4.054a1.818,1.818,0,0,0,.8.187h2.705a1.834,1.834,0,0,0,1.832-1.832v-1.275l1.532-4.6.678.135a3.8,3.8,0,0,0,4.552-3.73.479.479,0,0,0-.479-.479ZM48.648,218.522a.479.479,0,0,0,.257.343l2.44,1.22v.577H48.063l-1.2-2.4L44.829,210.8H45.7a6.555,6.555,0,0,0,1.511-.18Zm-2.947-8.68H40.809l3.03-3.03,4.982,1.661c.134.045.269.086.4.128a5.656,5.656,0,0,1-3.524,1.241Zm24.72,8.933,1.212,1.212v.675H69.7l-1.189-2.379-1.588-8.735.7.232a4.443,4.443,0,0,0,2.66.055v8.6a.479.479,0,0,0,.14.339Zm12.628-30.306a.48.48,0,0,0,.222-.126L85,186.616a5.623,5.623,0,0,1-3.074,3.747L81,188.981Zm-13-1.853,1.727,1.727a.481.481,0,0,0,.223.126l2.046.512-.922,1.382a5.624,5.624,0,0,1-3.074-3.747Zm-1.021,16.7-4.1-1.726,1.835-4.362,1.587-.647a.478.478,0,0,0,.261-.258l.524-1.247a.873.873,0,0,1,1.61.677L70.215,197a.479.479,0,0,0,0,.367l.647,1.587Zm2.916-7.781c-.061.012-.121.022-.182.03a1.83,1.83,0,0,0-2.948-1.595,2.786,2.786,0,0,1-.237-.747h3.194l.733,2.2Zm6.935,7.549H76.17a.875.875,0,0,1-.873-.873v-.873h4.452v.873a.875.875,0,0,1-.873.873Zm1.007-2.705H75.163l-2.522-7.565,2.433-3.649h4.9l2.433,3.649Zm5.587-5.433a2.837,2.837,0,0,1-2.364.589l-.561-.112.733-2.2h3.193A2.835,2.835,0,0,1,85.469,194.941Z" transform="translate(-13.276 -138.032)"/>
      <path id="Path_900861" data-name="Path 900861" d="M20.684,238.3l-.15-.446a9.313,9.313,0,0,0-.176-6.445,8.378,8.378,0,0,1-.436-4.749,4.744,4.744,0,0,1,.929-2.006.479.479,0,1,0-.751-.6,5.705,5.705,0,0,0-1.117,2.413,9.337,9.337,0,0,0,.486,5.293,8.357,8.357,0,0,1,.131,5.859,4.235,4.235,0,0,0-2.063,5.068l.269.806a.479.479,0,0,0,.793.187l1.072-1.072A4.183,4.183,0,0,0,20.684,238.3Zm-2.214,4.16-.024-.071a3.272,3.272,0,0,1,1.336-3.766,3.23,3.23,0,0,1-.788,3.313Z" transform="translate(0 -172.409)"/>
      <path id="Path_900862" data-name="Path 900862" d="M104.479,68.919h14.376a.479.479,0,0,0,.479-.479v-13.9a.479.479,0,0,0-.479-.479,3.838,3.838,0,0,1-3.834-3.834V47.354a3.354,3.354,0,1,0-6.709,0V50.23a3.838,3.838,0,0,1-3.834,3.834.479.479,0,0,0-.479.479v13.9A.479.479,0,0,0,104.479,68.919Zm7.188-23.96a2.4,2.4,0,1,1-2.4,2.4A2.4,2.4,0,0,1,111.667,44.958ZM104.958,55a4.8,4.8,0,0,0,4.313-4.768V49.7a3.347,3.347,0,0,0,4.792,0v.531A4.8,4.8,0,0,0,118.376,55V67.96H104.958Z" transform="translate(-76.29 -14.083)"/>
      <path id="Path_900863" data-name="Path 900863" d="M137.1,148h-8.626a.479.479,0,0,0,0,.958H137.1a.479.479,0,0,0,0-.958Z" transform="translate(-97.415 -105.624)"/>
      <path id="Path_900864" data-name="Path 900864" d="M134.875,172h-1.917a.959.959,0,0,0-.958.958v4.792a.959.959,0,0,0,.958.958h1.917a.959.959,0,0,0,.958-.958v-4.792A.959.959,0,0,0,134.875,172Zm-1.917,5.75v-4.792h1.917v4.792Z" transform="translate(-100.936 -126.749)"/>
      <path id="Path_900865" data-name="Path 900865" d="M174.875,172h-1.917a.959.959,0,0,0-.958.958v4.792a.959.959,0,0,0,.958.958h1.917a.959.959,0,0,0,.958-.958v-4.792A.959.959,0,0,0,174.875,172Zm-1.917,5.75v-4.792h1.917v4.792Z" transform="translate(-136.143 -126.749)"/>
      <path id="Path_900866" data-name="Path 900866" d="M51.814,59.628A15.814,15.814,0,1,0,36,43.814,15.832,15.832,0,0,0,51.814,59.628Zm0-30.669A14.855,14.855,0,1,1,36.958,43.814,14.855,14.855,0,0,1,51.814,28.958Z" transform="translate(-16.436 0)"/>
      <path id="Path_900867" data-name="Path 900867" d="M157.438,62.875A1.438,1.438,0,1,0,156,61.438,1.438,1.438,0,0,0,157.438,62.875Zm0-1.917a.479.479,0,1,1-.479.479A.479.479,0,0,1,157.438,60.958Z" transform="translate(-122.06 -28.166)"/>
      <circle id="Ellipse_11669" data-name="Ellipse 11669" cx="0.479" cy="0.479" r="0.479" transform="translate(63.883 47.168)"/>
      <path id="Path_900868" data-name="Path 900868" d="M397.817,173.52a.479.479,0,0,0,.339-.818,2.4,2.4,0,0,0-3.388,0,.479.479,0,1,0,.678.678,1.438,1.438,0,0,1,2.033,0A.478.478,0,0,0,397.817,173.52Z" transform="translate(-332.099 -126.749)"/>
      <path id="Path_900869" data-name="Path 900869" d="M389.557,157.94a.479.479,0,0,0,0-.678,4.313,4.313,0,0,0-6.1,0,.479.479,0,0,0,.678.678,3.354,3.354,0,0,1,4.744,0A.479.479,0,0,0,389.557,157.94Z" transform="translate(-322.145 -112.665)"/>
      <path id="Path_900870" data-name="Path 900870" d="M372.818,142.5a5.271,5.271,0,0,1,7.455,0,.479.479,0,1,0,.678-.678,6.23,6.23,0,0,0-8.81,0,.479.479,0,1,0,.678.678Z" transform="translate(-312.183 -98.582)"/>
    </g>
  </g>
</svg>
