<svg xmlns="http://www.w3.org/2000/svg" xmlns:xlink="http://www.w3.org/1999/xlink" width="109.652" height="109.653" viewBox="0 0 109.652 109.653">
  <defs>
    <filter id="Path_874925" x="0" y="0" width="109.652" height="109.653" filterUnits="userSpaceOnUse">
      <feOffset dy="3" input="SourceAlpha"/>
      <feGaussianBlur stdDeviation="3" result="blur"/>
      <feFlood flood-opacity="0.161"/>
      <feComposite operator="in" in2="blur"/>
      <feComposite in="SourceGraphic"/>
    </filter>
  </defs>
  <g id="Group_1111733" data-name="Group 1111733" transform="translate(-1010.73 -3071)">
    <g transform="matrix(1, 0, 0, 1, 1010.73, 3071)" filter="url(#Path_874925)">
      <g id="Path_874925-2" data-name="Path 874925" transform="translate(9 6)" fill="#ffd63c">
        <path d="M 45.82614517211914 90.15280151367188 C 39.84149551391602 90.15280151367188 34.03665924072266 88.98104095458984 28.5728702545166 86.67005157470703 C 23.29473304748535 84.43759155273438 18.55415725708008 81.24130249023438 14.48283290863037 77.16998291015625 C 10.41150760650635 73.09866333007812 7.215232849121094 68.35809326171875 4.982757568359375 63.07994079589844 C 2.671770095825195 57.61616897583008 1.500007629394531 51.81131744384766 1.500007629394531 45.82666778564453 C 1.500007629394531 39.84149169921875 2.671770095825195 34.03665542602539 4.982757568359375 28.57286643981934 C 7.215232849121094 23.29472923278809 10.41150760650635 18.55415534973145 14.48283290863037 14.48283004760742 C 18.55415725708008 10.4115047454834 23.29473304748535 7.215229511260986 28.5728702545166 4.982754707336426 C 34.03665924072266 2.671766996383667 39.84149551391602 1.500004529953003 45.82614517211914 1.500004529953003 C 51.81079483032227 1.500004529953003 57.61564636230469 2.671766996383667 63.07942199707031 4.982754707336426 C 68.35756683349609 7.215229511260986 73.09814453125 10.4115047454834 77.16947174072266 14.48283004760742 C 81.24078369140625 18.55415534973145 84.43707275390625 23.29472923278809 86.66954803466797 28.57286643981934 C 88.98052978515625 34.03665542602539 90.15229797363281 39.84149169921875 90.15229797363281 45.82614135742188 C 90.15229797363281 51.81131744384766 88.98052978515625 57.61616897583008 86.66954803466797 63.07994079589844 C 84.43707275390625 68.35809326171875 81.24078369140625 73.09866333007812 77.16947174072266 77.16998291015625 C 73.09814453125 81.24130249023438 68.35756683349609 84.43759155273438 63.07942199707031 86.67005157470703 C 57.61564636230469 88.98104095458984 51.81079483032227 90.15280151367188 45.82614517211914 90.15280151367188 Z" stroke="none"/>
        <path d="M 45.82614517211914 3.000007629394531 C 40.04333114624023 3.000007629394531 34.43508911132812 4.131904602050781 29.15720367431641 6.364265441894531 C 24.05784606933594 8.521102905273438 19.47753143310547 11.60944366455078 15.54348754882812 15.54348754882812 C 11.60944366455078 19.47753143310547 8.521102905273438 24.05784606933594 6.3642578125 29.15720367431641 C 4.131904602050781 34.43508911132812 3 40.0433349609375 3 45.82667541503906 C 3 51.60948944091797 4.131904602050781 57.21773147583008 6.3642578125 62.49562072753906 C 8.521102905273438 67.59497833251953 11.60944366455078 72.17527770996094 15.54348754882812 76.10932922363281 C 19.47753143310547 80.04337310791016 24.05784606933594 83.13170623779297 29.15718841552734 85.28854370117188 C 34.43508911132812 87.52090454101562 40.04333114624023 88.65280151367188 45.82614517211914 88.65280151367188 C 51.60895919799805 88.65280151367188 57.21720123291016 87.52090454101562 62.49510192871094 85.28854370117188 C 67.59444427490234 83.13170623779297 72.17475891113281 80.04337310791016 76.10880279541016 76.10932922363281 C 80.0428466796875 72.17527770996094 83.13118743896484 67.59497833251953 85.28803253173828 62.49562072753906 C 87.5203857421875 57.21773147583008 88.65229034423828 51.60948944091797 88.65229034423828 45.82614898681641 C 88.65229034423828 40.0433349609375 87.5203857421875 34.43508911132812 85.28803253173828 29.15720367431641 C 83.13118743896484 24.05784606933594 80.0428466796875 19.47753143310547 76.10880279541016 15.54348754882812 C 72.17475891113281 11.60944366455078 67.59444427490234 8.521102905273438 62.49508666992188 6.364265441894531 C 57.21720123291016 4.131904602050781 51.60895919799805 3.000007629394531 45.82614517211914 3.000007629394531 M 45.82614517211914 7.62939453125e-06 C 71.13523101806641 7.62939453125e-06 91.65229034423828 20.51705932617188 91.65229034423828 45.82614898681641 L 91.65229034423828 45.82667541503906 C 91.65229034423828 71.13575744628906 71.13523101806641 91.65280151367188 45.82614517211914 91.65280151367188 C 20.51705932617188 91.65280151367188 0 71.13575744628906 0 45.82667541503906 L 0 45.82614898681641 C 0 20.51705932617188 20.51705932617188 7.62939453125e-06 45.82614517211914 7.62939453125e-06 Z" stroke="none" fill="#fff"/>
      </g>
    </g>
    <g id="stock_3799220" transform="translate(1039.01 3097.438)">
      <g id="Group_1111748" data-name="Group 1111748" transform="translate(4.141 0.744)">
        <path id="Path_900911" data-name="Path 900911" d="M68.68,456.968h37.683v3.008H68.68Z" transform="translate(-64.853 -412.392)" fill="#c8effe"/>
        <path id="Path_900912" data-name="Path 900912" d="M395.674,456.968h5.253v3.008h-5.253Z" transform="translate(-359.417 -412.392)" fill="#99e6fc"/>
        <path id="Path_900913" data-name="Path 900913" d="M68.68,231.249h37.683v3.008H68.68Z" transform="translate(-64.853 -209.058)" fill="#c8effe"/>
        <path id="Path_900914" data-name="Path 900914" d="M395.674,231.249h5.253v3.008h-5.253Z" transform="translate(-359.417 -209.058)" fill="#99e6fc"/>
        <g id="Group_1111744" data-name="Group 1111744">
          <path id="Path_900915" data-name="Path 900915" d="M35.837,56.79h-4.9a.851.851,0,0,1-.851-.851V7.5h6.6V55.939A.851.851,0,0,1,35.837,56.79Z" transform="translate(-30.088 -7.5)" fill="#678d98"/>
        </g>
        <g id="Group_1111745" data-name="Group 1111745">
          <path id="Path_900916" data-name="Path 900916" d="M35.837,56.79h-4.9a.851.851,0,0,1-.851-.851V7.5h6.6V55.939A.851.851,0,0,1,35.837,56.79Z" transform="translate(-30.088 -7.5)" fill="#678d98"/>
        </g>
        <path id="Path_900917" data-name="Path 900917" d="M71.774,7.5V55.939a.851.851,0,0,1-.851.851h1.7a.851.851,0,0,0,.851-.851V7.5Z" transform="translate(-66.873 -7.5)" fill="#537983"/>
        <g id="Group_1111746" data-name="Group 1111746" transform="translate(38.21)">
          <path id="Path_900918" data-name="Path 900918" d="M421.11,56.79h-4.9a.851.851,0,0,1-.851-.851V7.5h6.6V55.939A.851.851,0,0,1,421.11,56.79Z" transform="translate(-415.361 -7.5)" fill="#678d98"/>
        </g>
        <g id="Group_1111747" data-name="Group 1111747" transform="translate(38.21)">
          <path id="Path_900919" data-name="Path 900919" d="M421.11,56.79h-4.9a.851.851,0,0,1-.851-.851V7.5h6.6V55.939A.851.851,0,0,1,421.11,56.79Z" transform="translate(-415.361 -7.5)" fill="#678d98"/>
        </g>
        <path id="Path_900920" data-name="Path 900920" d="M457.046,7.5V55.939a.851.851,0,0,1-.851.851h1.7a.851.851,0,0,0,.851-.851V7.5Z" transform="translate(-413.935 -7.5)" fill="#537983"/>
        <path id="Path_900921" data-name="Path 900921" d="M96.639,377.288h10.537v7.9H96.639Z" transform="translate(-90.039 -340.614)" fill="#f6a96c"/>
        <path id="Path_900922" data-name="Path 900922" d="M183.192,377.288h1.952v7.9h-1.952Z" transform="translate(-168.008 -340.614)" fill="#ea9b58"/>
        <path id="Path_900923" data-name="Path 900923" d="M202.88,377.288h10.537v7.9H202.88Z" transform="translate(-185.743 -340.614)" fill="#fed2a4"/>
        <path id="Path_900924" data-name="Path 900924" d="M289.433,377.288h1.952v7.9h-1.952Z" transform="translate(-263.712 -340.614)" fill="#ffbd86"/>
        <path id="Path_900925" data-name="Path 900925" d="M309.12,377.288h10.537v7.9H309.12Z" transform="translate(-281.447 -340.614)" fill="#f6a96c"/>
        <path id="Path_900926" data-name="Path 900926" d="M395.674,377.288h1.952v7.9h-1.952Z" transform="translate(-359.417 -340.614)" fill="#ea9b58"/>
        <path id="Path_900927" data-name="Path 900927" d="M107.176,305.51H96.639v-7.9h9.513a1.023,1.023,0,0,1,1.023,1.023Z" transform="translate(-90.039 -268.836)" fill="#ffbd86"/>
        <path id="Path_900928" data-name="Path 900928" d="M107.176,305.51H96.639v-7.9h9.513a1.023,1.023,0,0,1,1.023,1.023Z" transform="translate(-90.039 -268.836)" fill="#ffbd86"/>
        <path id="Path_900929" data-name="Path 900929" d="M107.176,305.51H96.639v-7.9h9.513a1.023,1.023,0,0,1,1.023,1.023Z" transform="translate(-90.039 -268.836)" fill="#fed2a4"/>
        <path id="Path_900930" data-name="Path 900930" d="M174.828,297.607h-1.952a1.023,1.023,0,0,1,1.023,1.023v6.879h1.952V298.63A1.023,1.023,0,0,0,174.828,297.607Z" transform="translate(-158.715 -268.835)" fill="#ffbd86"/>
        <path id="Path_900931" data-name="Path 900931" d="M319.657,305.51H309.12v-6.879a1.023,1.023,0,0,1,1.023-1.023h9.513v7.9Z" transform="translate(-281.447 -268.836)" fill="#fed2a4"/>
        <path id="Path_900932" data-name="Path 900932" d="M395.674,297.607h1.952v7.9h-1.952Z" transform="translate(-359.417 -268.835)" fill="#ffbd86"/>
        <path id="Path_900933" data-name="Path 900933" d="M225.645,231.249h6.177v3.008h-6.177Z" transform="translate(-206.25 -209.058)" fill="#60b7ff"/>
        <path id="Path_900934" data-name="Path 900934" d="M225.645,456.968h6.177v3.008h-6.177Z" transform="translate(-206.25 -412.392)" fill="#60b7ff"/>
        <path id="Path_900935" data-name="Path 900935" d="M96.639,151.568h10.537v7.9H96.639Z" transform="translate(-90.039 -137.28)" fill="#fed2a4"/>
        <path id="Path_900936" data-name="Path 900936" d="M183.192,151.568h1.952v7.9h-1.952Z" transform="translate(-168.008 -137.28)" fill="#ffbd86"/>
        <path id="Path_900937" data-name="Path 900937" d="M202.88,151.568h10.537v7.9H202.88Z" transform="translate(-185.743 -137.28)" fill="#f6a96c"/>
        <path id="Path_900938" data-name="Path 900938" d="M289.433,151.568h1.952v7.9h-1.952Z" transform="translate(-263.712 -137.28)" fill="#ea9b58"/>
        <path id="Path_900939" data-name="Path 900939" d="M309.12,151.568h10.537v7.9H309.12Z" transform="translate(-281.447 -137.28)" fill="#fed2a4"/>
        <path id="Path_900940" data-name="Path 900940" d="M395.674,151.568h1.952v7.9h-1.952Z" transform="translate(-359.417 -137.28)" fill="#ffbd86"/>
        <path id="Path_900941" data-name="Path 900941" d="M96.639,71.888h10.537v7.9H96.639Z" transform="translate(-90.039 -65.502)" fill="#f6a96c"/>
        <path id="Path_900942" data-name="Path 900942" d="M183.192,71.888h1.952v7.9h-1.952Z" transform="translate(-168.008 -65.502)" fill="#ea9b58"/>
        <path id="Path_900943" data-name="Path 900943" d="M213.416,79.79H202.88v-7.9h9.513a1.023,1.023,0,0,1,1.023,1.023Z" transform="translate(-185.743 -65.502)" fill="#fed2a4"/>
        <path id="Path_900944" data-name="Path 900944" d="M281.068,71.888h-1.952a1.023,1.023,0,0,1,1.023,1.023V79.79h1.953V72.911A1.023,1.023,0,0,0,281.068,71.888Z" transform="translate(-254.418 -65.502)" fill="#ffbd86"/>
      </g>
      <g id="Group_1111749" data-name="Group 1111749" transform="translate(1.284)">
        <path id="Path_900945" data-name="Path 900945" d="M51.064,0H40.238a.744.744,0,0,0,0,1.488h1.369v12.8H32.558V8.153a1.769,1.769,0,0,0-1.767-1.767H14.245a.744.744,0,1,0,0,1.488h6.289v6.415H11.485V1.488h1.369a.744.744,0,0,0,0-1.488H2.028a.744.744,0,1,0,0,1.488H3.4v47.7a1.6,1.6,0,0,0,1.595,1.595h4.9a1.6,1.6,0,0,0,1.595-1.595v-.111H38.754a.744.744,0,0,0,0-1.488h-8.3v-1.52H41.607v3.119A1.6,1.6,0,0,0,43.2,50.778h4.9a1.6,1.6,0,0,0,1.595-1.595V4.315a.744.744,0,1,0-1.488,0V49.183a.107.107,0,0,1-.107.107H46.395V44.223a.744.744,0,0,0-1.488,0v5.068H43.2a.107.107,0,0,1-.107-.107V1.488h7.969a.744.744,0,1,0,0-1.488ZM41.607,36.674H32.558V30.539a.28.28,0,0,1,.279-.279h8.769Zm-12.638-13V25.2H24.279v-1.52ZM22.791,25.2H11.485v-1.52H22.791Zm7.665-1.52H41.607V25.2H30.456Zm-9.922,13H11.485V30.259h8.77a.28.28,0,0,1,.279.279Zm3,7.9H22.021v-1.2a.744.744,0,1,0-1.488,0v1.2H11.485V38.162h9.049v1.7a.744.744,0,0,0,1.488,0v-1.7H31.07v6.415H23.535Zm9.023-6.415h9.049v6.415H32.558Zm.279-9.39a1.769,1.769,0,0,0-1.767,1.767v6.135H22.021V30.539a1.769,1.769,0,0,0-1.767-1.767h-8.77V26.686H41.607v2.085ZM31.07,22.191H22.021V15.776H31.07Zm10.536,0H32.558V15.776h9.049ZM31.07,8.153v6.135H22.021V7.873h8.769A.28.28,0,0,1,31.07,8.153ZM20.534,15.776V22.19H11.485V15.776ZM9.89,49.29H8.185V44.223a.744.744,0,1,0-1.488,0V49.29H4.992a.107.107,0,0,1-.107-.107V1.488H10V48.323s0,0,0,.006,0,0,0,.006v.849a.107.107,0,0,1-.107.107Zm1.595-1.706v-1.52H22.791v1.52Zm17.484,0H24.279v-1.52h4.689Z" transform="translate(-1.284 0)"/>
        <circle id="Ellipse_11678" data-name="Ellipse 11678" cx="0.808" cy="0.808" r="0.808" transform="translate(43.559 25.292)"/>
        <circle id="Ellipse_11679" data-name="Ellipse 11679" cx="0.808" cy="0.808" r="0.808" transform="translate(43.559 21.628)"/>
        <circle id="Ellipse_11680" data-name="Ellipse 11680" cx="0.808" cy="0.808" r="0.808" transform="translate(43.559 17.964)"/>
        <circle id="Ellipse_11681" data-name="Ellipse 11681" cx="0.808" cy="0.808" r="0.808" transform="translate(43.559 14.3)"/>
        <circle id="Ellipse_11682" data-name="Ellipse 11682" cx="0.808" cy="0.808" r="0.808" transform="translate(43.559 10.636)"/>
        <circle id="Ellipse_11683" data-name="Ellipse 11683" cx="0.808" cy="0.808" r="0.808" transform="translate(43.559 6.972)"/>
        <circle id="Ellipse_11684" data-name="Ellipse 11684" cx="0.808" cy="0.808" r="0.808" transform="translate(43.559 3.308)"/>
        <circle id="Ellipse_11685" data-name="Ellipse 11685" cx="0.808" cy="0.808" r="0.808" transform="translate(43.559 40.153)"/>
        <circle id="Ellipse_11686" data-name="Ellipse 11686" cx="0.808" cy="0.808" r="0.808" transform="translate(43.559 36.489)"/>
        <circle id="Ellipse_11687" data-name="Ellipse 11687" cx="0.808" cy="0.808" r="0.808" transform="translate(43.559 32.825)"/>
        <circle id="Ellipse_11688" data-name="Ellipse 11688" cx="0.808" cy="0.808" r="0.808" transform="translate(43.559 29.161)"/>
        <circle id="Ellipse_11689" data-name="Ellipse 11689" cx="0.808" cy="0.808" r="0.808" transform="translate(5.349 25.292)"/>
        <circle id="Ellipse_11690" data-name="Ellipse 11690" cx="0.808" cy="0.808" r="0.808" transform="translate(5.349 21.628)"/>
        <circle id="Ellipse_11691" data-name="Ellipse 11691" cx="0.808" cy="0.808" r="0.808" transform="translate(5.349 17.964)"/>
        <circle id="Ellipse_11692" data-name="Ellipse 11692" cx="0.808" cy="0.808" r="0.808" transform="translate(5.349 14.3)"/>
        <circle id="Ellipse_11693" data-name="Ellipse 11693" cx="0.808" cy="0.808" r="0.808" transform="translate(5.349 10.636)"/>
        <circle id="Ellipse_11694" data-name="Ellipse 11694" cx="0.808" cy="0.808" r="0.808" transform="translate(5.349 6.972)"/>
        <circle id="Ellipse_11695" data-name="Ellipse 11695" cx="0.808" cy="0.808" r="0.808" transform="translate(5.349 3.308)"/>
        <circle id="Ellipse_11696" data-name="Ellipse 11696" cx="0.808" cy="0.808" r="0.808" transform="translate(5.349 40.153)"/>
        <circle id="Ellipse_11697" data-name="Ellipse 11697" cx="0.808" cy="0.808" r="0.808" transform="translate(5.349 36.489)"/>
        <circle id="Ellipse_11698" data-name="Ellipse 11698" cx="0.808" cy="0.808" r="0.808" transform="translate(5.349 32.825)"/>
        <circle id="Ellipse_11699" data-name="Ellipse 11699" cx="0.808" cy="0.808" r="0.808" transform="translate(5.349 29.161)"/>
        <path id="Path_900946" data-name="Path 900946" d="M343.348,317.9h2.707a.744.744,0,0,0,0-1.488h-2.707a.744.744,0,0,0,0,1.488Z" transform="translate(-308.753 -285.031)"/>
        <path id="Path_900947" data-name="Path 900947" d="M346.055,397.369h-2.707a.744.744,0,1,0,0,1.488h2.707a.744.744,0,0,0,0-1.488Z" transform="translate(-308.753 -357.96)"/>
        <path id="Path_900948" data-name="Path 900948" d="M239.96,397.369h-2.707a.744.744,0,1,0,0,1.488h2.707a.744.744,0,1,0,0-1.488Z" transform="translate(-213.18 -357.96)"/>
        <path id="Path_900949" data-name="Path 900949" d="M132.061,316.412h-2.707a.744.744,0,0,0,0,1.488h2.707a.744.744,0,0,0,0-1.488Z" transform="translate(-115.982 -285.031)"/>
        <path id="Path_900950" data-name="Path 900950" d="M132.061,397.369h-2.707a.744.744,0,1,0,0,1.488h2.707a.744.744,0,1,0,0-1.488Z" transform="translate(-115.982 -357.96)"/>
        <path id="Path_900951" data-name="Path 900951" d="M343.348,173.655h2.707a.744.744,0,0,0,0-1.488h-2.707a.744.744,0,1,0,0,1.488Z" transform="translate(-308.753 -155.092)"/>
        <path id="Path_900952" data-name="Path 900952" d="M237.253,92.7h2.707a.744.744,0,0,0,0-1.488h-2.707a.744.744,0,1,0,0,1.488Z" transform="translate(-213.18 -82.164)"/>
        <path id="Path_900953" data-name="Path 900953" d="M237.253,173.655h2.707a.744.744,0,0,0,0-1.488h-2.707a.744.744,0,1,0,0,1.488Z" transform="translate(-213.18 -155.092)"/>
        <path id="Path_900954" data-name="Path 900954" d="M132.061,92.7a.744.744,0,0,0,0-1.488h-2.707a.744.744,0,1,0,0,1.488Z" transform="translate(-115.982 -82.164)"/>
        <path id="Path_900955" data-name="Path 900955" d="M129.354,173.655h2.707a.744.744,0,1,0,0-1.488h-2.707a.744.744,0,0,0,0,1.488Z" transform="translate(-115.982 -155.092)"/>
      </g>
    </g>
  </g>
</svg>
