<svg xmlns="http://www.w3.org/2000/svg" xmlns:xlink="http://www.w3.org/1999/xlink" width="109.652" height="109.653" viewBox="0 0 109.652 109.653">
  <defs>
    <filter id="Path_874925" x="0" y="0" width="109.652" height="109.653" filterUnits="userSpaceOnUse">
      <feOffset dy="3" input="SourceAlpha"/>
      <feGaussianBlur stdDeviation="3" result="blur"/>
      <feFlood flood-opacity="0.161"/>
      <feComposite operator="in" in2="blur"/>
      <feComposite in="SourceGraphic"/>
    </filter>
    <clipPath id="clip-path">
      <path id="path1122" d="M0-682.665H51.059v51.059H0Z" transform="translate(0 682.665)"/>
    </clipPath>
  </defs>
  <g id="Group_1111634" data-name="Group 1111634" transform="translate(-740 -1743)">
    <g id="Group_1111412" data-name="Group 1111412" transform="translate(-270.73 -1328)">
      <g transform="matrix(1, 0, 0, 1, 1010.73, 3071)" filter="url(#Path_874925)">
        <g id="Path_874925-2" data-name="Path 874925" transform="translate(9 6)" fill="#ffd63c">
          <path d="M 45.82614517211914 90.15280151367188 C 39.84149551391602 90.15280151367188 34.03665924072266 88.98104095458984 28.5728702545166 86.67005157470703 C 23.29473304748535 84.43759155273438 18.55415725708008 81.24130249023438 14.48283290863037 77.16998291015625 C 10.41150760650635 73.09866333007812 7.215232849121094 68.35809326171875 4.982757568359375 63.07994079589844 C 2.671770095825195 57.61616897583008 1.500007629394531 51.81131744384766 1.500007629394531 45.82666778564453 C 1.500007629394531 39.84149169921875 2.671770095825195 34.03665542602539 4.982757568359375 28.57286643981934 C 7.215232849121094 23.29472923278809 10.41150760650635 18.55415534973145 14.48283290863037 14.48283004760742 C 18.55415725708008 10.4115047454834 23.29473304748535 7.215229511260986 28.5728702545166 4.982754707336426 C 34.03665924072266 2.671766996383667 39.84149551391602 1.500004529953003 45.82614517211914 1.500004529953003 C 51.81079483032227 1.500004529953003 57.61564636230469 2.671766996383667 63.07942199707031 4.982754707336426 C 68.35756683349609 7.215229511260986 73.09814453125 10.4115047454834 77.16947174072266 14.48283004760742 C 81.24078369140625 18.55415534973145 84.43707275390625 23.29472923278809 86.66954803466797 28.57286643981934 C 88.98052978515625 34.03665542602539 90.15229797363281 39.84149169921875 90.15229797363281 45.82614135742188 C 90.15229797363281 51.81131744384766 88.98052978515625 57.61616897583008 86.66954803466797 63.07994079589844 C 84.43707275390625 68.35809326171875 81.24078369140625 73.09866333007812 77.16947174072266 77.16998291015625 C 73.09814453125 81.24130249023438 68.35756683349609 84.43759155273438 63.07942199707031 86.67005157470703 C 57.61564636230469 88.98104095458984 51.81079483032227 90.15280151367188 45.82614517211914 90.15280151367188 Z" stroke="none"/>
          <path d="M 45.82614517211914 3.000007629394531 C 40.04333114624023 3.000007629394531 34.43508911132812 4.131904602050781 29.15720367431641 6.364265441894531 C 24.05784606933594 8.521102905273438 19.47753143310547 11.60944366455078 15.54348754882812 15.54348754882812 C 11.60944366455078 19.47753143310547 8.521102905273438 24.05784606933594 6.3642578125 29.15720367431641 C 4.131904602050781 34.43508911132812 3 40.0433349609375 3 45.82667541503906 C 3 51.60948944091797 4.131904602050781 57.21773147583008 6.3642578125 62.49562072753906 C 8.521102905273438 67.59497833251953 11.60944366455078 72.17527770996094 15.54348754882812 76.10932922363281 C 19.47753143310547 80.04337310791016 24.05784606933594 83.13170623779297 29.15718841552734 85.28854370117188 C 34.43508911132812 87.52090454101562 40.04333114624023 88.65280151367188 45.82614517211914 88.65280151367188 C 51.60895919799805 88.65280151367188 57.21720123291016 87.52090454101562 62.49510192871094 85.28854370117188 C 67.59444427490234 83.13170623779297 72.17475891113281 80.04337310791016 76.10880279541016 76.10932922363281 C 80.0428466796875 72.17527770996094 83.13118743896484 67.59497833251953 85.28803253173828 62.49562072753906 C 87.5203857421875 57.21773147583008 88.65229034423828 51.60948944091797 88.65229034423828 45.82614898681641 C 88.65229034423828 40.0433349609375 87.5203857421875 34.43508911132812 85.28803253173828 29.15720367431641 C 83.13118743896484 24.05784606933594 80.0428466796875 19.47753143310547 76.10880279541016 15.54348754882812 C 72.17475891113281 11.60944366455078 67.59444427490234 8.521102905273438 62.49508666992188 6.364265441894531 C 57.21720123291016 4.131904602050781 51.60895919799805 3.000007629394531 45.82614517211914 3.000007629394531 M 45.82614517211914 7.62939453125e-06 C 71.13523101806641 7.62939453125e-06 91.65229034423828 20.51705932617188 91.65229034423828 45.82614898681641 L 91.65229034423828 45.82667541503906 C 91.65229034423828 71.13575744628906 71.13523101806641 91.65280151367188 45.82614517211914 91.65280151367188 C 20.51705932617188 91.65280151367188 0 71.13575744628906 0 45.82667541503906 L 0 45.82614898681641 C 0 20.51705932617188 20.51705932617188 7.62939453125e-06 45.82614517211914 7.62939453125e-06 Z" stroke="none" fill="#fff"/>
        </g>
      </g>
    </g>
    <g id="g1116" transform="translate(769.297 2451.961)">
      <g id="g1118" transform="translate(0 -682.665)">
        <g id="g1120" clip-path="url(#clip-path)">
          <g id="g1126" transform="translate(4.004 21.336)">
            <path id="path1128" d="M-532.545-332.162H-575.6v-24.547a2.3,2.3,0,0,1,2.3-2.3h38.441a2.3,2.3,0,0,1,2.3,2.3Z" transform="translate(575.596 359.014)" fill="#d9deed"/>
          </g>
          <path id="path1130" d="M95.8-355.024H132.53v19.516H95.8Z" transform="translate(-88.637 379.53)" fill="#d472e8"/>
          <g id="g1132" transform="translate(0.748 47.191)">
            <path id="path1134" d="M-587-38.595h-45.343a2.11,2.11,0,0,1-2.11-2.11v-1.01h49.563v1.01a2.11,2.11,0,0,1-2.11,2.11" transform="translate(634.452 41.715)" fill="#bec6da"/>
          </g>
          <g id="g1136" transform="translate(11.781 15.959)">
            <path id="path1138" d="M-314.156-298.348h-23.295a2.1,2.1,0,0,1-2.1-2.1v-19.915a2.1,2.1,0,0,1,2.1-2.1h23.295a2.1,2.1,0,0,1,2.1,2.1v19.915a2.1,2.1,0,0,1-2.1,2.1" transform="translate(339.552 322.466)" fill="#f7fafa"/>
          </g>
          <g id="g1140" transform="translate(33.188 15.959)">
            <path id="path1142" d="M-49.344,0h-3.989a2.1,2.1,0,0,1,2.1,2.1V22.017a2.1,2.1,0,0,1-2.1,2.1h3.989a2.1,2.1,0,0,0,2.1-2.1V2.1a2.1,2.1,0,0,0-2.1-2.1" transform="translate(53.333)" fill="#edf0f0"/>
          </g>
          <g id="g1144" transform="translate(11.781 15.959)">
            <path id="path1146" d="M0-50.1H27.5v-2.025a2.023,2.023,0,0,0-2.02-2.025H2.02A2.023,2.023,0,0,0,0-52.122Z" transform="translate(0 54.147)" fill="#fee438"/>
          </g>
          <g id="g1148" transform="translate(27.026 0.748)">
            <path id="path1150" d="M-128.355,0a10.375,10.375,0,0,0-10.376,10.375,10.34,10.34,0,0,0,3.109,7.4v3.814l3.479-1.558a10.347,10.347,0,0,0,3.789.717,10.375,10.375,0,0,0,10.376-10.375A10.375,10.375,0,0,0-128.355,0" transform="translate(138.732 0)" fill="#b5f4ff"/>
          </g>
          <g id="g1152" transform="translate(35.408 0.748)">
            <path id="path1154" d="M-24.672,0a10.422,10.422,0,0,0-1.994.192,10.378,10.378,0,0,1,8.382,10.182,10.378,10.378,0,0,1-8.379,10.182,10.365,10.365,0,0,0,1.991.193A10.375,10.375,0,0,0-14.3,10.375,10.375,10.375,0,0,0-24.672,0" transform="translate(26.667)" fill="#96efff"/>
          </g>
          <g id="g1156" transform="translate(35.975 9.974)">
            <path id="path1158" d="M-35.31-17.657a1.427,1.427,0,0,0-1.427-1.427,1.427,1.427,0,0,0-1.427,1.427c0,.788.058,3.737.058,4.525A1.427,1.427,0,0,0-36.679-11.7h-.058a1.427,1.427,0,0,0,1.427-1.427Z" transform="translate(38.164 19.084)" fill="#f7fafa"/>
          </g>
          <g id="g1160" transform="translate(36.033 5.17)">
            <path id="path1162" d="M-33.879-16.941a1.369,1.369,0,0,1-1.369,1.37,1.369,1.369,0,0,1-1.369-1.37,1.369,1.369,0,0,1,1.369-1.37,1.369,1.369,0,0,1,1.369,1.37" transform="translate(36.617 18.311)" fill="#f7fafa"/>
          </g>
          <g id="g1164" transform="translate(4.004 21.336)">
            <path id="path1166" d="M-443.976,0h4.855a2.3,2.3,0,0,1,2.3,2.3v23.55h-43.051V2.3a2.3,2.3,0,0,1,2.3-2.3h5.472" transform="translate(479.867 0)" fill="none" stroke="#060606" stroke-linecap="round" stroke-linejoin="round" stroke-miterlimit="10" stroke-width="1.5"/>
          </g>
          <g id="g1168" transform="translate(7.165 24.505)">
            <path id="path1170" d="M-404.871,0h4V19.516H-437.6V0h4.615" transform="translate(437.6)" fill="none" stroke="#060606" stroke-linecap="round" stroke-linejoin="round" stroke-miterlimit="10" stroke-width="1.5"/>
          </g>
          <g id="g1172" transform="translate(0.748 47.191)">
            <path id="path1174" d="M-121.444-38.595h37.635A2.11,2.11,0,0,0-81.7-40.7v-1.01h-49.563v1.01a2.11,2.11,0,0,0,2.11,2.11h3.924" transform="translate(131.261 41.715)" fill="none" stroke="#060606" stroke-linecap="round" stroke-linejoin="round" stroke-miterlimit="10" stroke-width="1.5"/>
          </g>
          <g id="g1176" transform="translate(11.781 15.959)">
            <path id="path1178" d="M-340.151-69.047v16.435a2.1,2.1,0,0,1-2.1,2.1h-23.295a2.1,2.1,0,0,1-2.1-2.1V-72.528a2.1,2.1,0,0,1,2.1-2.1h14.34" transform="translate(367.648 74.629)" fill="none" stroke="#060606" stroke-linecap="round" stroke-linejoin="round" stroke-miterlimit="10" stroke-width="1.5"/>
          </g>
          <g id="g1180" transform="translate(11.781 15.959)">
            <path id="path1182" d="M-203.386,0h-14.421a2.023,2.023,0,0,0-2.02,2.025V4.05H-201.7" transform="translate(219.827)" fill="none" stroke="#060606" stroke-linecap="round" stroke-linejoin="round" stroke-miterlimit="10" stroke-width="1.5"/>
          </g>
          <g id="g1184" transform="translate(17.129 25.426)">
            <path id="path1186" d="M0,0H16.565" fill="none" stroke="#060606" stroke-linecap="round" stroke-linejoin="round" stroke-miterlimit="10" stroke-width="1.5"/>
          </g>
          <g id="g1188" transform="translate(29.65 29.959)">
            <path id="path1190" d="M0,0H4.044" fill="none" stroke="#060606" stroke-linecap="round" stroke-linejoin="round" stroke-miterlimit="10" stroke-width="1.5"/>
          </g>
          <g id="g1192" transform="translate(17.129 29.959)">
            <path id="path1194" d="M0,0H8.487" fill="none" stroke="#060606" stroke-linecap="round" stroke-linejoin="round" stroke-miterlimit="10" stroke-width="1.5"/>
          </g>
          <g id="g1196" transform="translate(17.129 34.493)">
            <path id="path1198" d="M0,0H16.565" fill="none" stroke="#060606" stroke-linecap="round" stroke-linejoin="round" stroke-miterlimit="10" stroke-width="1.5"/>
          </g>
          <g id="g1200" transform="translate(27.026 0.748)">
            <path id="path1202" d="M-221.943-40.517a10.348,10.348,0,0,0-7.565-3.275,10.376,10.376,0,0,0-10.376,10.375,10.341,10.341,0,0,0,3.109,7.4V-22.2l3.479-1.558a10.344,10.344,0,0,0,3.789.717,10.375,10.375,0,0,0,10.376-10.375,10.345,10.345,0,0,0-.7-3.751" transform="translate(239.885 43.792)" fill="none" stroke="#060606" stroke-linecap="round" stroke-linejoin="round" stroke-miterlimit="10" stroke-width="1.5"/>
          </g>
          <g id="g1204" transform="translate(35.975 9.974)">
            <path id="path1206" d="M-35.31-17.657a1.427,1.427,0,0,0-1.427-1.427,1.427,1.427,0,0,0-1.427,1.427c0,.788.058,3.737.058,4.525A1.427,1.427,0,0,0-36.679-11.7h-.058a1.427,1.427,0,0,0,1.427-1.427Z" transform="translate(38.164 19.084)" fill="none" stroke="#060606" stroke-linecap="round" stroke-linejoin="round" stroke-miterlimit="10" stroke-width="1.5"/>
          </g>
          <g id="g1208" transform="translate(36.033 5.17)">
            <path id="path1210" d="M-33.879-16.941a1.369,1.369,0,0,1-1.369,1.37,1.369,1.369,0,0,1-1.369-1.37,1.369,1.369,0,0,1,1.369-1.37A1.369,1.369,0,0,1-33.879-16.941Z" transform="translate(36.617 18.311)" fill="none" stroke="#060606" stroke-linecap="round" stroke-linejoin="round" stroke-miterlimit="10" stroke-width="1.5"/>
          </g>
        </g>
      </g>
    </g>
  </g>
</svg>
