<svg xmlns="http://www.w3.org/2000/svg" xmlns:xlink="http://www.w3.org/1999/xlink" width="103" height="103" viewBox="0 0 103 103">
  <defs>
    <filter id="Path_874925" x="0" y="0" width="103" height="103" filterUnits="userSpaceOnUse">
      <feOffset dy="3" input="SourceAlpha"/>
      <feGaussianBlur stdDeviation="3" result="blur"/>
      <feFlood flood-opacity="0.161"/>
      <feComposite operator="in" in2="blur"/>
      <feComposite in="SourceGraphic"/>
    </filter>
  </defs>
  <g id="Group_1111482" data-name="Group 1111482" transform="translate(3714.596 10553.09)">
    <g id="Group_1111213" data-name="Group 1111213" transform="translate(-3705.596 -10547.09)">
      <g transform="matrix(1, 0, 0, 1, -9, -6)" filter="url(#Path_874925)">
        <g id="Path_874925-2" data-name="Path 874925" transform="translate(9 6)" fill="#ffd63c">
          <path d="M 42.49997711181641 83.50044250488281 C 36.96435546875 83.50044250488281 31.59510612487793 82.41661834716797 26.54138946533203 80.27907562255859 C 21.65933036804199 78.21413421630859 17.27445983886719 75.25767517089844 13.50861263275146 71.49182891845703 C 9.742765426635742 67.72598266601562 6.786306381225586 63.34111022949219 4.721365451812744 58.45905303955078 C 2.583824157714844 53.40533447265625 1.500000596046448 48.03608703613281 1.500000596046448 42.50046539306641 C 1.500000596046448 36.96435928344727 2.583824157714844 31.59511184692383 4.721365451812744 26.5413932800293 C 6.786306381225586 21.65933418273926 9.742765426635742 17.27446365356445 13.50861263275146 13.50861740112305 C 17.27445983886719 9.742770195007324 21.65933036804199 6.786311626434326 26.54138946533203 4.721370220184326 C 31.59510612487793 2.583829164505005 36.96435546875 1.500005722045898 42.49997711181641 1.500005722045898 C 48.03559875488281 1.500005722045898 53.40484619140625 2.583829164505005 58.45856475830078 4.721370220184326 C 63.34062576293945 6.786311626434326 67.72549438476562 9.742770195007324 71.49134063720703 13.50861740112305 C 75.25718688964844 17.27446365356445 78.21364593505859 21.65933418273926 80.27858734130859 26.5413932800293 C 82.41613006591797 31.59511184692383 83.49995422363281 36.96435928344727 83.49995422363281 42.49998092651367 C 83.49995422363281 48.03608703613281 82.41613006591797 53.40533447265625 80.27858734130859 58.45905303955078 C 78.21364593505859 63.34111022949219 75.25718688964844 67.72598266601562 71.49134063720703 71.49182891845703 C 67.72549438476562 75.25767517089844 63.34062576293945 78.21413421630859 58.45856475830078 80.27907562255859 C 53.40484619140625 82.41661834716797 48.03559875488281 83.50044250488281 42.49997711181641 83.50044250488281 Z" stroke="none"/>
          <path d="M 42.49997711181641 3.000007629394531 C 37.16619110107422 3.000007629394531 31.99354934692383 4.043960571289062 27.12572479248047 6.102867126464844 C 22.42245864868164 8.092193603515625 18.19786071777344 10.94069671630859 14.56926727294922 14.56926727294922 C 10.94069671630859 18.19786071777344 8.092193603515625 22.42245864868164 6.102867126464844 27.12572479248047 C 4.043960571289062 31.99354934692383 3 37.16619110107422 3 42.50045776367188 C 3 47.83424377441406 4.043960571289062 53.00688171386719 6.102867126464844 57.87471008300781 C 8.092193603515625 62.57798004150391 10.94069671630859 66.80258178710938 14.56926727294922 70.43116760253906 C 18.19786071777344 74.05973815917969 22.42245864868164 76.90824127197266 27.12572479248047 78.89756774902344 C 31.99354934692383 80.95647430419922 37.16619110107422 82.00042724609375 42.49997711181641 82.00042724609375 C 47.83376312255859 82.00042724609375 53.00640106201172 80.95647430419922 57.87422943115234 78.89756774902344 C 62.57749938964844 76.90824127197266 66.80209350585938 74.05973815917969 70.43068695068359 70.43116760253906 C 74.05925750732422 66.80258178710938 76.90776062011719 62.57798004150391 78.89708709716797 57.87471008300781 C 80.95599365234375 53.00688171386719 81.99995422363281 47.83424377441406 81.99995422363281 42.49997711181641 C 81.99995422363281 37.16619110107422 80.95599365234375 31.99354934692383 78.89708709716797 27.12572479248047 C 76.90776062011719 22.42245864868164 74.05925750732422 18.19786071777344 70.43068695068359 14.56926727294922 C 66.80209350585938 10.94069671630859 62.57749938964844 8.092193603515625 57.87422943115234 6.102867126464844 C 53.00640106201172 4.043960571289062 47.83376312255859 3.000007629394531 42.49997711181641 3.000007629394531 M 42.49997711181641 7.62939453125e-06 C 65.97206878662109 7.62939453125e-06 84.99995422363281 19.02788543701172 84.99995422363281 42.49997711181641 L 84.99995422363281 42.50045776367188 C 84.99995422363281 65.97254943847656 65.97206878662109 85.00042724609375 42.49997711181641 85.00042724609375 C 19.02788543701172 85.00042724609375 0 65.97254943847656 0 42.50045776367188 L 0 42.49997711181641 C 0 19.02788543701172 19.02788543701172 7.62939453125e-06 42.49997711181641 7.62939453125e-06 Z" stroke="none" fill="#fff"/>
        </g>
      </g>
    </g>
    <g id="v2" transform="translate(-3688.081 -10524.77)">
      <g id="Group_1111458" data-name="Group 1111458" transform="translate(32.861 4.222)">
        <path id="Path_900273" data-name="Path 900273" d="M331.942,82.751a1.394,1.394,0,0,0-2.609.821l-.15,2.853a8.529,8.529,0,0,1,4.4-1.565Z" transform="translate(-329.183 -82.023)" fill="#2b4d66" fill-rule="evenodd"/>
      </g>
      <g id="Group_1111459" data-name="Group 1111459" transform="translate(38.399 4.222)">
        <path id="Path_900274" data-name="Path 900274" d="M386.3,82.751l-1.644,2.108a8.545,8.545,0,0,1,4.4,1.565l-.15-2.853a1.394,1.394,0,0,0-2.609-.821Z" transform="translate(-384.66 -82.023)" fill="#2b4d66" fill-rule="evenodd"/>
      </g>
      <g id="Group_1111460" data-name="Group 1111460" transform="translate(0.954 0.749)">
        <path id="Path_900275" data-name="Path 900275" d="M14.2,47.421c-1.166-.75-3.2.846-4.3,2.471a2.086,2.086,0,0,0,.569,2.887l.076.051a2.087,2.087,0,0,0,2.81-.617C14.831,50.028,15.369,48.174,14.2,47.421Z" transform="translate(-9.556 -47.23)" fill="#365e7d" fill-rule="evenodd"/>
      </g>
      <g id="Group_1111461" data-name="Group 1111461" transform="translate(33.008 31.761)">
        <path id="Path_900276" data-name="Path 900276" d="M336.307,357.891a18,18,0,0,1-5.651.891l.509,6.7h4.466Z" transform="translate(-330.656 -357.891)" fill="#d0cee7" fill-rule="evenodd"/>
      </g>
      <g id="Group_1111462" data-name="Group 1111462" transform="translate(3.469 10.787)">
        <path id="Path_900277" data-name="Path 900277" d="M49.488,147.789c-2.318,1.223-11.905,10.293-14.733,12.11.04,3.979.226,7.185.543,11.377l.385,5.071h4.466l.458-5.609a6.653,6.653,0,0,0,.894.059H55.391l.419,5.55h4.466l.6-6.73c.286-.034,1.67.076,3.416.034a18,18,0,0,0,5.651-.891c1.89-.707,3.32-1.953,3.325-4.118l0-.781c-4.01-5.666-6.981-14.342-15.236-16.052C58.1,147.772,51.46,147.789,49.488,147.789Z" transform="translate(-34.755 -147.785)" fill="#dddaec" fill-rule="evenodd"/>
      </g>
      <g id="Group_1111463" data-name="Group 1111463" transform="translate(43.173 8.541)">
        <path id="Path_900278" data-name="Path 900278" d="M436.661,126.318a3.694,3.694,0,0,0-4.177-.659c0,1.882.576,2.818,1.1,4.446.207.634.749,1.091,2,1.367,1.919-.32,3.747-1.435,4.041-2.827C439.91,127.28,439,128.771,436.661,126.318Z" transform="translate(-432.484 -125.291)" fill="#2b4d66" fill-rule="evenodd"/>
      </g>
      <g id="Group_1111464" data-name="Group 1111464" transform="translate(25.293 8.541)">
        <path id="Path_900279" data-name="Path 900279" d="M256.383,126.317a6.242,6.242,0,0,1-1.554,1.242c-1.183.625-1.619.079-1.406,1.084.294,1.392,2.131,2.471,4.05,2.79,1.151-.646,3.467-3.894,3.087-5.776A3.7,3.7,0,0,0,256.383,126.317Z" transform="translate(-253.371 -125.291)" fill="#2b4d66" fill-rule="evenodd"/>
      </g>
      <g id="Group_1111465" data-name="Group 1111465" transform="translate(3.464 10.79)">
        <path id="Path_900280" data-name="Path 900280" d="M45.279,147.824A10.582,10.582,0,0,0,34.7,158.408c0,.521,0,1.03.006,1.525,1.138.614,5.592,2.471,7.312-1.288,2.782-6.076,8.351-.509,7.42-10.822Z" transform="translate(-34.698 -147.824)" fill="#365e7d" fill-rule="evenodd"/>
      </g>
      <g id="Group_1111466" data-name="Group 1111466" transform="translate(33.518 39.348)">
        <path id="Path_900281" data-name="Path 900281" d="M335.759,433.9l.15,1.975a1.143,1.143,0,0,0,1.107,1.107h3.2c1.163,0,1.378-.849.911-1.607l-.9-1.474h-4.466Z" transform="translate(-335.759 -433.895)" fill="#365e7d" fill-rule="evenodd"/>
      </g>
      <g id="Group_1111467" data-name="Group 1111467" transform="translate(24.524 39.348)">
        <path id="Path_900282" data-name="Path 900282" d="M245.667,433.9l.15,1.975a1.144,1.144,0,0,0,1.106,1.107h3.2c1.16,0,1.375-.849.911-1.607l-.906-1.474h-4.465Z" transform="translate(-245.667 -433.895)" fill="#365e7d" fill-rule="evenodd"/>
      </g>
      <g id="Group_1111468" data-name="Group 1111468" transform="translate(13.201 33.798)">
        <path id="Path_900283" data-name="Path 900283" d="M132.245,378.3l.422,5.55h4.466l.5-5.55Z" transform="translate(-132.245 -378.303)" fill="#d0cee7" fill-rule="evenodd"/>
      </g>
      <g id="Group_1111469" data-name="Group 1111469" transform="translate(13.623 39.348)">
        <path id="Path_900284" data-name="Path 900284" d="M140.935,433.9h-4.466l.15,1.975a1.142,1.142,0,0,0,1.106,1.107h3.2c1.163,0,1.378-.849.911-1.607Z" transform="translate(-136.469 -433.895)" fill="#365e7d" fill-rule="evenodd"/>
      </g>
      <g id="Group_1111470" data-name="Group 1111470" transform="translate(11.623 22.032)">
        <path id="Path_900285" data-name="Path 900285" d="M120.589,261.987a3.5,3.5,0,0,0-3.294.92,3.038,3.038,0,0,0,.359,4.545,2.463,2.463,0,0,0,3.82-.391,4.7,4.7,0,0,1,1.7-1.613c1.092-.62,2.108-.739,2.538-2.026a2.209,2.209,0,0,0-3.489-2.459C121.6,261.48,121.376,262.156,120.589,261.987Z" transform="translate(-116.436 -260.434)" fill="#365e7d" fill-rule="evenodd"/>
      </g>
      <g id="Group_1111471" data-name="Group 1111471" transform="translate(24.465 16.747)">
        <path id="Path_900286" data-name="Path 900286" d="M245.573,215.19c-2.615,3.478,5.912,8.142,7.55,1.557-.045-.04-.091-.079-.136-.122-2.536-2.27-3.07-4.067-2.42-5.4l-.144-1.84c-.048-.628-.15-1.257-.241-1.888C244.076,207.473,248.1,211.831,245.573,215.19Z" transform="translate(-245.079 -207.498)" fill="#365e7d" fill-rule="evenodd"/>
      </g>
      <g id="Group_1111472" data-name="Group 1111472" transform="translate(4.398 39.348)">
        <path id="Path_900287" data-name="Path 900287" d="M48.519,433.9H44.053l.15,1.975a1.143,1.143,0,0,0,1.106,1.107h3.2c1.16,0,1.375-.849.908-1.607Z" transform="translate(-44.053 -433.895)" fill="#365e7d" fill-rule="evenodd"/>
      </g>
      <g id="Group_1111473" data-name="Group 1111473" transform="translate(29.394 7.041)">
        <path id="Path_900288" data-name="Path 900288" d="M302.883,110.261a8.586,8.586,0,0,0-8.17,5.949,5.7,5.7,0,0,0-.263,1.7,13.349,13.349,0,0,0,.175,2.063c.091.631.192,1.259.241,1.888l.076.968.068.872c1.811-2.032,13.915-1.746,15.723.218l.207-2.7c.093-1.242.382-2.21.385-3.271a5.36,5.36,0,0,0-.272-1.732,8.586,8.586,0,0,0-8.17-5.949Z" transform="translate(-294.449 -110.261)" fill="#f9f6f6" fill-rule="evenodd"/>
      </g>
      <g id="Group_1111474" data-name="Group 1111474" transform="translate(29.702 17.614)">
        <path id="Path_900289" data-name="Path 900289" d="M313.509,219.257c-1.7-4.01-13.81-4.123-15.723-.218-.651,1.333-.116,3.13,2.42,5.4l.136.122a9.886,9.886,0,0,0,1.457,1.05,7.409,7.409,0,0,0,5.026.993,7.929,7.929,0,0,0,2.994-1.177,10.044,10.044,0,0,0,1.293-.988C313.506,222.3,314.063,220.57,313.509,219.257Z" transform="translate(-297.532 -216.179)" fill="#d09080" fill-rule="evenodd"/>
      </g>
      <g id="Group_1111475" data-name="Group 1111475" transform="translate(38.261 7.049)">
        <path id="Path_900290" data-name="Path 900290" d="M388.184,112.206a8.541,8.541,0,0,0-4.913-1.859,8.637,8.637,0,0,1,5.1,5.386,5.516,5.516,0,0,1,.272,1.732c-.006,1.061-.294,2.029-.388,3.272l-.085,1.129a4.429,4.429,0,0,1,2.519,2.125l.207-2.7c.093-1.242.382-2.21.385-3.271a5.359,5.359,0,0,0-.272-1.732A8.577,8.577,0,0,0,388.184,112.206Z" transform="translate(-383.271 -110.347)" fill="#dddaec" fill-rule="evenodd"/>
      </g>
      <g id="Group_1111476" data-name="Group 1111476" transform="translate(31.336 18.567)">
        <path id="Path_900291" data-name="Path 900291" d="M324.687,229.51a12.6,12.6,0,0,1-1.358,1.4,10.258,10.258,0,0,1-1.293.988,7.987,7.987,0,0,1-3,1.177,7.429,7.429,0,0,1-5.026-.993l-.11-.068a13.742,13.742,0,0,0,1.039,1.022l.136.122a9.889,9.889,0,0,0,1.457,1.05,7.408,7.408,0,0,0,5.026.993,7.928,7.928,0,0,0,2.994-1.177,10.046,10.046,0,0,0,1.293-.988c2.394-2.14,2.952-3.869,2.4-5.182a4.429,4.429,0,0,0-2.519-2.125,2.51,2.51,0,0,1,.192,1.112A4.715,4.715,0,0,1,324.687,229.51Z" transform="translate(-313.902 -225.729)" fill="#ce775f" fill-rule="evenodd"/>
      </g>
      <g id="Group_1111477" data-name="Group 1111477" transform="translate(31.256 25.996)">
        <path id="Path_900292" data-name="Path 900292" d="M320.846,302.186a7.407,7.407,0,0,1-5.026-.993,9.877,9.877,0,0,1-1.457-1.05,4.8,4.8,0,0,1-1.254,2.36c.025.02.048.042.071.062,2.08,1.831,5.453,2.21,9.862,1.636a3.814,3.814,0,0,0,.8-2.411l0-.781A7.926,7.926,0,0,1,320.846,302.186Z" transform="translate(-313.109 -300.143)" fill="#d0cee7" fill-rule="evenodd"/>
      </g>
      <g id="Group_1111478" data-name="Group 1111478" transform="translate(27.728 16.747)">
        <path id="Path_900293" data-name="Path 900293" d="M279.6,207.5a7.459,7.459,0,0,0-1.842.184c.218,1.491.323,2.929.439,4.432-.275,2.063-.161,4.055,3.09,6.993a4.8,4.8,0,0,0,1.254-2.36l-.136-.122a13.771,13.771,0,0,1-1.039-1.022c-1.636-1.794-1.93-3.252-1.381-4.378l-.068-.872-.076-.968C279.793,208.758,279.691,208.129,279.6,207.5Z" transform="translate(-277.758 -207.498)" fill="#2b4d66" fill-rule="evenodd"/>
      </g>
      <g id="Group_1111479" data-name="Group 1111479" transform="translate(22.824 10.787)">
        <path id="Path_900294" data-name="Path 900294" d="M235.211,151.691a7.3,7.3,0,0,1-1.961-.614,3.517,3.517,0,0,1-2.088-2.176c-.212-1,.224-.458,1.406-1.084.031-.017-2.052-.023-3.888-.023-.535,4.788,4.669,4.834,4.865,6.144a7.457,7.457,0,0,1,1.842-.184A13.346,13.346,0,0,1,235.211,151.691Z" transform="translate(-228.641 -147.794)" fill="#d0cee7" fill-rule="evenodd"/>
      </g>
      <g id="Group_1111481" data-name="Group 1111481" transform="translate(0 0)">
        <path id="Path_900295" data-name="Path 900295" d="M339.213,174.059a.749.749,0,0,0-.749.749v.575a.749.749,0,0,0,1.5,0v-.575A.749.749,0,0,0,339.213,174.059Z" transform="translate(-304.676 -160.65)"/>
        <path id="Path_900296" data-name="Path 900296" d="M405.237,174.059a.749.749,0,0,0-.749.749v.575a.749.749,0,1,0,1.5,0v-.575A.749.749,0,0,0,405.237,174.059Z" transform="translate(-364.109 -160.65)"/>
        <path id="Path_900297" data-name="Path 900297" d="M346.981,252.246a.749.749,0,0,0-.749.749v1.211a.749.749,0,0,0,1.5,0v-1.211A.749.749,0,0,0,346.981,252.246Z" transform="translate(-311.669 -231.032)"/>
        <path id="Path_900298" data-name="Path 900298" d="M397.469,254.956a.749.749,0,0,0,.749-.749V253a.749.749,0,1,0-1.5,0v1.211A.749.749,0,0,0,397.469,254.956Z" transform="translate(-357.117 -231.032)"/>
        <g id="Group_1111480" data-name="Group 1111480" transform="translate(0 0)">
          <path id="Path_900299" data-name="Path 900299" d="M118.551,253.411A2.884,2.884,0,0,0,115,253.6a5.093,5.093,0,0,0-.539.54c-.318.355-.339.352-.452.327A4.235,4.235,0,0,0,110,255.624a3.768,3.768,0,0,0-.779,3.953,4.076,4.076,0,0,0,3.274,2.54q.157.015.31.015a3.017,3.017,0,0,0,2.569-1.458,4.422,4.422,0,0,1,2.16-1.729,3.411,3.411,0,0,0,2.155-2.08A2.954,2.954,0,0,0,118.551,253.411Zm-.287,2.981c-.215.641-.573.83-1.364,1.2a5.824,5.824,0,0,0-2.789,2.275,1.5,1.5,0,0,1-1.476.765,2.617,2.617,0,0,1-2.029-1.6,2.242,2.242,0,0,1,.518-2.417,2.554,2.554,0,0,1,1.907-.75,3.137,3.137,0,0,1,.663.07h0a1.855,1.855,0,0,0,1.884-.792,3.789,3.789,0,0,1,.385-.39,1.4,1.4,0,0,1,1.743-.1A1.469,1.469,0,0,1,118.264,256.392Z" transform="translate(-98.078 -231.611)"/>
          <path id="Path_900300" data-name="Path 900300" d="M50.944,50.646a1.218,1.218,0,0,0-.865-.485,3.81,3.81,0,0,1-2.188-1.379,4.4,4.4,0,0,0-4.373-1.076L43.4,45.461a2.134,2.134,0,0,0-3.947-1.24l-1.409,1.807c-.069,0-.138,0-.208,0s-.144,0-.216,0L36.21,44.22a2.134,2.134,0,0,0-3.947,1.243l-.118,2.246a4.41,4.41,0,0,0-4.382,1.074,5.933,5.933,0,0,1-1.179.991H14.045A11.349,11.349,0,0,0,3.353,57.359a10.751,10.751,0,0,1-1-10.312,2.794,2.794,0,0,0,.671.083,2.866,2.866,0,0,0,.552-.054,2.811,2.811,0,0,0,1.8-1.2C6.637,44.013,7.158,42.5,6.931,41.4a2.078,2.078,0,0,0-.925-1.357c-1.694-1.09-4.132.913-5.322,2.682v0a2.837,2.837,0,0,0,.356,3.581A12.482,12.482,0,0,0,2.87,59.242a11.362,11.362,0,0,0-.154,1.865c0,.515,0,1.013.007,1.5q0,.031,0,.062c.038,4.038.226,7.23.544,11.4L3.8,81.111a1.885,1.885,0,0,0,1.853,1.8h3.2a1.786,1.786,0,0,0,1.691-.849,1.873,1.873,0,0,0-.144-1.9L9.63,78.9l.378-4.621.209,0h2.292l.518,6.832a1.885,1.885,0,0,0,1.853,1.8h3.2a1.789,1.789,0,0,0,1.693-.849,1.872,1.872,0,0,0-.144-1.9L18.857,78.9l.413-4.621h4.141l.367,4.861c0,.007,0,.015,0,.022l.148,1.953a1.889,1.889,0,0,0,1.853,1.8h3.2a1.788,1.788,0,0,0,1.69-.847,1.876,1.876,0,0,0-.141-1.9L29.758,78.9l.519-5.795.1,0c.492.016,1.162.038,1.937.035l.606,7.968a1.885,1.885,0,0,0,1.853,1.8h3.2a1.789,1.789,0,0,0,1.693-.849,1.872,1.872,0,0,0-.144-1.9L38.751,78.9l.614-6.892a6.52,6.52,0,0,0,1.955-1.252,4.544,4.544,0,0,0,1.413-3.378v-.384a11.015,11.015,0,0,0,1.045-.83c2.342-2.1,3.247-4.034,2.688-5.763-.007-.02-.014-.04-.021-.06s.007-.048.009-.073l.144-1.842c.039-.491.111-.981.187-1.5.09-.611.181-1.232.217-1.861,1.8-.453,3.683-1.6,4.039-3.282A1.446,1.446,0,0,0,50.944,50.646ZM1.927,43.558c1.1-1.639,2.719-2.611,3.268-2.258a.574.574,0,0,1,.269.4c.065.316.066,1.275-1.325,3.344a1.332,1.332,0,0,1-2.212-1.486Zm38.706,1.584c.332-.424.665-.472.775-.428a.75.75,0,0,0,.1.032c.116.028.365.259.394.794l.076,1.448a9.31,9.31,0,0,0-2.194-.76Zm-6.874.4c.03-.537.279-.768.4-.8a.779.779,0,0,1,.183-.045.968.968,0,0,1,.693.439l.847,1.087-.065.016a9.3,9.3,0,0,0-2.13.748Zm-4.913,4.275a2.814,2.814,0,0,1,2.125-.794,9.318,9.318,0,0,0-2.016,3.467,6.419,6.419,0,0,0-.239,1,3.763,3.763,0,0,1-2.609-1.915A5.4,5.4,0,0,0,28.846,49.818Zm2.815,16.151a3,3,0,0,1-2.393,2.3A4.043,4.043,0,0,1,25.5,66.507a1.573,1.573,0,0,1,.062-1.885,6.894,6.894,0,0,0,1.107-4.565c-.016-1.125,0-1.835.4-2.246a2.971,2.971,0,0,1,1.91-.568c.022.176.041.354.056.54l.174,2.267c-.033.078-.064.156-.09.236C28.556,61.978,29.412,63.889,31.661,65.969ZM9.241,81.331a.6.6,0,0,1-.383.082h-3.2A.4.4,0,0,1,5.295,81l-.089-1.17H8.444l.685,1.118a.534.534,0,0,1,.113.385Zm9.225,0a.6.6,0,0,1-.386.082h-3.2A.4.4,0,0,1,14.52,81l-.089-1.17H17.67l.685,1.118A.533.533,0,0,1,18.467,81.331Zm-1.062-3H14.318l-.307-4.052h3.757Zm11.964,3c-.011.016-.116.082-.384.082h-3.2a.407.407,0,0,1-.36-.414l-.088-1.17h3.239l.686,1.116A.537.537,0,0,1,29.368,81.331Zm8.993,0a.6.6,0,0,1-.386.082h-3.2a.4.4,0,0,1-.36-.415l-.089-1.17h3.239l.685,1.118a.534.534,0,0,1,.113.384Zm-1.063-3H34.212l-.4-5.227a19.921,19.921,0,0,0,4-.568Zm2.983-8.653a5.393,5.393,0,0,1-1.817,1.093.745.745,0,0,0-.132.05,17.37,17.37,0,0,1-5.295.815.765.765,0,0,0-.085,0h-.008c-1.019.022-1.914-.007-2.517-.027a7.732,7.732,0,0,0-.92-.005.749.749,0,0,0-.66.677l-.542,6.048H25.219l-.367-4.857a.749.749,0,0,0-.747-.692H13.328c-.059-.01-3.111,0-3.111,0a5.926,5.926,0,0,1-.794-.053.749.749,0,0,0-.847.681l-.4,4.921H5.092l-.332-4.38c-.285-3.735-.465-6.679-.525-10.161a8.644,8.644,0,0,0,2.957.591,5.137,5.137,0,0,0,1.635-.251,4.392,4.392,0,0,0,2.636-2.474,5.445,5.445,0,0,1,1.466-2.005.749.749,0,0,0-.949-1.159,6.9,6.9,0,0,0-1.879,2.54,2.915,2.915,0,0,1-1.75,1.678,6.171,6.171,0,0,1-4.135-.543c0-.347,0-.7,0-1.061a9.845,9.845,0,0,1,9.832-9.835H17.51c.3,4.614-.958,5.152-1.8,5.513a.749.749,0,1,0,.589,1.377c1.83-.783,2.994-2.283,2.714-6.89h5.536a2.656,2.656,0,0,0,.068.51c.355,1.678,2.2,2.8,4.058,3.25.02.244.051.485.085.725a4.1,4.1,0,0,0-2.751,1c-.871.879-.854,2.121-.837,3.322a5.526,5.526,0,0,1-.806,3.643,3.066,3.066,0,0,0-.152,3.55,5.531,5.531,0,0,0,4.6,2.524,4.633,4.633,0,0,0,.675-.049,4.3,4.3,0,0,0,3.4-2.778,8.549,8.549,0,0,0,4.941,1.648,8.141,8.141,0,0,0,3.375-.749,2.991,2.991,0,0,1-.922,1.809Zm5.024-12.971c-.077.521-.156,1.061-.2,1.6l-.018.227A10.758,10.758,0,0,0,39.635,56.7a.749.749,0,1,0-.156,1.489c2.955.309,5.139,1.358,5.564,2.673.449,1.387-.982,3.042-2.261,4.187a9.521,9.521,0,0,1-1.168.9c-.019.011-.038.023-.056.036-2.82,1.8-5.98,1.488-8.684-.934-1.9-1.7-2.7-3.181-2.336-4.291.031-.095.079-.18.118-.271.63-1.177,2.728-2.075,5.495-2.324a.749.749,0,1,0-.134-1.491A10.948,10.948,0,0,0,30.583,58.4l-.056-.733c-.044-.582-.126-1.092-.2-1.584a6.053,6.053,0,0,1,.058-3.134,7.838,7.838,0,0,1,14.917,0A8.23,8.23,0,0,1,45.306,56.707Zm1.648-3.182a6.062,6.062,0,0,0-.232-1.033,9.331,9.331,0,0,0-2.02-3.469,2.8,2.8,0,0,1,2.107.794,5.4,5.4,0,0,0,2.741,1.762A3.825,3.825,0,0,1,46.954,53.525Z" transform="translate(0 -39.732)"/>
        </g>
      </g>
    </g>
  </g>
</svg>
