<svg xmlns="http://www.w3.org/2000/svg" xmlns:xlink="http://www.w3.org/1999/xlink" width="109.652" height="109.653" viewBox="0 0 109.652 109.653">
  <defs>
    <filter id="Path_874925" x="0" y="0" width="109.652" height="109.653" filterUnits="userSpaceOnUse">
      <feOffset dy="3" input="SourceAlpha"/>
      <feGaussianBlur stdDeviation="3" result="blur"/>
      <feFlood flood-opacity="0.161"/>
      <feComposite operator="in" in2="blur"/>
      <feComposite in="SourceGraphic"/>
    </filter>
  </defs>
  <g id="Group_1111635" data-name="Group 1111635" transform="translate(-1055.174 -1742.91)">
    <g id="Group_1111414" data-name="Group 1111414" transform="translate(44.443 -1328.09)">
      <g transform="matrix(1, 0, 0, 1, 1010.73, 3071)" filter="url(#Path_874925)">
        <g id="Path_874925-2" data-name="Path 874925" transform="translate(9 6)" fill="#ffd63c">
          <path d="M 45.82614517211914 90.15280151367188 C 39.84149551391602 90.15280151367188 34.03665924072266 88.98104095458984 28.5728702545166 86.67005157470703 C 23.29473304748535 84.43759155273438 18.55415725708008 81.24130249023438 14.48283290863037 77.16998291015625 C 10.41150760650635 73.09866333007812 7.215232849121094 68.35809326171875 4.982757568359375 63.07994079589844 C 2.671770095825195 57.61616897583008 1.500007629394531 51.81131744384766 1.500007629394531 45.82666778564453 C 1.500007629394531 39.84149169921875 2.671770095825195 34.03665542602539 4.982757568359375 28.57286643981934 C 7.215232849121094 23.29472923278809 10.41150760650635 18.55415534973145 14.48283290863037 14.48283004760742 C 18.55415725708008 10.4115047454834 23.29473304748535 7.215229511260986 28.5728702545166 4.982754707336426 C 34.03665924072266 2.671766996383667 39.84149551391602 1.500004529953003 45.82614517211914 1.500004529953003 C 51.81079483032227 1.500004529953003 57.61564636230469 2.671766996383667 63.07942199707031 4.982754707336426 C 68.35756683349609 7.215229511260986 73.09814453125 10.4115047454834 77.16947174072266 14.48283004760742 C 81.24078369140625 18.55415534973145 84.43707275390625 23.29472923278809 86.66954803466797 28.57286643981934 C 88.98052978515625 34.03665542602539 90.15229797363281 39.84149169921875 90.15229797363281 45.82614135742188 C 90.15229797363281 51.81131744384766 88.98052978515625 57.61616897583008 86.66954803466797 63.07994079589844 C 84.43707275390625 68.35809326171875 81.24078369140625 73.09866333007812 77.16947174072266 77.16998291015625 C 73.09814453125 81.24130249023438 68.35756683349609 84.43759155273438 63.07942199707031 86.67005157470703 C 57.61564636230469 88.98104095458984 51.81079483032227 90.15280151367188 45.82614517211914 90.15280151367188 Z" stroke="none"/>
          <path d="M 45.82614517211914 3.000007629394531 C 40.04333114624023 3.000007629394531 34.43508911132812 4.131904602050781 29.15720367431641 6.364265441894531 C 24.05784606933594 8.521102905273438 19.47753143310547 11.60944366455078 15.54348754882812 15.54348754882812 C 11.60944366455078 19.47753143310547 8.521102905273438 24.05784606933594 6.3642578125 29.15720367431641 C 4.131904602050781 34.43508911132812 3 40.0433349609375 3 45.82667541503906 C 3 51.60948944091797 4.131904602050781 57.21773147583008 6.3642578125 62.49562072753906 C 8.521102905273438 67.59497833251953 11.60944366455078 72.17527770996094 15.54348754882812 76.10932922363281 C 19.47753143310547 80.04337310791016 24.05784606933594 83.13170623779297 29.15718841552734 85.28854370117188 C 34.43508911132812 87.52090454101562 40.04333114624023 88.65280151367188 45.82614517211914 88.65280151367188 C 51.60895919799805 88.65280151367188 57.21720123291016 87.52090454101562 62.49510192871094 85.28854370117188 C 67.59444427490234 83.13170623779297 72.17475891113281 80.04337310791016 76.10880279541016 76.10932922363281 C 80.0428466796875 72.17527770996094 83.13118743896484 67.59497833251953 85.28803253173828 62.49562072753906 C 87.5203857421875 57.21773147583008 88.65229034423828 51.60948944091797 88.65229034423828 45.82614898681641 C 88.65229034423828 40.0433349609375 87.5203857421875 34.43508911132812 85.28803253173828 29.15720367431641 C 83.13118743896484 24.05784606933594 80.0428466796875 19.47753143310547 76.10880279541016 15.54348754882812 C 72.17475891113281 11.60944366455078 67.59444427490234 8.521102905273438 62.49508666992188 6.364265441894531 C 57.21720123291016 4.131904602050781 51.60895919799805 3.000007629394531 45.82614517211914 3.000007629394531 M 45.82614517211914 7.62939453125e-06 C 71.13523101806641 7.62939453125e-06 91.65229034423828 20.51705932617188 91.65229034423828 45.82614898681641 L 91.65229034423828 45.82667541503906 C 91.65229034423828 71.13575744628906 71.13523101806641 91.65280151367188 45.82614517211914 91.65280151367188 C 20.51705932617188 91.65280151367188 0 71.13575744628906 0 45.82667541503906 L 0 45.82614898681641 C 0 20.51705932617188 20.51705932617188 7.62939453125e-06 45.82614517211914 7.62939453125e-06 Z" stroke="none" fill="#fff"/>
        </g>
      </g>
    </g>
    <g id="evaluate_4501306" transform="translate(1028.917 1767.72)">
      <g id="Group_1111660" data-name="Group 1111660" transform="translate(61.282 0.843)">
        <g id="Group_1111657" data-name="Group 1111657" transform="translate(0)">
          <path id="Path_900674" data-name="Path 900674" d="M105.762,64.067a2.28,2.28,0,0,1,2.276,2.276V108.22a2.28,2.28,0,0,1-2.276,2.276H70.713a2.28,2.28,0,0,1-2.276-2.276V66.343a2.28,2.28,0,0,1,2.276-2.276Z" transform="translate(-68.437 -58.15)" fill="#eceff1" fill-rule="evenodd"/>
          <path id="Path_900675" data-name="Path 900675" d="M273.578,64.067a2.28,2.28,0,0,1,2.276,2.276V108.22a2.28,2.28,0,0,1-2.276,2.276H256.054V64.067Z" transform="translate(-236.254 -58.15)" fill="#e1e4e6" fill-rule="evenodd"/>
          <path id="Path_900676" data-name="Path 900676" d="M174.083,10.956h3.946a3.87,3.87,0,0,1,7.522,0H189.5a1.057,1.057,0,0,1,1.055,1.055v3.807a1.057,1.057,0,0,1-1.055,1.055H174.083a1.057,1.057,0,0,1-1.055-1.055V12.011a1.057,1.057,0,0,1,1.055-1.055Z" transform="translate(-161.99 -7.997)" fill="#685e68" fill-rule="evenodd"/>
          <path id="Path_900677" data-name="Path 900677" d="M256.054,8a3.87,3.87,0,0,1,3.761,2.959h3.946a1.057,1.057,0,0,1,1.055,1.055v3.807a1.057,1.057,0,0,1-1.055,1.055h-7.707Z" transform="translate(-236.254 -7.998)" fill="#544854" fill-rule="evenodd"/>
        </g>
        <g id="Group_1111658" data-name="Group 1111658" transform="translate(4.858 14.935)">
          <path id="Path_900678" data-name="Path 900678" d="M122.491,150.5l4.33,7.5a1.978,1.978,0,0,1-1.713,2.966h-8.661A1.978,1.978,0,0,1,114.735,158l4.33-7.5a1.978,1.978,0,0,1,3.425,0Z" transform="translate(-114.468 -149.514)" fill="#ffe177" fill-rule="evenodd"/>
          <path id="Path_900679" data-name="Path 900679" d="M175.972,150.5l4.33,7.5a1.978,1.978,0,0,1-1.713,2.966h-4.33V149.514A1.964,1.964,0,0,1,175.972,150.5Z" transform="translate(-167.949 -149.514)" fill="#ffd064" fill-rule="evenodd"/>
        </g>
        <g id="Group_1111659" data-name="Group 1111659" transform="translate(4.858 33.444)">
          <path id="Path_900680" data-name="Path 900680" d="M122.491,325.879l4.33,7.5a1.978,1.978,0,0,1-1.713,2.966h-8.661a1.978,1.978,0,0,1-1.713-2.966l4.33-7.5a1.978,1.978,0,0,1,3.425,0Z" transform="translate(-114.468 -324.89)" fill="#ffe177" fill-rule="evenodd"/>
          <path id="Path_900681" data-name="Path 900681" d="M175.972,325.879l4.33,7.5a1.978,1.978,0,0,1-1.713,2.966h-4.33V324.89A1.964,1.964,0,0,1,175.972,325.879Z" transform="translate(-167.949 -324.89)" fill="#ffd064" fill-rule="evenodd"/>
        </g>
      </g>
      <path id="Path_900682" data-name="Path 900682" d="M73.347,24.468a.9.9,0,1,1-.9-.9A.9.9,0,0,1,73.347,24.468Zm-1.742-2.286V19.758a.844.844,0,0,1,1.689,0v2.424a.844.844,0,0,1-1.689,0Zm6.156,3.641a1.123,1.123,0,0,0,0-1.133l-4.33-7.5a1.134,1.134,0,0,0-1.963,0l-4.33,7.5a1.133,1.133,0,0,0,.981,1.7h8.66A1.123,1.123,0,0,0,77.762,25.822Zm-2.867-9.478a2.823,2.823,0,0,0-4.888,0l-4.33,7.5a2.822,2.822,0,0,0,2.444,4.232h8.66a2.822,2.822,0,0,0,2.444-4.232ZM96.869,42.688a.844.844,0,0,1-.844.844h-13.6a.844.844,0,1,1,0-1.688h13.6A.844.844,0,0,1,96.869,42.688Zm0-5.347a.845.845,0,0,1-.844.844h-13.6a.844.844,0,1,1,0-1.689h13.6A.844.844,0,0,1,96.869,37.341Zm0-13.16a.844.844,0,0,1-.844.844h-13.6a.844.844,0,1,1,0-1.689h13.6A.844.844,0,0,1,96.869,24.18Zm0-5.348a.844.844,0,0,1-.844.844h-13.6a.844.844,0,1,1,0-1.688h13.6A.844.844,0,0,1,96.869,18.832ZM73.347,42.976a.9.9,0,1,1-.9-.9A.9.9,0,0,1,73.347,42.976ZM71.606,40.69V38.266a.844.844,0,0,1,1.689,0V40.69a.844.844,0,0,1-1.689,0Zm6.156,3.641a1.124,1.124,0,0,0,0-1.134l-4.33-7.5a1.133,1.133,0,0,0-1.963,0l-4.33,7.5a1.133,1.133,0,0,0,.981,1.7h8.66A1.122,1.122,0,0,0,77.762,44.332Zm-2.867-9.478a2.822,2.822,0,0,0-4.888,0l-4.33,7.5a2.822,2.822,0,0,0,2.444,4.233h8.66a2.822,2.822,0,0,0,2.444-4.233Zm25.144,16.06V9.036A1.432,1.432,0,0,0,98.607,7.6H90.689V8.663a1.9,1.9,0,0,1-1.9,1.9H73.376a1.9,1.9,0,0,1-1.9-1.9V7.6H63.558a1.432,1.432,0,0,0-1.431,1.431V50.913a1.432,1.432,0,0,0,1.431,1.432H98.607a1.432,1.432,0,0,0,1.431-1.432ZM73.165,4.856a.213.213,0,0,1,.211-.211h3.946A.844.844,0,0,0,78.142,4a3.026,3.026,0,0,1,5.882,0,.844.844,0,0,0,.82.646h3.946A.214.214,0,0,1,89,4.856V8.663a.214.214,0,0,1-.211.211H73.376a.213.213,0,0,1-.211-.211Zm25.442,1.06H90.689V4.856a1.9,1.9,0,0,0-1.9-1.9h-3.33a4.716,4.716,0,0,0-8.753,0h-3.33a1.9,1.9,0,0,0-1.9,1.9v1.06H63.558a3.123,3.123,0,0,0-3.12,3.119V50.913a3.123,3.123,0,0,0,3.12,3.12H98.607a3.123,3.123,0,0,0,3.12-3.12V9.036a3.123,3.123,0,0,0-3.12-3.119Z" transform="translate(0)" fill-rule="evenodd"/>
    </g>
  </g>
</svg>
