<svg xmlns="http://www.w3.org/2000/svg" xmlns:xlink="http://www.w3.org/1999/xlink" width="109.652" height="109.652" viewBox="0 0 109.652 109.652">
  <defs>
    <filter id="Path_874925" x="0" y="0" width="109.652" height="109.652" filterUnits="userSpaceOnUse">
      <feOffset dy="3" input="SourceAlpha"/>
      <feGaussianBlur stdDeviation="3" result="blur"/>
      <feFlood flood-opacity="0.161"/>
      <feComposite operator="in" in2="blur"/>
      <feComposite in="SourceGraphic"/>
    </filter>
  </defs>
  <g id="Group_1111645" data-name="Group 1111645" transform="translate(-11890 9874)">
    <g id="Group_1111415" data-name="Group 1111415" transform="translate(10879.27 -12945)">
      <g transform="matrix(1, 0, 0, 1, 1010.73, 3071)" filter="url(#Path_874925)">
        <g id="Path_874925-2" data-name="Path 874925" transform="translate(9 6)" fill="#ffd63c">
          <path d="M 45.82614517211914 90.15280151367188 C 39.84149551391602 90.15280151367188 34.03665924072266 88.98104095458984 28.5728702545166 86.67005157470703 C 23.29473304748535 84.43759155273438 18.55415725708008 81.24130249023438 14.48283290863037 77.16998291015625 C 10.41150760650635 73.09866333007812 7.215232849121094 68.35809326171875 4.982757568359375 63.07994079589844 C 2.671770095825195 57.61616897583008 1.500007629394531 51.81131744384766 1.500007629394531 45.82666778564453 C 1.500007629394531 39.84149169921875 2.671770095825195 34.03665542602539 4.982757568359375 28.57286643981934 C 7.215232849121094 23.29472923278809 10.41150760650635 18.55415534973145 14.48283290863037 14.48283004760742 C 18.55415725708008 10.4115047454834 23.29473304748535 7.215229511260986 28.5728702545166 4.982754707336426 C 34.03665924072266 2.671766996383667 39.84149551391602 1.500004529953003 45.82614517211914 1.500004529953003 C 51.81079483032227 1.500004529953003 57.61564636230469 2.671766996383667 63.07942199707031 4.982754707336426 C 68.35756683349609 7.215229511260986 73.09814453125 10.4115047454834 77.16947174072266 14.48283004760742 C 81.24078369140625 18.55415534973145 84.43707275390625 23.29472923278809 86.66954803466797 28.57286643981934 C 88.98052978515625 34.03665542602539 90.15229797363281 39.84149169921875 90.15229797363281 45.82614135742188 C 90.15229797363281 51.81131744384766 88.98052978515625 57.61616897583008 86.66954803466797 63.07994079589844 C 84.43707275390625 68.35809326171875 81.24078369140625 73.09866333007812 77.16947174072266 77.16998291015625 C 73.09814453125 81.24130249023438 68.35756683349609 84.43759155273438 63.07942199707031 86.67005157470703 C 57.61564636230469 88.98104095458984 51.81079483032227 90.15280151367188 45.82614517211914 90.15280151367188 Z" stroke="none"/>
          <path d="M 45.82614517211914 3.000007629394531 C 40.04333114624023 3.000007629394531 34.43508911132812 4.131904602050781 29.15720367431641 6.364265441894531 C 24.05784606933594 8.521102905273438 19.47753143310547 11.60944366455078 15.54348754882812 15.54348754882812 C 11.60944366455078 19.47753143310547 8.521102905273438 24.05784606933594 6.3642578125 29.15720367431641 C 4.131904602050781 34.43508911132812 3 40.0433349609375 3 45.82667541503906 C 3 51.60948944091797 4.131904602050781 57.21773147583008 6.3642578125 62.49562072753906 C 8.521102905273438 67.59497833251953 11.60944366455078 72.17527770996094 15.54348754882812 76.10932922363281 C 19.47753143310547 80.04337310791016 24.05784606933594 83.13170623779297 29.15718841552734 85.28854370117188 C 34.43508911132812 87.52090454101562 40.04333114624023 88.65280151367188 45.82614517211914 88.65280151367188 C 51.60895919799805 88.65280151367188 57.21720123291016 87.52090454101562 62.49510192871094 85.28854370117188 C 67.59444427490234 83.13170623779297 72.17475891113281 80.04337310791016 76.10880279541016 76.10932922363281 C 80.0428466796875 72.17527770996094 83.13118743896484 67.59497833251953 85.28803253173828 62.49562072753906 C 87.5203857421875 57.21773147583008 88.65229034423828 51.60948944091797 88.65229034423828 45.82614898681641 C 88.65229034423828 40.0433349609375 87.5203857421875 34.43508911132812 85.28803253173828 29.15720367431641 C 83.13118743896484 24.05784606933594 80.0428466796875 19.47753143310547 76.10880279541016 15.54348754882812 C 72.17475891113281 11.60944366455078 67.59444427490234 8.521102905273438 62.49508666992188 6.364265441894531 C 57.21720123291016 4.131904602050781 51.60895919799805 3.000007629394531 45.82614517211914 3.000007629394531 M 45.82614517211914 7.62939453125e-06 C 71.13523101806641 7.62939453125e-06 91.65229034423828 20.51705932617188 91.65229034423828 45.82614898681641 L 91.65229034423828 45.82667541503906 C 91.65229034423828 71.13575744628906 71.13523101806641 91.65280151367188 45.82614517211914 91.65280151367188 C 20.51705932617188 91.65280151367188 0 71.13575744628906 0 45.82667541503906 L 0 45.82614898681641 C 0 20.51705932617188 20.51705932617188 7.62939453125e-06 45.82614517211914 7.62939453125e-06 Z" stroke="none" fill="#fff"/>
        </g>
      </g>
    </g>
    <g id="_18-Calendar" data-name="18-Calendar" transform="translate(11920.826 -9845.184)">
      <path id="Path_900683" data-name="Path 900683" d="M39.554,6.606v4.819H1V6.606A1.611,1.611,0,0,1,2.606,5H5.819V6.606a1.606,1.606,0,1,0,3.213,0V5h9.639V6.606a1.606,1.606,0,1,0,3.213,0V5h9.639V6.606a1.606,1.606,0,1,0,3.213,0V5h3.213a1.611,1.611,0,0,1,1.606,1.606Z" transform="translate(-0.197 -0.984)" fill="#ff7d81"/>
      <path id="Path_900684" data-name="Path 900684" d="M39.554,13V40.309a1.611,1.611,0,0,1-1.606,1.606H7.426V37.1A1.611,1.611,0,0,0,5.819,35.49H1V13Z" transform="translate(-0.197 -2.558)" fill="#e3fbff"/>
      <path id="Path_900685" data-name="Path 900685" d="M1,13V35.49H5.819A1.611,1.611,0,0,1,7.426,37.1v4.819H37.948a1.568,1.568,0,0,0,.333-.036C7.271,41.117,1,13,1,13Z" transform="translate(-0.197 -2.558)" fill="#b5efff"/>
      <path id="Path_900686" data-name="Path 900686" d="M10.213,4.213V5.819A1.606,1.606,0,1,1,7,5.819V2.606A1.611,1.611,0,0,1,8.606,1a1.57,1.57,0,0,1,1.133.474,1.57,1.57,0,0,1,.474,1.133Z" transform="translate(-1.378 -0.197)" fill="#e4e4e4"/>
      <path id="Path_900687" data-name="Path 900687" d="M9.936,1.474A1.573,1.573,0,0,0,8,1.224a1.6,1.6,0,0,1,.8,1.382V5.819A1.606,1.606,0,0,1,8,7.2a1.586,1.586,0,0,0,.8.224A1.611,1.611,0,0,0,10.41,5.819V2.606a1.57,1.57,0,0,0-.474-1.133Z" transform="translate(-1.574 -0.197)" fill="#c1c1c1"/>
      <path id="Path_900688" data-name="Path 900688" d="M26.213,4.213V5.819a1.606,1.606,0,1,1-3.213,0V2.606A1.611,1.611,0,0,1,24.606,1a1.57,1.57,0,0,1,1.133.474,1.57,1.57,0,0,1,.474,1.133Z" transform="translate(-4.526 -0.197)" fill="#e4e4e4"/>
      <path id="Path_900689" data-name="Path 900689" d="M42.213,4.213V5.819a1.606,1.606,0,1,1-3.213,0V2.606A1.611,1.611,0,0,1,40.606,1a1.57,1.57,0,0,1,1.133.474,1.57,1.57,0,0,1,.474,1.133Z" transform="translate(-7.675 -0.197)" fill="#e4e4e4"/>
      <path id="Path_900690" data-name="Path 900690" d="M39.554,6.606v4.819H1V6.606A1.611,1.611,0,0,1,2.606,5H5.819V6.606a1.606,1.606,0,1,0,3.213,0V5h9.639V6.606a1.606,1.606,0,1,0,3.213,0V5h9.639V6.606a1.606,1.606,0,1,0,3.213,0V5h3.213a1.611,1.611,0,0,1,1.606,1.606Z" transform="translate(-0.197 -0.984)" fill="#ff7d81"/>
      <path id="Path_900691" data-name="Path 900691" d="M39.554,49.032a1.611,1.611,0,0,1-1.606,1.606H2.606A1.611,1.611,0,0,1,1,49.032V41l6.426,6.426H37.948a1.611,1.611,0,0,0,1.606-1.606Z" transform="translate(-0.197 -8.068)" fill="#80dbff"/>
      <path id="Path_900692" data-name="Path 900692" d="M37.948,47.426H7.426L1,41v1.606l6.426,6.426H37.948a1.611,1.611,0,0,0,1.606-1.606V45.819A1.611,1.611,0,0,1,37.948,47.426Z" transform="translate(-0.197 -8.068)" fill="#4ab8f7"/>
      <path id="Path_900693" data-name="Path 900693" d="M1,13H2.606V35.49H1Z" transform="translate(-0.197 -2.558)" fill="#b5efff"/>
      <path id="Path_900694" data-name="Path 900694" d="M46.606,13V40.309A1.611,1.611,0,0,1,45,41.916h1.606a1.611,1.611,0,0,0,1.606-1.606V13Z" transform="translate(-8.855 -2.558)" fill="#b5efff"/>
      <path id="Path_900695" data-name="Path 900695" d="M25.936,1.474A1.573,1.573,0,0,0,24,1.224a1.6,1.6,0,0,1,.8,1.382V5.819A1.606,1.606,0,0,1,24,7.2a1.586,1.586,0,0,0,.8.224A1.611,1.611,0,0,0,26.41,5.819V2.606A1.57,1.57,0,0,0,25.936,1.474Z" transform="translate(-4.723 -0.197)" fill="#c1c1c1"/>
      <path id="Path_900696" data-name="Path 900696" d="M41.936,1.474A1.573,1.573,0,0,0,40,1.224a1.6,1.6,0,0,1,.8,1.382V5.819A1.606,1.606,0,0,1,40,7.2a1.586,1.586,0,0,0,.8.224A1.611,1.611,0,0,0,42.41,5.819V2.606a1.57,1.57,0,0,0-.474-1.133Z" transform="translate(-7.871 -0.197)" fill="#c1c1c1"/>
      <path id="Path_900697" data-name="Path 900697" d="M11,5h9.639V6.606H11Z" transform="translate(-2.165 -0.984)" fill="#ff475a"/>
      <path id="Path_900698" data-name="Path 900698" d="M2.606,5A1.611,1.611,0,0,0,1,6.606V8.213A1.611,1.611,0,0,1,2.606,6.606H5.819V5Z" transform="translate(-0.197 -0.984)" fill="#ff475a"/>
      <path id="Path_900699" data-name="Path 900699" d="M24.606,8.606A1.611,1.611,0,0,1,23,7V8.606a1.606,1.606,0,1,0,3.213,0V7A1.611,1.611,0,0,1,24.606,8.606Z" transform="translate(-4.526 -1.378)" fill="#ff475a"/>
      <path id="Path_900700" data-name="Path 900700" d="M8.606,8.606A1.611,1.611,0,0,1,7,7V8.606a1.606,1.606,0,0,0,3.213,0V7A1.611,1.611,0,0,1,8.606,8.606Z" transform="translate(-1.378 -1.378)" fill="#ff475a"/>
      <path id="Path_900701" data-name="Path 900701" d="M46.213,5H43V6.606h3.213a1.611,1.611,0,0,1,1.606,1.606V6.606A1.611,1.611,0,0,0,46.213,5Z" transform="translate(-8.462 -0.984)" fill="#ff475a"/>
      <path id="Path_900702" data-name="Path 900702" d="M40.606,8.606A1.611,1.611,0,0,1,39,7V8.606a1.606,1.606,0,0,0,3.213,0V7A1.611,1.611,0,0,1,40.606,8.606Z" transform="translate(-7.675 -1.378)" fill="#ff475a"/>
      <path id="Path_900703" data-name="Path 900703" d="M27,5h9.639V6.606H27Z" transform="translate(-5.313 -0.984)" fill="#ff475a"/>
      <path id="Path_900704" data-name="Path 900704" d="M4.213,5H2.606A1.611,1.611,0,0,0,1,6.606v4.819H2.606V6.606A1.611,1.611,0,0,1,4.213,5Z" transform="translate(-0.197 -0.984)" fill="#ff636e"/>
      <path id="Path_900705" data-name="Path 900705" d="M46.606,5H45a1.611,1.611,0,0,1,1.606,1.606v4.819h1.606V6.606A1.611,1.611,0,0,0,46.606,5Z" transform="translate(-8.855 -0.984)" fill="#ff636e"/>
      <path id="Path_900706" data-name="Path 900706" d="M8,18h4.819v4.819H8Z" transform="translate(-1.574 -3.542)" fill="#1ea1e3"/>
      <path id="Path_900707" data-name="Path 900707" d="M9.606,18H8v4.819h4.819V21.213A3.213,3.213,0,0,1,9.606,18Z" transform="translate(-1.574 -3.542)" fill="#368dcf"/>
      <g id="Group_1111661" data-name="Group 1111661" transform="translate(6.426 14.458)">
        <path id="Path_900708" data-name="Path 900708" d="M22,18h4.819v4.819H22Z" transform="translate(-10.755 -18)" fill="#1ea1e3"/>
        <path id="Path_900709" data-name="Path 900709" d="M36,18h4.819v4.819H36Z" transform="translate(-13.51 -18)" fill="#1ea1e3"/>
        <path id="Path_900710" data-name="Path 900710" d="M8,28h4.819v4.819H8Z" transform="translate(-8 -19.968)" fill="#1ea1e3"/>
        <path id="Path_900711" data-name="Path 900711" d="M22,28h4.819v4.819H22Z" transform="translate(-10.755 -19.968)" fill="#1ea1e3"/>
        <path id="Path_900712" data-name="Path 900712" d="M36,28h4.819v4.819H36Z" transform="translate(-13.51 -19.968)" fill="#1ea1e3"/>
        <path id="Path_900713" data-name="Path 900713" d="M8,38h4.819v4.819H8Z" transform="translate(-8 -21.936)" fill="#1ea1e3"/>
        <path id="Path_900714" data-name="Path 900714" d="M22,38h4.819v4.819H22Z" transform="translate(-10.755 -21.936)" fill="#1ea1e3"/>
        <path id="Path_900715" data-name="Path 900715" d="M36,38h4.819v4.819H36Z" transform="translate(-13.51 -21.936)" fill="#1ea1e3"/>
      </g>
      <path id="Path_900716" data-name="Path 900716" d="M23.606,18H22v4.819h4.819V21.213A3.213,3.213,0,0,1,23.606,18Z" transform="translate(-4.329 -3.542)" fill="#368dcf"/>
      <path id="Path_900717" data-name="Path 900717" d="M37.606,18H36v4.819h4.819V21.213A3.213,3.213,0,0,1,37.606,18Z" transform="translate(-7.084 -3.542)" fill="#368dcf"/>
      <path id="Path_900718" data-name="Path 900718" d="M9.606,28H8v4.819h4.819V31.213A3.213,3.213,0,0,1,9.606,28Z" transform="translate(-1.574 -5.51)" fill="#368dcf"/>
      <path id="Path_900719" data-name="Path 900719" d="M23.606,28H22v4.819h4.819V31.213A3.213,3.213,0,0,1,23.606,28Z" transform="translate(-4.329 -5.51)" fill="#368dcf"/>
      <path id="Path_900720" data-name="Path 900720" d="M37.606,28H36v4.819h4.819V31.213A3.213,3.213,0,0,1,37.606,28Z" transform="translate(-7.084 -5.51)" fill="#368dcf"/>
      <path id="Path_900721" data-name="Path 900721" d="M9.606,38H8v4.819h4.819V41.213A3.213,3.213,0,0,1,9.606,38Z" transform="translate(-1.574 -7.478)" fill="#368dcf"/>
      <path id="Path_900722" data-name="Path 900722" d="M23.606,38H22v4.819h4.819V41.213A3.213,3.213,0,0,1,23.606,38Z" transform="translate(-4.329 -7.478)" fill="#368dcf"/>
      <path id="Path_900723" data-name="Path 900723" d="M37.606,38H36v4.819h4.819V41.213A3.213,3.213,0,0,1,37.606,38Z" transform="translate(-7.084 -7.478)" fill="#368dcf"/>
      <path id="Path_900724" data-name="Path 900724" d="M7.426,42.606v4.819L1,41H5.819A1.611,1.611,0,0,1,7.426,42.606Z" transform="translate(-0.197 -8.068)" fill="#19cffc"/>
      <path id="Path_900725" data-name="Path 900725" d="M46.245,35A11.245,11.245,0,1,1,35,46.245,11.245,11.245,0,0,1,46.245,35Zm8.032,11.245a8.032,8.032,0,1,0-8.032,8.032A8.032,8.032,0,0,0,54.277,46.245Z" transform="translate(-6.888 -6.888)" fill="#f0f0f0"/>
      <path id="Path_900726" data-name="Path 900726" d="M47.819,43A4.819,4.819,0,1,1,43,47.819,4.819,4.819,0,0,1,47.819,43Zm1.606,4.819a1.606,1.606,0,1,0-1.606,1.606A1.606,1.606,0,0,0,49.426,47.819Z" transform="translate(-8.462 -8.462)" fill="#f0f0f0"/>
      <path id="Path_900727" data-name="Path 900727" d="M47.032,39A8.032,8.032,0,1,1,39,47.032,8.032,8.032,0,0,1,47.032,39Zm4.819,8.032a4.819,4.819,0,1,0-4.819,4.819A4.819,4.819,0,0,0,51.851,47.032Z" transform="translate(-7.675 -7.675)" fill="#ff7d81"/>
      <circle id="Ellipse_11559" data-name="Ellipse 11559" cx="1.606" cy="1.606" r="1.606" transform="translate(37.751 37.751)" fill="#ff7d81"/>
      <path id="Path_900728" data-name="Path 900728" d="M48.818,53.92A8.023,8.023,0,0,1,41,40.24a11.21,11.21,0,0,1,2.716-4.873A11.239,11.239,0,1,0,54.388,54.055a11,11,0,0,1-5.57-.136Z" transform="translate(-6.886 -6.96)" fill="#cfcfcf"/>
      <path id="Path_900729" data-name="Path 900729" d="M44.208,52.482a11.187,11.187,0,0,1-.908-1.618A4.79,4.79,0,0,0,44.208,52.482Z" transform="translate(-8.521 -10.009)" fill="#cfcfcf"/>
      <path id="Path_900730" data-name="Path 900730" d="M39,47.511a8.017,8.017,0,0,0,10.6,7.6,11.254,11.254,0,0,1-6.245-4.487,4.79,4.79,0,0,1-.908-1.618,11.06,11.06,0,0,1-.662-7.574A8.008,8.008,0,0,0,39,47.511Z" transform="translate(-7.675 -8.154)" fill="#ff475a"/>
      <path id="Path_900731" data-name="Path 900731" d="M0,0H1.606V17.039H0Z" transform="translate(26.735 27.878) rotate(-45)" fill="#966857"/>
      <path id="Path_900732" data-name="Path 900732" d="M38.016,34.016,36.41,35.622,34,33.213V30Z" transform="translate(-6.691 -5.904)" fill="#bf947a"/>
      <path id="Path_900733" data-name="Path 900733" d="M35.622,36.41l-1.606,1.606L30,34h3.213Z" transform="translate(-5.904 -6.691)" fill="#cfa388"/>
      <path id="Path_900734" data-name="Path 900734" d="M8.032,34.538a2.41,2.41,0,0,0-2.41-2.41H1.606V11.245H38.554V26.506h1.606V5.622a2.41,2.41,0,0,0-2.41-2.41h-2.41v-.8a2.41,2.41,0,1,0-4.819,0v.8H22.49v-.8a2.41,2.41,0,1,0-4.819,0v.8H9.639v-.8a2.41,2.41,0,1,0-4.819,0v.8H2.41A2.41,2.41,0,0,0,0,5.622V40.964a2.41,2.41,0,0,0,2.41,2.41h24.1V41.767H2.41a.8.8,0,0,1-.8-.8V34.871l5.055,5.055a.8.8,0,0,0,.568.235H26.506V38.554H8.032Zm-1.606,0v2.88L2.742,33.735h2.88A.8.8,0,0,1,6.426,34.538ZM32.129,2.41a.8.8,0,0,1,1.606,0V5.622a.8.8,0,1,1-1.606,0Zm-12.851,0a.8.8,0,1,1,1.606,0V5.622a.8.8,0,1,1-1.606,0Zm-12.851,0a.8.8,0,1,1,1.606,0V5.622a.8.8,0,1,1-1.606,0ZM2.41,4.819h2.41v.8a2.41,2.41,0,0,0,4.819,0v-.8h8.032v.8a2.41,2.41,0,0,0,4.819,0v-.8h8.032v.8a2.41,2.41,0,1,0,4.819,0v-.8h2.41a.8.8,0,0,1,.8.8V9.639H1.606V5.622a.8.8,0,0,1,.8-.8Z"/>
      <path id="Path_900735" data-name="Path 900735" d="M13.426,17.8a.8.8,0,0,0-.8-.8H7.8a.8.8,0,0,0-.8.8v4.819a.8.8,0,0,0,.8.8h4.819a.8.8,0,0,0,.8-.8Zm-1.606,4.016H8.606V18.606h3.213Z" transform="translate(-1.378 -3.345)"/>
      <path id="Path_900736" data-name="Path 900736" d="M27.426,17.8a.8.8,0,0,0-.8-.8H21.8a.8.8,0,0,0-.8.8v4.819a.8.8,0,0,0,.8.8h4.819a.8.8,0,0,0,.8-.8Zm-1.606,4.016H22.606V18.606h3.213Z" transform="translate(-4.133 -3.345)"/>
      <path id="Path_900737" data-name="Path 900737" d="M41.426,17.8a.8.8,0,0,0-.8-.8H35.8a.8.8,0,0,0-.8.8v4.819a.8.8,0,0,0,.8.8h4.819a.8.8,0,0,0,.8-.8Zm-1.606,4.016H36.606V18.606h3.213Z" transform="translate(-6.888 -3.345)"/>
      <path id="Path_900738" data-name="Path 900738" d="M40.622,33.426a.8.8,0,0,0,.8-.8V27.8a.8.8,0,0,0-.8-.8H35.8a.8.8,0,0,0-.8.8v.8h4.819v4.819Z" transform="translate(-6.888 -5.313)"/>
      <path id="Path_900739" data-name="Path 900739" d="M13.426,27.8a.8.8,0,0,0-.8-.8H7.8a.8.8,0,0,0-.8.8v4.819a.8.8,0,0,0,.8.8h4.819a.8.8,0,0,0,.8-.8Zm-1.606,4.016H8.606V28.606h3.213Z" transform="translate(-1.378 -5.313)"/>
      <path id="Path_900740" data-name="Path 900740" d="M27.426,27.8a.8.8,0,0,0-.8-.8H21.8a.8.8,0,0,0-.8.8v4.819a.8.8,0,0,0,.8.8h4.819a.8.8,0,0,0,.8-.8Zm-1.606,4.016H22.606V28.606h3.213Z" transform="translate(-4.133 -5.313)"/>
      <path id="Path_900741" data-name="Path 900741" d="M10.213,41.819v1.606h2.41a.8.8,0,0,0,.8-.8V37.8a.8.8,0,0,0-.8-.8H7.8a.8.8,0,0,0-.8.8v.8h4.819v3.213Z" transform="translate(-1.378 -7.281)"/>
      <path id="Path_900742" data-name="Path 900742" d="M26.622,37H21.8a.8.8,0,0,0-.8.8v4.819a.8.8,0,0,0,.8.8h4.819a.8.8,0,0,0,.8-.8V37.8A.8.8,0,0,0,26.622,37Zm-.8,4.819H22.606V38.606h3.213Z" transform="translate(-4.133 -7.281)"/>
      <path id="Path_900743" data-name="Path 900743" d="M45.064,33.016a11.984,11.984,0,0,0-7.919,2.991l-.584-.581L37.6,34.387a.8.8,0,0,0,0-1.136l-4.016-4.016a.8.8,0,0,0-1.371.568v2.41H29.8a.8.8,0,0,0-.568,1.371L33.251,37.6a.8.8,0,0,0,1.136,0l1.039-1.039.582.582a12.033,12.033,0,1,0,9.056-4.128Zm-9.168.8-.471.471-1.606-1.606v-.941ZM33.819,35.9l-2.077-2.077h.941l1.606,1.606Zm11.245,19.61a10.427,10.427,0,0,1-7.92-17.227l1.135,1.135a8.849,8.849,0,1,0,1.136-1.136L38.28,37.144a10.436,10.436,0,1,1,6.785,18.362Zm-4.5-13.8A5.645,5.645,0,1,0,41.7,40.566L40.557,39.42a7.247,7.247,0,1,1-1.136,1.136ZM42.9,44.033a2.37,2.37,0,0,0-.241,1.031,2.41,2.41,0,1,0,2.41-2.41,2.37,2.37,0,0,0-1.032.241l-1.179-1.179a4.028,4.028,0,1,1-1.136,1.136Zm2.736.464A.8.8,0,1,1,44.5,45.633Z" transform="translate(-5.707 -5.707)"/>
    </g>
  </g>
</svg>
