<svg xmlns="http://www.w3.org/2000/svg" xmlns:xlink="http://www.w3.org/1999/xlink" width="109.652" height="109.652" viewBox="0 0 109.652 109.652">
  <defs>
    <filter id="Path_874925" x="0" y="0" width="109.652" height="109.652" filterUnits="userSpaceOnUse">
      <feOffset dy="3" input="SourceAlpha"/>
      <feGaussianBlur stdDeviation="3" result="blur"/>
      <feFlood flood-opacity="0.161"/>
      <feComposite operator="in" in2="blur"/>
      <feComposite in="SourceGraphic"/>
    </filter>
  </defs>
  <g id="Group_1111648" data-name="Group 1111648" transform="translate(-12226.174 9873.58)">
    <g id="Group_1111416" data-name="Group 1111416" transform="translate(11215.443 -12944.58)">
      <g transform="matrix(1, 0, 0, 1, 1010.73, 3071)" filter="url(#Path_874925)">
        <g id="Path_874925-2" data-name="Path 874925" transform="translate(9 6)" fill="#ffd63c">
          <path d="M 45.82614517211914 90.15280151367188 C 39.84149551391602 90.15280151367188 34.03665924072266 88.98104095458984 28.5728702545166 86.67005157470703 C 23.29473304748535 84.43759155273438 18.55415725708008 81.24130249023438 14.48283290863037 77.16998291015625 C 10.41150760650635 73.09866333007812 7.215232849121094 68.35809326171875 4.982757568359375 63.07994079589844 C 2.671770095825195 57.61616897583008 1.500007629394531 51.81131744384766 1.500007629394531 45.82666778564453 C 1.500007629394531 39.84149169921875 2.671770095825195 34.03665542602539 4.982757568359375 28.57286643981934 C 7.215232849121094 23.29472923278809 10.41150760650635 18.55415534973145 14.48283290863037 14.48283004760742 C 18.55415725708008 10.4115047454834 23.29473304748535 7.215229511260986 28.5728702545166 4.982754707336426 C 34.03665924072266 2.671766996383667 39.84149551391602 1.500004529953003 45.82614517211914 1.500004529953003 C 51.81079483032227 1.500004529953003 57.61564636230469 2.671766996383667 63.07942199707031 4.982754707336426 C 68.35756683349609 7.215229511260986 73.09814453125 10.4115047454834 77.16947174072266 14.48283004760742 C 81.24078369140625 18.55415534973145 84.43707275390625 23.29472923278809 86.66954803466797 28.57286643981934 C 88.98052978515625 34.03665542602539 90.15229797363281 39.84149169921875 90.15229797363281 45.82614135742188 C 90.15229797363281 51.81131744384766 88.98052978515625 57.61616897583008 86.66954803466797 63.07994079589844 C 84.43707275390625 68.35809326171875 81.24078369140625 73.09866333007812 77.16947174072266 77.16998291015625 C 73.09814453125 81.24130249023438 68.35756683349609 84.43759155273438 63.07942199707031 86.67005157470703 C 57.61564636230469 88.98104095458984 51.81079483032227 90.15280151367188 45.82614517211914 90.15280151367188 Z" stroke="none"/>
          <path d="M 45.82614517211914 3.000007629394531 C 40.04333114624023 3.000007629394531 34.43508911132812 4.131904602050781 29.15720367431641 6.364265441894531 C 24.05784606933594 8.521102905273438 19.47753143310547 11.60944366455078 15.54348754882812 15.54348754882812 C 11.60944366455078 19.47753143310547 8.521102905273438 24.05784606933594 6.3642578125 29.15720367431641 C 4.131904602050781 34.43508911132812 3 40.0433349609375 3 45.82667541503906 C 3 51.60948944091797 4.131904602050781 57.21773147583008 6.3642578125 62.49562072753906 C 8.521102905273438 67.59497833251953 11.60944366455078 72.17527770996094 15.54348754882812 76.10932922363281 C 19.47753143310547 80.04337310791016 24.05784606933594 83.13170623779297 29.15718841552734 85.28854370117188 C 34.43508911132812 87.52090454101562 40.04333114624023 88.65280151367188 45.82614517211914 88.65280151367188 C 51.60895919799805 88.65280151367188 57.21720123291016 87.52090454101562 62.49510192871094 85.28854370117188 C 67.59444427490234 83.13170623779297 72.17475891113281 80.04337310791016 76.10880279541016 76.10932922363281 C 80.0428466796875 72.17527770996094 83.13118743896484 67.59497833251953 85.28803253173828 62.49562072753906 C 87.5203857421875 57.21773147583008 88.65229034423828 51.60948944091797 88.65229034423828 45.82614898681641 C 88.65229034423828 40.0433349609375 87.5203857421875 34.43508911132812 85.28803253173828 29.15720367431641 C 83.13118743896484 24.05784606933594 80.0428466796875 19.47753143310547 76.10880279541016 15.54348754882812 C 72.17475891113281 11.60944366455078 67.59444427490234 8.521102905273438 62.49508666992188 6.364265441894531 C 57.21720123291016 4.131904602050781 51.60895919799805 3.000007629394531 45.82614517211914 3.000007629394531 M 45.82614517211914 7.62939453125e-06 C 71.13523101806641 7.62939453125e-06 91.65229034423828 20.51705932617188 91.65229034423828 45.82614898681641 L 91.65229034423828 45.82667541503906 C 91.65229034423828 71.13575744628906 71.13523101806641 91.65280151367188 45.82614517211914 91.65280151367188 C 20.51705932617188 91.65280151367188 0 71.13575744628906 0 45.82667541503906 L 0 45.82614898681641 C 0 20.51705932617188 20.51705932617188 7.62939453125e-06 45.82614517211914 7.62939453125e-06 Z" stroke="none" fill="#fff"/>
        </g>
      </g>
    </g>
    <g id="selective_3317730" transform="translate(12254.179 -9847.109)">
      <g id="Group_1111675" data-name="Group 1111675" transform="translate(1.809 1.809)">
        <g id="Group_1111663" data-name="Group 1111663" transform="translate(35.609 40.465)">
          <path id="Path_900750" data-name="Path 900750" d="M46.486,55.237,46.809,52H54.9l.809,8.093H46Z" transform="translate(-46 -52)" fill="#ff826e"/>
        </g>
        <g id="Group_1111664" data-name="Group 1111664" transform="translate(0 17.804)">
          <path id="Path_900751" data-name="Path 900751" d="M32.057,33.3a.933.933,0,0,1,.7.89V41.8h-2.76a.933.933,0,0,0-.89.7.03.03,0,0,1-.008.024.932.932,0,0,0,.421,1.06L31.9,44.961l-2.428,4.208-2.4-1.384a.921.921,0,0,0-1.125.162l-.008.008a.921.921,0,0,0-.162,1.125l1.384,2.4L22.961,53.9l-1.376-2.387a.932.932,0,0,0-1.06-.421.03.03,0,0,1-.024.008.933.933,0,0,0-.7.89v2.76H14.949v-2.76a.933.933,0,0,0-.7-.89.03.03,0,0,1-.024-.008.932.932,0,0,0-1.06.421L11.792,53.9,7.584,51.476l1.384-2.4a.921.921,0,0,0-.162-1.125L8.8,47.947a.921.921,0,0,0-1.125-.162l-2.4,1.384L2.85,44.961l2.387-1.376a.932.932,0,0,0,.421-1.06A.03.03,0,0,1,5.65,42.5a.933.933,0,0,0-.89-.7H2V36.949H4.76a.933.933,0,0,0,.89-.7.03.03,0,0,1,.008-.024.932.932,0,0,0-.421-1.06L2.85,33.792l2.428-4.208,2.4,1.384A.921.921,0,0,0,8.8,30.806l.008-.008a.921.921,0,0,0,.162-1.125l-1.384-2.4,4.208-2.428,1.376,2.387a.932.932,0,0,0,1.06.421.03.03,0,0,1,.024-.008.933.933,0,0,0,.7-.89V24h7.615a.933.933,0,0,1,.89.7.03.03,0,0,0,.008.024.932.932,0,0,1-.421,1.06l-2.387,1.376,2.428,4.208,2.4-1.384a.921.921,0,0,1,1.125.162l.008.008a.921.921,0,0,1,.162,1.125l-1.384,2.4L29.6,36.1l1.376-2.387a.932.932,0,0,1,1.06-.421.03.03,0,0,0,.024.008Zm-5.778,6.078A8.9,8.9,0,1,0,22.9,46.361,8.9,8.9,0,0,0,26.279,39.377Z" transform="translate(-2 -24)" fill="#fcd770"/>
        </g>
        <g id="Group_1111665" data-name="Group 1111665" transform="translate(17.804)">
          <path id="Path_900752" data-name="Path 900752" d="M47.955,25.947l-.008.008a.921.921,0,0,0-.162,1.125l.469.817a1.624,1.624,0,0,0-1.594,1.619V24.66a1.582,1.582,0,0,0-.477-1.141,2.121,2.121,0,0,0-.2-.178,8.863,8.863,0,1,0-2.557,1.967v8.255A2.432,2.432,0,0,0,41,31.135a.812.812,0,0,0-.809.809v.809H36.949v-2.76a.933.933,0,0,0-.7-.89.03.03,0,0,1-.024-.008.932.932,0,0,0-1.06.421L33.792,31.9l-4.208-2.428,1.384-2.4a.921.921,0,0,0-.162-1.125l-.008-.008a.921.921,0,0,0-1.125-.162l-2.4,1.384L24.85,22.961l2.387-1.376a.932.932,0,0,0,.421-1.06.03.03,0,0,1-.008-.024.933.933,0,0,0-.89-.7H24V14.949h2.76a.933.933,0,0,0,.89-.7.03.03,0,0,1,.008-.024.932.932,0,0,0-.421-1.06L24.85,11.792l2.428-4.208,2.4,1.384A.921.921,0,0,0,30.8,8.806l.008-.008a.921.921,0,0,0,.162-1.125l-1.384-2.4L33.792,2.85l1.376,2.387a.932.932,0,0,0,1.06.421.03.03,0,0,1,.024-.008.933.933,0,0,0,.7-.89V2H41.8V4.76a.933.933,0,0,0,.7.89.03.03,0,0,1,.024.008.932.932,0,0,0,1.06-.421L44.961,2.85l4.208,2.428-1.384,2.4A.921.921,0,0,0,47.947,8.8l.008.008a.921.921,0,0,0,1.125.162l2.4-1.384L53.9,11.792l-2.387,1.376a.932.932,0,0,0-.421,1.06.03.03,0,0,1,.008.024.933.933,0,0,0,.89.7h2.76V19.8h-2.76a.933.933,0,0,0-.89.7.03.03,0,0,1-.008.024.932.932,0,0,0,.421,1.06L53.9,22.961l-2.428,4.208-2.4-1.384a.921.921,0,0,0-1.125.162Z" transform="translate(-24 -2)" fill="#b4dd7f"/>
        </g>
        <g id="Group_1111666" data-name="Group 1111666" transform="translate(27.646 18.614)">
          <path id="Path_900753" data-name="Path 900753" d="M40.077,25l.55,1.659a1.127,1.127,0,0,0,2.137,0L43.314,25a3.843,3.843,0,0,1,1.521.308,4.258,4.258,0,0,1,.542.275,3.976,3.976,0,0,1,1.449,1.586l.154.308a1.614,1.614,0,0,0-1.238,1.57v.647a8.9,8.9,0,0,1-9.582-.963l.591-1.473a3.533,3.533,0,0,1,1.319-1.643c.073-.049.146-.089.219-.138A3.669,3.669,0,0,1,40.077,25Z" transform="translate(-36.16 -25)" fill="#ff826e"/>
        </g>
        <g id="Group_1111667" data-name="Group 1111667" transform="translate(29.135 9.712)">
          <path id="Path_900754" data-name="Path 900754" d="M46.093,18.046v3.043a2.9,2.9,0,0,1-.906,2.12,3.843,3.843,0,0,0-1.521-.308l-.615-1.837a2.417,2.417,0,0,0,1.424-2.209v-.809l-2.428-1.619-2.428,1.619v.809a2.431,2.431,0,0,0,1.424,2.209L40.428,22.9a3.669,3.669,0,0,0-1.789.477l-.146-.291a4.755,4.755,0,0,1-.494-2.1V18.046a4.046,4.046,0,0,1,8.093,0Z" transform="translate(-38 -14)" fill="#fcd770"/>
        </g>
        <g id="Group_1111668" data-name="Group 1111668" transform="translate(11.33 27.516)">
          <path id="Path_900755" data-name="Path 900755" d="M23.672,39.86l-1.2,1.8V40.046l-2.428-1.619-2.428,1.619v1.619l-1.2-1.8A2.482,2.482,0,0,1,18.485,36h3.124a2.48,2.48,0,0,1,2.485,2.485A2.44,2.44,0,0,1,23.672,39.86Z" transform="translate(-16 -36)" fill="#656d78"/>
        </g>
        <g id="Group_1111669" data-name="Group 1111669" transform="translate(9.857 37.228)">
          <path id="Path_900756" data-name="Path 900756" d="M24.83,50.169A3.914,3.914,0,0,0,21.318,48L19.7,49.619,18.081,48a3.914,3.914,0,0,0-3.512,2.169l-.388.769a8.9,8.9,0,0,0,11.039,0Z" transform="translate(-14.18 -48)" fill="#75b1f2"/>
        </g>
        <g id="Group_1111670" data-name="Group 1111670" transform="translate(13.758 35.39)">
          <path id="Path_900757" data-name="Path 900757" d="M22.237,47.567l-1.619,1.619L19,47.567l.615-1.837,1,.219a2.456,2.456,0,0,0,1-.219Z" transform="translate(-19 -45.73)" fill="#f0d0b4"/>
        </g>
        <g id="Group_1111671" data-name="Group 1111671" transform="translate(12.949 29.944)">
          <path id="Path_900758" data-name="Path 900758" d="M21.431,44.447a2.456,2.456,0,0,1-1,.219l-1-.219A2.431,2.431,0,0,1,18,42.237V40.619L20.428,39l2.428,1.619v1.619a2.417,2.417,0,0,1-1.424,2.209Z" transform="translate(-18 -39)" fill="#f0d0b4"/>
        </g>
        <g id="Group_1111672" data-name="Group 1111672" transform="translate(31.562 16.777)">
          <path id="Path_900759" data-name="Path 900759" d="M44.237,24.567l-.55,1.659a1.127,1.127,0,0,1-2.137,0L41,24.567l.615-1.837,1,.219a2.456,2.456,0,0,0,1-.219Z" transform="translate(-41 -22.73)" fill="#f0d0b4"/>
        </g>
        <g id="Group_1111673" data-name="Group 1111673" transform="translate(30.753 12.139)">
          <path id="Path_900760" data-name="Path 900760" d="M43.431,21.637a2.456,2.456,0,0,1-1,.219l-1-.219A2.431,2.431,0,0,1,40,19.428v-.809L42.428,17l2.428,1.619v.809A2.417,2.417,0,0,1,43.431,21.637Z" transform="translate(-40 -17)" fill="#f0d0b4"/>
        </g>
        <g id="Group_1111674" data-name="Group 1111674" transform="translate(33.99 21.042)">
          <path id="Path_900761" data-name="Path 900761" d="M52.069,32.856h.024a1.63,1.63,0,0,1,1.619,1.619v1.619a1.63,1.63,0,0,1,1.619-1.619,1.623,1.623,0,0,1,1.619,1.619v5.471a8.3,8.3,0,0,1-2.428,5.859H46.428A8.3,8.3,0,0,1,44,41.564V36.9a.812.812,0,0,1,.809-.809,2.432,2.432,0,0,1,2.428,2.428v-8.9a1.614,1.614,0,0,1,1.238-1.57,1.485,1.485,0,0,1,.38-.049,1.583,1.583,0,0,1,.939.3,2.122,2.122,0,0,1,.2.178,1.582,1.582,0,0,1,.477,1.141v4.856A1.624,1.624,0,0,1,52.069,32.856Z" transform="translate(-44 -28)" fill="#f0d0b4"/>
        </g>
      </g>
      <g id="Group_1111676" data-name="Group 1111676" transform="translate(1 1)">
        <path id="Path_900762" data-name="Path 900762" d="M31.753,40.8H29.8a1.772,1.772,0,0,0-.881,3.287l1.691.977-1.619,2.8-1.7-.982a1.769,1.769,0,0,0-2.4,2.4l.982,1.7-2.8,1.619-.977-1.691A1.773,1.773,0,0,0,18.8,51.8v1.952H15.567V51.8a1.772,1.772,0,0,0-3.287-.881L11.3,52.611,8.5,50.993l.981-1.7a1.768,1.768,0,0,0-2.4-2.4l-1.7.982-1.619-2.8,1.691-.978A1.773,1.773,0,0,0,4.571,40.8H2.619V37.567H4.571a1.772,1.772,0,0,0,.881-3.287L3.761,33.3l1.619-2.8,1.7.982a1.768,1.768,0,0,0,2.4-2.4L8.5,27.38l2.8-1.619.977,1.691a1.772,1.772,0,0,0,3.287-.881V24.619h1.619V23H13.949v3.571c0,.054-.053.093-.125.113a.123.123,0,0,1-.142-.041L11.9,23.55,6.289,26.788l1.791,3.1c.028.048,0,.107-.047.155a.126.126,0,0,1-.145.036l-3.1-1.79L1.549,33.9l3.092,1.786c.048.028.055.091.035.162a.122.122,0,0,1-.105.1H1v6.474H4.571c.054,0,.093.052.113.125a.122.122,0,0,1-.041.141L1.55,44.475l3.237,5.607,3.1-1.791c.049-.028.107,0,.155.048a.124.124,0,0,1,.036.144l-1.791,3.1L11.9,54.821l1.785-3.092c.028-.049.091-.055.162-.036.053.015.105.053.105.108v3.571h6.474V51.8c0-.053.053-.093.125-.113a.121.121,0,0,1,.142.041l1.785,3.092,5.608-3.237-1.791-3.1c-.028-.048,0-.107.047-.155a.126.126,0,0,1,.145-.036l3.1,1.791,3.237-5.607-3.093-1.786c-.048-.028-.055-.091-.035-.162a.122.122,0,0,1,.105-.1h3.571V39.186H31.753Z" transform="translate(-1 -5.196)"/>
        <path id="Path_900763" data-name="Path 900763" d="M49.131,20.423H52.7V13.949H49.131c-.054,0-.093-.053-.113-.125a.123.123,0,0,1,.041-.142L52.152,11.9,48.914,6.289l-3.1,1.791c-.048.028-.106,0-.155-.047a.125.125,0,0,1-.036-.145l1.791-3.1L41.806,1.549,40.02,4.642c-.028.049-.091.055-.163.036-.052-.014-.1-.053-.1-.107V1H33.279V4.571c0,.054-.053.093-.125.113a.123.123,0,0,1-.142-.042L31.226,1.55,25.619,4.787l1.791,3.1c.028.048,0,.107-.047.155a.126.126,0,0,1-.145.036l-3.1-1.791L20.879,11.9l3.093,1.786c.048.028.055.091.036.163-.014.052-.053.1-.107.1H20.33v6.474H23.9c.054,0,.093.053.113.125a.123.123,0,0,1-.041.142L20.88,22.475l2.234,3.87a9.742,9.742,0,1,0,4.242,4.242l3.87,2.234,1.785-3.092c.028-.049.092-.054.162-.036.053.015.105.053.105.108v3.57h3.237v3.041a9.024,9.024,0,0,0,2.4,6.137l-.863,8.626h11.5l-.863-8.626a9.024,9.024,0,0,0,2.4-6.137V30.944a2.42,2.42,0,0,0-3.331-2.25,2.427,2.427,0,0,0-1.865-1.75l-.267-.462c-.028-.048,0-.107.047-.155a.121.121,0,0,1,.144-.036l3.1,1.79,3.237-5.607L49.06,20.69c-.048-.028-.055-.091-.036-.163.014-.052.053-.1.107-.1ZM15.755,32.739a1.676,1.676,0,0,1,1.394-2.6h3.123a1.675,1.675,0,0,1,1.394,2.6l-.006.008L18.712,30.78l-2.951,1.967Zm3.766,8.252,1.122-1.122a3.1,3.1,0,0,1,2.476,1.7l.076.151a8.037,8.037,0,0,1-3.675,1.32Zm-2.428-6V33.8l1.619-1.079L20.33,33.8V34.99a1.619,1.619,0,1,1-3.237,0Zm1.619,3.237a3.235,3.235,0,0,0,.48-.049l.213.639-.693.693-.693-.693.213-.639A3.236,3.236,0,0,0,18.712,38.228Zm-1.932,1.64L17.9,40.99v2.052a8.037,8.037,0,0,1-3.675-1.32l.076-.151a3.094,3.094,0,0,1,2.476-1.7Zm7.687.8a4.7,4.7,0,0,0-3.541-2.407l-.242-.726a3.218,3.218,0,0,0,1.236-2.26l1.094-1.641a3.294,3.294,0,0,0-2.74-5.122H17.15a3.294,3.294,0,0,0-2.74,5.121L15.5,35.279a3.213,3.213,0,0,0,1.236,2.26l-.242.726a4.7,4.7,0,0,0-3.541,2.407,8.093,8.093,0,1,1,11.51,0Zm2.944-14.189-1.293,2.24a9.748,9.748,0,0,0-1.138-1.138l2.24-1.293a.137.137,0,0,1,.155.047.125.125,0,0,1,.036.144ZM39.838,49.558l.324-3.237h4.447V44.7H40.324l.162-1.619h6.628l.647,6.474Zm6.389-18.614V34.99h1.619V30.944a.809.809,0,0,1,1.619,0v5.469a7.421,7.421,0,0,1-1.975,5.052H40.111a7.418,7.418,0,0,1-1.976-5.052v-4.66a1.62,1.62,0,0,1,1.619,1.619v3.237h1.619V24.47a.809.809,0,1,1,1.619,0V34.99h1.619V29.325a.809.809,0,0,1,1.619,0Zm-3.335-8.783a2.425,2.425,0,0,0-.626-.11,4.73,4.73,0,0,0-1.411-1.581,3.732,3.732,0,0,0,.516-1.856V15.567a4.856,4.856,0,0,0-9.712,0V18.5a5.532,5.532,0,0,0,.435,2.122,4.385,4.385,0,0,0-1.279,1.751l-.153.383a8.089,8.089,0,1,1,12.228-.6Zm-9.375-2.318a3.9,3.9,0,0,1-.239-1.339V16.377a3.221,3.221,0,0,0,1.265,2.548l-.243.728a4.373,4.373,0,0,0-.783.189Zm1.38-3.466V16l1.619-1.079L38.135,16v.376a1.619,1.619,0,1,1-3.237,0Zm1.619-3.4L33.326,15.1a3.222,3.222,0,0,1,6.38,0Zm-.48,6.589a2.4,2.4,0,0,0,.96,0l.286.858-.468,1.4a.326.326,0,0,1-.595,0l-.469-1.4Zm2.694.085-.242-.725a3.221,3.221,0,0,0,1.265-2.548v2.237a2.129,2.129,0,0,1-.359,1.173A4.786,4.786,0,0,0,38.73,19.65Zm-6.411,3.328A2.756,2.756,0,0,1,34.335,21.3l.347,1.043a1.933,1.933,0,0,0,3.667,0l.35-1.05a3.091,3.091,0,0,1,1.993,1.277,2.415,2.415,0,0,0-.939,1.9v.121a8.024,8.024,0,0,1-7.791-.72Zm15.932-.886,1.691.976-1.619,2.8-1.7-.981a1.738,1.738,0,0,0-2.013.222V24.47a2.41,2.41,0,0,0-.412-1.35,9.748,9.748,0,1,0-4.445,3.216v4.249a3.2,3.2,0,0,0-1.619-.45,1.62,1.62,0,0,0-1.619,1.619H34.9V29.8a1.772,1.772,0,0,0-3.287-.881l-.976,1.691-2.8-1.619.981-1.7a1.768,1.768,0,0,0-2.4-2.4l-1.7.982-1.619-2.8,1.691-.977A1.773,1.773,0,0,0,23.9,18.8H21.949V15.567H23.9a1.773,1.773,0,0,0,.881-3.287L23.091,11.3l1.619-2.8,1.7.981a1.768,1.768,0,0,0,2.4-2.4l-.982-1.7,2.8-1.619.977,1.691A1.773,1.773,0,0,0,34.9,4.571V2.619h3.237V4.571a1.773,1.773,0,0,0,3.287.881L42.4,3.76l2.8,1.619-.981,1.7a1.768,1.768,0,0,0,2.4,2.4l1.7-.982,1.619,2.8-1.691.976a1.773,1.773,0,0,0,.881,3.287h1.952V18.8H49.131a1.773,1.773,0,0,0-.881,3.287Z" transform="translate(-2.526 -1)"/>
        <path id="Path_900764" data-name="Path 900764" d="M7,7H8.619V8.619H7Z" transform="translate(-2.144 -2.144)"/>
        <path id="Path_900765" data-name="Path 900765" d="M11,7h1.619V8.619H11Z" transform="translate(-2.907 -2.144)"/>
        <path id="Path_900766" data-name="Path 900766" d="M15,7h1.619V8.619H15Z" transform="translate(-3.67 -2.144)"/>
        <path id="Path_900767" data-name="Path 900767" d="M7,11H8.619v1.619H7Z" transform="translate(-2.144 -2.907)"/>
        <path id="Path_900768" data-name="Path 900768" d="M7,15H8.619v1.619H7Z" transform="translate(-2.144 -3.67)"/>
        <path id="Path_900769" data-name="Path 900769" d="M11,11h1.619v1.619H11Z" transform="translate(-2.907 -2.907)"/>
      </g>
    </g>
  </g>
</svg>
