<svg xmlns="http://www.w3.org/2000/svg" xmlns:xlink="http://www.w3.org/1999/xlink" width="109.652" height="109.652" viewBox="0 0 109.652 109.652">
  <defs>
    <filter id="Path_874925" x="0" y="0" width="109.652" height="109.652" filterUnits="userSpaceOnUse">
      <feOffset dy="3" input="SourceAlpha"/>
      <feGaussianBlur stdDeviation="3" result="blur"/>
      <feFlood flood-opacity="0.161"/>
      <feComposite operator="in" in2="blur"/>
      <feComposite in="SourceGraphic"/>
    </filter>
  </defs>
  <g id="Group_1111911" data-name="Group 1111911" transform="translate(9 6)">
    <g transform="matrix(1, 0, 0, 1, -9, -6)" filter="url(#Path_874925)">
      <g id="Path_874925-2" data-name="Path 874925" transform="translate(9 6)" fill="#ffd63c">
        <path d="M 45.82614517211914 90.15280151367188 C 39.84149551391602 90.15280151367188 34.03665924072266 88.98104095458984 28.5728702545166 86.67005157470703 C 23.29473304748535 84.43759155273438 18.55415725708008 81.24130249023438 14.48283290863037 77.16998291015625 C 10.41150760650635 73.09866333007812 7.215232849121094 68.35809326171875 4.982757568359375 63.07994079589844 C 2.671770095825195 57.61616897583008 1.500007629394531 51.81131744384766 1.500007629394531 45.82666778564453 C 1.500007629394531 39.84149169921875 2.671770095825195 34.03665542602539 4.982757568359375 28.57286643981934 C 7.215232849121094 23.29472923278809 10.41150760650635 18.55415534973145 14.48283290863037 14.48283004760742 C 18.55415725708008 10.4115047454834 23.29473304748535 7.215229511260986 28.5728702545166 4.982754707336426 C 34.03665924072266 2.671766996383667 39.84149551391602 1.500004529953003 45.82614517211914 1.500004529953003 C 51.81079483032227 1.500004529953003 57.61564636230469 2.671766996383667 63.07942199707031 4.982754707336426 C 68.35756683349609 7.215229511260986 73.09814453125 10.4115047454834 77.16947174072266 14.48283004760742 C 81.24078369140625 18.55415534973145 84.43707275390625 23.29472923278809 86.66954803466797 28.57286643981934 C 88.98052978515625 34.03665542602539 90.15229797363281 39.84149169921875 90.15229797363281 45.82614135742188 C 90.15229797363281 51.81131744384766 88.98052978515625 57.61616897583008 86.66954803466797 63.07994079589844 C 84.43707275390625 68.35809326171875 81.24078369140625 73.09866333007812 77.16947174072266 77.16998291015625 C 73.09814453125 81.24130249023438 68.35756683349609 84.43759155273438 63.07942199707031 86.67005157470703 C 57.61564636230469 88.98104095458984 51.81079483032227 90.15280151367188 45.82614517211914 90.15280151367188 Z" stroke="none"/>
        <path d="M 45.82614517211914 3.000007629394531 C 40.04333114624023 3.000007629394531 34.43508911132812 4.131904602050781 29.15720367431641 6.364265441894531 C 24.05784606933594 8.521102905273438 19.47753143310547 11.60944366455078 15.54348754882812 15.54348754882812 C 11.60944366455078 19.47753143310547 8.521102905273438 24.05784606933594 6.3642578125 29.15720367431641 C 4.131904602050781 34.43508911132812 3 40.0433349609375 3 45.82667541503906 C 3 51.60948944091797 4.131904602050781 57.21773147583008 6.3642578125 62.49562072753906 C 8.521102905273438 67.59497833251953 11.60944366455078 72.17527770996094 15.54348754882812 76.10932922363281 C 19.47753143310547 80.04337310791016 24.05784606933594 83.13170623779297 29.15718841552734 85.28854370117188 C 34.43508911132812 87.52090454101562 40.04333114624023 88.65280151367188 45.82614517211914 88.65280151367188 C 51.60895919799805 88.65280151367188 57.21720123291016 87.52090454101562 62.49510192871094 85.28854370117188 C 67.59444427490234 83.13170623779297 72.17475891113281 80.04337310791016 76.10880279541016 76.10932922363281 C 80.0428466796875 72.17527770996094 83.13118743896484 67.59497833251953 85.28803253173828 62.49562072753906 C 87.5203857421875 57.21773147583008 88.65229034423828 51.60948944091797 88.65229034423828 45.82614898681641 C 88.65229034423828 40.0433349609375 87.5203857421875 34.43508911132812 85.28803253173828 29.15720367431641 C 83.13118743896484 24.05784606933594 80.0428466796875 19.47753143310547 76.10880279541016 15.54348754882812 C 72.17475891113281 11.60944366455078 67.59444427490234 8.521102905273438 62.49508666992188 6.364265441894531 C 57.21720123291016 4.131904602050781 51.60895919799805 3.000007629394531 45.82614517211914 3.000007629394531 M 45.82614517211914 7.62939453125e-06 C 71.13523101806641 7.62939453125e-06 91.65229034423828 20.51705932617188 91.65229034423828 45.82614898681641 L 91.65229034423828 45.82667541503906 C 91.65229034423828 71.13575744628906 71.13523101806641 91.65280151367188 45.82614517211914 91.65280151367188 C 20.51705932617188 91.65280151367188 0 71.13575744628906 0 45.82667541503906 L 0 45.82614898681641 C 0 20.51705932617188 20.51705932617188 7.62939453125e-06 45.82614517211914 7.62939453125e-06 Z" stroke="none" fill="#fff"/>
      </g>
    </g>
    <g id="nota" transform="translate(10.436 21.245)">
      <g id="Group_1111926" data-name="Group 1111926" transform="translate(15.776 0.749)">
        <g id="Group_1111924" data-name="Group 1111924" transform="translate(0)">
          <g id="Group_1111920" data-name="Group 1111920">
            <g id="Group_1111919" data-name="Group 1111919">
              <path id="Path_901299" data-name="Path 901299" d="M58.267,57.124H25.621a3.093,3.093,0,0,1-3.093-3.093V10.593A3.093,3.093,0,0,1,25.621,7.5H58.267a3.093,3.093,0,0,1,3.093,3.093V54.032A3.093,3.093,0,0,1,58.267,57.124Z" transform="translate(-22.528 -7.5)" fill="#eaf2ff"/>
              <path id="Path_901300" data-name="Path 901300" d="M330.968,7.5h-5.49a3.093,3.093,0,0,1,3.093,3.093V54.032a3.093,3.093,0,0,1-3.093,3.093h5.49a3.093,3.093,0,0,0,3.093-3.093V10.593A3.093,3.093,0,0,0,330.968,7.5Z" transform="translate(-295.229 -7.5)" fill="#c9e0fd"/>
              <path id="Path_901301" data-name="Path 901301" d="M58.267,7.5H25.621a3.093,3.093,0,0,0-3.093,3.093v5.333H61.36V10.593A3.092,3.092,0,0,0,58.267,7.5Z" transform="translate(-22.528 -7.5)" fill="#ffd064"/>
              <path id="Path_901302" data-name="Path 901302" d="M334.066,15.926V10.593A3.093,3.093,0,0,0,330.973,7.5h-5.49a3.093,3.093,0,0,1,3.092,3.093v5.333Z" transform="translate(-295.234 -7.5)" fill="#ffc250"/>
            </g>
          </g>
          <g id="Group_1111923" data-name="Group 1111923" transform="translate(19.416 22.417)">
            <path id="Path_901303" data-name="Path 901303" d="M223.176,256.836l-5.405,2.333a.562.562,0,0,1-.739-.739l2.333-5.405a2.524,2.524,0,0,1,.532-.784l19.68-19.679a1.885,1.885,0,0,1,2.666,0l1.4,1.4a1.885,1.885,0,0,1,0,2.666L223.96,256.3A2.522,2.522,0,0,1,223.176,256.836Z" transform="translate(-216.984 -232.009)" fill="#e8a887"/>
            <g id="Group_1111921" data-name="Group 1111921" transform="translate(20.435 0)">
              <path id="Path_901304" data-name="Path 901304" d="M425.7,238.784l2.158-2.158a1.885,1.885,0,0,0,0-2.666l-1.4-1.4a1.885,1.885,0,0,0-2.666,0l-2.158,2.158Z" transform="translate(-421.641 -232.012)" fill="#9bc4f9"/>
            </g>
            <g id="Group_1111922" data-name="Group 1111922" transform="translate(2.907 4.841)">
              <path id="Path_901305" data-name="Path 901305" d="M0,0H21.767V5.746H0Z" transform="translate(0 15.389) rotate(-45)" fill="#e278b1"/>
            </g>
            <path id="Path_901306" data-name="Path 901306" d="M218.451,463.69l-1.419,3.288a.562.562,0,0,0,.739.739l3.288-1.419Z" transform="translate(-216.984 -440.557)" fill="#538ef6"/>
          </g>
        </g>
        <g id="Group_1111925" data-name="Group 1111925" transform="translate(37.72 25.127)">
          <path id="Path_901307" data-name="Path 901307" d="M406.5,263.215l-4.063-4.063-2.13,2.13,4.063,4.063Z" transform="translate(-400.307 -259.152)" fill="#dbe8f9"/>
        </g>
      </g>
      <g id="Group_1111928" data-name="Group 1111928" transform="translate(15.027 0)">
        <g id="Group_1111927" data-name="Group 1111927">
          <path id="Path_901308" data-name="Path 901308" d="M90.068,155.526H60.079a.746.746,0,1,0,0,1.492H90.068a.746.746,0,1,0,0-1.492Z" transform="translate(-54.909 -139.997)"/>
          <path id="Path_901309" data-name="Path 901309" d="M90.068,208.843H60.079a.746.746,0,1,0,0,1.492H90.068a.746.746,0,1,0,0-1.492Z" transform="translate(-54.909 -187.99)"/>
          <path id="Path_901310" data-name="Path 901310" d="M90.814,262.9a.746.746,0,0,0-.746-.746H60.079a.746.746,0,1,0,0,1.492H90.068A.746.746,0,0,0,90.814,262.9Z" transform="translate(-54.909 -235.983)"/>
          <path id="Path_901311" data-name="Path 901311" d="M81.561,316.222a.746.746,0,0,0-.746-.746H60.079a.746.746,0,0,0,0,1.492H80.815A.746.746,0,0,0,81.561,316.222Z" transform="translate(-54.909 -283.976)"/>
          <path id="Path_901312" data-name="Path 901312" d="M76.173,369.539a.746.746,0,0,0-.746-.746H60.079a.746.746,0,1,0,0,1.492H75.427A.746.746,0,0,0,76.173,369.539Z" transform="translate(-54.909 -331.97)"/>
          <path id="Path_901313" data-name="Path 901313" d="M60.079,422.11a.746.746,0,1,0,0,1.492H70.131a.746.746,0,1,0,0-1.492Z" transform="translate(-54.909 -379.963)"/>
          <path id="Path_901314" data-name="Path 901314" d="M39.549,49.6l2.131-.92a3.252,3.252,0,0,0,1.016-.69L62.377,28.309a2.63,2.63,0,0,0,0-3.721l-1.4-1.4a2.635,2.635,0,0,0-3.721,0L37.577,42.872h0a3.253,3.253,0,0,0-.689,1.015l-2.333,5.406a1.319,1.319,0,0,0-.094.337H18.866a2.35,2.35,0,0,1-2.347-2.347V9.919H53.863v13.2a.746.746,0,0,0,1.492,0V3.839A3.843,3.843,0,0,0,51.517,0H18.866a3.843,3.843,0,0,0-3.839,3.839V47.283a3.843,3.843,0,0,0,3.839,3.839H51.516a3.843,3.843,0,0,0,3.839-3.839V38.85a.746.746,0,0,0-1.492,0v8.434a2.35,2.35,0,0,1-2.347,2.347H39.478l.069-.03h0ZM16.519,3.839a2.35,2.35,0,0,1,2.347-2.347H51.516a2.35,2.35,0,0,1,2.347,2.347V8.427H16.519ZM58.314,24.245a1.141,1.141,0,0,1,1.612,0l1.4,1.4a1.141,1.141,0,0,1,0,1.611l-1.631,1.631-3.008-3.008Zm-2.685,2.685,3.008,3.008-1.075,1.075-3.008-3.008Zm-2.13,2.13,3.008,3.008L42.168,46.408,39.159,43.4ZM36.107,49.46l.8-1.855,1.054,1.054Zm3.329-1.437-1.892-1.892.675-1.563L41,47.349Z" transform="translate(-15.027 0)"/>
        </g>
      </g>
    </g>
  </g>
</svg>
