<svg xmlns="http://www.w3.org/2000/svg" xmlns:xlink="http://www.w3.org/1999/xlink" width="109.652" height="109.652" viewBox="0 0 109.652 109.652">
  <defs>
    <filter id="Path_874925" x="0" y="0" width="109.652" height="109.652" filterUnits="userSpaceOnUse">
      <feOffset dy="3" input="SourceAlpha"/>
      <feGaussianBlur stdDeviation="3" result="blur"/>
      <feFlood flood-opacity="0.161"/>
      <feComposite operator="in" in2="blur"/>
      <feComposite in="SourceGraphic"/>
    </filter>
  </defs>
  <g id="Group_1111909" data-name="Group 1111909" transform="translate(9 6)">
    <g transform="matrix(1, 0, 0, 1, -9, -6)" filter="url(#Path_874925)">
      <g id="Path_874925-2" data-name="Path 874925" transform="translate(9 6)" fill="#ffd63c">
        <path d="M 45.82614517211914 90.15280151367188 C 39.84149551391602 90.15280151367188 34.03665924072266 88.98104095458984 28.5728702545166 86.67005157470703 C 23.29473304748535 84.43759155273438 18.55415725708008 81.24130249023438 14.48283290863037 77.16998291015625 C 10.41150760650635 73.09866333007812 7.215232849121094 68.35809326171875 4.982757568359375 63.07994079589844 C 2.671770095825195 57.61616897583008 1.500007629394531 51.81131744384766 1.500007629394531 45.82666778564453 C 1.500007629394531 39.84149169921875 2.671770095825195 34.03665542602539 4.982757568359375 28.57286643981934 C 7.215232849121094 23.29472923278809 10.41150760650635 18.55415534973145 14.48283290863037 14.48283004760742 C 18.55415725708008 10.4115047454834 23.29473304748535 7.215229511260986 28.5728702545166 4.982754707336426 C 34.03665924072266 2.671766996383667 39.84149551391602 1.500004529953003 45.82614517211914 1.500004529953003 C 51.81079483032227 1.500004529953003 57.61564636230469 2.671766996383667 63.07942199707031 4.982754707336426 C 68.35756683349609 7.215229511260986 73.09814453125 10.4115047454834 77.16947174072266 14.48283004760742 C 81.24078369140625 18.55415534973145 84.43707275390625 23.29472923278809 86.66954803466797 28.57286643981934 C 88.98052978515625 34.03665542602539 90.15229797363281 39.84149169921875 90.15229797363281 45.82614135742188 C 90.15229797363281 51.81131744384766 88.98052978515625 57.61616897583008 86.66954803466797 63.07994079589844 C 84.43707275390625 68.35809326171875 81.24078369140625 73.09866333007812 77.16947174072266 77.16998291015625 C 73.09814453125 81.24130249023438 68.35756683349609 84.43759155273438 63.07942199707031 86.67005157470703 C 57.61564636230469 88.98104095458984 51.81079483032227 90.15280151367188 45.82614517211914 90.15280151367188 Z" stroke="none"/>
        <path d="M 45.82614517211914 3.000007629394531 C 40.04333114624023 3.000007629394531 34.43508911132812 4.131904602050781 29.15720367431641 6.364265441894531 C 24.05784606933594 8.521102905273438 19.47753143310547 11.60944366455078 15.54348754882812 15.54348754882812 C 11.60944366455078 19.47753143310547 8.521102905273438 24.05784606933594 6.3642578125 29.15720367431641 C 4.131904602050781 34.43508911132812 3 40.0433349609375 3 45.82667541503906 C 3 51.60948944091797 4.131904602050781 57.21773147583008 6.3642578125 62.49562072753906 C 8.521102905273438 67.59497833251953 11.60944366455078 72.17527770996094 15.54348754882812 76.10932922363281 C 19.47753143310547 80.04337310791016 24.05784606933594 83.13170623779297 29.15718841552734 85.28854370117188 C 34.43508911132812 87.52090454101562 40.04333114624023 88.65280151367188 45.82614517211914 88.65280151367188 C 51.60895919799805 88.65280151367188 57.21720123291016 87.52090454101562 62.49510192871094 85.28854370117188 C 67.59444427490234 83.13170623779297 72.17475891113281 80.04337310791016 76.10880279541016 76.10932922363281 C 80.0428466796875 72.17527770996094 83.13118743896484 67.59497833251953 85.28803253173828 62.49562072753906 C 87.5203857421875 57.21773147583008 88.65229034423828 51.60948944091797 88.65229034423828 45.82614898681641 C 88.65229034423828 40.0433349609375 87.5203857421875 34.43508911132812 85.28803253173828 29.15720367431641 C 83.13118743896484 24.05784606933594 80.0428466796875 19.47753143310547 76.10880279541016 15.54348754882812 C 72.17475891113281 11.60944366455078 67.59444427490234 8.521102905273438 62.49508666992188 6.364265441894531 C 57.21720123291016 4.131904602050781 51.60895919799805 3.000007629394531 45.82614517211914 3.000007629394531 M 45.82614517211914 7.62939453125e-06 C 71.13523101806641 7.62939453125e-06 91.65229034423828 20.51705932617188 91.65229034423828 45.82614898681641 L 91.65229034423828 45.82667541503906 C 91.65229034423828 71.13575744628906 71.13523101806641 91.65280151367188 45.82614517211914 91.65280151367188 C 20.51705932617188 91.65280151367188 0 71.13575744628906 0 45.82667541503906 L 0 45.82614898681641 C 0 20.51705932617188 20.51705932617188 7.62939453125e-06 45.82614517211914 7.62939453125e-06 Z" stroke="none" fill="#fff"/>
      </g>
    </g>
    <g id="productos-quimicos" transform="translate(14.866 -43.198)">
      <g id="Group_1111914" data-name="Group 1111914" transform="translate(36.738 72.835)">
        <path id="Path_901253" data-name="Path 901253" d="M319.99,119.025v-5.154h-8.143v5.062a8.619,8.619,0,0,1-3.318,6.846,12.137,12.137,0,1,0,14.763-.013A8.484,8.484,0,0,1,319.99,119.025Z" transform="translate(-303.781 -113.871)" fill="#d3effb"/>
        <path id="Path_901254" data-name="Path 901254" d="M381.918,125.767a8.484,8.484,0,0,1-3.3-6.741v-5.154h-8.143v3.354h3.541a1.8,1.8,0,0,1,1.8,1.8,8.484,8.484,0,0,0,3.3,6.741,12.138,12.138,0,0,1-5.969,21.7,12.137,12.137,0,0,0,8.771-21.7Z" transform="translate(-362.408 -113.872)" fill="#b1e4f9"/>
      </g>
      <path id="Path_901255" data-name="Path 901255" d="M359.23,99.329H347.4a1.075,1.075,0,0,1-1.075-1.075V97.028a1.075,1.075,0,0,1,1.075-1.075H359.23a1.075,1.075,0,0,1,1.076,1.075v1.225A1.076,1.076,0,0,1,359.23,99.329Z" transform="translate(-304.439 -25.285)" fill="#d3effb"/>
      <path id="Path_901256" data-name="Path 901256" d="M438.814,95.953h-1.961a1.075,1.075,0,0,1,1.076,1.075v1.225a1.075,1.075,0,0,1-1.076,1.075h1.961a1.075,1.075,0,0,0,1.075-1.075V97.028A1.075,1.075,0,0,0,438.814,95.953Z" transform="translate(-384.022 -25.285)" fill="#b1e4f9"/>
      <path id="Path_901257" data-name="Path 901257" d="M344.5,221.087a11.333,11.333,0,0,1-1.336-1.2,1.476,1.476,0,0,0-1.073-.454h-6.066a1.475,1.475,0,0,0-1.075.456,11.3,11.3,0,0,1-1.338,1.21,8.963,8.963,0,0,0,5.321,16.056h.13a8.953,8.953,0,0,0,5.437-16.066Z" transform="translate(-290.187 -133.828)" fill="#b3e59f"/>
      <path id="Path_901258" data-name="Path 901258" d="M398.037,221.086a11.318,11.318,0,0,1-1.336-1.2,1.476,1.476,0,0,0-1.073-.454h-3.184a1.476,1.476,0,0,1,1.073.454,11.351,11.351,0,0,0,1.336,1.2,8.953,8.953,0,0,1-3.841,15.922,8.918,8.918,0,0,0,1.459.143h.13a8.953,8.953,0,0,0,5.437-16.066Z" transform="translate(-343.725 -133.827)" fill="#95d6a4"/>
      <g id="Group_1111915" data-name="Group 1111915" transform="translate(0.907 72.835)">
        <path id="Path_901259" data-name="Path 901259" d="M23.709,119.025v-5.154H15.566v5.062a8.619,8.619,0,0,1-3.318,6.846,12.137,12.137,0,1,0,14.763-.013A8.483,8.483,0,0,1,23.709,119.025Z" transform="translate(-7.501 -113.871)" fill="#d3effb"/>
        <path id="Path_901260" data-name="Path 901260" d="M85.638,125.767a8.484,8.484,0,0,1-3.3-6.741v-5.154H74.193v3.354h3.541a1.8,1.8,0,0,1,1.8,1.8,8.484,8.484,0,0,0,3.3,6.741,12.138,12.138,0,0,1-5.969,21.7,12.137,12.137,0,0,0,8.771-21.7Z" transform="translate(-66.128 -113.872)" fill="#b1e4f9"/>
      </g>
      <path id="Path_901261" data-name="Path 901261" d="M62.95,99.329H51.116a1.075,1.075,0,0,1-1.075-1.075V97.028a1.075,1.075,0,0,1,1.075-1.075H62.95a1.075,1.075,0,0,1,1.075,1.075v1.225A1.076,1.076,0,0,1,62.95,99.329Z" transform="translate(-43.989 -25.285)" fill="#d3effb"/>
      <path id="Path_901262" data-name="Path 901262" d="M142.534,95.953h-1.961a1.075,1.075,0,0,1,1.075,1.075v1.225a1.075,1.075,0,0,1-1.075,1.075h1.961a1.075,1.075,0,0,0,1.075-1.075V97.028A1.076,1.076,0,0,0,142.534,95.953Z" transform="translate(-123.573 -25.285)" fill="#b1e4f9"/>
      <path id="Path_901263" data-name="Path 901263" d="M48.218,221.087a11.332,11.332,0,0,1-1.336-1.2,1.476,1.476,0,0,0-1.073-.454H39.744a1.475,1.475,0,0,0-1.075.456,11.3,11.3,0,0,1-1.338,1.21,8.963,8.963,0,0,0,5.321,16.056h.13a8.953,8.953,0,0,0,5.437-16.066Z" transform="translate(-29.737 -133.828)" fill="#b3e59f"/>
      <path id="Path_901264" data-name="Path 901264" d="M101.756,221.086a11.32,11.32,0,0,1-1.336-1.2,1.476,1.476,0,0,0-1.073-.454H96.163a1.476,1.476,0,0,1,1.073.454,11.355,11.355,0,0,0,1.336,1.2,8.953,8.953,0,0,1-3.841,15.922,8.917,8.917,0,0,0,1.459.143h.13a8.953,8.953,0,0,0,5.437-16.066Z" transform="translate(-83.275 -133.827)" fill="#95d6a4"/>
      <g id="Group_1111916" data-name="Group 1111916" transform="translate(13.783 70.27)">
        <path id="Path_901265" data-name="Path 901265" d="M147.166,126.426l-6.884-8.08a17.953,17.953,0,0,1-4.287-11.643V92.654h-9.7V106.7a17.953,17.953,0,0,1-4.287,11.643l-6.884,8.08a4.8,4.8,0,0,0,3.652,7.91h24.739A4.8,4.8,0,0,0,147.166,126.426Z" transform="translate(-113.968 -92.654)" fill="#e7ecf6"/>
        <path id="Path_901266" data-name="Path 901266" d="M236.767,126.426l-6.884-8.08A17.953,17.953,0,0,1,225.6,106.7V92.654h-9.7V96.2h5.317a1.815,1.815,0,0,1,1.815,1.815V106.7a17.953,17.953,0,0,0,4.287,11.643l6.884,8.08a4.8,4.8,0,0,1-3.652,7.91h2.568A4.8,4.8,0,0,0,236.767,126.426Z" transform="translate(-203.568 -92.654)" fill="#d8e2f1"/>
      </g>
      <path id="Path_901267" data-name="Path 901267" d="M209.525,78.072h-13.14a.728.728,0,0,1-.728-.728V75.418a.728.728,0,0,1,.728-.728h13.14a.728.728,0,0,1,.728.728v1.927A.728.728,0,0,1,209.525,78.072Z" transform="translate(-171.996 -6.593)" fill="#e7ecf6"/>
      <path id="Path_901268" data-name="Path 901268" d="M295.066,74.69h-2.1a.728.728,0,0,1,.728.728v1.927a.728.728,0,0,1-.728.728h2.1a.728.728,0,0,0,.728-.728V75.418A.728.728,0,0,0,295.066,74.69Z" transform="translate(-257.537 -6.593)" fill="#d8e2f1"/>
      <path id="Path_901269" data-name="Path 901269" d="M166.842,255.636l-6.884-8.08a20.993,20.993,0,0,1-4.624-9.61.662.662,0,0,0-.651-.536H151.56a.662.662,0,0,0-.651.536,20.993,20.993,0,0,1-4.624,9.61l-6.884,8.08a1.775,1.775,0,0,0,1.351,2.925h24.739a1.775,1.775,0,0,0,1.351-2.925Z" transform="translate(-122.162 -149.634)" fill="#b3e59f"/>
      <path id="Path_901270" data-name="Path 901270" d="M260.854,255.636l-6.884-8.08a20.994,20.994,0,0,1-4.624-9.61.662.662,0,0,0-.651-.536h-2.782a.662.662,0,0,1,.651.536,20.994,20.994,0,0,0,4.624,9.61l6.884,8.08a1.775,1.775,0,0,1-1.351,2.925H259.5a1.775,1.775,0,0,0,1.351-2.925Z" transform="translate(-216.174 -149.634)" fill="#95d6a4"/>
      <g id="Group_1111917" data-name="Group 1111917" transform="translate(0 67.19)">
        <path id="Path_901271" data-name="Path 901271" d="M61.919,94.371A12.957,12.957,0,0,0,56.8,84.011a7.617,7.617,0,0,1-2.946-6.021V74.952h.938a1.985,1.985,0,0,0,1.983-1.982V71.744a1.985,1.985,0,0,0-1.983-1.983H42.958a1.985,1.985,0,0,0-1.983,1.983v1.225a1.985,1.985,0,0,0,1.983,1.982H43.9V77.9a7.75,7.75,0,0,1-2.964,6.127,13.147,13.147,0,0,0-3.7,4.462,17.028,17.028,0,0,1-.519-4.169V72.386h.813a1.636,1.636,0,0,0,1.635-1.635V68.825a1.636,1.636,0,0,0-1.635-1.635H30.224a.907.907,0,0,0,0,1.814H37.35v1.568H24.569V69H26.6a.907.907,0,1,0,0-1.814H24.39a1.636,1.636,0,0,0-1.635,1.635v1.927a1.636,1.636,0,0,0,1.635,1.635H25.2V84.318a17.033,17.033,0,0,1-.519,4.168,13.151,13.151,0,0,0-3.715-4.475,7.617,7.617,0,0,1-2.946-6.021V74.952h.938a1.985,1.985,0,0,0,1.983-1.983V71.744a1.985,1.985,0,0,0-1.983-1.982H7.127a1.985,1.985,0,0,0-1.983,1.982V72.97a1.985,1.985,0,0,0,1.983,1.983h.938V77.9A7.75,7.75,0,0,1,5.1,84.025a13.02,13.02,0,0,0-.614,20.169.907.907,0,1,0,1.194-1.366,11.206,11.206,0,0,1,.526-17.365A9.574,9.574,0,0,0,9.879,77.9V74.952h6.329V77.99a9.442,9.442,0,0,0,3.657,7.462,11.306,11.306,0,0,1,3.924,5.656,17.071,17.071,0,0,1-.978,1.913,9.789,9.789,0,0,0-3.779-6.481A10.424,10.424,0,0,1,17.8,85.431a2.391,2.391,0,0,0-1.731-.737H10.007a2.39,2.39,0,0,0-1.735.741,10.423,10.423,0,0,1-1.231,1.114,9.867,9.867,0,0,0,6.66,17.659,5.668,5.668,0,0,0-.611,1.391,11.021,11.021,0,0,1-4.58-.96.907.907,0,0,0-.738,1.657,12.861,12.861,0,0,0,5.111,1.118,5.753,5.753,0,0,0,.528,2.13,5.649,5.649,0,0,0,5.179,3.313H43.329a5.649,5.649,0,0,0,5.179-3.313,5.754,5.754,0,0,0,.528-2.131A13.043,13.043,0,0,0,61.919,94.371ZM7.127,73.138a.169.169,0,0,1-.168-.168V71.744a.169.169,0,0,1,.168-.168H18.961a.169.169,0,0,1,.168.168v1.225a.169.169,0,0,1-.168.168Zm35.663-.168V71.744a.169.169,0,0,1,.168-.168H54.792a.169.169,0,0,1,.168.168v1.225a.169.169,0,0,1-.168.168H42.958A.169.169,0,0,1,42.79,72.969ZM7.275,99.955a8.019,8.019,0,0,1,.872-11.968,12.243,12.243,0,0,0,1.445-1.308.57.57,0,0,1,.415-.171h6.066a.57.57,0,0,1,.414.17,12.241,12.241,0,0,0,1.443,1.3,8,8,0,0,1,3.16,6.393,8.121,8.121,0,0,1-.084,1.149l-5.567,6.534a8,8,0,0,1-8.164-2.1Zm39.587,8.829a3.853,3.853,0,0,1-3.533,2.26H18.59a3.891,3.891,0,0,1-2.962-6.414l6.884-8.08.033-.04.009-.011h0a18.881,18.881,0,0,0,4.461-12.18V72.386H34.9V84.318A18.875,18.875,0,0,0,39.362,96.5l6.929,8.134a3.853,3.853,0,0,1,.571,4.155Zm1.967-3.183a5.676,5.676,0,0,0-.611-1.392,9.791,9.791,0,0,0,7.885-3.131.907.907,0,0,0-1.329-1.235,8.069,8.069,0,0,1-8.3,2.2l-5.56-6.526a8.022,8.022,0,0,1,3.064-7.534,12.243,12.243,0,0,0,1.445-1.308.57.57,0,0,1,.415-.171H51.9a.57.57,0,0,1,.414.17,12.256,12.256,0,0,0,1.443,1.3,8.064,8.064,0,0,1,2.7,9.078.907.907,0,0,0,1.711.6,9.878,9.878,0,0,0-3.311-11.121,10.429,10.429,0,0,1-1.229-1.107,2.391,2.391,0,0,0-1.731-.737H45.838a2.39,2.39,0,0,0-1.735.741,10.423,10.423,0,0,1-1.23,1.114,9.815,9.815,0,0,0-3.766,6.471,17.081,17.081,0,0,1-.977-1.912,11.306,11.306,0,0,1,3.908-5.646A9.574,9.574,0,0,0,45.71,77.9V74.952h6.329v3.038A9.442,9.442,0,0,0,55.7,85.451a11.229,11.229,0,0,1-6.868,20.15Z" transform="translate(0 -67.19)"/>
        <path id="Path_901272" data-name="Path 901272" d="M160.932,248.456l-6.884-8.08a20.118,20.118,0,0,1-4.424-9.195,1.572,1.572,0,0,0-1.541-1.27H144.96a1.572,1.572,0,0,0-1.541,1.27,20.116,20.116,0,0,1-4.424,9.195l-6.884,8.08a2.682,2.682,0,0,0,2.041,4.421h24.739A2.679,2.679,0,0,0,160.932,248.456Zm-1.254,2.1a.808.808,0,0,1-.788.5H134.152a.868.868,0,0,1-.66-1.43l6.884-8.08a21.937,21.937,0,0,0,4.784-9.827h2.723a21.935,21.935,0,0,0,4.784,9.827l6.884,8.08A.809.809,0,0,1,159.679,250.559Z" transform="translate(-115.562 -210.232)"/>
      </g>
    </g>
  </g>
</svg>
